<svg width="38" height="41" viewBox="0 0 38 41" fill="none" xmlns="http://www.w3.org/2000/svg">
<path d="M24.6306 24.8523L23.9094 25.6715C23.9094 25.6715 22.1953 27.6186 17.5166 22.3038C12.8379 16.9891 14.5519 15.042 14.5519 15.042L15.0061 14.5261C16.1248 13.2554 16.2303 11.2152 15.2542 9.72571L13.2577 6.67892C12.0496 4.83544 9.71527 4.59191 8.33063 6.16476L5.84543 8.98778C5.15886 9.76767 4.69878 10.7786 4.75457 11.9001C4.89731 14.7693 6.03362 20.9425 12.3743 28.1451C19.0983 35.7831 25.4074 36.0867 27.9875 35.812C28.8035 35.725 29.5132 35.2503 30.0851 34.6006L32.3344 32.0456C33.8526 30.321 33.4245 27.3644 31.4819 26.158L28.4569 24.2793C27.1814 23.4872 25.6275 23.7199 24.6306 24.8523Z" fill="#EB292C"/>
<path d="M20.994 3.2114C21.0988 2.51288 21.7108 2.03904 22.3582 2.15211C22.3983 2.1604 22.5273 2.1864 22.5948 2.20263C22.73 2.23511 22.9184 2.28507 23.1534 2.35893C23.6233 2.50659 24.2798 2.74988 25.0676 3.1396C26.6451 3.9199 28.7443 5.28486 30.9226 7.63518C33.101 9.98551 34.3661 12.2504 35.0892 13.9524C35.4505 14.8025 35.676 15.5108 35.8128 16.0178C35.8812 16.2713 35.9275 16.4747 35.9576 16.6204C35.9727 16.6933 35.9838 16.7518 35.9914 16.7951L36.0005 16.8484C36.1052 17.5468 35.6701 18.2346 35.0227 18.3477C34.3771 18.4604 33.769 17.9888 33.6616 17.2937C33.6583 17.2749 33.6491 17.2248 33.6395 17.1775C33.6198 17.0828 33.5861 16.9328 33.5326 16.7344C33.4254 16.3375 33.2394 15.7475 32.9303 15.0203C32.3131 13.5677 31.2032 11.5618 29.2432 9.44714C27.2833 7.33247 25.4242 6.13494 24.0779 5.46898C23.4039 5.13558 22.8571 4.9348 22.4892 4.81918C22.3053 4.76139 22.0742 4.70414 21.9865 4.68308C21.342 4.5672 20.8895 3.90792 20.994 3.2114Z" fill="#FF9900"/>
<path fill-rule="evenodd" clip-rule="evenodd" d="M21.3521 9.10423C21.5323 8.42383 22.1896 8.02986 22.8202 8.22425L22.494 9.45621C22.8202 8.22425 22.8202 8.22425 22.8202 8.22425L22.8226 8.22496L22.8249 8.22572L22.8302 8.22737L22.8425 8.23134L22.8739 8.24186C22.8976 8.25009 22.9275 8.26082 22.963 8.27444C23.0341 8.30167 23.1282 8.34038 23.2434 8.39368C23.4741 8.50035 23.7892 8.66506 24.1765 8.91228C24.9514 9.40715 26.0093 10.2292 27.2523 11.5702C28.4952 12.9112 29.2569 14.0526 29.7156 14.8888C29.9447 15.3065 30.0974 15.6466 30.1963 15.8955C30.2457 16.0198 30.2817 16.1212 30.3068 16.198C30.3195 16.2363 30.3293 16.2685 30.3371 16.2942L30.3467 16.3281L30.3504 16.3413L30.352 16.347L30.3526 16.3496C30.3526 16.3496 30.3534 16.3521 29.2115 16.7041L30.3534 16.3521C30.5336 17.0324 30.1683 17.7416 29.5378 17.936C28.9125 18.1287 28.261 17.7431 28.0743 17.0733L28.0685 17.0549C28.0601 17.0292 28.0427 16.9787 28.0134 16.9049C27.9548 16.7574 27.8485 16.5161 27.6718 16.1939C27.3188 15.5503 26.6812 14.5779 25.5728 13.3821C24.4646 12.1864 23.5633 11.4984 22.9668 11.1175C22.6682 10.9268 22.4446 10.8122 22.3078 10.749C22.2394 10.7174 22.1926 10.6985 22.1688 10.6894L22.1517 10.6831C21.531 10.4817 21.1735 9.77883 21.3521 9.10423Z" fill="#FF9900"/>
</svg>
