<svg width="14" height="14" viewBox="0 0 14 14" fill="none" xmlns="http://www.w3.org/2000/svg">
<path d="M7.79399 0C7.65617 0 7.54419 0.111985 7.54419 0.249986C7.54419 0.262806 7.54966 0.273929 7.55154 0.286372H7.54419V6.21328C7.54419 6.35128 7.65617 6.46326 7.79399 6.46326H13.7207V6.45591C13.7331 6.45779 13.7443 6.46326 13.7573 6.46326C13.8951 6.46326 14.0071 6.35128 14.0071 6.21328C13.9716 2.79717 11.2101 0.0356315 7.79399 0Z" fill="#222222"/>
<path d="M12.5623 7.65228C12.5623 7.51428 12.4505 7.40229 12.3125 7.40229H6.86426C6.72626 7.40229 6.61446 7.29031 6.61446 7.1523V1.72406H6.60711C6.60899 1.71161 6.61446 1.70049 6.61446 1.68767C6.61446 1.54948 6.50248 1.43768 6.36447 1.43768C6.35844 1.43768 6.35354 1.4407 6.34769 1.44108V1.43938C6.32545 1.43919 6.30339 1.43768 6.28115 1.43768C2.81225 1.43768 0 4.24994 0 7.71883C0 11.1877 2.81225 14 6.28115 14C9.75004 14 12.5623 11.1877 12.5623 7.71883C12.5623 7.69884 12.5613 7.67905 12.561 7.65888C12.561 7.65643 12.5623 7.65454 12.5623 7.65228Z" fill="white"/>
</svg>
