<svg width="67" height="67" viewBox="0 0 67 67" fill="none" xmlns="http://www.w3.org/2000/svg">
<path d="M0 67.0064V58.7514H18.1098V32.8025H18.1418V32.3225H18.1738V31.9066H18.2058V31.6506H18.2378V31.4266H18.2698V31.1707H18.3018V30.9787H18.3338V30.8187H18.3658V30.6267H18.3978V30.4347H18.4298V30.3068H18.4618V30.1468H18.4938V30.0188H18.5258V29.8908H18.5578V29.7308H18.5898V29.6028H18.6218V29.5069H18.6538V29.3789H18.6858V29.2829H18.7178V29.1549H18.7498V29.0589H18.7818V28.9309H18.8138V28.8349H18.8457V28.7389H18.8777V28.643H18.9097V28.579H18.9417V28.483H18.9737V28.387H19.0057V28.291H19.0377V28.195H19.0697V28.099H19.1017V28.035H19.1337V27.939H19.1657V27.875H19.1977V27.7791H19.2297V27.7151H19.2617V27.6191H19.2937V27.5551H19.3257V27.4591H19.3577V27.3951H19.3897V27.3311H19.4217V27.2671H19.4537V27.1711H19.4857V27.1071H19.5177V27.0432H19.5497V26.9792H19.5817V26.9152H19.6137V26.8192H19.6457V26.7872H19.6777V26.7232H19.7096V26.6592H19.7416V26.5952H19.7736V26.5312H19.8056V26.4672H19.8376V26.4032H19.8696V26.3392H19.9016V26.2752H19.9336V26.2113H19.9656V26.1473H19.9976V26.0833H20.0296V26.0513H20.0616V25.9873H20.0936V25.9233H20.1256V25.8593H20.1576V25.8273H20.1896V25.7633H20.2216V25.6993H20.2536V25.6353H20.2856V25.6033H20.3176V25.5393H20.3496V25.4753H20.3816V25.4433H20.4136V25.3793H20.4456V25.3474H20.4776V25.2834H20.5096V25.2514H20.5415V25.1874H20.5735V25.1554H20.6055V25.0914H20.6375V25.0274H20.6695V24.9954H20.7015V24.9314H20.7335V24.8994H20.7655V24.8354H20.7975V24.8034H20.8295V24.7714H20.8615V24.7074H20.8935V24.6754H20.9255V24.6114H20.9575V24.5794H20.9895V24.5474H21.0215V24.4835H21.0535V24.4515H21.0855V24.3875H21.1175V24.3555H21.1495V24.3235H21.1815V24.2595H21.2135V24.2275H21.2455V24.1955H21.2775V24.1315H21.3095V24.0995H21.3415V24.0675H21.3734V24.0355H21.4054V23.9715H21.4374V23.9395H21.4694V23.9075H21.5014V23.8755H21.5334V23.8115H21.5654V23.7795H21.5974V23.7475H21.6294V23.7155H21.6614V23.6516H21.6934V23.6196H21.7254V23.5876H21.7574V23.5556H21.7894V23.5236H21.8214V23.4916H21.8534V23.4276H21.8854V23.3956H21.9174V23.3636H21.9494V23.3316H21.9814V23.2996H22.0134V23.2676H22.0454V23.2356H22.0774V23.1716H22.1094V23.1396H22.1414V23.1076H22.1734V23.0756H22.2053V23.0436H22.2373V23.0116H22.2693V22.9796H22.3013V22.9476H22.3333V22.9156H22.3653V22.8836H22.3973V22.8517H22.4293V22.8197H22.4613V22.7877H22.4933V22.7557H22.5253V22.7237H22.5573V22.6917H22.5893V22.6597H22.6213V22.6277H22.6533V22.5957H22.6853V22.5637H22.7173V22.5317H22.7493V22.4997H22.7813V22.4677H22.8133V22.4357H22.8453V22.4037H22.8773V22.3717H22.9093V22.3397H22.9413V22.3077H22.9733V22.2757H23.0053V22.2437H23.0372V22.2117H23.0692V22.1797H23.1012V22.1477H23.1332V22.1157H23.1652V22.0837H23.2292V22.0517H23.2612V22.0197H23.2932V21.9878H23.3252V21.9558H23.3572V21.9238H23.3892V21.8918H23.4212V21.8598H23.4852V21.8278H23.5172V21.7958H23.5492V21.7638H23.5812V21.7318H23.6132V21.6998H23.6452V21.6678H23.7092V21.6358H23.7412V21.6038H23.7732V21.5718H23.8052V21.5398H23.8692V21.5078H23.9011V21.4758H23.9331V21.4438H23.9651V21.4118H24.0291V21.3798H24.0611V21.3478H24.0931V21.3158H24.1251V21.2838H24.1891V21.2518H24.2211V21.2198H24.2531V21.1879H24.3171V21.1559H24.3491V21.1239H24.3811V21.0919H24.4451V21.0599H24.4771V21.0279H24.5411V20.9959H24.5731V20.9639H24.6051V20.9319H24.6691V20.8999H24.701V20.8679H24.765V20.8359H24.797V20.8039H24.829V20.7719H24.893V20.7399H24.925V20.7079H24.989V20.6759H25.021V20.6439H25.085V20.6119H25.149V20.5799H25.181V20.5479H25.245V20.5159H25.277V20.4839H25.341V20.4519H25.373V20.4199H25.437V20.3879H25.469V20.3559H25.533V20.324H25.5969V20.292H25.6609V20.26H25.6929V20.228H25.7569V20.196H25.8209V20.164H25.8529V20.132H25.9169V20.1H25.9809V20.068H26.0449V20.036H26.0769V20.004H26.1409V19.972H26.2049V19.94H26.2689V19.908H26.3329V19.876H26.3968V19.844H26.4608V19.812H26.5248V19.78H26.5888V19.748H26.6528V19.716H26.7168V19.684H26.7808V19.652H26.8448V19.62H26.9088V19.588H26.9728V19.556H27.0368V19.524H27.1008V19.4921H27.1968V19.4601H27.2607V19.4281H27.3247V19.3961H27.3887V19.3641H27.4527V19.3321H27.5487V19.3001H27.6127V19.2681H27.7087V19.2361H27.7727V19.2041H27.8687V19.1721H27.9327V19.1401H28.0287V19.1081H28.0926V19.0761H28.1886V19.0441H28.2846V19.0121H28.3806V18.9801H28.4766V18.9481H28.5726V18.9161H28.6686V18.8841H28.7646V18.8521H28.8606V18.8201H28.9565V18.7881H29.0525V18.7561H29.1805V18.7241H29.2765V18.6921H29.4045V18.6602H29.5005V18.6282H29.6285V18.5962H29.7564V18.5642H29.8844V18.5322H30.0124V18.5002H30.1724V18.4682H30.3004V18.4362H30.4604V18.4042H30.6203V18.3722H30.8123V18.3402H30.9723V18.3082H31.1643V18.2762H31.4202V18.2442H31.6762V18.2122H31.9322V18.1802H32.3481V18.1482H32.8921V18.1162H33.5V26.3712H32.8921V26.4032H32.6361V26.4352H32.4121V26.4672H32.2202V26.4992H32.0282V26.5312H31.9002V26.5632H31.7722V26.5952H31.6442V26.6272H31.5482V26.6592H31.4202V26.6912H31.3243V26.7232H31.2283V26.7552H31.1323V26.7872H31.0683V26.8192H30.9723V26.8512H30.8763V26.8832H30.8123V26.9152H30.7163V26.9472H30.6523V26.9792H30.5883V27.0112H30.5244V27.0432H30.4604V27.0751H30.3964V27.1071H30.3324V27.1391H30.2364V27.1711H30.1724V27.2031H30.1084V27.2351H30.0764V27.2671H30.0124V27.2991H29.9484V27.3311H29.9164V27.3631H29.8524V27.3951H29.7884V27.4271H29.7564V27.4591H29.6925V27.4911H29.6605V27.5231H29.5965V27.5551H29.5325V27.5871H29.5005V27.6191H29.4365V27.6511H29.4045V27.6831H29.3725V27.7151H29.3085V27.7471H29.2765V27.7791H29.2445V27.8111H29.1805V27.8431H29.1485V27.875H29.1165V27.907H29.0525V27.939H29.0205V27.971H28.9885V28.003H28.9245V28.035H28.8925V28.067H28.8606V28.099H28.8286V28.131H28.7966V28.163H28.7646V28.195H28.7326V28.227H28.7006V28.259H28.6366V28.291H28.6046V28.323H28.5726V28.355H28.5406V28.387H28.5086V28.419H28.4766V28.451H28.4446V28.483H28.4126V28.515H28.3806V28.547H28.3486V28.579H28.3166V28.611H28.2846V28.643H28.2526V28.675H28.2206V28.7389H28.1886V28.7709H28.1566V28.8029H28.1246V28.8349H28.0926V28.8669H28.0606V28.8989H28.0287V28.9309H27.9967V28.9949H27.9647V29.0269H27.9327V29.0589H27.9007V29.1229H27.8687V29.1549H27.8367V29.1869H27.8047V29.2509H27.7727V29.2829H27.7407V29.3149H27.7087V29.3789H27.6767V29.4109H27.6447V29.4429H27.6127V29.5069H27.5807V29.5389H27.5487V29.6028H27.5167V29.6348H27.4847V29.6988H27.4527V29.7628H27.4207V29.7948H27.3887V29.8588H27.3567V29.9228H27.3247V29.9548H27.2927V30.0188H27.2607V30.0508H27.2287V30.1148H27.1968V30.1788H27.1648V30.2428H27.1328V30.3068H27.1008V30.3708H27.0688V30.4347H27.0368V30.4987H27.0048V30.5947H26.9728V30.6587H26.9408V30.7227H26.9088V30.7867H26.8768V30.8827H26.8448V30.9787H26.8128V31.0427H26.7808V31.1387H26.7488V31.2346H26.7168V31.2986H26.6848V31.3946H26.6528V31.5226H26.6208V31.6506H26.5888V31.7786H26.5568V31.9066H26.5248V32.0026H26.4928V32.1625H26.4608V32.3865H26.4288V32.5785H26.3968V32.8025H26.3649V33.2824H26.3329V67.0064H0ZM33.468 67.0064V58.7514H34.5239V58.7194H35.0678V58.6874H35.4838V58.6554H35.8997V58.6234H36.2197V58.5914H36.4756V58.5594H36.6996V58.5274H36.9556V58.4954H37.2116V58.4634H37.4035V58.4314H37.5955V58.3994H37.7555V58.3674H37.9475V58.3354H38.1074V58.3034H38.2994V58.2714H38.4914V58.2394H38.6194V58.2074H38.7794V58.1754H38.9074V58.1434H39.0353V58.1114H39.1953V58.0794H39.3233V58.0474H39.4513V58.0155H39.5793V57.9835H39.7393V57.9515H39.8352V57.9195H39.9632V57.8875H40.0592V57.8555H40.1872V57.8235H40.2832V57.7915H40.4112V57.7595H40.5072V57.7275H40.6351V57.6955H40.7311V57.6635H40.8591V57.6315H40.9551V57.5995H41.0511V57.5675H41.1471V57.5355H41.2431V57.5035H41.3391V57.4715H41.4351V57.4395H41.531V57.4075H41.627V57.3755H41.723V57.3435H41.819V57.3115H41.915V57.2795H42.011V57.2475H42.107V57.2155H42.171V57.1836H42.267V57.1516H42.3309V57.1196H42.4269V57.0876H42.4909V57.0556H42.5869V57.0236H42.6509V56.9916H42.7469V56.9596H42.8429V56.9276H42.9069V56.8956H43.0029V56.8636H43.0669V56.8316H43.1628V56.7996H43.2268V56.7676H43.3228V56.7356H43.3868V56.7036H43.4508V56.6716H43.5148V56.6396H43.5788V56.6076H43.6748V56.5756H43.7388V56.5436H43.8028V56.5116H43.8668V56.4796H43.9308V56.4476H44.0267V56.4156H44.0907V56.3836H44.1547V56.3517H44.2187V56.3197H44.2827V56.2877H44.3787V56.2557H44.4427V56.2237H44.5067V56.1917H44.5707V56.1597H44.6027V56.1277H44.6667V56.0957H44.7307V56.0637H44.7947V56.0317H44.8586V55.9997H44.9226V55.9677H44.9866V55.9357H45.0506V55.9037H45.1146V55.8717H45.1786V55.8397H45.2426V55.8077H45.3066V55.7757H45.3706V55.7437H45.4346V55.7117H45.4986V55.6797H45.5306V55.6477H45.5946V55.6157H45.6585V55.5837H45.7225V55.5517H45.7545V55.5197H45.8185V55.4878H45.8825V55.4558H45.9465V55.4238H45.9785V55.3918H46.0425V55.3598H46.1065V55.3278H46.1705V55.2958H46.2025V55.2638H46.2665V55.2318H46.3305V55.1998H46.3625V55.1678H46.4265V55.1358H46.4904V55.1038H46.5544V55.0718H46.5864V55.0398H46.6504V55.0078H46.6824V54.9758H46.7464V54.9438H46.7784V54.9118H46.8424V54.8798H46.9064V54.8478H46.9384V54.8158H47.0024V54.7838H47.0344V54.7518H47.0984V54.7198H47.1304V54.6878H47.1944V54.6559H47.2264V54.6239H47.2904V54.5919H47.3543V54.5599H47.3863V54.5279H47.4503V54.4959H47.4823V54.4639H47.5463V54.4319H47.5783V54.3999H47.6423V54.3679H47.6743V54.3359H47.7383V54.3039H47.7703V54.2719H47.8023V54.2399H47.8663V54.2079H47.8983V54.1759H47.9623V54.1439H47.9943V54.1119H48.0263V54.0799H48.0903V54.0479H48.1223V54.0159H48.1862V53.9839H48.2182V53.9519H48.2502V53.9199H48.3142V53.8879H48.3462V53.8559H48.4102V53.824H48.4422V53.792H48.4742V53.76H48.5382V53.728H48.5702V53.696H48.6022V53.664H48.6662V53.632H48.6982V53.6H48.7302V53.568H48.7942V53.536H48.8262V53.504H48.8582V53.472H48.8902V53.44H48.9542V53.408H48.9861V53.376H49.0181V53.344H49.0501V53.312H49.1141V53.28H49.1461V53.248H49.1781V53.216H49.2101V53.184H49.2741V53.152H49.3061V53.12H49.3381V53.088H49.4021V53.056H49.4341V53.024H49.4661V52.9921H49.4981V52.9601H49.5621V52.9281H49.5941V52.8961H49.6261V52.8641H49.6581V52.8321H49.6901V52.8001H49.7221V52.7681H49.7861V52.7361H49.8181V52.7041H49.85V52.6721H49.882V52.6401H49.914V52.6081H49.946V52.5761H49.978V52.5441H50.042V52.5121H50.074V52.4801H50.106V52.4481H50.138V52.4161H50.17V52.3841H50.202V52.3521H50.266V52.3201H50.298V52.2881H50.33V52.2561H50.362V52.2241H50.394V52.1921H50.426V52.1602H50.458V52.1282H50.49V52.0962H50.522V52.0642H50.586V52.0322H50.618V52.0002H50.65V51.9682H50.6819V51.9362H50.7139V51.9042H50.7459V51.8722H50.7779V51.8402H50.8099V51.8082H50.8419V51.7762H50.8739V51.7442H50.9059V51.7122H50.9379V51.6802H50.9699V51.6482H51.0019V51.6162H51.0339V51.5842H51.0979V51.5522H51.1299V51.5202H51.1619V51.4882H51.1939V51.4562H51.2259V51.4242H51.2579V51.3922H51.2899V51.3602H51.3219V51.3282H51.3539V51.2963H51.3859V51.2643H51.4179V51.2323H51.4499V51.2003H51.4819V51.1683H51.5138V51.1363H51.5458V51.1043H51.5778V51.0403H51.6098V51.0083H51.6418V50.9763H51.6738V50.9443H51.7058V50.9123H51.7378V50.8803H51.7698V50.8483H51.8018V50.8163H51.8338V50.7843H51.8658V50.7523H51.8978V50.7203H51.9298V50.6883H51.9618V50.6563H51.9938V50.6243H52.0258V50.5923H52.0578V50.5283H52.0898V50.4963H52.1218V50.4644H52.1538V50.4324H52.1858V50.4004H52.2178V50.3684H52.2498V50.3364H52.2818V50.3044H52.3138V50.2404H52.3457V50.2084H52.3777V50.1764H52.4097V50.1444H52.4417V50.1124H52.4737V50.0804H52.5057V50.0484H52.5377V49.9844H52.5697V49.9524H52.6017V49.9204H52.6337V49.8884H52.6657V49.8564H52.6977V49.8244H52.7297V49.7604H52.7617V49.7284H52.7937V49.6964H52.8257V49.6644H52.8577V49.6325H52.8897V49.6005H52.9217V49.5685H52.9537V49.5045H52.9857V49.4725H53.0177V49.4405H53.0497V49.4085H53.0817V49.3445H53.1137V49.3125H53.1457V49.2805H53.1777V49.2165H53.2096V49.1845H53.2416V49.1525H53.2736V49.1205H53.3056V49.0565H53.3376V49.0245H53.3696V48.9925H53.4016V48.9605H53.4336V48.8965H53.4656V48.8645H53.4976V48.8325H53.5296V48.7686H53.5616V48.7366H53.5936V48.7046H53.6256V48.6726H53.6576V48.6086H53.6896V48.5766H53.7216V48.5446H53.7536V48.4806H53.7856V48.4486H53.8176V48.4166H53.8496V48.3526H53.8816V48.3206H53.9136V48.2566H53.9456V48.2246H53.9776V48.1926H54.0096V48.1286H54.0415V48.0966H54.0735V48.0326H54.1055V48.0006H54.1375V47.9367H54.1695V47.9047H54.2015V47.8727H54.2335V47.8087H54.2655V47.7767H54.2975V47.7127H54.3295V47.6807H54.3615V47.6487H54.3935V47.5847H54.4255V47.5527H54.4575V47.4887H54.4895V47.4567H54.5215V47.3927H54.5535V47.3607H54.5855V47.2967H54.6175V47.2327H54.6495V47.2007H54.6815V47.1368H54.7135V47.1048H54.7455V47.0408H54.7775V47.0088H54.8095V46.9448H54.8414V46.9128H54.8734V46.8488H54.9054V46.7848H54.9374V46.7528H54.9694V46.6888H55.0014V46.6568H55.0334V46.5928H55.0654V46.5608H55.0974V46.4968H55.1294V46.4328H55.1614V46.3688H55.1934V46.3368H55.2254V46.2729H55.2574V46.2089H55.2894V46.1449H55.3214V46.1129H55.3534V46.0489H55.3854V45.9849H55.4174V45.9529H55.4494V45.8889H55.4814V45.8249H55.5134V45.7609H55.5454V45.7289H55.5774V45.6649H55.6094V45.6009H55.6414V45.5369H55.6734V45.5049H55.7053V45.441H55.7373V45.377H55.7693V45.313H55.8013V45.249H55.8333V45.185H55.8653V45.121H55.8973V45.057H55.9293V44.993H55.9613V44.929H55.9933V44.865H56.0253V44.801H56.0573V44.737H56.0893V44.673H56.1213V44.6091H56.1533V44.5451H56.1853V44.5131H56.2173V44.4491H56.2493V44.3531H56.2813V44.2891H56.3133V44.2251H56.3453V44.1611H56.3773V44.0971H56.4093V44.0011H56.4413V43.9371H56.4733V43.8731H56.5053V43.8091H56.5373V43.7452H56.5692V43.6492H56.6012V43.5852H56.6332V43.5212H56.6652V43.4572H56.6972V43.3932H56.7292V43.2972H56.7612V43.2332H56.7932V43.1372H56.8252V43.0732H56.8572V42.9772H56.8892V42.9133H56.9212V42.8173H56.9532V42.7533H56.9852V42.6573H57.0172V42.5933H57.0492V42.4973H57.0812V42.4333H57.1132V42.3373H57.1452V42.2733H57.1772V42.1773H57.2092V42.0814H57.2412V42.0174H57.2732V41.9214H57.3052V41.8254H57.3372V41.7294H57.3691V41.6334H57.4011V41.5374H57.4331V41.4414H57.4651V41.3454H57.4971V41.2495H57.5291V41.1535H57.5611V41.0575H57.5931V40.9615H57.6251V40.8655H57.6571V40.7375H57.6891V40.6415H57.7211V40.5135H57.7531V40.4176H57.7851V40.2896H57.8171V40.1936H57.8491V40.0656H57.8811V39.9696H57.9131V39.8416H57.9451V39.7136H57.9771V39.5857H58.0091V39.4577H58.0411V39.2977H58.0731V39.1697H58.1051V39.0417H58.1371V38.9137H58.1691V38.7538H58.201V38.6258H58.233V38.4658H58.265V38.2738H58.297V38.1138H58.329V37.9219H58.361V37.7619H58.393V37.5699H58.425V37.4099H58.457V37.1859H58.489V36.93H58.521V36.674H58.553V36.418H58.585V36.1941H58.617V35.8421H58.649V35.4261H58.681V35.0102H58.713V34.3703H58.745V18.1162H66.968V33.6984H67V33.9543H66.968V34.8822H66.936V35.4901H66.904V35.9381H66.872V36.354H66.84V36.77H66.808V37.09H66.776V37.3459H66.744V37.5699H66.712V37.8259H66.68V38.0818H66.648V38.3378H66.616V38.5938H66.5841V38.7538H66.5521V38.9457H66.5201V39.1377H66.4881V39.2977H66.4561V39.4897H66.4241V39.6496H66.3921V39.8416H66.3601V40.0016H66.3281V40.1936H66.2961V40.3536H66.2641V40.4815H66.2321V40.6095H66.2001V40.7695H66.1681V40.8975H66.1361V41.0255H66.1041V41.1535H66.0721V41.3134H66.0401V41.4414H66.0081V41.5694H65.9761V41.7294H65.9441V41.8574H65.9121V41.9854H65.8801V42.0814H65.8481V42.2093H65.8161V42.3053H65.7841V42.4333H65.7522V42.5293H65.7202V42.6573H65.6882V42.7533H65.6562V42.8813H65.6242V42.9772H65.5922V43.1052H65.5602V43.2012H65.5282V43.3292H65.4962V43.4252H65.4642V43.5212H65.4322V43.6172H65.4002V43.7132H65.3682V43.8091H65.3362V43.9051H65.3042V44.0011H65.2722V44.0971H65.2402V44.1931H65.2082V44.2891H65.1762V44.3851H65.1442V44.4811H65.1122V44.5771H65.0802V44.641H65.0482V44.737H65.0162V44.833H64.9842V44.929H64.9522V45.025H64.9202V45.121H64.8883V45.185H64.8563V45.281H64.8243V45.345H64.7923V45.441H64.7603V45.5049H64.7283V45.6009H64.6963V45.6649H64.6643V45.7609H64.6323V45.8249H64.6003V45.9209H64.5683V45.9849H64.5363V46.0809H64.5043V46.1449H64.4723V46.2409H64.4403V46.3368H64.4083V46.4008H64.3763V46.4968H64.3443V46.5608H64.3123V46.6248H64.2803V46.6888H64.2483V46.7848H64.2163V46.8488H64.1843V46.9128H64.1523V46.9768H64.1203V47.0408H64.0883V47.1368H64.0564V47.2007H64.0244V47.2647H63.9924V47.3287H63.9604V47.3927H63.9284V47.4887H63.8964V47.5527H63.8644V47.6167H63.8324V47.6807H63.8004V47.7447H63.7684V47.8407H63.7364V47.9047H63.7044V47.9687H63.6724V48.0326H63.6404V48.0966H63.6084V48.1606H63.5764V48.2246H63.5444V48.2886H63.5124V48.3526H63.4804V48.4166H63.4484V48.4806H63.4164V48.5446H63.3844V48.6086H63.3524V48.6726H63.3204V48.7366H63.2884V48.7686H63.2564V48.8325H63.2244V48.8965H63.1925V48.9605H63.1605V49.0245H63.1285V49.0885H63.0965V49.1525H63.0645V49.2165H63.0325V49.2805H63.0005V49.3445H62.9685V49.4085H62.9365V49.4725H62.9045V49.5365H62.8725V49.5685H62.8405V49.6325H62.8085V49.6964H62.7765V49.7284H62.7445V49.7924H62.7125V49.8564H62.6805V49.9204H62.6485V49.9524H62.6165V50.0164H62.5845V50.0804H62.5525V50.1444H62.5205V50.1764H62.4885V50.2404H62.4565V50.3044H62.4245V50.3684H62.3926V50.4004H62.3606V50.4644H62.3286V50.5283H62.2966V50.5603H62.2646V50.6243H62.2326V50.6883H62.2006V50.7523H62.1686V50.7843H62.1366V50.8483H62.1046V50.9123H62.0726V50.9443H62.0406V51.0083H62.0086V51.0403H61.9766V51.1043H61.9446V51.1363H61.9126V51.2003H61.8806V51.2643H61.8486V51.2963H61.8166V51.3602H61.7846V51.3922H61.7526V51.4562H61.7206V51.4882H61.6886V51.5522H61.6566V51.6162H61.6246V51.6482H61.5926V51.7122H61.5606V51.7442H61.5287V51.8082H61.4967V51.8402H61.4647V51.9042H61.4327V51.9362H61.4007V52.0002H61.3687V52.0642H61.3367V52.0962H61.3047V52.1602H61.2727V52.1921H61.2407V52.2561H61.2087V52.2881H61.1767V52.3201H61.1447V52.3841H61.1127V52.4161H61.0807V52.4801H61.0487V52.5121H61.0167V52.5441H60.9847V52.6081H60.9527V52.6401H60.9207V52.7041H60.8887V52.7361H60.8567V52.7681H60.8247V52.8321H60.7927V52.8641H60.7607V52.9281H60.7287V52.9601H60.6968V52.9921H60.6648V53.056H60.6328V53.088H60.6008V53.152H60.5688V53.184H60.5368V53.248H60.5048V53.28H60.4728V53.312H60.4408V53.376H60.4088V53.408H60.3768V53.472H60.3448V53.504H60.3128V53.536H60.2808V53.6H60.2488V53.632H60.2168V53.664H60.1848V53.696H60.1528V53.76H60.1208V53.792H60.0888V53.824H60.0568V53.8559H60.0248V53.9199H59.9928V53.9519H59.9608V53.9839H59.9288V54.0479H59.8968V54.0799H59.8649V54.1119H59.8329V54.1439H59.8009V54.2079H59.7689V54.2399H59.7369V54.2719H59.7049V54.3039H59.6729V54.3679H59.6409V54.3999H59.6089V54.4319H59.5769V54.4959H59.5449V54.5279H59.5129V54.5599H59.4809V54.5919H59.4489V54.6559H59.4169V54.6878H59.3849V54.7198H59.3529V54.7518H59.3209V54.8158H59.2889V54.8478H59.2569V54.8798H59.2249V54.9118H59.1929V54.9438H59.1609V54.9758H59.1289V55.0398H59.0969V55.0718H59.0649V55.1038H59.033V55.1358H59.001V55.1678H58.969V55.1998H58.937V55.2318H58.905V55.2958H58.873V55.3278H58.841V55.3598H58.809V55.3918H58.777V55.4238H58.745V55.4558H58.713V55.5197H58.681V55.5517H58.649V55.5837H58.617V55.6157H58.585V55.6477H58.553V55.6797H58.521V55.7117H58.489V55.7757H58.457V55.8077H58.425V55.8397H58.393V55.8717H58.361V55.9037H58.329V55.9357H58.297V55.9997H58.265V56.0317H58.233V56.0637H58.201V56.0957H58.1691V56.1277H58.1371V56.1597H58.1051V56.1917H58.0731V56.2237H58.0411V56.2557H58.0091V56.2877H57.9771V56.3197H57.9451V56.3517H57.9131V56.3836H57.8811V56.4156H57.8491V56.4476H57.8171V56.5116H57.7851V56.5436H57.7531V56.5756H57.7211V56.6076H57.6891V56.6396H57.6571V56.6716H57.6251V56.7036H57.5931V56.7356H57.5611V56.7676H57.5291V56.7996H57.4971V56.8316H57.4651V56.8636H57.4331V56.8956H57.4011V56.9276H57.3691V56.9596H57.3372V56.9916H57.3052V57.0236H57.2732V57.0556H57.2412V57.0876H57.2092V57.1196H57.1772V57.1516H57.1452V57.1836H57.1132V57.2155H57.0812V57.2475H57.0492V57.2795H57.0172V57.3115H56.9852V57.3435H56.9532V57.3755H56.9212V57.4075H56.8892V57.4395H56.8572V57.4715H56.8252V57.5035H56.7932V57.5355H56.7612V57.5675H56.7292V57.5995H56.6972V57.6315H56.6652V57.6635H56.6332V57.6955H56.6012V57.7275H56.5692V57.7595H56.5373V57.7915H56.5053V57.8235H56.4413V57.8555H56.4093V57.8875H56.3773V57.9195H56.3453V57.9515H56.3133V57.9835H56.2813V58.0155H56.2493V58.0474H56.2173V58.0794H56.1853V58.1114H56.1533V58.1434H56.1213V58.1754H56.0893V58.2074H56.0573V58.2394H56.0253V58.2714H55.9933V58.3034H55.9293V58.3354H55.8973V58.3674H55.8653V58.3994H55.8333V58.4314H55.8013V58.4634H55.7693V58.4954H55.7053V58.5274H55.6734V58.5594H55.6414V58.5914H55.6094V58.6234H55.5774V58.6554H55.5454V58.6874H55.5134V58.7194H55.4494V58.7514H55.4174V58.7834H55.3854V58.8154H55.3534V58.8474H55.3214V58.8793H55.2894V58.9113H55.2254V58.9433H55.1934V58.9753H55.1614V59.0073H55.1294V59.0393H55.0974V59.0713H55.0654V59.1033H55.0334V59.1353H54.9694V59.1673H54.9374V59.1993H54.9054V59.2313H54.8734V59.2633H54.8414V59.2953H54.8095V59.3273H54.7455V59.3593H54.7135V59.3913H54.6815V59.4233H54.6495V59.4553H54.5855V59.4873H54.5535V59.5193H54.5215V59.5513H54.4895V59.5833H54.4255V59.6153H54.3935V59.6473H54.3615V59.6793H54.2975V59.7112H54.2655V59.7432H54.2335V59.7752H54.2015V59.8072H54.1375V59.8392H54.1055V59.8712H54.0735V59.9032H54.0415V59.9352H53.9776V59.9672H53.9456V59.9992H53.9136V60.0312H53.8496V60.0632H53.8176V60.0952H53.7856V60.1272H53.7536V60.1592H53.6896V60.1912H53.6576V60.2232H53.6256V60.2552H53.5936V60.2872H53.5296V60.3192H53.4976V60.3512H53.4656V60.3832H53.4016V60.4152H53.3696V60.4472H53.3056V60.4792H53.2736V60.5112H53.2416V60.5431H53.1777V60.5751H53.1457V60.6071H53.0817V60.6391H53.0497V60.6711H53.0177V60.7031H52.9537V60.7351H52.9217V60.7671H52.8577V60.7991H52.8257V60.8311H52.7617V60.8631H52.7297V60.8951H52.6977V60.9271H52.6337V60.9591H52.6017V60.9911H52.5377V61.0231H52.5057V61.0551H52.4737V61.0871H52.4097V61.1191H52.3777V61.1511H52.3138V61.1831H52.2818V61.2151H52.2498V61.2471H52.1858V61.2791H52.1538V61.3111H52.0898V61.3431H52.0578V61.3751H51.9938V61.407H51.9298V61.439H51.8978V61.471H51.8338V61.503H51.8018V61.535H51.7378V61.567H51.7058V61.599H51.6418V61.631H51.6098V61.663H51.5458V61.695H51.4819V61.727H51.4499V61.759H51.3859V61.791H51.3539V61.823H51.2899V61.855H51.2579V61.887H51.1939V61.919H51.1619V61.951H51.0979V61.983H51.0339V62.015H51.0019V62.047H50.9379V62.079H50.9059V62.111H50.8419V62.143H50.8099V62.175H50.7459V62.207H50.6819V62.2389H50.618V62.2709H50.586V62.3029H50.522V62.3349H50.458V62.3669H50.394V62.3989H50.362V62.4309H50.298V62.4629H50.234V62.4949H50.17V62.5269H50.138V62.5589H50.074V62.5909H50.01V62.6229H49.946V62.6549H49.914V62.6869H49.85V62.7189H49.7861V62.7509H49.7541V62.7829H49.6901V62.8149H49.6261V62.8469H49.5621V62.8789H49.5301V62.9109H49.4661V62.9429H49.4021V62.9749H49.3381V63.0069H49.2741V63.0389H49.2101V63.0708H49.1461V63.1028H49.0821V63.1348H49.0181V63.1668H48.9542V63.1988H48.8902V63.2308H48.8582V63.2628H48.7942V63.2948H48.7302V63.3268H48.6662V63.3588H48.6022V63.3908H48.5382V63.4228H48.4742V63.4548H48.4102V63.4868H48.3462V63.5188H48.2822V63.5508H48.2182V63.5828H48.1543V63.6148H48.0903V63.6468H48.0263V63.6788H47.9623V63.7108H47.8983V63.7428H47.8343V63.7748H47.7703V63.8068H47.6743V63.8388H47.6103V63.8708H47.5463V63.9027H47.4823V63.9347H47.4183V63.9667H47.3223V63.9987H47.2584V64.0307H47.1944V64.0627H47.1304V64.0947H47.0664V64.1267H46.9704V64.1587H46.9064V64.1907H46.8424V64.2227H46.7784V64.2547H46.7144V64.2867H46.6184V64.3187H46.5544V64.3507H46.4904V64.3827H46.3945V64.4147H46.3305V64.4467H46.2345V64.4787H46.1705V64.5107H46.0745V64.5427H46.0105V64.5747H45.9145V64.6067H45.8505V64.6387H45.7545V64.6707H45.6905V64.7027H45.5946V64.7346H45.5306V64.7666H45.4346V64.7986H45.3386V64.8306H45.2746V64.8626H45.1786V64.8946H45.1146V64.9266H45.0186V64.9586H44.9546V64.9906H44.8586V65.0226H44.7627V65.0546H44.6667V65.0866H44.5707V65.1186H44.4747V65.1506H44.3787V65.1826H44.2827V65.2146H44.1867V65.2466H44.0907V65.2786H43.9947V65.3106H43.8988V65.3426H43.8028V65.3746H43.7068V65.4066H43.6108V65.4386H43.5468V65.4706H43.4508V65.5026H43.3228V65.5346H43.2268V65.5666H43.0989V65.5985H43.0029V65.6305H42.8749V65.6625H42.7789V65.6945H42.6509V65.7265H42.5549V65.7585H42.4269V65.7905H42.3309V65.8225H42.203V65.8545H42.107V65.8865H41.979V65.9185H41.883V65.9505H41.723V65.9825H41.595V66.0145H41.467V66.0465H41.3391V66.0785H41.1791V66.1105H41.0511V66.1425H40.9231V66.1745H40.7631V66.2065H40.6351V66.2385H40.5072V66.2705H40.3472V66.3025H40.2192V66.3345H40.0272V66.3665H39.8672V66.3985H39.6753V66.4304H39.5153V66.4624H39.3233V66.4944H39.1633V66.5264H38.9713V66.5584H38.8114V66.5904H38.6194V66.6224H38.3954V66.6544H38.1394V66.6864H37.8835V66.7184H37.6275V66.7504H37.3715V66.7824H37.1476V66.8144H36.8596V66.8464H36.4436V66.8784H36.0277V66.9104H35.6117V66.9424H35.1638V66.9744H34.2039V67.0064H33.468ZM0 48.8645V32.2905H0.0319962V31.5866H0.0639924V31.1707H0.0959885V30.7547H0.127985V30.3388H0.159981V29.9868H0.191977V29.7308H0.223973V29.4749H0.255969V29.2189H0.287966V28.9629H0.319962V28.7389H0.351958V28.483H0.383954V28.291H0.41595V28.099H0.447947V27.907H0.479943V27.7471H0.511939V27.5551H0.543935V27.3951H0.575931V27.2031H0.607927V27.0432H0.639924V26.8512H0.67192V26.6912H0.703916V26.5632H0.735912V26.4032H0.767908V26.2752H0.799904V26.1473H0.831901V26.0193H0.863897V25.8593H0.895893V25.7313H0.927889V25.6033H0.959885V25.4433H0.991882V25.3154H1.02388V25.1874H1.05587V25.0594H1.08787V24.9314H1.11987V24.8354H1.15186V24.7074H1.18386V24.6114H1.21585V24.4835H1.24785V24.3875H1.27985V24.2595H1.31184V24.1635H1.34384V24.0355H1.37584V23.9395H1.40783V23.8115H1.43983V23.7155H1.47182V23.5876H1.50382V23.4916H1.53582V23.3956H1.56781V23.2996H1.59981V23.2036H1.63181V23.1076H1.6638V23.0436H1.6958V22.9476H1.72779V22.8517H1.75979V22.7557H1.79179V22.6597H1.82378V22.5637H1.85578V22.4677H1.88777V22.3717H1.91977V22.2757H1.95177V22.1797H1.98376V22.0837H2.01576V21.9878H2.04776V21.9238H2.07975V21.8278H2.11175V21.7638H2.14374V21.6678H2.17574V21.6038H2.20774V21.5078H2.23973V21.4438H2.27173V21.3478H2.30373V21.2518H2.33572V21.1879H2.36772V21.0919H2.39971V21.0279H2.43171V20.9319H2.46371V20.8679H2.4957V20.7719H2.5277V20.7079H2.55969V20.6119H2.59169V20.5479H2.62369V20.4519H2.65568V20.3879H2.68768V20.324H2.71968V20.26H2.75167V20.164H2.78367V20.1H2.81566V20.036H2.84766V19.972H2.87966V19.908H2.91165V19.812H2.94365V19.748H2.97564V19.684H3.00764V19.62H3.03964V19.556H3.07163V19.4601H3.10363V19.3961H3.13563V19.3321H3.16762V19.2681H3.19962V19.2041H3.23161V19.1081H3.26361V19.0441H3.29561V18.9801H3.3276V18.9161H3.3596V18.8521H3.3916V18.7881H3.42359V18.7241H3.45559V18.6602H3.48758V18.5962H3.51958V18.5322H3.55158V18.5002H3.58357V18.4362H3.61557V18.3722H3.64756V18.3082H3.67956V18.2442H3.71156V18.1802H3.74355V18.1162H3.77555V18.0522H3.80755V17.9882H3.83954V17.9242H3.87154V17.8602H3.90353V17.7963H3.93553V17.7323H3.96753V17.6683H3.99952V17.6043H4.03152V17.5403H4.06351V17.5083H4.09551V17.4443H4.12751V17.3803H4.1595V17.3163H4.1915V17.2843H4.2235V17.2203H4.25549V17.1563H4.28749V17.0923H4.31948V17.0603H4.35148V16.9963H4.38348V16.9324H4.41547V16.9004H4.44747V16.8364H4.47947V16.7724H4.51146V16.7084H4.54346V16.6764H4.57545V16.6124H4.60745V16.5484H4.63945V16.4844H4.67144V16.4524H4.70344V16.3884H4.73543V16.3244H4.76743V16.2604H4.79943V16.2284H4.83142V16.1644H4.86342V16.1005H4.89542V16.0685H4.92741V16.0045H4.95941V15.9725H4.9914V15.9085H5.0234V15.8765H5.0554V15.8125H5.08739V15.7485H5.11939V15.7165H5.15138V15.6525H5.18338V15.6205H5.21538V15.5565H5.24737V15.5245H5.27937V15.4605H5.31137V15.4285H5.34336V15.3645H5.37536V15.3006H5.40735V15.2686H5.43935V15.2046H5.47135V15.1726H5.50334V15.1086H5.53534V15.0766H5.56734V15.0126H5.59933V14.9806H5.63133V14.9166H5.66332V14.8526H5.69532V14.8206H5.72732V14.7566H5.75931V14.7246H5.79131V14.6926H5.8233V14.6286H5.8553V14.5966H5.8873V14.5326H5.91929V14.5006H5.95129V14.4687H5.98329V14.4047H6.01528V14.3727H6.04728V14.3087H6.07927V14.2767H6.11127V14.2447H6.14327V14.1807H6.17526V14.1487H6.20726V14.0847H6.23925V14.0527H6.27125V14.0207H6.30325V13.9567H6.33524V13.9247H6.36724V13.8607H6.39924V13.8287H6.43123V13.7967H6.46323V13.7327H6.49522V13.7007H6.52722V13.6367H6.55922V13.6048H6.59121V13.5728H6.62321V13.5088H6.65521V13.4768H6.6872V13.4128H6.7192V13.3808H6.75119V13.3488H6.78319V13.3168H6.81519V13.2528H6.84718V13.2208H6.87918V13.1888H6.91117V13.1568H6.94317V13.0928H6.97517V13.0608H7.00716V13.0288H7.03916V12.9968H7.07116V12.9328H7.10315V12.9008H7.13515V12.8688H7.16714V12.8049H7.19914V12.7729H7.23114V12.7409H7.26313V12.7089H7.29513V12.6449H7.32713V12.6129H7.35912V12.5809H7.39112V12.5489H7.42311V12.4849H7.45511V12.4529H7.48711V12.4209H7.5191V12.3569H7.5511V12.3249H7.58309V12.2929H7.61509V12.2609H7.64709V12.1969H7.67908V12.1649H7.71108V12.1329H7.74308V12.1009H7.77507V12.0689H7.80707V12.0369H7.83906V11.9729H7.87106V11.941H7.90306V11.909H7.93505V11.877H7.96705V11.845H7.99904V11.813H8.03104V11.781H8.06304V11.717H8.09503V11.685H8.12703V11.653H8.15903V11.621H8.19102V11.589H8.22302V11.557H8.25501V11.493H8.28701V11.461H8.31901V11.429H8.351V11.397H8.383V11.365H8.415V11.333H8.44699V11.301H8.47899V11.237H8.51098V11.205H8.54298V11.173H8.57498V11.141H8.60697V11.1091H8.63897V11.0771H8.67096V11.0131H8.70296V10.9811H8.73496V10.9491H8.76695V10.9171H8.79895V10.8851H8.83095V10.8531H8.86294V10.8211H8.89494V10.7891H8.92693V10.7571H8.95893V10.7251H8.99093V10.6931H9.02292V10.6611H9.05492V10.6291H9.08692V10.5971H9.11891V10.5651H9.15091V10.5011H9.1829V10.4691H9.2149V10.4371H9.2469V10.4051H9.27889V10.3731H9.31089V10.3411H9.34288V10.3091H9.37488V10.2772H9.40688V10.2452H9.43887V10.2132H9.47087V10.1812H9.50286V10.1492H9.53486V10.1172H9.56686V10.0852H9.59885V10.0532H9.63085V10.0212H9.66285V9.98919H9.69484V9.95719H9.72684V9.92519H9.75883V9.8932H9.79083V9.8612H9.82283V9.8292H9.85482V9.79721H9.88682V9.76521H9.91882V9.73322H9.95081V9.70122H9.98281V9.66922H10.0148V9.63723H10.0468V9.60523H10.0788V9.57323H10.1108V9.54124H10.1428V9.50924H10.1748V9.47725H10.2068V9.44525H10.2388V9.41325H10.2708V9.38126H10.3028V9.34926H10.3348V9.31727H10.3668V9.28527H10.3988V9.25327H10.4308V9.22128H10.4628V9.18928H10.4947V9.15729H10.5587V9.12529H10.5907V9.09329H10.6227V9.0613H10.6547V9.0293H10.6867V8.99731H10.7187V8.96531H10.7507V8.93331H10.7827V8.90132H10.8147V8.86932H10.8467V8.83732H10.8787V8.80533H10.9107V8.77333H10.9427V8.74134H10.9747V8.70934H11.0387V8.67734H11.0707V8.64535H11.1027V8.61335H11.1347V8.58136H11.1667V8.54936H11.1987V8.51736H11.2307V8.48537H11.2947V8.45337H11.3266V8.42138H11.3586V8.38938H11.3906V8.35738H11.4226V8.32539H11.4546V8.29339H11.5186V8.26139H11.5506V8.2294H11.5826V8.1974H11.6146V8.16541H11.6466V8.13341H11.6786V8.10141H11.7106V8.06942H11.7746V8.03742H11.8066V8.00542H11.8386V7.97343H11.8706V7.94143H11.9026V7.90944H11.9346V7.87744H11.9986V7.84544H12.0306V7.81345H12.0626V7.78145H12.0946V7.74945H12.1266V7.71746H12.1585V7.68546H12.1905V7.65347H12.2545V7.62147H12.2865V7.58947H12.3185V7.55748H12.3825V7.52548H12.4145V7.49348H12.4465V7.46149H12.4785V7.42949H12.5425V7.3975H12.5745V7.3655H12.6065V7.3335H12.6385V7.30151H12.7025V7.26951H12.7345V7.23751H12.7665V7.20552H12.8305V7.17352H12.8625V7.14153H12.8945V7.10953H12.9265V7.07753H12.9904V7.04554H13.0224V7.01354H13.0544V6.98154H13.0864V6.94955H13.1504V6.91755H13.1824V6.88556H13.2144V6.85356H13.2784V6.82156H13.3104V6.78957H13.3424V6.75757H13.3744V6.72557H13.4384V6.69358H13.4704V6.66158H13.5024V6.62959H13.5664V6.59759H13.5984V6.56559H13.6304V6.5336H13.6944V6.5016H13.7264V6.46961H13.7904V6.43761H13.8223V6.40561H13.8863V6.37362H13.9183V6.34162H13.9503V6.30963H14.0143V6.27763H14.0463V6.24563H14.1103V6.21364H14.1423V6.18164H14.1743V6.14965H14.2383V6.11765H14.2703V6.08565H14.3343V6.05366H14.3663V6.02166H14.3983V5.98967H14.4623V5.95767H14.4943V5.92567H14.5583V5.89368H14.5903V5.86168H14.6223V5.82968H14.6862V5.79769H14.7182V5.76569H14.7822V5.7337H14.8142V5.7017H14.8782V5.6697H14.9102V5.63771H14.9742V5.60571H15.0062V5.57372H15.0702V5.54172H15.1022V5.50972H15.1662V5.47773H15.2302V5.44573H15.2622V5.41373H15.3262V5.38174H15.3582V5.34974H15.4222V5.31775H15.4542V5.28575H15.5181V5.25375H15.5501V5.22176H15.6141V5.18976H15.6781V5.15776H15.7101V5.12577H15.7741V5.09377H15.8061V5.06178H15.8701V5.02978H15.9021V4.99778H15.9661V4.96579H15.9981V4.93379H16.0621V4.90179H16.1261V4.8698H16.1581V4.8378H16.2221V4.80581H16.2861V4.77381H16.3181V4.74181H16.382V4.70982H16.446V4.67782H16.51V4.64582H16.542V4.61383H16.606V4.58183H16.67V4.54984H16.734V4.51784H16.766V4.48584H16.83V4.45385H16.894V4.42185H16.926V4.38985H16.99V4.35786H17.054V4.32586H17.118V4.29387H17.15V4.26187H17.2139V4.22987H17.2779V4.19788H17.3419V4.16588H17.3739V4.13388H17.4379V4.10189H17.5019V4.06989H17.5659V4.0379H17.6299V4.0059H17.6619V3.9739H17.7259V3.94191H17.7899V3.90991H17.8539V3.87791H17.9179V3.84592H17.9819V3.81392H18.0458V3.78193H18.1098V3.74993H18.1738V3.71793H18.2378V3.68594H18.3018V3.65394H18.3658V3.62195H18.4298V3.58995H18.4938V3.55795H18.5578V3.52596H18.6218V3.49396H18.6858V3.46197H18.7498V3.42997H18.8138V3.39797H18.8457V3.36598H18.9097V3.33398H18.9737V3.30199H19.0697V3.26999H19.1337V3.23799H19.1977V3.206H19.2617V3.174H19.3257V3.14201H19.4217V3.11001H19.4857V3.07801H19.5497V3.04602H19.6137V3.01402H19.6777V2.98203H19.7736V2.95003H19.8376V2.91803H19.9016V2.88603H19.9656V2.85404H20.0296V2.82204H20.1256V2.79005H20.1896V2.75805H20.2536V2.72605H20.3176V2.69406H20.3816V2.66206H20.4776V2.63007H20.5415V2.59807H20.6375V2.56607H20.7015V2.53408H20.7975V2.50208H20.8615V2.47009H20.9575V2.43809H21.0215V2.40609H21.1175V2.37409H21.1815V2.3421H21.2775V2.3101H21.3415V2.27811H21.4374V2.24611H21.5014V2.21411H21.5974V2.18212H21.6614V2.15012H21.7574V2.11813H21.8534V2.08613H21.9174V2.05413H22.0134V2.02214H22.1094V1.99014H22.2053V1.95815H22.2693V1.92615H22.3653V1.89415H22.4613V1.86216H22.5573V1.83016H22.6533V1.79816H22.7493V1.76617H22.8453V1.73417H22.9413V1.70218H23.0372V1.67018H23.1332V1.63818H23.2292V1.60619H23.3252V1.57419H23.4212V1.5422H23.5172V1.5102H23.6132V1.4782H23.7412V1.44621H23.8372V1.41421H23.9651V1.38222H24.0611V1.35022H24.1891V1.31822H24.2851V1.28622H24.4131V1.25423H24.5091V1.22224H24.6371V1.19024H24.733V1.15824H24.861V1.12624H24.957V1.09425H25.085V1.06226H25.181V1.03026H25.341V0.99826H25.469V0.966263H25.5969V0.934265H25.7569V0.902275H25.8849V0.870277H26.0129V0.83828H26.1729V0.806282H26.3009V0.774284H26.4288V0.742294H26.5568V0.710297H26.7168V0.678299H26.8768V0.646301H27.0688V0.614304H27.2287V0.582314H27.4207V0.550316H27.5807V0.518318H27.7727V0.48632H27.9327V0.454323H28.1246V0.422325H28.3166V0.390335H28.5086V0.358337H28.7646V0.32634H29.0205V0.294342H29.2765V0.262344H29.5325V0.230354H29.7564V0.198357H30.0124V0.166359H30.3964V0.134361H30.8123V0.102364H31.2283V0.0703735H31.6442V0.0383759H32.4761V0.00637817H33.5V8.2294H32.9881V8.26139H32.1562V8.29339H31.7082V8.32539H31.2923V8.35738H30.9083V8.38938H30.6523V8.42138H30.3964V8.45337H30.1724V8.48537H29.9164V8.51736H29.6605V8.54936H29.5005V8.58136H29.3085V8.61335H29.1165V8.64535H28.9565V8.67734H28.7646V8.70934H28.6046V8.74134H28.4126V8.77333H28.2846V8.80533H28.1566V8.83732H27.9967V8.86932H27.8687V8.90132H27.7407V8.93331H27.6127V8.96531H27.4527V8.99731H27.3247V9.0293H27.1968V9.0613H27.0688V9.09329H26.9728V9.12529H26.8448V9.15729H26.7488V9.18928H26.6208V9.22128H26.5248V9.25327H26.3968V9.28527H26.3009V9.31727H26.1729V9.34926H26.0769V9.38126H25.9809V9.41325H25.8849V9.44525H25.7889V9.47725H25.6929V9.50924H25.5969V9.54124H25.501V9.57323H25.405V9.60523H25.309V9.63723H25.213V9.66922H25.117V9.70122H25.021V9.73322H24.925V9.76521H24.829V9.79721H24.765V9.8292H24.6691V9.8612H24.6051V9.8932H24.5091V9.92519H24.4451V9.95719H24.3491V9.98919H24.2851V10.0212H24.1891V10.0532H24.1251V10.0852H24.0291V10.1172H23.9651V10.1492H23.8692V10.1812H23.8052V10.2132H23.7092V10.2452H23.6452V10.2772H23.5812V10.3091H23.4852V10.3411H23.4212V10.3731H23.3572V10.4051H23.2932V10.4371H23.2292V10.4691H23.1332V10.5011H23.0692V10.5331H23.0053V10.5651H22.9413V10.5971H22.8773V10.6291H22.7813V10.6611H22.7173V10.6931H22.6533V10.7251H22.5893V10.7571H22.5253V10.7891H22.4613V10.8211H22.3973V10.8531H22.3333V10.8851H22.2693V10.9171H22.2053V10.9491H22.1414V10.9811H22.0774V11.0131H22.0134V11.0451H21.9494V11.0771H21.8854V11.1091H21.8214V11.141H21.7894V11.173H21.7254V11.205H21.6614V11.237H21.5974V11.269H21.5334V11.301H21.4694V11.333H21.4054V11.365H21.3415V11.397H21.3095V11.429H21.2455V11.461H21.1815V11.493H21.1175V11.525H21.0855V11.557H21.0215V11.589H20.9575V11.621H20.9255V11.653H20.8615V11.685H20.7975V11.717H20.7335V11.749H20.7015V11.781H20.6375V11.813H20.5735V11.845H20.5096V11.877H20.4776V11.909H20.4136V11.941H20.3496V11.9729H20.3176V12.0049H20.2536V12.0369H20.2216V12.0689H20.1576V12.1009H20.1256V12.1329H20.0616V12.1649H20.0296V12.1969H19.9656V12.2289H19.9016V12.2609H19.8696V12.2929H19.8056V12.3249H19.7736V12.3569H19.7096V12.3889H19.6777V12.4209H19.6137V12.4529H19.5817V12.4849H19.5177V12.5169H19.4537V12.5489H19.4217V12.5809H19.3577V12.6129H19.3257V12.6449H19.2937V12.6769H19.2297V12.7089H19.1977V12.7409H19.1337V12.7729H19.1017V12.8049H19.0697V12.8368H19.0057V12.8688H18.9737V12.9008H18.9097V12.9328H18.8777V12.9648H18.8457V12.9968H18.7818V13.0288H18.7498V13.0608H18.6858V13.0928H18.6538V13.1248H18.6218V13.1568H18.5578V13.1888H18.5258V13.2208H18.4618V13.2528H18.4298V13.2848H18.3978V13.3168H18.3338V13.3488H18.3018V13.3808H18.2698V13.4128H18.2378V13.4448H18.1738V13.4768H18.1418V13.5088H18.1098V13.5408H18.0778V13.5728H18.0138V13.6048H17.9819V13.6367H17.9499V13.6687H17.8859V13.7007H17.8539V13.7327H17.8219V13.7647H17.7899V13.7967H17.7259V13.8287H17.6939V13.8607H17.6619V13.8927H17.6299V13.9247H17.5659V13.9567H17.5339V13.9887H17.5019V14.0207H17.4379V14.0527H17.4059V14.0847H17.3739V14.1167H17.3419V14.1487H17.3099V14.1807H17.2779V14.2127H17.2459V14.2447H17.1819V14.2767H17.15V14.3087H17.118V14.3407H17.086V14.3727H17.054V14.4047H17.022V14.4367H16.958V14.4687H16.926V14.5006H16.894V14.5326H16.862V14.5646H16.83V14.5966H16.798V14.6286H16.766V14.6606H16.702V14.6926H16.67V14.7246H16.638V14.7566H16.606V14.7886H16.574V14.8206H16.542V14.8526H16.51V14.8846H16.478V14.9166H16.414V14.9486H16.382V14.9806H16.35V15.0126H16.3181V15.0446H16.2861V15.0766H16.2541V15.1086H16.2221V15.1406H16.1901V15.1726H16.1581V15.2046H16.1261V15.2366H16.0941V15.2686H16.0621V15.3006H16.0301V15.3326H15.9981V15.3645H15.9661V15.3965H15.9021V15.4285H15.8701V15.4605H15.8381V15.4925H15.8061V15.5245H15.7741V15.5565H15.7421V15.5885H15.7101V15.6205H15.6781V15.6525H15.6461V15.6845H15.6141V15.7165H15.5821V15.7485H15.5501V15.7805H15.5181V15.8125H15.4862V15.8445H15.4542V15.8765H15.4222V15.9085H15.3902V15.9725H15.3582V16.0045H15.3262V16.0365H15.2942V16.0685H15.2622V16.1005H15.2302V16.1325H15.1982V16.1644H15.1662V16.1964H15.1342V16.2284H15.1022V16.2604H15.0702V16.2924H15.0382V16.3244H15.0062V16.3564H14.9742V16.3884H14.9422V16.4204H14.9102V16.4844H14.8782V16.5164H14.8462V16.5484H14.8142V16.5804H14.7822V16.6124H14.7502V16.6444H14.7182V16.6764H14.6862V16.7084H14.6543V16.7724H14.6223V16.8044H14.5903V16.8364H14.5583V16.8684H14.5263V16.9004H14.4943V16.9324H14.4623V16.9644H14.4303V17.0283H14.3983V17.0603H14.3663V17.0923H14.3343V17.1243H14.3023V17.1563H14.2703V17.1883H14.2383V17.2523H14.2063V17.2843H14.1743V17.3163H14.1423V17.3483H14.1103V17.3803H14.0783V17.4123H14.0463V17.4443H14.0143V17.5083H13.9823V17.5403H13.9503V17.5723H13.9183V17.6043H13.8863V17.6683H13.8543V17.7003H13.8223V17.7323H13.7904V17.7963H13.7584V17.8283H13.7264V17.8602H13.6944V17.8922H13.6624V17.9562H13.6304V17.9882H13.5984V18.0202H13.5664V18.0522H13.5344V18.1162H13.5024V18.1482H13.4704V18.1802H13.4384V18.2442H13.4064V18.2762H13.3744V18.3082H13.3424V18.3402H13.3104V18.4042H13.2784V18.4362H13.2464V18.4682H13.2144V18.5322H13.1824V18.5642H13.1504V18.6282H13.1184V18.6602H13.0864V18.6921H13.0544V18.7561H13.0224V18.7881H12.9904V18.8521H12.9585V18.8841H12.9265V18.9161H12.8945V18.9801H12.8625V19.0121H12.8305V19.0761H12.7985V19.1081H12.7665V19.1401H12.7345V19.2041H12.7025V19.2361H12.6705V19.3001H12.6385V19.3321H12.6065V19.3641H12.5745V19.4281H12.5425V19.4601H12.5105V19.524H12.4785V19.556H12.4465V19.62H12.4145V19.684H12.3825V19.716H12.3505V19.78H12.3185V19.812H12.2865V19.876H12.2545V19.908H12.2225V19.972H12.1905V20.004H12.1585V20.068H12.1266V20.132H12.0946V20.164H12.0626V20.228H12.0306V20.26H11.9986V20.324H11.9666V20.3559H11.9346V20.4199H11.9026V20.4839H11.8706V20.5159H11.8386V20.5799H11.8066V20.6439H11.7746V20.7079H11.7426V20.7399H11.7106V20.8039H11.6786V20.8679H11.6466V20.8999H11.6146V20.9639H11.5826V21.0279H11.5506V21.0919H11.5186V21.1239H11.4866V21.1879H11.4546V21.2518H11.4226V21.3158H11.3906V21.3478H11.3586V21.4118H11.3266V21.4758H11.2947V21.5398H11.2627V21.6038H11.2307V21.6358H11.1987V21.6998H11.1667V21.7638H11.1347V21.8278H11.1027V21.8918H11.0707V21.9558H11.0387V22.0197H11.0067V22.0837H10.9747V22.1477H10.9427V22.2117H10.9107V22.2757H10.8787V22.3397H10.8467V22.4037H10.8147V22.4677H10.7827V22.5317H10.7507V22.5957H10.7187V22.6597H10.6867V22.7237H10.6547V22.7877H10.6227V22.8517H10.5907V22.9476H10.5587V23.0116H10.5267V23.0756H10.4947V23.1396H10.4628V23.2036H10.4308V23.2996H10.3988V23.3636H10.3668V23.4276H10.3348V23.4916H10.3028V23.5556H10.2708V23.6516H10.2388V23.7155H10.2068V23.7795H10.1748V23.8755H10.1428V23.9395H10.1108V24.0355H10.0788V24.0995H10.0468V24.1955H10.0148V24.2915H9.98281V24.3555H9.95081V24.4515H9.91882V24.5155H9.88682V24.6114H9.85482V24.6754H9.82283V24.7714H9.79083V24.8354H9.75883V24.9314H9.72684V25.0274H9.69484V25.1234H9.66285V25.2194H9.63085V25.3154H9.59885V25.4113H9.56686V25.5073H9.53486V25.6033H9.50286V25.6993H9.47087V25.7633H9.43887V25.8593H9.40688V25.9553H9.37488V26.0833H9.34288V26.1793H9.31089V26.3072H9.27889V26.4032H9.2469V26.5312H9.2149V26.6272H9.1829V26.7552H9.15091V26.8512H9.11891V26.9792H9.08692V27.0751H9.05492V27.2031H9.02292V27.3311H8.99093V27.4591H8.95893V27.5871H8.92693V27.7151H8.89494V27.875H8.86294V28.003H8.83095V28.131H8.79895V28.291H8.76695V28.419H8.73496V28.579H8.70296V28.7709H8.67096V28.9309H8.63897V29.1229H8.60697V29.3149H8.57498V29.4749H8.54298V29.6668H8.51098V29.8908H8.47899V30.1468H8.44699V30.4027H8.415V30.6267H8.383V30.8827H8.351V31.2666H8.31901V31.6826H8.28701V32.0985H8.25501V32.8985H8.22302V48.8645H0ZM33.468 48.8645V40.6415H33.884V40.6095H34.2679V40.5775H34.4919V40.5455H34.6839V40.5135H34.9078V40.4815H35.0358V40.4495H35.1318V40.4176H35.2598V40.3856H35.3878V40.3536H35.5158V40.3216H35.6117V40.2896H35.7077V40.2576H35.8037V40.2256H35.8997V40.1936H35.9637V40.1616H36.0597V40.1296H36.1557V40.0976H36.2197V40.0656H36.3157V40.0336H36.3797V40.0016H36.4436V39.9696H36.5076V39.9376H36.5716V39.9056H36.6356V39.8736H36.6996V39.8416H36.7636V39.8096H36.8276V39.7776H36.8916V39.7456H36.9556V39.7136H36.9876V39.6816H37.0516V39.6496H37.1156V39.6176H37.1476V39.5857H37.2116V39.5537H37.2436V39.5217H37.3075V39.4897H37.3715V39.4577H37.4035V39.4257H37.4675V39.3937H37.4995V39.3617H37.5635V39.3297H37.5955V39.2977H37.6275V39.2657H37.6915V39.2337H37.7235V39.2017H37.7555V39.1697H37.8195V39.1377H37.8515V39.1057H37.8835V39.0737H37.9475V39.0417H37.9795V39.0097H38.0115V38.9777H38.0435V38.9457H38.1074V38.9137H38.1394V38.8817H38.1714V38.8497H38.2034V38.8177H38.2354V38.7857H38.2674V38.7538H38.2994V38.7218H38.3634V38.6898H38.3954V38.6578H38.4274V38.6258H38.4594V38.5938H38.4914V38.5618H38.5234V38.5298H38.5554V38.4978H38.5874V38.4658H38.6194V38.4338H38.6514V38.4018H38.6834V38.3698H38.7154V38.3058H38.7474V38.2738H38.7794V38.2418H38.8114V38.2098H38.8434V38.1778H38.8754V38.1458H38.9074V38.1138H38.9394V38.0498H38.9713V38.0178H39.0033V37.9858H39.0353V37.9538H39.0673V37.8899H39.0993V37.8579H39.1313V37.8259H39.1633V37.7619H39.1953V37.7299H39.2273V37.6979H39.2593V37.6339H39.2913V37.6019H39.3233V37.5699H39.3553V37.5059H39.3873V37.4739H39.4193V37.4099H39.4513V37.3779H39.4833V37.3139H39.5153V37.2499H39.5473V37.2179H39.5793V37.1539H39.6113V37.1219H39.6433V37.058H39.6753V36.994H39.7073V36.962H39.7393V36.898H39.7713V36.834H39.8032V36.77H39.8352V36.706H39.8672V36.642H39.8992V36.578H39.9312V36.514H39.9632V36.45H39.9952V36.386H40.0272V36.29H40.0592V36.2261H40.0912V36.1301H40.1232V36.0661H40.1552V35.9701H40.1872V35.8741H40.2192V35.8101H40.2512V35.7141H40.2832V35.6181H40.3152V35.5221H40.3472V35.3942H40.3792V35.2662H40.4112V35.1382H40.4432V35.0102H40.4752V34.8822H40.5072V34.6582H40.5392V34.4663H40.5712V34.2743H40.6032V33.8583H40.6351V0.00637817H66.968V8.2294H48.8582V34.3703H48.8262V34.7862H48.7942V35.1702H48.7622V35.4261H48.7302V35.6501H48.6982V35.9061H48.6662V36.0661H48.6342V36.258H48.6022V36.418H48.5702V36.61H48.5382V36.738H48.5062V36.898H48.4742V37.026H48.4422V37.1539H48.4102V37.3139H48.3782V37.4099H48.3462V37.5379H48.3142V37.6339H48.2822V37.7619H48.2502V37.8579H48.2182V37.9858H48.1862V38.0818H48.1543V38.1778H48.1223V38.2738H48.0903V38.3698H48.0583V38.4658H48.0263V38.5618H47.9943V38.6578H47.9623V38.7538H47.9303V38.8497H47.8983V38.9137H47.8663V39.0097H47.8343V39.0737H47.8023V39.1697H47.7703V39.2337H47.7383V39.3297H47.7063V39.3937H47.6743V39.4897H47.6423V39.5537H47.6103V39.6176H47.5783V39.6816H47.5463V39.7776H47.5143V39.8416H47.4823V39.9056H47.4503V39.9696H47.4183V40.0656H47.3863V40.1296H47.3543V40.1936H47.3223V40.2576H47.2904V40.3216H47.2584V40.3856H47.2264V40.4495H47.1944V40.5135H47.1624V40.5775H47.1304V40.6095H47.0984V40.6735H47.0664V40.7375H47.0344V40.8015H47.0024V40.8655H46.9704V40.9295H46.9384V40.9935H46.9064V41.0255H46.8744V41.0895H46.8424V41.1535H46.8104V41.2175H46.7784V41.2495H46.7464V41.3134H46.7144V41.3774H46.6824V41.4094H46.6504V41.4734H46.6184V41.5374H46.5864V41.5694H46.5544V41.6334H46.5224V41.6654H46.4904V41.7294H46.4585V41.7934H46.4265V41.8254H46.3945V41.8894H46.3625V41.9214H46.3305V41.9854H46.2985V42.0174H46.2665V42.0814H46.2345V42.1133H46.2025V42.1773H46.1705V42.2093H46.1385V42.2733H46.1065V42.3053H46.0745V42.3373H46.0425V42.4013H46.0105V42.4333H45.9785V42.4973H45.9465V42.5293H45.9145V42.5613H45.8825V42.6253H45.8505V42.6573H45.8185V42.7213H45.7865V42.7533H45.7545V42.7853H45.7225V42.8173H45.6905V42.8813H45.6585V42.9133H45.6266V42.9453H45.5946V42.9772H45.5626V43.0412H45.5306V43.0732H45.4986V43.1052H45.4666V43.1372H45.4346V43.2012H45.4026V43.2332H45.3706V43.2652H45.3386V43.2972H45.3066V43.3612H45.2746V43.3932H45.2426V43.4252H45.2106V43.4572H45.1786V43.4892H45.1466V43.5212H45.1146V43.5852H45.0826V43.6172H45.0506V43.6492H45.0186V43.6812H44.9866V43.7132H44.9546V43.7452H44.9226V43.7772H44.8906V43.8411H44.8586V43.8731H44.8266V43.9051H44.7947V43.9371H44.7627V43.9691H44.7307V44.0011H44.6987V44.0331H44.6667V44.0651H44.6347V44.0971H44.6027V44.1291H44.5707V44.1611H44.5387V44.1931H44.5067V44.2251H44.4747V44.2571H44.4427V44.2891H44.4107V44.3211H44.3787V44.3531H44.3467V44.3851H44.3147V44.4171H44.2827V44.4491H44.2507V44.4811H44.2187V44.5131H44.1867V44.5451H44.1547V44.5771H44.1227V44.6091H44.0907V44.641H44.0587V44.673H44.0267V44.705H43.9947V44.737H43.9627V44.769H43.9308V44.801H43.8988V44.833H43.8668V44.865H43.8348V44.897H43.7708V44.929H43.7388V44.961H43.7068V44.993H43.6748V45.025H43.6428V45.057H43.6108V45.089H43.5788V45.121H43.5148V45.153H43.4828V45.185H43.4508V45.217H43.4188V45.249H43.3868V45.281H43.3548V45.313H43.2908V45.345H43.2588V45.377H43.2268V45.409H43.1948V45.441H43.1308V45.4729H43.0989V45.5049H43.0669V45.5369H43.0349V45.5689H42.9709V45.6009H42.9389V45.6329H42.9069V45.6649H42.8749V45.6969H42.8109V45.7289H42.7789V45.7609H42.7469V45.7929H42.7149V45.8249H42.6509V45.8569H42.6189V45.8889H42.5549V45.9209H42.5229V45.9529H42.4909V45.9849H42.4269V46.0169H42.3949V46.0489H42.3309V46.0809H42.299V46.1129H42.267V46.1449H42.203V46.1769H42.171V46.2089H42.107V46.2409H42.075V46.2729H42.011V46.3048H41.979V46.3368H41.915V46.3688H41.883V46.4008H41.819V46.4328H41.787V46.4648H41.723V46.4968H41.659V46.5288H41.627V46.5608H41.563V46.5928H41.531V46.6248H41.467V46.6568H41.4031V46.6888H41.3711V46.7208H41.3071V46.7528H41.2431V46.7848H41.2111V46.8168H41.1471V46.8488H41.0831V46.8808H41.0191V46.9128H40.9871V46.9448H40.9231V46.9768H40.8591V47.0088H40.7951V47.0408H40.7311V47.0728H40.6671V47.1048H40.6351V47.1368H40.5712V47.1687H40.5072V47.2007H40.4432V47.2327H40.3792V47.2647H40.3152V47.2967H40.2512V47.3287H40.1872V47.3607H40.1232V47.3927H40.0592V47.4247H39.9632V47.4567H39.8992V47.4887H39.8352V47.5207H39.7713V47.5527H39.7073V47.5847H39.6113V47.6167H39.5473V47.6487H39.4833V47.6807H39.3873V47.7127H39.3233V47.7447H39.2273V47.7767H39.1633V47.8087H39.0673V47.8407H39.0033V47.8727H38.9074V47.9047H38.8434V47.9367H38.7474V47.9687H38.6514V48.0006H38.5554V48.0326H38.4594V48.0646H38.3634V48.0966H38.2674V48.1286H38.2034V48.1606H38.1074V48.1926H37.9795V48.2246H37.8835V48.2566H37.7555V48.2886H37.6595V48.3206H37.5315V48.3526H37.4355V48.3846H37.3075V48.4166H37.1796V48.4486H37.0196V48.4806H36.8916V48.5126H36.7636V48.5446H36.6356V48.5766H36.4436V48.6086H36.2837V48.6406H36.0917V48.6726H35.9317V48.7046H35.7077V48.7366H35.4518V48.7686H35.1958V48.8006H34.8758V48.8325H34.4599V48.8645" fill="url(#paint0_linear_491_27)"/>
<defs>
<linearGradient id="paint0_linear_491_27" x1="33.4872" y1="0.019174" x2="33.4872" y2="57.6289" gradientUnits="userSpaceOnUse">
<stop stop-color="#EB292C"/>
<stop offset="0.00665541" stop-color="#EB292C"/>
<stop offset="1" stop-color="#FF9900"/>
</linearGradient>
</defs>
</svg>
