<svg width="69" height="67" viewBox="0 0 69 67" fill="none" xmlns="http://www.w3.org/2000/svg">
<path d="M34.4376 67.0063V66.9743H34.4056V66.9423H34.3415V66.9103H34.2775V66.8783H34.2135V66.8463H34.1815V66.8143H34.1174V66.7822H34.0534V66.7502H33.9894V66.7182H33.9574V66.6862H33.8933V66.6542H33.8293V66.6222H33.7653V66.5902H33.7333V66.5581H33.6692V66.5261H33.6052V66.4941H33.5732V66.4621H33.5092V66.4301H33.4451V66.3981H33.3811V66.3661H33.3491V66.334H33.2851V66.302H33.221V66.27H33.157V66.238H33.125V66.206H33.061V66.174H32.9969V66.142H32.9329V66.1099H32.9009V66.0779H32.8369V66.0459H32.7728V66.0139H32.7408V65.9819H32.6768V65.9499H32.6128V65.9179H32.5487V65.8858H32.5167V65.8538H32.4527V65.8218H32.3887V65.7898H32.3246V65.7578H32.2926V65.7258H32.2286V65.6938H32.1646V65.6617H32.1005V65.6297H32.0685V65.5977H32.0045V65.5657H31.9405V65.5337H31.9084V65.5017H31.8444V65.4697H31.7804V65.4376H31.7164V65.4056H31.6843V65.3736H31.6203V65.3416H31.5563V65.3096H31.4923V65.2776H31.4602V65.2455H31.3962V65.2135H31.3322V65.1815H31.2682V65.1495H31.2361V65.1175H31.1721V65.0855H31.1081V65.0535H31.0761V65.0214H31.012V64.9894H30.948V64.9574H30.884V64.9254H30.852V64.8934H30.7879V64.8614H30.7239V64.8294H30.6599V64.7973H30.6279V64.7653H30.5638V64.7333H30.4998V64.7013H30.4358V64.6693H30.4038V64.6373H30.3397V64.6053H30.2757V64.5732H30.2437V64.5412H30.1797V64.5092H30.1156V64.4772H30.0516V64.4452H30.0196V64.4132H29.9556V64.3812H29.8915V64.3491H29.8275V64.3171H29.7955V64.2851H29.7315V64.2531H29.6674V64.2211H29.6034V64.1891H29.5714V64.1571H29.5074V64.125H29.4433V64.093H29.3793V64.061H29.3473V64.029H29.2833V63.997H29.2192V63.965H29.1872V63.933H29.1232V63.9009H29.0591V63.8689H28.9951V63.8369H28.9631V63.8049H28.8991V63.7729H28.835V63.7409H28.771V63.7089H28.739V63.6768H28.675V63.6448H28.6109V63.6128H28.5469V63.5808H28.5149V63.5488H28.4509V63.5168H28.3868V63.4848H28.3548V63.4527H28.2908V63.4207H28.2268V63.3887H28.1627V63.3567H28.1307V63.3247H28.0667V63.2927H28.0027V63.2606H27.9386V63.2286H27.9066V63.1966H27.8426V63.1646H27.7786V63.1326H27.7145V63.1006H27.6825V63.0686H27.6185V63.0365H27.5545V63.0045H27.5225V62.9725H27.4584V62.9405H27.3944V62.9085H27.3304V62.8765H27.2984V62.8445H27.2343V62.8124H27.1703V62.7804H27.1063V62.7484H27.0742V62.7164H27.0102V62.6844H26.9462V62.6524H26.8822V62.6204H26.8501V62.5883H26.7861V62.5563H26.7221V62.5243H26.6901V62.4923H26.626V62.4603H26.562V62.4283H26.498V62.3963H26.466V62.3642H26.4019V62.3322H26.3379V62.3002H26.2739V62.2682H26.2419V62.2362H26.1778V62.2042H26.1138V62.1722H26.0498V62.1401H26.0178V62.1081H25.9537V62.0761H25.8897V62.0441H25.8577V62.0121H25.7937V61.9801H25.7296V61.9481H25.6656V61.916H25.6336V61.884H25.5696V61.852H25.5055V61.82H25.4415V61.788H25.4095V61.756H25.3455V61.724H25.2814V61.6919H25.2174V61.6599H25.1854V61.6279H25.1214V61.5959H25.0573V61.5639H25.0253V61.5319H24.9613V61.4999H24.8973V61.4678H24.8332V61.4358H24.8012V61.4038H24.7372V61.3718H24.6732V61.3398H24.6091V61.3078H24.5771V61.2757H24.5131V61.2437H24.4491V61.2117H24.385V61.1797H24.353V61.1477H24.289V61.1157H24.225V61.0837H24.1929V61.0516H24.1289V61.0196H24.0649V60.9876H24.0009V60.9556H23.9688V60.9236H23.9048V60.8916H23.8408V60.8596H23.7768V60.8275H23.7447V60.7955H23.6807V60.7635H23.6167V60.7315H23.5527V60.6995H23.5206V60.6675H23.4566V60.6355H23.3926V60.6034H23.3606V60.5714H23.2965V60.5394H23.2325V60.5074H23.1685V60.4754H23.1365V60.4434H23.0724V60.4114H23.0084V60.3793H22.9444V60.3473H22.9124V60.3153H22.8483V60.2833H22.7843V60.2513H22.7203V60.2193H22.6883V60.1873H22.6242V60.1552H22.5602V60.1232H22.5282V60.0912H22.4642V60.0592H22.4001V60.0272H22.3361V59.9952H22.3041V59.9632H22.2401V59.9311H22.176V59.8991H22.112V59.8671H22.08V59.8351H22.016V59.8031H21.9519V59.7711H21.8879V59.7391H21.8559V59.707H21.7919V59.675H21.7278V59.643H21.6958V59.611H21.6318V59.579H21.5678V59.547H21.5037V59.515H21.4717V59.4829H21.4077V59.4509H21.3437V59.4189H21.2796V59.3869H21.2476V59.3549H21.1836V59.3229H21.1195V59.2908H21.0555V59.2588H21.0235V59.2268H20.9595V59.1948H20.8954V59.1628H20.8634V59.1308H20.7994V59.0988H20.7354V59.0667H20.6713V59.0347H20.6393V59.0027H20.5753V58.9707H20.5113V58.9387H20.4472V58.9067H20.4152V58.8747H20.3512V58.8426H20.2872V58.8106H20.2231V58.7786H20.1911V58.7466H20.1271V58.7146H20.0631V58.6826H20.0311V58.6506H19.967V58.6185H19.903V58.5865H19.839V58.5545H19.807V58.5225H19.7429V58.4905H19.6789V58.4585H19.6149V58.4265H19.5829V58.3944H19.5188V58.3624H19.4548V58.3304H19.3908V58.2984H19.3588V58.2664H19.2947V58.2344H19.2307V58.2024H19.1987V58.1703H19.1346V58.1383H19.0706V58.1063H19.0066V58.0743H18.9746V58.0423H18.9105V58.0103H18.8465V57.9783H18.7825V57.9462H18.7505V57.9142H18.6864V57.8822H18.6224V57.8502H18.5584V57.8182H18.5264V57.7862H18.4623V57.7542H18.3983V57.7221H18.3663V57.6901H18.3023V57.6581H18.2382V57.6261H18.1742V57.5941H18.1422V57.5621H18.0782V57.5301H18.0141V57.498H17.9501V57.466H17.9181V57.434H17.8541V57.402H17.79V57.37H17.726V57.338H17.694V57.3059H17.63V57.2739H17.5659V57.2419H17.5339V57.2099H17.4699V57.1779H17.4059V57.1459H17.3418V57.1139H17.3098V57.0818H17.2458V57.0498H17.1818V57.0178H17.1177V56.9858H17.0857V56.9538H17.0217V56.9218H16.9577V56.8898H16.8936V56.8577H16.8616V56.8257H16.7976V56.7937H16.7336V56.7617H16.7015V56.7297H16.6375V56.6977H16.5735V56.6657H16.5095V56.6336H16.4774V56.6016H16.4134V56.5696H16.3494V56.5376H16.2854V56.5056H16.2533V56.4736H16.1893V56.4416H16.1253V56.4095H16.0613V56.3775H16.0292V56.3455H15.9652V56.3135H15.9012V56.2815H15.8692V56.2495H15.8051V56.2175H15.7411V56.1854H15.6771V56.1534H15.6451V56.1214H15.581V56.0894H15.517V56.0574H15.453V56.0254H15.421V55.9934H15.3569V55.9613H15.2929V55.9293H15.2289V55.8973H15.1969V55.8653H15.1328V55.8333H15.0688V55.8013H15.0368V55.7693H14.9728V55.7372H14.9087V55.7052H14.8447V55.6732H14.8127V55.6412H14.7487V55.6092H14.6846V55.5772H14.6206V55.5452H14.5886V55.5131H14.5246V55.4811H14.4605V55.4491H14.3965V55.4171H14.3645V55.3851H14.3005V55.3531H14.2364V55.321H14.2044V55.289H14.1404V55.257H14.0764V55.225H14.0123V55.193H13.9803V55.161H13.9163V55.129H13.8523V55.0969H13.7882V55.0649H13.7562V55.0329H13.6922V55.0009H13.6282V54.9689H13.5641V54.9369H13.5321V54.9049H13.4681V54.8728H13.4041V54.8408H13.372V54.8088H13.308V54.7768H13.244V54.7448H13.18V54.7128H13.1479V54.6808H13.0839V54.6487H13.0199V54.6167H12.9558V54.5847H12.9238V54.5527H12.8598V54.5207H12.7958V54.4887H12.7317V54.4567H12.6997V54.4246H12.6357V54.3926H12.5717V54.3606H12.5397V54.3286H12.4756V54.2966H12.4116V54.2646H12.3476V54.2326H12.3156V54.2005H12.2515V54.1685H12.1875V54.1365H12.1235V54.1045H12.0915V54.0725H12.0274V54.0405H11.9634V54.0085H11.8994V53.9764H11.8674V53.9444H11.8033V53.9124H11.7393V53.8804H11.7073V53.8484H11.6433V53.8164H11.5792V53.7844H11.5152V53.7523H11.4832V53.7203H11.4192V53.6883H11.3551V53.6563H11.2911V53.6243H11.2591V53.5923H11.1951V53.5603H11.131V53.5282H11.067V53.4962H11.035V53.4642H10.9709V53.4322H10.9069V53.4002H10.8749V53.3682H10.8109V53.3361H10.7468V53.3041H10.6828V53.2721H10.6508V53.2401H10.5868V53.2081H10.5227V53.1761H10.4587V53.1441H10.4267V53.112H10.3627V53.08H10.2986V53.048H10.2346V53.016H10.2026V52.984H10.1386V52.952H10.0745V52.92H10.0425V52.8879H9.9785V52.8559H9.91447V52.8239H9.85044V52.7919H9.81843V52.7599H9.7544V52.7279H9.69037V52.6959H9.62634V52.6638H9.59433V52.6318H9.5303V52.5998H9.46627V52.5678H9.40224V52.5358H9.37022V52.5038H9.3062V52.4718H9.24217V52.4397H9.17814V52.4077H9.14612V52.3757H9.08209V52.3437H9.01806V52.3117H8.98605V52.2797H8.92202V52.2477H8.85799V52.2156H8.79396V52.1836H8.76195V52.1516H8.69792V52.1196H8.63389V52.0876H8.56986V52.0556H8.53785V52.0236H8.47382V51.9915H8.40979V51.9595H8.34576V51.9275H8.31375V51.8955H8.24972V51.8635H8.18569V51.8315H8.15367V51.7995H8.08964V51.7674H8.02561V51.7354H7.96159V51.7034H7.92957V51.6714H7.86554V51.6394H7.80151V51.6074H7.73748V51.5754H7.70547V51.5433H7.64144V51.5113H7.57741V51.4793H7.51338V51.4473H7.48137V51.4153H7.41734V51.3833H7.35331V51.3512H7.3213V51.3192H7.25727V51.2872H7.19324V51.2552H7.12921V51.2232H7.09719V51.1912H7.03316V51.1592H6.96914V51.1271H6.90511V51.0951H6.87309V51.0631H6.80906V51.0311H6.74503V50.9991H6.68101V50.9671H6.64899V50.9351H6.58496V50.903H6.52093V50.871H6.48892V50.839H6.42489V50.807H6.36086V50.775H6.29683V50.743H6.26482V50.711H6.20079V50.6789H6.13676V50.6469H6.07273V50.6149H6.04071V50.5829H5.97669V50.5509H5.91266V50.5189H5.84863V50.4869H5.81661V50.4548H5.75258V50.4228H5.68856V50.3908H5.65654V50.3588H5.59251V50.3268H5.52848V50.2948H5.46445V50.2628H5.43244V50.2307H5.36841V50.1987H5.30438V50.1667H5.24035V50.1347H5.20834V50.1027H5.14431V50.0707H5.08028V50.0387H5.01625V50.0066H4.98424V49.9746H4.92021V49.9426H4.85618V49.9106H4.82416V49.8786H4.76013V49.8466H4.69611V49.8146H4.63208V49.7825H4.60006V49.7505H4.53603V49.7185H4.472V49.6865H4.40797V49.6545H4.37596V49.6225H4.31193V49.5905H4.2479V49.5584H4.18387V49.5264H4.15186V49.4944H4.08783V49.4624H4.0238V49.4304H3.99179V49.3984H3.92776V49.3664H3.86373V49.3343H3.7997V49.3023H3.76768V49.2703H3.70366V49.2383H3.63963V49.2063H3.5756V49.1743H3.54358V49.1422H3.47955V49.1102H3.41552V49.0782H3.3515V49.0462H3.31948V49.0142H3.25545V48.9822H3.19142V48.9502H3.15941V48.9181H3.09538V48.8861H3.03135V48.8541H2.96732V48.8221H2.93531V48.7901H2.87128V48.7581H2.80725V48.7261H2.74322V48.694H2.71121V48.662H2.64718V48.63H2.58315V48.598H2.51912V48.566H2.4871V48.534H2.42307V48.502H2.35905V48.4699H2.32703V48.4379H2.263V48.4059H2.19897V48.3739H2.13494V48.3419H2.10293V48.3099H2.0389V48.2779H1.97487V48.2458H1.91084V48.2138H1.87883V48.1818H1.8148V48.1498H1.75077V48.1178H1.68674V48.0858H1.65473V48.0538H1.5907V48.0217H1.52667V47.9897H1.49465V47.9577H1.43063V47.9257H1.3666V47.8937H1.30257V47.8617H1.27055V47.8297H1.20652V47.7976H1.14249V47.7656H1.07847V47.7336H1.04645V47.7016H0.982422V12.5817H1.01444V12.5497H1.04645V12.5176H1.11048V12.4856H1.17451V12.4536H1.23854V12.4216H1.27055V12.3896H1.33458V12.3576H1.39861V12.3256H1.43063V12.2935H1.49465V12.2615H1.55868V12.2295H1.62271V12.1975H1.65473V12.1655H1.71876V12.1335H1.78278V12.1015H1.84681V12.0694H1.87883V12.0374H1.94286V12.0054H2.00689V11.9734H2.07092V11.9414H2.10293V11.9094H2.16696V11.8774H2.23099V11.8453H2.263V11.8133H2.32703V11.7813H2.39106V11.7493H2.45509V11.7173H2.4871V11.6853H2.55113V11.6533H2.61516V11.6212H2.67919V11.5892H2.71121V11.5572H2.77523V11.5252H2.83926V11.4932H2.90329V11.4612H2.93531V11.4291H2.99934V11.3971H3.06337V11.3651H3.09538V11.3331H3.15941V11.3011H3.22344V11.2691H3.28747V11.2371H3.31948V11.205H3.38351V11.173H3.44754V11.141H3.51157V11.109H3.54358V11.077H3.60761V11.045H3.67164V11.013H3.73567V10.9809H3.76768V10.9489H3.83171V10.9169H3.89574V10.8849H3.92776V10.8529H3.99179V10.8209H4.05581V10.7889H4.11984V10.7568H4.15186V10.7248H4.21589V10.6928H4.27992V10.6608H4.34395V10.6288H4.37596V10.5968H4.43999V10.5648H4.50402V10.5327H4.53603V10.5007H4.60006V10.4687H4.66409V10.4367H4.72812V10.4047H4.76013V10.3727H4.82416V10.3407H4.88819V10.3086H4.95222V10.2766H4.98424V10.2446H5.04826V10.2126H5.11229V10.1806H5.17632V10.1486H5.20834V10.1166H5.27237V10.0845H5.3364V10.0525H5.36841V10.0205H5.43244V9.98849H5.49647V9.95648H5.5605V9.92447H5.59251V9.89245H5.65654V9.86044H5.72057V9.82842H5.7846V9.79641H5.81661V9.76439H5.88064V9.73238H5.94467V9.70037H6.0087V9.66835H6.04071V9.63634H6.10474V9.60432H6.16877V9.57231H6.20079V9.54029H6.26482V9.50828H6.32885V9.47626H6.39287V9.44425H6.42489V9.41224H6.48892V9.38022H6.55295V9.34821H6.61698V9.31619H6.64899V9.28418H6.71302V9.25216H6.77705V9.22015H6.84108V9.18813H6.87309V9.15612H6.93712V9.1241H7.00115V9.09209H7.03316V9.06007H7.09719V9.02806H7.16122V8.99604H7.22525V8.96403H7.25727V8.93202H7.3213V8.9H7.38532V8.86799H7.44935V8.83597H7.48137V8.80396H7.5454V8.77195H7.60943V8.73993H7.64144V8.70792H7.70547V8.6759H7.7695V8.64389H7.83353V8.61187H7.86554V8.57986H7.92957V8.54784H7.9936V8.51583H8.05763V8.48381H8.08964V8.4518H8.15367V8.41978H8.2177V8.38777H8.28173V8.35575H8.31375V8.32374H8.37777V8.29173H8.4418V8.25971H8.47382V8.2277H8.53785V8.19568H8.60188V8.16367H8.6659V8.13165H8.69792V8.09964H8.76195V43.1555H8.79396V43.1875H8.85799V43.2196H8.89001V43.2516H8.95404V43.2836H9.01806V43.3156H9.05008V43.3476H9.11411V43.3796H9.17814V43.4116H9.24217V43.4437H9.27418V43.4757H9.33821V43.5077H9.40224V43.5397H9.46627V43.5717H9.49828V43.6037H9.56231V43.6358H9.62634V43.6678H9.69037V43.6998H9.72238V43.7318H9.78641V43.7638H9.85044V43.7958H9.88246V43.8278H9.94649V43.8599H10.0105V43.8919H10.0745V43.9239H10.1066V43.9559H10.1706V43.9879H10.2346V44.0199H10.2986V44.0519H10.3307V44.084H10.3947V44.116H10.4587V44.148H10.5227V44.18H10.5548V44.212H10.6188V44.244H10.6828V44.276H10.7148V44.3081H10.7789V44.3401H10.8429V44.3721H10.9069V44.4041H10.9389V44.4361H11.003V44.4681H11.067V44.5001H11.131V44.5322H11.163V44.5642H11.2271V44.5962H11.2911V44.6282H11.3551V44.6602H11.3871V44.6922H11.4512V44.7242H11.5152V44.7563H11.5472V44.7883H11.6112V44.8203H11.6753V44.8523H11.7393V44.8843H11.7713V44.9163H11.8353V44.9483H11.8994V44.9804H11.9634V45.0124H11.9954V45.0444H12.0594V45.0764H12.1235V45.1084H12.1875V45.1404H12.2195V45.1724H12.2835V45.2045H12.3476V45.2365H12.3796V45.2685H12.4436V45.3005H12.5076V45.3325H12.5717V45.3645H12.6037V45.3965H12.6677V45.4286H12.7317V45.4606H12.7958V45.4926H12.8278V45.5246H12.8918V45.5566H12.9558V45.5886H13.0199V45.6207H13.0519V45.6527H13.1159V45.6847H13.18V45.7167H13.212V45.7487H13.276V45.7807H13.34V45.8127H13.4041V45.8448H13.4361V45.8768H13.5001V45.9088H13.5641V45.9408H13.6282V45.9728H13.6602V46.0048H13.7242V46.0368H13.7882V46.0689H13.8523V46.1009H13.8843V46.1329H13.9483V46.1649H14.0123V46.1969H14.0443V46.2289H14.1084V46.2609H14.1724V46.293H14.2364V46.325H14.2684V46.357H14.3325V46.389H14.3965V46.421H14.4605V46.453H14.4925V46.485H14.5566V46.5171H14.6206V46.5491H14.6846V46.5811H14.7166V46.6131H14.7807V46.6451H14.8447V46.6771H14.8767V46.7091H14.9407V46.7412H15.0048V46.7732H15.0688V46.8052H15.1008V46.8372H15.1649V46.8692H15.2289V46.9012H15.2929V46.9332H15.3249V46.9653H15.389V46.9973H15.453V47.0293H15.517V47.0613H15.549V47.0933H15.6131V47.1253H15.6771V47.1573H15.7091V47.1894H15.7731V47.2214H15.8372V47.2534H15.9012V47.2854H15.9332V47.3174H15.9972V47.3494H16.0613V47.3815H16.1253V47.4135H16.1573V47.4455H16.2213V47.4775H16.2854V47.5095H16.3494V47.5415H16.3814V47.5735H16.4454V47.6056H16.5095V47.6376H16.5415V47.6696H16.6055V47.7016H16.6695V47.7336H16.7336V47.7656H16.7656V47.7976H16.8296V47.8297H16.8936V47.8617H16.9577V47.8937H16.9897V47.9257H17.0537V47.9577H17.1177V47.9897H17.1818V48.0217H17.2138V48.0538H17.2778V48.0858H17.3418V48.1178H17.3739V48.1498H17.4379V48.1818H17.5019V48.2138H17.5659V48.2458H17.598V48.2779H17.662V48.3099H17.726V48.3419H17.79V48.3739H17.8221V48.4059H17.8861V48.4379H17.9501V48.4699H18.0141V48.502H18.0462V48.534H18.1102V48.566H18.1742V48.598H18.2062V48.63H18.2703V48.662H18.3343V48.694H18.3983V48.7261H18.4303V48.7581H18.4944V48.7901H18.5584V48.8221H18.6224V48.8541H18.6544V48.8861H18.7185V48.9181H18.7825V48.9502H18.8465V48.9822H18.8785V49.0142H18.9426V49.0462H19.0066V49.0782H19.0386V49.1102H19.1026V49.1422H19.1667V49.1743H19.2307V49.2063H19.2627V49.2383H19.3267V49.2703H19.3908V49.3023H19.4548V49.3343H19.4868V49.3664H19.5508V49.3984H19.6149V49.4304H19.6789V49.4624H19.7109V49.4944H19.7749V49.5264H19.839V49.5584H19.871V49.5905H19.935V49.6225H19.999V49.6545H20.0631V49.6865H20.0951V49.7185H20.1591V49.7505H20.2231V49.7825H20.2872V49.8146H20.3192V49.8466H20.3832V49.8786H20.4472V49.9106H20.5113V49.9426H20.5433V49.9746H20.6073V50.0066H20.6713V50.0387H20.7034V50.0707H20.7674V50.1027H20.8314V50.1347H20.8954V50.1667H20.9275V50.1987H20.9915V50.2307H21.0555V50.2628H21.1195V50.2948H21.1516V50.3268H21.2156V50.3588H21.2796V50.3908H21.3437V50.4228H21.3757V50.4548H21.4397V50.4869H21.5037V50.5189H21.5357V50.5509H21.5998V50.5829H21.6638V50.6149H21.7278V50.6469H21.7598V50.6789H21.8239V50.711H21.8879V50.743H21.9519V50.775H21.9839V50.807H22.048V50.839H22.112V50.871H22.176V50.903H22.208V50.9351H22.2721V50.9671H22.3361V50.9991H22.4001V51.0311H22.4321V51.0631H22.4962V51.0951H22.5602V51.1271H22.5922V51.1592H22.6562V51.1912H22.7203V51.2232H22.7843V51.2552H22.8163V51.2872H22.8803V51.3192H22.9444V51.3512H23.0084V51.3833H23.0404V51.4153H23.1045V51.4473H23.1685V51.4793H23.2325V51.5113H23.2645V51.5433H23.3286V51.5754H23.3926V51.6074H23.4246V51.6394H23.4886V51.6714H23.5527V51.7034H23.6167V51.7354H23.6487V51.7674H23.7127V51.7995H23.7768V51.8315H23.8408V51.8635H23.8728V51.8955H23.9368V51.9275H24.0009V51.9595H24.0649V51.9915H24.0969V52.0236H24.1609V52.0556H24.225V52.0876H24.257V52.1196H24.321V52.1516H24.385V52.1836H24.4491V52.2156H24.4811V52.2477H24.5451V52.2797H24.6091V52.3117H24.6732V52.3437H24.7052V52.3757H24.7692V52.4077H24.8332V52.4397H24.8973V52.4718H24.9293V52.5038H24.9933V52.5358H25.0573V52.5678H25.0893V52.5998H25.1534V52.6318H25.2174V52.6638H25.2814V52.6959H25.3134V52.7279H25.3775V52.7599H25.4415V52.7919H25.5055V52.8239H25.5376V52.8559H25.6016V52.8879H25.6656V52.92H25.7296V52.952H25.7617V52.984H25.8257V53.016H25.8897V53.048H25.9217V53.08H25.9858V53.112H26.0498V53.1441H26.1138V53.1761H26.1458V53.2081H26.2099V53.2401H26.2739V53.2721H26.3379V53.3041H26.3699V53.3361H26.434V53.3682H26.498V53.4002H26.562V53.4322H26.594V53.4642H26.6581V53.4962H26.7221V53.5282H26.7541V53.5603H26.8181V53.5923H26.8822V53.6243H26.9462V53.6563H26.9782V53.6883H27.0422V53.7203H27.1063V53.7523H27.1703V53.7844H27.2023V53.8164H27.2663V53.8484H27.3304V53.8804H27.3944V53.9124H27.4264V53.9444H27.4904V53.9764H27.5545V54.0085H27.5865V54.0405H27.6505V54.0725H27.7145V54.1045H27.7786V54.1365H27.8106V54.1685H27.8746V54.2005H27.9386V54.2326H28.0027V54.2646H28.0347V54.2966H28.0987V54.3286H28.1627V54.3606H28.2268V54.3926H28.2588V54.4246H28.3228V54.4567H28.3868V54.4887H28.4189V54.5207H28.4829V54.5527H28.5469V54.5847H28.6109V54.6167H28.643V54.6487H28.707V54.6808H28.771V54.7128H28.835V54.7448H28.8671V54.7768H28.9311V54.8088H28.9951V54.8408H29.0591V54.8728H29.0912V54.9049H29.1552V54.9369H29.2192V54.9689H29.2512V55.0009H29.3153V55.0329H29.3793V55.0649H29.4433V55.0969H29.4753V55.129H29.5394V55.161H29.6034V55.193H29.6674V55.225H29.6994V55.257H29.7635V55.289H29.8275V55.321H29.8915V55.3531H29.9235V55.3851H29.9876V55.4171H30.0516V55.4491H30.0836V55.4811H30.1476V55.5131H30.2117V55.5452H30.2757V55.5772H30.3077V55.6092H30.3717V55.6412H30.4358V55.6732H30.4998V55.7052H30.5318V55.7372H30.5958V55.7693H30.6599V55.8013H30.7239V55.8333H30.7559V55.8653H30.8199V55.8973H30.884V55.9293H30.916V55.9613H30.98V55.9934H31.044V56.0254H31.1081V56.0574H31.1401V56.0894H31.2041V56.1214H31.2682V56.1534H31.3322V56.1854H31.3642V56.2175H31.4282V56.2495H31.4923V56.2815H31.5563V56.3135H31.5883V56.3455H31.6523V56.3775H31.7164V56.4095H31.7484V56.4416H31.8124V56.4736H31.8764V56.5056H31.9405V56.5376H31.9725V56.5696H32.0365V56.6016H32.1005V56.6336H32.1646V56.6657H32.1966V56.6977H32.2606V56.7297H32.3246V56.7617H32.3887V56.7937H32.4207V56.8257H32.4847V56.8577H32.5487V56.8898H32.5807V56.9218H32.6448V56.9538H32.7088V56.9858H32.7728V57.0178H32.8048V57.0498H32.8689V57.0818H32.9329V57.1139H32.9969V57.1459H33.0289V57.1779H33.093V57.2099H33.157V57.2419H33.221V57.2739H33.253V57.3059H33.3171V57.338H33.3811V57.37H33.4131V57.402H33.4771V57.434H33.5412V57.466H33.6052V57.498H33.6372V57.5301H33.7013V57.5621H33.7653V57.5941H33.8293V57.6261H33.8613V57.6581H33.9254V57.6901H33.9894V57.7221H34.0534V57.7542H34.0854V57.7862H34.1495V57.8182H34.2135V57.8502H34.2455V57.8822H34.3095V57.9142H34.3736V57.9462H34.4376V57.9783H34.4696V58.0103H34.5656V57.9783H34.6297V57.9462H34.6937V57.9142H34.7257V57.8822H34.7897V57.8502H34.8538V57.8182H34.9178V57.7862H34.9498V57.7542H35.0138V57.7221H35.0779V57.6901H35.1419V57.6581H35.1739V57.6261H35.2379V57.5941H35.302V57.5621H35.334V57.5301H35.398V57.498H35.4621V57.466H35.5261V57.434H35.5581V57.402H35.6221V57.37H35.6862V57.338H35.7502V57.3059H35.7822V57.2739H35.8462V57.2419H35.9103V57.2099H35.9423V57.1779H36.0063V57.1459H36.0703V57.1139H36.1344V57.0818H36.1664V57.0498H36.2304V57.0178H36.2944V56.9858H36.3585V56.9538H36.3905V56.9218H36.4545V56.8898H36.5185V56.8577H36.5826V56.8257H36.6146V56.7937H36.6786V56.7617H36.7426V56.7297H36.7746V56.6977H36.8387V56.6657H36.9027V56.6336H36.9667V56.6016H36.9987V56.5696H37.0628V56.5376H37.1268V56.5056H37.1908V56.4736H37.2229V56.4416H37.2869V56.4095H37.3509V56.3775H37.4149V56.3455H37.4469V56.3135H37.511V56.2815H37.575V56.2495H37.607V56.2175H37.6711V56.1854H37.7351V56.1534H37.7991V56.1214H37.8311V56.0894H37.8952V56.0574H37.9592V56.0254H38.0232V55.9934H38.0552V55.9613H38.1193V55.9293H38.1833V55.8973H38.2153V55.8653H38.2793V55.8333H38.3434V55.8013H38.4074V55.7693H38.4394V55.7372H38.5034V55.7052H38.5675V55.6732H38.6315V55.6412H38.6635V55.6092H38.7275V55.5772H38.7916V55.5452H38.8556V55.5131H38.8876V55.4811H38.9516V55.4491H39.0157V55.4171H39.0477V55.3851H39.1117V55.3531H39.1757V55.321H39.2398V55.289H39.2718V55.257H39.3358V55.225H39.3998V55.193H39.4639V55.161H39.4959V55.129H39.5599V55.0969H39.6239V55.0649H39.688V55.0329H39.72V55.0009H39.784V54.9689H39.848V54.9369H39.8801V54.9049H39.9441V54.8728H40.0081V54.8408H40.0721V54.8088H40.1042V54.7768H40.1682V54.7448H40.2322V54.7128H40.2962V54.6808H40.3283V54.6487H40.3923V54.6167H40.4563V54.5847H40.4883V54.5527H40.5524V54.5207H40.6164V54.4887H40.6804V54.4567H40.7124V54.4246H40.7765V54.3926H40.8405V54.3606H40.9045V54.3286H40.9365V54.2966H41.0006V54.2646H41.0646V54.2326H41.1286V54.2005H41.1606V54.1685H41.2247V54.1365H41.2887V54.1045H41.3207V54.0725H41.3847V54.0405H41.4488V54.0085H41.5128V53.9764H41.5448V53.9444H41.6088V53.9124H41.6729V53.8804H41.7369V53.8484H41.7689V53.8164H41.8329V53.7844H41.897V53.7523H41.929V53.7203H41.993V53.6883H42.057V53.6563H42.1211V53.6243H42.1531V53.5923H42.2171V53.5603H42.2811V53.5282H42.3452V53.4962H42.3772V53.4642H42.4412V53.4322H42.5052V53.4002H42.5693V53.3682H42.6013V53.3361H42.6653V53.3041H42.7293V53.2721H42.7614V53.2401H42.8254V53.2081H42.8894V53.1761H42.9534V53.1441H42.9855V53.112H43.0495V53.08H43.1135V53.048H43.1775V53.016H43.2096V52.984H43.2736V52.952H43.3376V52.92H43.4016V52.8879H43.4337V52.8559H43.4977V52.8239H43.5617V52.7919H43.5937V52.7599H43.6578V52.7279H43.7218V52.6959H43.7858V52.6638H43.8178V52.6318H43.8819V52.5998H43.9459V52.5678H44.0099V52.5358H44.0419V52.5038H44.106V52.4718H44.17V52.4397H44.202V52.4077H44.266V52.3757H44.3301V52.3437H44.3941V52.3117H44.4261V52.2797H44.4901V52.2477H44.5542V52.2156H44.6182V52.1836H44.6502V52.1516H44.7142V52.1196H44.7783V52.0876H44.8423V52.0556H44.8743V52.0236H44.9383V51.9915H45.0024V51.9595H45.0344V51.9275H45.0984V51.8955H45.1624V51.8635H45.2265V51.8315H45.2585V51.7995H45.3225V51.7674H45.3866V51.7354H45.4506V51.7034H45.4826V51.6714H45.5466V51.6394H45.6106V51.6074H45.6747V51.5754H45.7067V51.5433H45.7707V51.5113H45.8348V51.4793H45.8668V51.4473H45.9308V51.4153H45.9948V51.3833H46.0589V51.3512H46.0909V51.3192H46.1549V51.2872H46.2189V51.2552H46.283V51.2232H46.315V51.1912H46.379V51.1592H46.443V51.1271H46.475V51.0951H46.5391V51.0631H46.6031V51.0311H46.6671V50.9991H46.6991V50.9671H46.7632V50.9351H46.8272V50.903H46.8912V50.871H46.9232V50.839H46.9873V50.807H47.0513V50.775H47.1153V50.743H47.1473V50.711H47.2114V50.6789H47.2754V50.6469H47.3074V50.6149H47.3714V50.5829H47.4355V50.5509H47.4995V50.5189H47.5315V50.4869H47.5956V50.4548H47.6596V50.4228H47.7236V50.3908H47.7556V50.3588H47.8197V50.3268H47.8837V50.2948H47.9477V50.2628H47.9797V50.2307H48.0438V50.1987H48.1078V50.1667H48.1398V50.1347H48.2038V50.1027H48.2679V50.0707H48.3319V50.0387H48.3639V50.0066H48.4279V49.9746H48.492V49.9426H48.556V49.9106H48.588V49.8786H48.652V49.8466H48.7161V49.8146H48.7481V49.7825H48.8121V49.7505H48.8761V49.7185H48.9402V49.6865H48.9722V49.6545H49.0362V49.6225H49.1002V49.5905H49.1643V49.5584H49.1963V49.5264H49.2603V49.4944H49.3243V49.4624H49.3884V49.4304H49.4204V49.3984H49.4844V49.3664H49.5484V49.3343H49.5805V49.3023H49.6445V49.2703H49.7085V49.2383H49.7725V49.2063H49.8046V49.1743H49.8686V49.1422H49.9326V49.1102H49.9966V49.0782H50.0287V49.0462H50.0927V49.0142H50.1567V48.9822H50.1887V48.9502H50.2528V48.9181H50.3168V48.8861H50.3808V48.8541H50.4128V48.8221H50.4769V48.7901H50.5409V48.7581H50.6049V48.7261H50.6369V48.694H50.701V48.662H50.765V48.63H50.829V48.598H50.861V48.566H50.9251V48.534H50.9891V48.502H51.0211V48.4699H51.0851V48.4379H51.1492V48.4059H51.2132V48.3739H51.2452V48.3419H51.3092V48.3099H51.3733V48.2779H51.4373V48.2458H51.4693V48.2138H51.5333V48.1818H51.5974V48.1498H51.6614V48.1178H51.6934V48.0858H51.7574V48.0538H51.8215V48.0217H51.8535V47.9897H51.9175V47.9577H51.9815V47.9257H52.0456V47.8937H52.0776V47.8617H52.1416V47.8297H52.2056V47.7976H52.2697V47.7656H52.3017V47.7336H52.3657V47.7016H52.4297V47.6696H52.4618V47.6376H52.5258V47.6056H52.5898V47.5735H52.6538V47.5415H52.6859V47.5095H52.7499V47.4775H52.8139V47.4455H52.8779V47.4135H52.91V47.3815H52.974V47.3494H53.038V47.3174H53.102V47.2854H53.1341V47.2534H53.1981V47.2214H53.2621V47.1894H53.2941V47.1573H53.3582V47.1253H53.4222V47.0933H53.4862V47.0613H53.5182V47.0293H53.5823V46.9973H53.6463V46.9653H53.7103V46.9332H53.7423V46.9012H53.8064V46.8692H53.8704V46.8372H53.9344V46.8052H53.9664V46.7732H54.0305V46.7412H54.0945V46.7091H54.1265V46.6771H54.1905V46.6451H54.2546V46.6131H54.3186V46.5811H54.3506V46.5491H54.4146V46.5171H54.4787V46.485H54.5427V46.453H54.5747V46.421H54.6387V46.389H54.7028V46.357H54.7348V46.325H54.7988V46.293H54.8628V46.2609H54.9269V46.2289H54.9589V46.1969H55.0229V46.1649H55.0869V46.1329H55.151V46.1009H55.183V46.0689H55.247V46.0368H55.311V46.0048H55.3751V45.9728H55.4071V45.9408H55.4711V45.9088H55.5351V45.8768H55.5672V45.8448H55.6312V45.8127H55.6952V45.7807H55.7593V45.7487H55.7913V45.7167H55.8553V45.6847H55.9193V45.6527H55.9834V45.6207H56.0154V45.5886H56.0794V45.5566H56.1434V45.5246H56.2075V45.4926H56.2395V45.4606H56.3035V45.4286H56.3675V45.3965H56.3995V45.3645H56.4636V45.3325H56.5276V45.3005H56.5916V45.2685H56.6236V45.2365H56.6877V45.2045H56.7517V45.1724H56.8157V45.1404H56.8477V45.1084H56.9118V45.0764H56.9758V45.0444H57.0078V45.0124H57.0718V44.9804H57.1359V44.9483H57.1999V44.9163H57.2319V44.8843H57.2959V44.8523H57.36V44.8203H57.424V44.7883H57.456V44.7563H57.5201V44.7242H57.5841V44.6922H57.6481V44.6602H57.6801V44.6282H57.7442V44.5962H57.8082V44.5642H57.8402V44.5322H57.9042V44.5001H57.9683V44.4681H58.0323V44.4361H58.0643V44.4041H58.1283V44.3721H58.1924V44.3401H58.2564V44.3081H58.2884V44.276H58.3524V44.244H58.4165V44.212H58.4485V44.18H58.5125V44.148H58.5765V44.116H58.6406V44.084H58.6726V44.0519H58.7366V44.0199H58.8006V43.9879H58.8647V43.9559H58.8967V43.9239H58.9607V43.8919H59.0247V43.8599H59.0888V43.8278H59.1208V43.7958H59.1848V43.7638H59.2488V43.7318H59.2808V43.6998H59.3449V43.6678H59.4089V43.6358H59.4729V43.6037H59.5049V43.5717H59.569V43.5397H59.633V43.5077H59.697V43.4757H59.729V43.4437H59.7931V43.4116H59.8571V43.3796H59.9211V43.3476H59.9532V43.3156H60.0172V43.2836H60.0812V43.2516H60.1132V43.2196H60.1773V43.1875H60.2413V43.1555H60.2733V8.09964H60.3053V8.13165H60.3693V8.16367H60.4334V8.19568H60.4654V8.2277H60.5294V8.25971H60.5934V8.29173H60.6575V8.32374H60.6895V8.35575H60.7535V8.38777H60.8175V8.41978H60.8816V8.4518H60.9136V8.48381H60.9776V8.51583H61.0416V8.54784H61.1057V8.57986H61.1377V8.61187H61.2017V8.64389H61.2657V8.6759H61.2978V8.70792H61.3618V8.73993H61.4258V8.77195H61.4898V8.80396H61.5219V8.83597H61.5859V8.86799H61.6499V8.9H61.714V8.93202H61.746V8.96403H61.81V8.99604H61.874V9.02806H61.9381V9.06007H61.9701V9.09209H62.0341V9.1241H62.0981V9.15612H62.1301V9.18813H62.1942V9.22015H62.2582V9.25216H62.3222V9.28418H62.3542V9.31619H62.4183V9.34821H62.4823V9.38022H62.5463V9.41224H62.5783V9.44425H62.6424V9.47626H62.7064V9.50828H62.7704V9.54029H62.8024V9.57231H62.8665V9.60432H62.9305V9.63634H62.9625V9.66835H63.0265V9.70037H63.0906V9.73238H63.1546V9.76439H63.1866V9.79641H63.2506V9.82842H63.3147V9.86044H63.3787V9.89245H63.4107V9.92447H63.4747V9.95648H63.5388V9.98849H63.5708V10.0205H63.6348V10.0525H63.6988V10.0845H63.7629V10.1166H63.7949V10.1486H63.8589V10.1806H63.923V10.2126H63.987V10.2446H64.019V10.2766H64.083V10.3086H64.1471V10.3407H64.2111V10.3727H64.2431V10.4047H64.3071V10.4367H64.3712V10.4687H64.4032V10.5007H64.4672V10.5327H64.5312V10.5648H64.5953V10.5968H64.6273V10.6288H64.6913V10.6608H64.7553V10.6928H64.8194V10.7248H64.8514V10.7568H64.9154V10.7889H64.9794V10.8209H65.0435V10.8529H65.0755V10.8849H65.1395V10.9169H65.2035V10.9489H65.2355V10.9809H65.2996V11.013H65.3636V11.045H65.4276V11.077H65.4596V11.109H65.5237V11.141H65.5877V11.173H65.6517V11.205H65.6837V11.2371H65.7478V11.2691H65.8118V11.3011H65.8758V11.3331H65.9079V11.3651H65.9719V11.3971H66.0359V11.4291H66.0679V11.4612H66.132V11.4932H66.196V11.5252H66.26V11.5572H66.292V11.5892H66.3561V11.6212H66.4201V11.6533H66.4841V11.6853H66.5161V11.7173H66.5802V11.7493H66.6442V11.7813H66.7082V11.8133H66.7402V11.8453H66.8043V11.8774H66.8683V11.9094H66.9003V11.9414H66.9643V11.9734H67.0284V12.0054H67.0924V12.0374H67.1244V12.0694H67.1884V12.1015H67.2525V12.1335H67.3165V12.1655H67.3485V12.1975H67.4125V12.2295H67.4766V12.2615H67.5086V12.2935H67.5726V12.3256H67.6366V12.3576H67.7007V12.3896H67.7327V12.4216H67.7967V12.4536H67.8607V12.4856H67.9248V12.5176H67.9568V12.5497H68.0208V12.5817H68.0528V47.7016H67.9888V47.7336H67.9248V47.7656H67.8928V47.7976H67.8287V47.8297H67.7647V47.8617H67.7007V47.8937H67.6686V47.9257H67.6046V47.9577H67.5406V47.9897H67.4766V48.0217H67.4445V48.0538H67.3805V48.0858H67.3165V48.1178H67.2525V48.1498H67.2204V48.1818H67.1564V48.2138H67.0924V48.2458H67.0604V48.2779H66.9963V48.3099H66.9323V48.3419H66.8683V48.3739H66.8363V48.4059H66.7722V48.4379H66.7082V48.4699H66.6442V48.502H66.6122V48.534H66.5481V48.566H66.4841V48.598H66.4201V48.63H66.3881V48.662H66.324V48.694H66.26V48.7261H66.228V48.7581H66.164V48.7901H66.0999V48.8221H66.0359V48.8541H66.0039V48.8861H65.9399V48.9181H65.8758V48.9502H65.8118V48.9822H65.7798V49.0142H65.7158V49.0462H65.6517V49.0782H65.5877V49.1102H65.5557V49.1422H65.4917V49.1743H65.4276V49.2063H65.3956V49.2383H65.3316V49.2703H65.2676V49.3023H65.2035V49.3343H65.1715V49.3664H65.1075V49.3984H65.0435V49.4304H64.9794V49.4624H64.9474V49.4944H64.8834V49.5264H64.8194V49.5584H64.7553V49.5905H64.7233V49.6225H64.6593V49.6545H64.5953V49.6865H64.5632V49.7185H64.4992V49.7505H64.4352V49.7825H64.3712V49.8146H64.3391V49.8466H64.2751V49.8786H64.2111V49.9106H64.1471V49.9426H64.115V49.9746H64.051V50.0066H63.987V50.0387H63.923V50.0707H63.8909V50.1027H63.8269V50.1347H63.7629V50.1667H63.7309V50.1987H63.6668V50.2307H63.6028V50.2628H63.5388V50.2948H63.5068V50.3268H63.4427V50.3588H63.3787V50.3908H63.3147V50.4228H63.2827V50.4548H63.2186V50.4869H63.1546V50.5189H63.0906V50.5509H63.0586V50.5829H62.9945V50.6149H62.9305V50.6469H62.8985V50.6789H62.8345V50.711H62.7704V50.743H62.7064V50.775H62.6744V50.807H62.6104V50.839H62.5463V50.871H62.4823V50.903H62.4503V50.9351H62.3863V50.9671H62.3222V50.9991H62.2582V51.0311H62.2262V51.0631H62.1622V51.0951H62.0981V51.1271H62.0661V51.1592H62.0021V51.1912H61.9381V51.2232H61.874V51.2552H61.842V51.2872H61.778V51.3192H61.714V51.3512H61.6499V51.3833H61.6179V51.4153H61.5539V51.4473H61.4898V51.4793H61.4258V51.5113H61.3938V51.5433H61.3298V51.5754H61.2657V51.6074H61.2337V51.6394H61.1697V51.6714H61.1057V51.7034H61.0416V51.7354H61.0096V51.7674H60.9456V51.7995H60.8816V51.8315H60.8175V51.8635H60.7855V51.8955H60.7215V51.9275H60.6575V51.9595H60.5934V51.9915H60.5614V52.0236H60.4974V52.0556H60.4334V52.0876H60.4014V52.1196H60.3373V52.1516H60.2733V52.1836H60.2093V52.2156H60.1773V52.2477H60.1132V52.2797H60.0492V52.3117H59.9852V52.3437H59.9532V52.3757H59.8891V52.4077H59.8251V52.4397H59.7611V52.4718H59.729V52.5038H59.665V52.5358H59.601V52.5678H59.569V52.5998H59.5049V52.6318H59.4409V52.6638H59.3769V52.6959H59.3449V52.7279H59.2808V52.7599H59.2168V52.7919H59.1528V52.8239H59.1208V52.8559H59.0567V52.8879H58.9927V52.92H58.9287V52.952H58.8967V52.984H58.8326V53.016H58.7686V53.048H58.7366V53.08H58.6726V53.112H58.6085V53.1441H58.5445V53.1761H58.5125V53.2081H58.4485V53.2401H58.3844V53.2721H58.3204V53.3041H58.2884V53.3361H58.2244V53.3682H58.1603V53.4002H58.0963V53.4322H58.0643V53.4642H58.0003V53.4962H57.9362V53.5282H57.9042V53.5603H57.8402V53.5923H57.7762V53.6243H57.7121V53.6563H57.6801V53.6883H57.6161V53.7203H57.5521V53.7523H57.488V53.7844H57.456V53.8164H57.392V53.8484H57.328V53.8804H57.2639V53.9124H57.2319V53.9444H57.1679V53.9764H57.1039V54.0085H57.0398V54.0405H57.0078V54.0725H56.9438V54.1045H56.8798V54.1365H56.8477V54.1685H56.7837V54.2005H56.7197V54.2326H56.6557V54.2646H56.6236V54.2966H56.5596V54.3286H56.4956V54.3606H56.4316V54.3926H56.3995V54.4246H56.3355V54.4567H56.2715V54.4887H56.2075V54.5207H56.1754V54.5527H56.1114V54.5847H56.0474V54.6167H56.0154V54.6487H55.9513V54.6808H55.8873V54.7128H55.8233V54.7448H55.7913V54.7768H55.7272V54.8088H55.6632V54.8408H55.5992V54.8728H55.5672V54.9049H55.5031V54.9369H55.4391V54.9689H55.3751V55.0009H55.3431V55.0329H55.279V55.0649H55.215V55.0969H55.183V55.129H55.119V55.161H55.0549V55.193H54.9909V55.225H54.9589V55.257H54.8949V55.289H54.8308V55.321H54.7668V55.3531H54.7348V55.3851H54.6708V55.4171H54.6067V55.4491H54.5427V55.4811H54.5107V55.5131H54.4467V55.5452H54.3826V55.5772H54.3506V55.6092H54.2866V55.6412H54.2226V55.6732H54.1585V55.7052H54.1265V55.7372H54.0625V55.7693H53.9985V55.8013H53.9344V55.8333H53.9024V55.8653H53.8384V55.8973H53.7744V55.9293H53.7103V55.9613H53.6783V55.9934H53.6143V56.0254H53.5503V56.0574H53.5182V56.0894H53.4542V56.1214H53.3902V56.1534H53.3261V56.1854H53.2941V56.2175H53.2301V56.2495H53.1661V56.2815H53.102V56.3135H53.07V56.3455H53.006V56.3775H52.942V56.4095H52.8779V56.4416H52.8459V56.4736H52.7819V56.5056H52.7179V56.5376H52.6859V56.5696H52.6218V56.6016H52.5578V56.6336H52.4938V56.6657H52.4618V56.6977H52.3977V56.7297H52.3337V56.7617H52.2697V56.7937H52.2377V56.8257H52.1736V56.8577H52.1096V56.8898H52.0456V56.9218H52.0136V56.9538H51.9495V56.9858H51.8855V57.0178H51.8535V57.0498H51.7895V57.0818H51.7254V57.1139H51.6614V57.1459H51.6294V57.1779H51.5653V57.2099H51.5013V57.2419H51.4373V57.2739H51.4053V57.3059H51.3412V57.338H51.2772V57.37H51.2132V57.402H51.1812V57.434H51.1171V57.466H51.0531V57.498H51.0211V57.5301H50.9571V57.5621H50.893V57.5941H50.829V57.6261H50.797V57.6581H50.733V57.6901H50.6689V57.7221H50.6049V57.7542H50.5729V57.7862H50.5089V57.8182H50.4448V57.8502H50.3808V57.8822H50.3488V57.9142H50.2848V57.9462H50.2207V57.9783H50.1887V58.0103H50.1247V58.0423H50.0607V58.0743H49.9966V58.1063H49.9646V58.1383H49.9006V58.1703H49.8366V58.2024H49.7725V58.2344H49.7405V58.2664H49.6765V58.2984H49.6125V58.3304H49.5484V58.3624H49.5164V58.3944H49.4524V58.4265H49.3884V58.4585H49.3563V58.4905H49.2923V58.5225H49.2283V58.5545H49.1643V58.5865H49.1322V58.6185H49.0682V58.6506H49.0042V58.6826H48.9402V58.7146H48.9081V58.7466H48.8441V58.7786H48.7801V58.8106H48.7161V58.8426H48.684V58.8747H48.62V58.9067H48.556V58.9387H48.524V58.9707H48.4599V59.0027H48.3959V59.0347H48.3319V59.0667H48.2999V59.0988H48.2358V59.1308H48.1718V59.1628H48.1078V59.1948H48.0758V59.2268H48.0117V59.2588H47.9477V59.2908H47.8837V59.3229H47.8517V59.3549H47.7876V59.3869H47.7236V59.4189H47.6916V59.4509H47.6276V59.4829H47.5635V59.515H47.4995V59.547H47.4675V59.579H47.4035V59.611H47.3394V59.643H47.2754V59.675H47.2434V59.707H47.1794V59.7391H47.1153V59.7711H47.0513V59.8031H47.0193V59.8351H46.9553V59.8671H46.8912V59.8991H46.8272V59.9311H46.7952V59.9632H46.7312V59.9952H46.6671V60.0272H46.6351V60.0592H46.5711V60.0912H46.5071V60.1232H46.443V60.1552H46.411V60.1873H46.347V60.2193H46.283V60.2513H46.2189V60.2833H46.1869V60.3153H46.1229V60.3473H46.0589V60.3793H45.9948V60.4114H45.9628V60.4434H45.8988V60.4754H45.8348V60.5074H45.8027V60.5394H45.7387V60.5714H45.6747V60.6034H45.6106V60.6355H45.5786V60.6675H45.5146V60.6995H45.4506V60.7315H45.3866V60.7635H45.3545V60.7955H45.2905V60.8275H45.2265V60.8596H45.1624V60.8916H45.1304V60.9236H45.0664V60.9556H45.0024V60.9876H44.9704V61.0196H44.9063V61.0516H44.8423V61.0837H44.7783V61.1157H44.7463V61.1477H44.6822V61.1797H44.6182V61.2117H44.5542V61.2437H44.5222V61.2757H44.4581V61.3078H44.3941V61.3398H44.3301V61.3718H44.2981V61.4038H44.234V61.4358H44.17V61.4678H44.138V61.4999H44.074V61.5319H44.0099V61.5639H43.9459V61.5959H43.9139V61.6279H43.8499V61.6599H43.7858V61.6919H43.7218V61.724H43.6898V61.756H43.6258V61.788H43.5617V61.82H43.4977V61.852H43.4657V61.884H43.4016V61.916H43.3376V61.9481H43.3056V61.9801H43.2416V62.0121H43.1775V62.0441H43.1135V62.0761H43.0815V62.1081H43.0175V62.1401H42.9534V62.1722H42.8894V62.2042H42.8574V62.2362H42.7934V62.2682H42.7293V62.3002H42.6653V62.3322H42.6333V62.3642H42.5693V62.3963H42.5052V62.4283H42.4732V62.4603H42.4092V62.4923H42.3452V62.5243H42.2811V62.5563H42.2491V62.5883H42.1851V62.6204H42.1211V62.6524H42.057V62.6844H42.025V62.7164H41.961V62.7484H41.897V62.7804H41.8329V62.8124H41.8009V62.8445H41.7369V62.8765H41.6729V62.9085H41.6409V62.9405H41.5768V62.9725H41.5128V63.0045H41.4488V63.0365H41.4167V63.0686H41.3527V63.1006H41.2887V63.1326H41.2247V63.1646H41.1926V63.1966H41.1286V63.2286H41.0646V63.2606H41.0006V63.2927H40.9685V63.3247H40.9045V63.3567H40.8405V63.3887H40.8085V63.4207H40.7444V63.4527H40.6804V63.4848H40.6164V63.5168H40.5844V63.5488H40.5203V63.5808H40.4563V63.6128H40.3923V63.6448H40.3603V63.6768H40.2962V63.7089H40.2322V63.7409H40.1682V63.7729H40.1362V63.8049H40.0721V63.8369H40.0081V63.8689H39.9761V63.9009H39.9121V63.933H39.848V63.965H39.784V63.997H39.752V64.029H39.688V64.061H39.6239V64.093H39.5599V64.125H39.5279V64.1571H39.4639V64.1891H39.3998V64.2211H39.3358V64.2531H39.3038V64.2851H39.2398V64.3171H39.1757V64.3491H39.1437V64.3812H39.0797V64.4132H39.0157V64.4452H38.9516V64.4772H38.9196V64.5092H38.8556V64.5412H38.7916V64.5732H38.7275V64.6053H38.6955V64.6373H38.6315V64.6693H38.5675V64.7013H38.5034V64.7333H38.4714V64.7653H38.4074V64.7973H38.3434V64.8294H38.3113V64.8614H38.2473V64.8934H38.1833V64.9254H38.1193V64.9574H38.0872V64.9894H38.0232V65.0214H37.9592V65.0535H37.8952V65.0855H37.8631V65.1175H37.7991V65.1495H37.7351V65.1815H37.6711V65.2135H37.639V65.2455H37.575V65.2776H37.511V65.3096H37.479V65.3416H37.4149V65.3736H37.3509V65.4056H37.2869V65.4376H37.2549V65.4697H37.1908V65.5017H37.1268V65.5337H37.0628V65.5657H37.0308V65.5977H36.9667V65.6297H36.9027V65.6617H36.8387V65.6938H36.8067V65.7258H36.7426V65.7578H36.6786V65.7898H36.6146V65.8218H36.5826V65.8538H36.5185V65.8858H36.4545V65.9179H36.4225V65.9499H36.3585V65.9819H36.2944V66.0139H36.2304V66.0459H36.1984V66.0779H36.1344V66.1099H36.0703V66.142H36.0063V66.174H35.9743V66.206H35.9103V66.238H35.8462V66.27H35.7822V66.302H35.7502V66.334H35.6862V66.3661H35.6221V66.3981H35.5901V66.4301H35.5261V66.4621H35.4621V66.4941H35.398V66.5261H35.366V66.5581H35.302V66.5902H35.2379V66.6222H35.1739V66.6542H35.1419V66.6862H35.0779V66.7182H35.0138V66.7502H34.9498V66.7822H34.9178V66.8143H34.8538V66.8463H34.7897V66.8783H34.7577V66.9103H34.6937V66.9423H34.6297V66.9743H34.5656V67.0063H34.4376ZM34.4696 51.0951V51.0631H34.4056V51.0311H34.3415V50.9991H34.3095V50.9671H34.2455V50.9351H34.1815V50.903H34.1174V50.871H34.0854V50.839H34.0214V50.807H33.9574V50.775H33.8933V50.743H33.8613V50.711H33.7973V50.6789H33.7333V50.6469H33.7013V50.6149H33.6372V50.5829H33.5732V50.5509H33.5092V50.5189H33.4771V50.4869H33.4131V50.4548H33.3491V50.4228H33.2851V50.3908H33.253V50.3588H33.189V50.3268H33.125V50.2948H33.061V50.2628H33.0289V50.2307H32.9649V50.1987H32.9009V50.1667H32.8689V50.1347H32.8048V50.1027H32.7408V50.0707H32.6768V50.0387H32.6448V50.0066H32.5807V49.9746H32.5167V49.9426H32.4527V49.9106H32.4207V49.8786H32.3566V49.8466H32.2926V49.8146H32.2286V49.7825H32.1966V49.7505H32.1325V49.7185H32.0685V49.6865H32.0365V49.6545H31.9725V49.6225H31.9084V49.5905H31.8444V49.5584H31.8124V49.5264H31.7484V49.4944H31.6843V49.4624H31.6203V49.4304H31.5883V49.3984H31.5243V49.3664H31.4602V49.3343H31.3962V49.3023H31.3642V49.2703H31.3002V49.2383H31.2361V49.2063H31.2041V49.1743H31.1401V49.1422H31.0761V49.1102H31.012V49.0782H30.98V49.0462H30.916V49.0142H30.852V48.9822H30.7879V48.9502H30.7559V48.9181H30.6919V48.8861H30.6279V48.8541H30.5638V48.8221H30.5318V48.7901H30.4678V48.7581H30.4038V48.7261H30.3717V48.694H30.3077V48.662H30.2437V48.63H30.1797V48.598H30.1476V48.566H30.0836V48.534H30.0196V48.502H29.9556V48.4699H29.9235V48.4379H29.8595V48.4059H29.7955V48.3739H29.7315V48.3419H29.6994V48.3099H29.6354V48.2779H29.5714V48.2458H29.5394V48.2138H29.4753V48.1818H29.4113V48.1498H29.3473V48.1178H29.3153V48.0858H29.2512V48.0538H29.1872V48.0217H29.1232V47.9897H29.0912V47.9577H29.0271V47.9257H28.9631V47.8937H28.8991V47.8617H28.8671V47.8297H28.803V47.7976H28.739V47.7656H28.707V47.7336H28.643V47.7016H28.5789V47.6696H28.5149V47.6376H28.4829V47.6056H28.4189V47.5735H28.3548V47.5415H28.2908V47.5095H28.2588V47.4775H28.1948V47.4455H28.1307V47.4135H28.0667V47.3815H28.0347V47.3494H27.9707V47.3174H27.9066V47.2854H27.8746V47.2534H27.8106V47.2214H27.7466V47.1894H27.6825V47.1573H27.6505V47.1253H27.5865V47.0933H27.5225V47.0613H27.4584V47.0293H27.4264V46.9973H27.3624V46.9653H27.2984V46.9332H27.2343V46.9012H27.2023V46.8692H27.1383V46.8372H27.0742V46.8052H27.0422V46.7732H26.9782V46.7412H26.9142V46.7091H26.8501V46.6771H26.8181V46.6451H26.7541V46.6131H26.6901V46.5811H26.626V46.5491H26.594V46.5171H26.53V46.485H26.466V46.453H26.4019V46.421H26.3699V46.389H26.3059V46.357H26.2419V46.325H26.2099V46.293H26.1458V46.2609H26.0818V46.2289H26.0178V46.1969H25.9858V46.1649H25.9217V46.1329H25.8577V46.1009H25.7937V46.0689H25.7617V46.0368H25.6976V46.0048H25.6336V45.9728H25.5696V45.9408H25.5376V45.9088H25.4735V45.8768H25.4095V45.8448H25.3775V45.8127H25.3134V45.7807H25.2494V45.7487H25.1854V45.7167H25.1534V45.6847H25.0893V45.6527H25.0253V45.6207H24.9613V45.5886H24.9293V45.5566H24.8652V45.5246H24.8012V45.4926H24.7372V45.4606H24.7052V45.4286H24.6411V45.3965H24.5771V45.3645H24.5451V45.3325H24.4811V45.3005H24.417V45.2685H24.353V45.2365H24.321V45.2045H24.257V45.1724H24.1929V45.1404H24.1289V45.1084H24.0969V45.0764H24.0329V45.0444H23.9688V45.0124H23.9048V44.9804H23.8728V44.9483H23.8088V44.9163H23.7447V44.8843H23.7127V44.8523H23.6487V44.8203H23.5847V44.7883H23.5206V44.7563H23.4886V44.7242H23.4246V44.6922H23.3606V44.6602H23.2965V44.6282H23.2645V44.5962H23.2005V44.5642H23.1365V44.5322H23.0724V44.5001H23.0404V44.4681H22.9764V44.4361H22.9124V44.4041H22.8803V44.3721H22.8163V44.3401H22.7523V44.3081H22.6883V44.276H22.6562V44.244H22.5922V44.212H22.5282V44.18H22.4642V44.148H22.4321V44.116H22.3681V44.084H22.3041V44.0519H22.2401V44.0199H22.208V43.9879H22.144V43.9559H22.08V43.9239H22.048V43.8919H21.9839V43.8599H21.9199V43.8278H21.8559V43.7958H21.8239V43.7638H21.7598V43.7318H21.6958V43.6998H21.6318V43.6678H21.5998V43.6358H21.5357V43.6037H21.4717V43.5717H21.4077V43.5397H21.3757V43.5077H21.3116V43.4757H21.2476V43.4437H21.2156V43.4116H21.1516V43.3796H21.0875V43.3476H21.0235V43.3156H20.9915V43.2836H20.9275V43.2516H20.8634V43.2196H20.7994V43.1875H20.7674V43.1555H20.7034V43.1235H20.6393V43.0915H20.5753V43.0595H20.5433V43.0275H20.4793V42.9955H20.4152V42.9634H20.3832V42.9314H20.3192V42.8994H20.2552V42.8674H20.1911V42.8354H20.1591V42.8034H20.0951V42.7714H20.0311V42.7393H19.967V42.7073H19.935V42.6753H19.871V42.6433H19.807V42.6113H19.7429V42.5793H19.7109V42.5473H19.6469V42.5152H19.5829V42.4832H19.5508V42.4512H19.4868V42.4192H19.4228V42.3872H19.3588V42.3552H19.3267V42.3232H19.2627V42.2911H19.1987V42.2591H19.1346V42.2271H19.1026V42.1951H19.0386V42.1631H18.9746V42.1311H18.9105V42.0991H18.8785V42.067H18.8145V42.035H18.7505V42.003H18.7185V41.971H18.6544V41.939H18.5904V41.907H18.5264V41.875H18.4944V41.8429H18.4303V41.8109H18.3663V41.7789H18.3023V41.7469H18.2703V41.7149H18.2062V41.6829H18.1422V41.6509H18.0782V41.6188H18.0462V41.5868H17.9821V41.5548H17.9181V41.5228H17.8861V41.4908H17.8221V41.4588H17.758V41.4268H17.694V41.3947H17.662V41.3627H17.598V41.3307H17.5339V41.2987H17.4699V41.2667H17.4379V41.2347H17.3739V41.2026H17.3098V41.1706H17.2458V41.1386H17.2138V41.1066H17.1497V41.0746H17.0857V41.0426H17.0537V41.0106H16.9897V40.9785H16.9256V40.9465H16.8616V40.9145H16.8296V40.8825H16.7656V40.8505H16.7015V40.8185H16.6375V40.7865H16.6055V40.7544H16.5415V40.7224H16.4774V40.6904H16.4134V40.6584H16.3814V40.6264H16.3174V40.5944H16.2533V40.5624H16.2213V40.5303H16.1573V40.4983H16.0933V40.4663H16.0292V40.4343H15.9972V40.4023H15.9332V40.3703H15.8692V40.3383H15.8051V40.3062H15.7731V40.2742H15.7091V40.2422H15.6451V40.2102H15.581V40.1782H15.549V40.1462H15.485V40.1142H15.421V40.0821H15.389V40.0501H15.3249V40.0181H15.2609V39.9861H15.1969V39.9541H15.1649V39.9221H15.1008V39.8901H15.0368V39.858H14.9728V39.826H14.9407V39.794H14.8767V39.762H14.8127V39.73H14.7807V4.61006H14.8127V4.57804H14.8767V4.54603H14.9087V4.51402H14.9728V4.482H15.0368V4.44999H15.1008V4.41797H15.1328V4.38596H15.1969V4.35394H15.2609V4.32193H15.2929V4.28991H15.3569V4.2579H15.421V4.22588H15.485V4.19387H15.517V4.16185H15.581V4.12984H15.6451V4.09782H15.7091V4.06581H15.7411V4.03379H15.8051V4.00178H15.8692V3.96977H15.9012V3.93775H15.9652V3.90574H16.0292V3.87372H16.0933V3.84171H16.1253V3.8097H16.1893V3.77768H16.2533V3.74567H16.3174V3.71365H16.3494V3.68164H16.4134V3.64962H16.4774V3.61761H16.5415V3.58559H16.5735V3.55358H16.6375V3.52156H16.7015V3.48955H16.7336V3.45753H16.7976V3.42552H16.8616V3.39351H16.9256V3.36149H16.9577V3.32948H17.0217V3.29746H17.0857V3.26545H17.1497V3.23343H17.1818V3.20142H17.2458V3.1694H17.3098V3.13739H17.3418V3.10537H17.4059V3.07336H17.4699V3.04135H17.5339V3.00933H17.5659V2.97732H17.63V2.9453H17.694V2.91329H17.758V2.88127H17.79V2.84926H17.8541V2.81725H17.9181V2.78523H17.9821V2.75321H18.0141V2.7212H18.0782V2.68919H18.1422V2.65717H18.1742V2.62516H18.2382V2.59314H18.3023V2.56113H18.3663V2.52911H18.3983V2.4971H18.4623V2.46509H18.5264V2.43307H18.5904V2.40105H18.6224V2.36904H18.6864V2.33703H18.7505V2.30502H18.8145V2.27299H18.8465V2.24098H18.9105V2.20897H18.9746V2.17696H19.0066V2.14494H19.0706V2.11292H19.1346V2.08091H19.1987V2.0489H19.2307V2.01688H19.2947V1.98487H19.3588V1.95285H19.4228V1.92084H19.4548V1.88882H19.5188V1.85681H19.5829V1.82479H19.6149V1.79278H19.6789V1.76077H19.7429V1.72875H19.807V1.69674H19.839V1.66472H19.903V1.63271H19.967V1.60069H20.0311V1.56868H20.0631V1.53667H20.1271V1.50465H20.1911V1.47263H20.2552V1.44062H20.2872V1.40861H20.3512V1.37659H20.4152V1.34457H20.4472V1.31256H20.5113V1.28055H20.5753V1.24854H20.6393V1.21652H20.6713V1.1845H20.7354V1.15249H20.7994V1.12048H20.8634V1.08846H20.8954V1.05645H20.9595V1.02443H21.0235V0.992416H21.0555V0.960403H21.1195V0.928391H21.1836V0.89637H21.2476V0.864357H21.2796V0.832344H21.3437V0.800331H21.4077V0.768318H21.4717V0.736298H21.5037V0.704285H21.5678V0.672272H21.6318V0.640259H21.6958V0.608246H21.7278V0.576225H21.7919V0.544212H21.8559V0.512199H21.8879V0.480186H21.9519V0.448174H22.016V0.416153H22.08V0.38414H22.112V0.352127H22.176V0.320114H22.2401V0.288101H22.3041V0.256081H22.3361V0.224068H22.4001V0.192055H22.4642V0.160042H22.5282V0.128029H22.5602V0.0960083H22.6242V0.0639954H22.6883V0.0319824H22.7203V-3.05176e-05H22.8803V0.0319824H22.9124V0.0639954H22.9764V0.0960083H23.0404V0.128029H23.0724V0.160042H23.1365V0.192055H23.2005V0.224068H23.2645V0.256081H23.2965V0.288101H23.3606V0.320114H23.4246V0.352127H23.4886V0.38414H23.5206V0.416153H23.5847V0.448174H23.6487V0.480186H23.7127V0.512199H23.7447V0.544212H23.8088V0.576225H23.8728V0.608246H23.9048V0.640259H23.9688V0.672272H24.0329V0.704285H24.0969V0.736298H24.1289V0.768318H24.1929V0.800331H24.257V0.832344H24.321V0.864357H24.353V0.89637H24.417V0.928391H24.4811V0.960403H24.5131V0.992416H24.5771V1.02443H24.6411V1.05645H24.7052V1.08846H24.7372V1.12048H24.8012V1.15249H24.8652V1.1845H24.9293V1.21652H24.9613V1.24854H25.0253V1.28055H25.0893V1.31256H25.1534V1.34457H25.1854V1.37659H25.2494V1.40861H25.3134V1.44062H25.3455V1.47263H25.4095V1.50465H25.4735V1.53667H25.5376V1.56868H25.5696V1.60069H25.6336V1.63271H25.6976V1.66472H25.7617V1.69674H25.7937V1.72875H25.8577V1.76077H25.9217V1.79278H25.9858V1.82479H26.0178V1.85681H26.0818V1.88882H26.1458V1.92084H26.1778V1.95285H26.2419V1.98487H26.3059V2.01688H26.3699V2.0489H26.4019V2.08091H26.466V2.11292H26.53V2.14494H26.594V2.17696H26.626V2.20897H26.6901V2.24098H26.7541V2.27299H26.7861V2.30502H26.8501V2.33703H26.9142V2.36904H26.9782V2.40105H27.0102V2.43307H27.0742V2.46509H27.1383V2.4971H27.2023V2.52911H27.2343V2.56113H27.2984V2.59314H27.3624V2.62516H27.4264V2.65717H27.4584V2.68919H27.5225V2.7212H27.5865V2.75321H27.6185V2.78523H27.6825V2.81725H27.7466V2.84926H27.8106V2.88127H27.8426V2.91329H27.9066V2.9453H27.9707V2.97732H28.0347V3.00933H28.0667V3.04135H28.1307V3.07336H28.1948V3.10537H28.2268V3.13739H28.2908V3.1694H28.3548V3.20142H28.4189V3.23343H28.4509V3.26545H28.5149V3.29746H28.5789V3.32948H28.643V3.36149H28.675V3.39351H28.739V3.42552H28.803V3.45753H28.8671V3.48955H28.8991V3.52156H28.9631V3.55358H29.0271V3.58559H29.0591V3.61761H29.1232V3.64962H29.1872V3.68164H29.2512V3.71365H29.2833V3.74567H29.3473V3.77768H29.4113V3.8097H29.4753V3.84171H29.5074V3.87372H29.5714V3.90574H29.6354V3.93775H29.6674V3.96977H29.7315V4.00178H29.7955V4.03379H29.8595V4.06581H29.8915V4.09782H29.9556V4.12984H30.0196V4.16185H30.0836V4.19387H30.1156V4.22588H30.1797V4.2579H30.2437V4.28991H30.3077V4.32193H30.3397V4.35394H30.4038V4.38596H30.4678V4.41797H30.4998V4.44999H30.5638V4.482H30.6279V4.51402H30.6919V4.54603H30.7239V4.57804H30.7879V4.61006H30.852V4.64207H30.916V4.67409H30.948V4.7061H31.012V4.73812H31.0761V4.77013H31.1401V4.80214H31.1721V4.83416H31.2361V4.86617H31.3002V4.89819H31.3322V4.9302H31.3962V4.96222H31.4602V4.99423H31.5243V5.02625H31.5563V5.05826H31.6203V5.09027H31.6843V5.12229H31.7484V5.1543H31.7804V5.18632H31.8444V5.21833H31.9084V5.25035H31.9405V5.28236H32.0045V5.31438H32.0685V5.34639H32.1325V5.37841H32.1646V5.41042H32.2286V5.44244H32.2926V5.47445H32.3566V5.50646H32.3887V5.53848H32.4527V5.57049H32.5167V5.60251H32.5807V5.63452H32.6128V5.66654H32.6768V5.69855H32.7408V5.73056H32.7728V5.76258H32.8369V5.79459H32.9009V5.82661H32.9649V5.85862H32.9969V5.89064H33.061V5.92265H33.125V5.95467H33.189V5.98668H33.221V6.0187H33.2851V6.05071H33.3491V6.08273H33.3811V6.11474H33.4451V6.14676H33.5092V6.17877H33.5732V6.21078H33.6052V6.2428H33.6692V6.27481H33.7333V6.30683H33.7973V6.33884H33.8293V6.37086H33.8933V6.40287H33.9574V6.43488H34.0214V6.4669H34.0534V6.49891H34.1174V6.53093H34.1815V6.56294H34.2135V6.59496H34.2775V6.62697H34.3415V6.65899H34.4056V6.691H34.4376V6.72301H34.5656V6.691H34.6297V6.65899H34.6937V6.62697H34.7257V6.59496H34.7897V6.56294H34.8538V6.53093H34.9178V6.49891H34.9498V6.4669H35.0138V6.43488H35.0779V6.40287H35.1419V6.37086H35.1739V6.33884H35.2379V6.30683H35.302V6.27481H35.334V6.2428H35.398V6.21078H35.4621V6.17877H35.5261V6.14676H35.5581V6.11474H35.6221V6.08273H35.6862V6.05071H35.7502V6.0187H35.7822V5.98668H35.8462V5.95467H35.9103V5.92265H35.9743V5.89064H36.0063V5.85862H36.0703V5.82661H36.1344V5.79459H36.1664V5.76258H36.2304V5.73056H36.2944V5.69855H36.3585V5.66654H36.3905V5.63452H36.4545V5.60251H36.5185V5.57049H36.5826V5.53848H36.6146V5.50646H36.6786V5.47445H36.7426V5.44244H36.7746V5.41042H36.8387V5.37841H36.9027V5.34639H36.9667V5.31438H36.9987V5.28236H37.0628V5.25035H37.1268V5.21833H37.1908V5.18632H37.2229V5.1543H37.2869V5.12229H37.3509V5.09027H37.4149V5.05826H37.4469V5.02625H37.511V4.99423H37.575V4.96222H37.607V4.9302H37.6711V4.89819H37.7351V4.86617H37.7991V4.83416H37.8311V4.80214H37.8952V4.77013H37.9592V4.73812H38.0232V4.7061H38.0552V4.67409H38.1193V4.64207H38.1833V4.61006H38.2473V4.57804H38.2793V4.54603H38.3434V4.51402H38.4074V4.482H38.4394V4.44999H38.5034V4.41797H38.5675V4.38596H38.6315V4.35394H38.6635V4.32193H38.7275V4.28991H38.7916V4.2579H38.8556V4.22588H38.8876V4.19387H38.9516V4.16185H39.0157V4.12984H39.0477V4.09782H39.1117V4.06581H39.1757V4.03379H39.2398V4.00178H39.2718V3.96977H39.3358V3.93775H39.3998V3.90574H39.4639V3.87372H39.4959V3.84171H39.5599V3.8097H39.6239V3.77768H39.688V3.74567H39.72V3.71365H39.784V3.68164H39.848V3.64962H39.8801V3.61761H39.9441V3.58559H40.0081V3.55358H40.0721V3.52156H40.1042V3.48955H40.1682V3.45753H40.2322V3.42552H40.2962V3.39351H40.3283V3.36149H40.3923V3.32948H40.4563V3.29746H40.5203V3.26545H40.5524V3.23343H40.6164V3.20142H40.6804V3.1694H40.7124V3.13739H40.7765V3.10537H40.8405V3.07336H40.9045V3.04135H40.9365V3.00933H41.0006V2.97732H41.0646V2.9453H41.1286V2.91329H41.1606V2.88127H41.2247V2.84926H41.2887V2.81725H41.3207V2.78523H41.3847V2.75321H41.4488V2.7212H41.5128V2.68919H41.5448V2.65717H41.6088V2.62516H41.6729V2.59314H41.7369V2.56113H41.7689V2.52911H41.8329V2.4971H41.897V2.46509H41.961V2.43307H41.993V2.40105H42.057V2.36904H42.1211V2.33703H42.1531V2.30502H42.2171V2.27299H42.2811V2.24098H42.3452V2.20897H42.3772V2.17696H42.4412V2.14494H42.5052V2.11292H42.5693V2.08091H42.6013V2.0489H42.6653V2.01688H42.7293V1.98487H42.7934V1.95285H42.8254V1.92084H42.8894V1.88882H42.9534V1.85681H42.9855V1.82479H43.0495V1.79278H43.1135V1.76077H43.1775V1.72875H43.2096V1.69674H43.2736V1.66472H43.3376V1.63271H43.4016V1.60069H43.4337V1.56868H43.4977V1.53667H43.5617V1.50465H43.5937V1.47263H43.6578V1.44062H43.7218V1.40861H43.7858V1.37659H43.8178V1.34457H43.8819V1.31256H43.9459V1.28055H44.0099V1.24854H44.0419V1.21652H44.106V1.1845H44.17V1.15249H44.234V1.12048H44.266V1.08846H44.3301V1.05645H44.3941V1.02443H44.4261V0.992416H44.4901V0.960403H44.5542V0.928391H44.6182V0.89637H44.6502V0.864357H44.7142V0.832344H44.7783V0.800331H44.8423V0.768318H44.8743V0.736298H44.9383V0.704285H45.0024V0.672272H45.0664V0.640259H45.0984V0.608246H45.1624V0.576225H45.2265V0.544212H45.2585V0.512199H45.3225V0.480186H45.3866V0.448174H45.4506V0.416153H45.4826V0.38414H45.5466V0.352127H45.6106V0.320114H45.6747V0.288101H45.7067V0.256081H45.7707V0.224068H45.8348V0.192055H45.8668V0.160042H45.9308V0.128029H45.9948V0.0960083H46.0589V0.0639954H46.0909V0.0319824H46.1549V-3.05176e-05H46.283V0.0319824H46.347V0.0639954H46.411V0.0960083H46.443V0.128029H46.5071V0.160042H46.5711V0.192055H46.6351V0.224068H46.6671V0.256081H46.7312V0.288101H46.7952V0.320114H46.8592V0.352127H46.8912V0.38414H46.9553V0.416153H47.0193V0.448174H47.0513V0.480186H47.1153V0.512199H47.1794V0.544212H47.2434V0.576225H47.2754V0.608246H47.3394V0.640259H47.4035V0.672272H47.4675V0.704285H47.4995V0.736298H47.5635V0.768318H47.6276V0.800331H47.6916V0.832344H47.7236V0.864357H47.7876V0.89637H47.8517V0.928391H47.8837V0.960403H47.9477V0.992416H48.0117V1.02443H48.0758V1.05645H48.1078V1.08846H48.1718V1.12048H48.2358V1.15249H48.2999V1.1845H48.3319V1.21652H48.3959V1.24854H48.4599V1.28055H48.492V1.31256H48.556V1.34457H48.62V1.37659H48.684V1.40861H48.7161V1.44062H48.7801V1.47263H48.8441V1.50465H48.9081V1.53667H48.9402V1.56868H49.0042V1.60069H49.0682V1.63271H49.1322V1.66472H49.1643V1.69674H49.2283V1.72875H49.2923V1.76077H49.3243V1.79278H49.3884V1.82479H49.4524V1.85681H49.5164V1.88882H49.5484V1.92084H49.6125V1.95285H49.6765V1.98487H49.7405V2.01688H49.7725V2.0489H49.8366V2.08091H49.9006V2.11292H49.9326V2.14494H49.9966V2.17696H50.0607V2.20897H50.1247V2.24098H50.1567V2.27299H50.2207V2.30502H50.2848V2.33703H50.3488V2.36904H50.3808V2.40105H50.4448V2.43307H50.5089V2.46509H50.5729V2.4971H50.6049V2.52911H50.6689V2.56113H50.733V2.59314H50.765V2.62516H50.829V2.65717H50.893V2.68919H50.9571V2.7212H50.9891V2.75321H51.0531V2.78523H51.1171V2.81725H51.1812V2.84926H51.2132V2.88127H51.2772V2.91329H51.3412V2.9453H51.3733V2.97732H51.4373V3.00933H51.5013V3.04135H51.5653V3.07336H51.5974V3.10537H51.6614V3.13739H51.7254V3.1694H51.7895V3.20142H51.8215V3.23343H51.8855V3.26545H51.9495V3.29746H52.0136V3.32948H52.0456V3.36149H52.1096V3.39351H52.1736V3.42552H52.2056V3.45753H52.2697V3.48955H52.3337V3.52156H52.3977V3.55358H52.4297V3.58559H52.4938V3.61761H52.5578V3.64962H52.6218V3.68164H52.6538V3.71365H52.7179V3.74567H52.7819V3.77768H52.8139V3.8097H52.8779V3.84171H52.942V3.87372H53.006V3.90574H53.038V3.93775H53.102V3.96977H53.1661V4.00178H53.2301V4.03379H53.2621V4.06581H53.3261V4.09782H53.3902V4.12984H53.4542V4.16185H53.4862V4.19387H53.5503V4.22588H53.6143V4.2579H53.6463V4.28991H53.7103V4.32193H53.7744V4.35394H53.8384V4.38596H53.8704V4.41797H53.9344V4.44999H53.9985V4.482H54.0625V4.51402H54.0945V4.54603H54.1585V4.57804H54.2226V4.61006H54.2546V39.73H54.1905V39.762H54.1585V39.794H54.0945V39.826H54.0305V39.858H53.9664V39.8901H53.9344V39.9221H53.8704V39.9541H53.8064V39.9861H53.7744V40.0181H53.7103V40.0501H53.6463V40.0821H53.5823V40.1142H53.5503V40.1462H53.4862V40.1782H53.4222V40.2102H53.3582V40.2422H53.3261V40.2742H53.2621V40.3062H53.1981V40.3383H53.1341V40.3703H53.102V40.4023H53.038V40.4343H52.974V40.4663H52.942V40.4983H52.8779V40.5303H52.8139V40.5624H52.7499V40.5944H52.7179V40.6264H52.6538V40.6584H52.5898V40.6904H52.5258V40.7224H52.4938V40.7544H52.4297V40.7865H52.3657V40.8185H52.3017V40.8505H52.2697V40.8825H52.2056V40.9145H52.1416V40.9465H52.1096V40.9785H52.0456V41.0106H51.9815V41.0426H51.9175V41.0746H51.8855V41.1066H51.8215V41.1386H51.7574V41.1706H51.6934V41.2026H51.6614V41.2347H51.5974V41.2667H51.5333V41.2987H51.4693V41.3307H51.4373V41.3627H51.3733V41.3947H51.3092V41.4268H51.2772V41.4588H51.2132V41.4908H51.1492V41.5228H51.0851V41.5548H51.0531V41.5868H50.9891V41.6188H50.9251V41.6509H50.861V41.6829H50.829V41.7149H50.765V41.7469H50.701V41.7789H50.6369V41.8109H50.6049V41.8429H50.5409V41.875H50.4769V41.907H50.4448V41.939H50.3808V41.971H50.3168V42.003H50.2528V42.035H50.2207V42.067H50.1567V42.0991H50.0927V42.1311H50.0287V42.1631H49.9966V42.1951H49.9326V42.2271H49.8686V42.2591H49.8046V42.2911H49.7725V42.3232H49.7085V42.3552H49.6445V42.3872H49.6125V42.4192H49.5484V42.4512H49.4844V42.4832H49.4204V42.5152H49.3884V42.5473H49.3243V42.5793H49.2603V42.6113H49.1963V42.6433H49.1643V42.6753H49.1002V42.7073H49.0362V42.7393H48.9722V42.7714H48.9402V42.8034H48.8761V42.8354H48.8121V42.8674H48.7801V42.8994H48.7161V42.9314H48.652V42.9634H48.588V42.9955H48.556V43.0275H48.492V43.0595H48.4279V43.0915H48.3639V43.1235H48.3319V43.1555H48.2679V43.1875H48.2038V43.2196H48.1398V43.2516H48.1078V43.2836H48.0438V43.3156H47.9797V43.3476H47.9477V43.3796H47.8837V43.4116H47.8197V43.4437H47.7556V43.4757H47.7236V43.5077H47.6596V43.5397H47.5956V43.5717H47.5315V43.6037H47.4995V43.6358H47.4355V43.6678H47.3714V43.6998H47.3074V43.7318H47.2754V43.7638H47.2114V43.7958H47.1473V43.8278H47.1153V43.8599H47.0513V43.8919H46.9873V43.9239H46.9232V43.9559H46.8912V43.9879H46.8272V44.0199H46.7632V44.0519H46.6991V44.084H46.6671V44.116H46.6031V44.148H46.5391V44.18H46.475V44.212H46.443V44.244H46.379V44.276H46.315V44.3081H46.283V44.3401H46.2189V44.3721H46.1549V44.4041H46.0909V44.4361H46.0589V44.4681H45.9948V44.5001H45.9308V44.5322H45.8668V44.5642H45.8348V44.5962H45.7707V44.6282H45.7067V44.6602H45.6427V44.6922H45.6106V44.7242H45.5466V44.7563H45.4826V44.7883H45.4506V44.8203H45.3866V44.8523H45.3225V44.8843H45.2585V44.9163H45.2265V44.9483H45.1624V44.9804H45.0984V45.0124H45.0344V45.0444H45.0024V45.0764H44.9383V45.1084H44.8743V45.1404H44.8103V45.1724H44.7783V45.2045H44.7142V45.2365H44.6502V45.2685H44.6182V45.3005H44.5542V45.3325H44.4901V45.3645H44.4261V45.3965H44.3941V45.4286H44.3301V45.4606H44.266V45.4926H44.202V45.5246H44.17V45.5566H44.106V45.5886H44.0419V45.6207H43.9779V45.6527H43.9459V45.6847H43.8819V45.7167H43.8178V45.7487H43.7858V45.7807H43.7218V45.8127H43.6578V45.8448H43.5937V45.8768H43.5617V45.9088H43.4977V45.9408H43.4337V45.9728H43.3696V46.0048H43.3376V46.0368H43.2736V46.0689H43.2096V46.1009H43.1455V46.1329H43.1135V46.1649H43.0495V46.1969H42.9855V46.2289H42.9534V46.2609H42.8894V46.293H42.8254V46.325H42.7614V46.357H42.7293V46.389H42.6653V46.421H42.6013V46.453H42.5373V46.485H42.5052V46.5171H42.4412V46.5491H42.3772V46.5811H42.3132V46.6131H42.2811V46.6451H42.2171V46.6771H42.1531V46.7091H42.1211V46.7412H42.057V46.7732H41.993V46.8052H41.929V46.8372H41.897V46.8692H41.8329V46.9012H41.7689V46.9332H41.7049V46.9653H41.6729V46.9973H41.6088V47.0293H41.5448V47.0613H41.4808V47.0933H41.4488V47.1253H41.3847V47.1573H41.3207V47.1894H41.2887V47.2214H41.2247V47.2534H41.1606V47.2854H41.0966V47.3174H41.0646V47.3494H41.0006V47.3815H40.9365V47.4135H40.8725V47.4455H40.8405V47.4775H40.7765V47.5095H40.7124V47.5415H40.6484V47.5735H40.6164V47.6056H40.5524V47.6376H40.4883V47.6696H40.4563V47.7016H40.3923V47.7336H40.3283V47.7656H40.2642V47.7976H40.2322V47.8297H40.1682V47.8617H40.1042V47.8937H40.0401V47.9257H40.0081V47.9577H39.9441V47.9897H39.8801V48.0217H39.816V48.0538H39.784V48.0858H39.72V48.1178H39.656V48.1498H39.6239V48.1818H39.5599V48.2138H39.4959V48.2458H39.4319V48.2779H39.3998V48.3099H39.3358V48.3419H39.2718V48.3739H39.2077V48.4059H39.1757V48.4379H39.1117V48.4699H39.0477V48.502H38.9836V48.534H38.9516V48.566H38.8876V48.598H38.8236V48.63H38.7916V48.662H38.7275V48.694H38.6635V48.7261H38.5995V48.7581H38.5675V48.7901H38.5034V48.8221H38.4394V48.8541H38.3754V48.8861H38.3434V48.9181H38.2793V48.9502H38.2153V48.9822H38.1513V49.0142H38.1193V49.0462H38.0552V49.0782H37.9912V49.1102H37.9592V49.1422H37.8952V49.1743H37.8311V49.2063H37.7671V49.2383H37.7351V49.2703H37.6711V49.3023H37.607V49.3343H37.543V49.3664H37.511V49.3984H37.4469V49.4304H37.3829V49.4624H37.3189V49.4944H37.2869V49.5264H37.2229V49.5584H37.1588V49.5905H37.1268V49.6225H37.0628V49.6545H36.9987V49.6865H36.9347V49.7185H36.9027V49.7505H36.8387V49.7825H36.7746V49.8146H36.7106V49.8466H36.6786V49.8786H36.6146V49.9106H36.5505V49.9426H36.4865V49.9746H36.4545V50.0066H36.3905V50.0387H36.3264V50.0707H36.2944V50.1027H36.2304V50.1347H36.1664V50.1667H36.1023V50.1987H36.0703V50.2307H36.0063V50.2628H35.9423V50.2948H35.8782V50.3268H35.8462V50.3588H35.7822V50.3908H35.7182V50.4228H35.6541V50.4548H35.6221V50.4869H35.5581V50.5189H35.4941V50.5509H35.4621V50.5829H35.398V50.6149H35.334V50.6469H35.27V50.6789H35.2379V50.711H35.1739V50.743H35.1099V50.775H35.0459V50.807H35.0138V50.839H34.9498V50.871H34.8858V50.903H34.8218V50.9351H34.7897V50.9671H34.7257V50.9991H34.6617V51.0311H34.6297V51.0631H34.5656V51.0951H34.4696ZM34.5016 42.067V42.0991H34.5656V42.067H34.6297V42.035H34.6617V42.003H34.7257V41.971H34.7897V41.939H34.8538V41.907H34.8858V41.875H34.9498V41.8429H35.0138V41.8109H35.0779V41.7789H35.1099V41.7469H35.1739V41.7149H35.2379V41.6829H35.302V41.6509H35.334V41.6188H35.398V41.5868H35.4621V41.5548H35.4941V41.5228H35.5581V41.4908H35.6221V41.4588H35.6862V41.4268H35.7182V41.3947H35.7822V41.3627H35.8462V41.3307H35.9103V41.2987H35.9423V41.2667H36.0063V41.2347H36.0703V41.2026H36.1344V41.1706H36.1664V41.1386H36.2304V41.1066H36.2944V41.0746H36.3264V41.0426H36.3905V41.0106H36.4545V40.9785H36.5185V40.9465H36.5505V40.9145H36.6146V40.8825H36.6786V40.8505H36.7426V40.8185H36.7746V40.7865H36.8387V40.7544H36.9027V40.7224H36.9667V40.6904H36.9987V40.6584H37.0628V40.6264H37.1268V40.5944H37.1908V40.5624H37.2229V40.5303H37.2869V40.4983H37.3509V40.4663H37.3829V40.4343H37.4469V40.4023H37.511V40.3703H37.575V40.3383H37.607V40.3062H37.6711V40.2742H37.7351V40.2422H37.7991V40.2102H37.8311V40.1782H37.8952V40.1462H37.9592V40.1142H38.0232V40.0821H38.0552V40.0501H38.1193V40.0181H38.1833V39.9861H38.2153V39.9541H38.2793V39.9221H38.3434V39.8901H38.4074V39.858H38.4394V39.826H38.5034V39.794H38.5675V39.762H38.6315V39.73H38.6635V39.698H38.7275V39.666H38.7916V39.6339H38.8556V39.6019H38.8876V39.5699H38.9516V39.5379H39.0157V39.5059H39.0477V39.4739H39.1117V39.4419H39.1757V39.4098H39.2398V39.3778H39.2718V39.3458H39.3358V39.3138H39.3998V39.2818H39.4639V39.2498H39.4959V39.2177H39.5599V39.1857H39.6239V39.1537H39.688V39.1217H39.72V39.0897H39.784V39.0577H39.848V39.0257H39.8801V38.9936H39.9441V38.9616H40.0081V38.9296H40.0721V38.8976H40.1042V38.8656H40.1682V38.8336H40.2322V38.8016H40.2962V38.7695H40.3283V38.7375H40.3923V38.7055H40.4563V38.6735H40.5203V38.6415H40.5524V38.6095H40.6164V38.5775H40.6804V38.5454H40.7444V38.5134H40.7765V38.4814H40.8405V38.4494H40.9045V38.4174H40.9365V38.3854H41.0006V38.3534H41.0646V38.3213H41.1286V38.2893H41.1606V38.2573H41.2247V38.2253H41.2887V38.1933H41.3527V38.1613H41.3847V38.1293H41.4488V38.0972H41.5128V38.0652H41.5768V38.0332H41.6088V38.0012H41.6729V37.9692H41.7369V37.9372H41.7689V37.9052H41.8329V37.8731H41.897V37.8411H41.961V37.8091H41.993V37.7771H42.057V37.7451H42.1211V37.7131H42.1851V37.6811H42.2171V37.649H42.2811V37.617H42.3452V37.585H42.4092V37.553H42.4412V37.521H42.5052V37.489H42.5693V37.4569H42.6013V37.4249H42.6653V37.3929H42.7293V37.3609H42.7934V37.3289H42.8254V37.2969H42.8894V37.2649H42.9534V37.2328H43.0175V37.2008H43.0495V37.1688H43.1135V37.1368H43.1775V37.1048H43.2416V37.0728H43.2736V37.0408H43.3376V37.0087H43.4016V36.9767H43.4657V36.9447H43.4977V36.9127H43.5617V36.8807H43.6258V36.8487H43.6578V36.8167H43.7218V36.7846H43.7858V36.7526H43.8499V36.7206H43.8819V36.6886H43.9459V36.6566H44.0099V36.6246H44.074V36.5926H44.106V36.5605H44.17V36.5285H44.234V36.4965H44.2981V36.4645H44.3301V36.4325H44.3941V36.4005H44.4581V36.3685H44.4901V36.3364H44.5542V36.3044H44.6182V36.2724H44.6822V36.2404H44.7142V36.2084H44.7783V36.1764H44.8423V36.1444H44.9063V36.1123H44.9383V36.0803H45.0024V36.0483H45.0664V36.0163H45.1304V35.9843H45.1624V35.9523H45.2265V35.9203H45.2905V35.8882H45.3225V35.8562H45.3866V35.8242H45.4506V35.7922H45.5146V35.7602H45.5466V35.7282H45.6106V35.6962H45.6747V35.6641H45.7387V35.6321H45.7707V35.6001H45.8348V35.5681H45.8988V35.5361H45.9628V35.5041H45.9948V35.472H46.0589V35.44H46.1229V35.408H46.1549V35.376H46.2189V9.28418H46.1869V9.31619H46.1229V9.34821H46.0909V9.38022H46.0268V9.41224H45.9628V9.44425H45.8988V9.47626H45.8668V9.50828H45.8027V9.54029H45.7387V9.57231H45.6747V9.60432H45.6427V9.63634H45.5786V9.66835H45.5146V9.70037H45.4826V9.73238H45.4186V9.76439H45.3545V9.79641H45.2905V9.82842H45.2585V9.86044H45.1945V9.89245H45.1304V9.92447H45.0664V9.95648H45.0344V9.98849H44.9704V10.0205H44.9063V10.0525H44.8743V10.0845H44.8103V10.1166H44.7463V10.1486H44.6822V10.1806H44.6502V10.2126H44.5862V10.2446H44.5222V10.2766H44.4581V10.3086H44.4261V10.3407H44.3621V10.3727H44.2981V10.4047H44.234V10.4367H44.202V10.4687H44.138V10.5007H44.074V10.5327H44.0419V10.5648H43.9779V10.5968H43.9139V10.6288H43.8499V10.6608H43.8178V10.6928H43.7538V10.7248H43.6898V10.7568H43.6258V10.7889H43.5937V10.8209H43.5297V10.8529H43.4657V10.8849H43.4016V10.9169H43.3696V10.9489H43.3056V10.9809H43.2416V11.013H43.2096V11.045H43.1455V11.077H43.0815V11.109H43.0175V11.141H42.9855V11.173H42.9214V11.205H42.8574V11.2371H42.7934V11.2691H42.7614V11.3011H42.6973V11.3331H42.6333V11.3651H42.6013V11.3971H42.5373V11.4291H42.4732V11.4612H42.4092V11.4932H42.3772V11.5252H42.3132V11.5572H42.2491V11.5892H42.1851V11.6212H42.1531V11.6533H42.0891V11.6853H42.025V11.7173H41.961V11.7493H41.929V11.7813H41.865V11.8133H41.8009V11.8453H41.7689V11.8774H41.7049V11.9094H41.6409V11.9414H41.5768V11.9734H41.5448V12.0054H41.4808V12.0374H41.4167V12.0694H41.3527V12.1015H41.3207V12.1335H41.2567V12.1655H41.1926V12.1975H41.1606V12.2295H41.0966V12.2615H41.0326V12.2935H40.9685V12.3256H40.9365V12.3576H40.8725V12.3896H40.8085V12.4216H40.7444V12.4536H40.7124V12.4856H40.6484V12.5176H40.5844V12.5497H40.5203V12.5817H40.4883V12.6137H40.4243V12.6457H40.3603V12.6777H40.3283V12.7097H40.2642V12.7417H40.2002V12.7738H40.1362V12.8058H40.1042V12.8378H40.0401V12.8698H39.9761V12.9018H39.9121V12.9338H39.8801V12.9658H39.816V12.9979H39.752V13.0299H39.688V13.0619H39.656V13.0939H39.5919V13.1259H39.5279V13.1579H39.4959V13.1899H39.4319V13.222H39.3678V13.254H39.3038V13.286H39.2718V13.318H39.2077V13.35H39.1437V13.382H39.0797V13.414H39.0477V13.4461H38.9836V13.4781H38.9196V13.5101H38.8876V13.5421H38.8236V13.5741H38.7595V13.6061H38.6955V13.6381H38.6635V13.6702H38.5995V13.7022H38.5354V13.7342H38.4714V13.7662H38.4394V13.7982H38.3754V13.8302H38.3113V13.8623H38.2473V13.8943H38.2153V13.9263H38.1513V13.9583H38.0872V13.9903H38.0552V14.0223H37.9912V14.0543H37.9272V14.0864H37.8631V14.1184H37.8311V14.1504H37.7671V14.1824H37.7031V14.2144H37.639V14.2464H37.607V14.2784H37.543V14.3105H37.479V14.3425H37.4469V14.3745H37.3829V14.4065H37.3189V14.4385H37.2549V14.4705H37.2229V14.5025H37.1588V14.5346H37.0948V14.5666H37.0308V14.5986H36.9987V14.6306H36.9347V14.6626H36.8707V14.6946H36.8067V14.7266H36.7746V14.7587H36.7106V14.7907H36.6466V14.8227H36.6146V14.8547H36.5505V14.8867H36.4865V14.9187H36.4225V14.9507H36.3905V14.9828H36.3264V15.0148H36.2624V15.0468H36.1984V15.0788H36.1664V15.1108H36.1023V15.1428H36.0383V15.1748H35.9743V15.2069H35.9423V15.2389H35.8782V15.2709H35.8142V15.3029H35.7822V15.3349H35.7182V15.3669H35.6541V15.3989H35.5901V15.431H35.5581V15.463H35.4941V15.495H35.43V15.527H35.366V15.559H35.334V15.591H35.27V15.6231H35.2059V15.6551H35.1739V15.6871H35.1099V15.7191H35.0459V15.7511H34.9818V15.7831H34.9498V15.8151H34.8858V15.8472H34.8218V15.8792H34.7577V15.9112H34.7257V15.9432H34.6617V15.9752H34.5977V16.0072H34.5336V16.0392H34.4696V16.0072H34.4056V15.9752H34.3736V15.9432H34.3095V15.9112H34.2455V15.8792H34.1815V15.8472H34.1495V15.8151H34.0854V15.7831H34.0214V15.7511H33.9894V15.7191H33.9254V15.6871H33.8613V15.6551H33.7973V15.6231H33.7653V15.591H33.7013V15.559H33.6372V15.527H33.5732V15.495H33.5412V15.463H33.4771V15.431H33.4131V15.3989H33.3491V15.3669H33.3171V15.3349H33.253V15.3029H33.189V15.2709H33.157V15.2389H33.093V15.2069H33.0289V15.1748H32.9649V15.1428H32.9329V15.1108H32.8689V15.0788H32.8048V15.0468H32.7408V15.0148H32.7088V14.9828H32.6448V14.9507H32.5807V14.9187H32.5487V14.8867H32.4847V14.8547H32.4207V14.8227H32.3566V14.7907H32.3246V14.7587H32.2606V14.7266H32.1966V14.6946H32.1325V14.6626H32.1005V14.6306H32.0365V14.5986H31.9725V14.5666H31.9084V14.5346H31.8764V14.5025H31.8124V14.4705H31.7484V14.4385H31.7164V14.4065H31.6523V14.3745H31.5883V14.3425H31.5243V14.3105H31.4923V14.2784H31.4282V14.2464H31.3642V14.2144H31.3002V14.1824H31.2682V14.1504H31.2041V14.1184H31.1401V14.0864H31.1081V14.0543H31.044V14.0223H30.98V13.9903H30.916V13.9583H30.884V13.9263H30.8199V13.8943H30.7559V13.8623H30.6919V13.8302H30.6599V13.7982H30.5958V13.7662H30.5318V13.7342H30.4678V13.7022H30.4358V13.6702H30.3717V13.6381H30.3077V13.6061H30.2757V13.5741H30.2117V13.5421H30.1476V13.5101H30.0836V13.4781H30.0516V13.4461H29.9876V13.414H29.9235V13.382H29.8595V13.35H29.8275V13.318H29.7635V13.286H29.6994V13.254H29.6674V13.222H29.6034V13.1899H29.5394V13.1579H29.4753V13.1259H29.4433V13.0939H29.3793V13.0619H29.3153V13.0299H29.2512V12.9979H29.2192V12.9658H29.1552V12.9338H29.0912V12.9018H29.0271V12.8698H28.9951V12.8378H28.9311V12.8058H28.8671V12.7738H28.835V12.7417H28.771V12.7097H28.707V12.6777H28.643V12.6457H28.6109V12.6137H28.5469V12.5817H28.4829V12.5497H28.4189V12.5176H28.3868V12.4856H28.3228V12.4536H28.2588V12.4216H28.2268V12.3896H28.1627V12.3576H28.0987V12.3256H28.0347V12.2935H28.0027V12.2615H27.9386V12.2295H27.8746V12.1975H27.8106V12.1655H27.7786V12.1335H27.7145V12.1015H27.6505V12.0694H27.5865V12.0374H27.5545V12.0054H27.4904V11.9734H27.4264V11.9414H27.3944V11.9094H27.3304V11.8774H27.2663V11.8453H27.2023V11.8133H27.1703V11.7813H27.1063V11.7493H27.0422V11.7173H26.9782V11.6853H26.9462V11.6533H26.8822V11.6212H26.8181V11.5892H26.7861V11.5572H26.7221V11.5252H26.6581V11.4932H26.594V11.4612H26.562V11.4291H26.498V11.3971H26.434V11.3651H26.3699V11.3331H26.3379V11.3011H26.2739V11.2691H26.2099V11.2371H26.1458V11.205H26.1138V11.173H26.0498V11.141H25.9858V11.109H25.9537V11.077H25.8897V11.045H25.8257V11.013H25.7617V10.9809H25.7296V10.9489H25.6656V10.9169H25.6016V10.8849H25.5376V10.8529H25.5055V10.8209H25.4415V10.7889H25.3775V10.7568H25.3134V10.7248H25.2814V10.6928H25.2174V10.6608H25.1534V10.6288H25.1214V10.5968H25.0573V10.5648H24.9933V10.5327H24.9293V10.5007H24.8973V10.4687H24.8332V10.4367H24.7692V10.4047H24.7052V10.3727H24.6732V10.3407H24.6091V10.3086H24.5451V10.2766H24.5131V10.2446H24.4491V10.2126H24.385V10.1806H24.321V10.1486H24.289V10.1166H24.225V10.0845H24.1609V10.0525H24.0969V10.0205H24.0649V9.98849H24.0009V9.95648H23.9368V9.92447H23.8728V9.89245H23.8408V9.86044H23.7768V9.82842H23.7127V9.79641H23.6807V9.76439H23.6167V9.73238H23.5527V9.70037H23.4886V9.66835H23.4566V9.63634H23.3926V9.60432H23.3286V9.57231H23.2645V9.54029H23.2325V9.50828H23.1685V9.47626H23.1045V9.44425H23.0724V9.41224H23.0084V9.38022H22.9444V9.34821H22.8803V9.31619H22.8483V9.28418H22.8163V22.2501H22.8483V35.376H22.9124V35.408H22.9444V35.44H23.0084V35.472H23.0724V35.5041H23.1365V35.5361H23.1685V35.5681H23.2325V35.6001H23.2965V35.6321H23.3606V35.6641H23.3926V35.6962H23.4566V35.7282H23.5206V35.7602H23.5847V35.7922H23.6167V35.8242H23.6807V35.8562H23.7447V35.8882H23.7768V35.9203H23.8408V35.9523H23.9048V35.9843H23.9688V36.0163H24.0009V36.0483H24.0649V36.0803H24.1289V36.1123H24.1929V36.1444H24.225V36.1764H24.289V36.2084H24.353V36.2404H24.417V36.2724H24.4491V36.3044H24.5131V36.3364H24.5771V36.3685H24.6091V36.4005H24.6732V36.4325H24.7372V36.4645H24.8012V36.4965H24.8332V36.5285H24.8973V36.5605H24.9613V36.5926H25.0253V36.6246H25.0573V36.6566H25.1214V36.6886H25.1854V36.7206H25.2494V36.7526H25.2814V36.7846H25.3455V36.8167H25.4095V36.8487H25.4415V36.8807H25.5055V36.9127H25.5696V36.9447H25.6336V36.9767H25.6656V37.0087H25.7296V37.0408H25.7937V37.0728H25.8577V37.1048H25.8897V37.1368H25.9537V37.1688H26.0178V37.2008H26.0818V37.2328H26.1138V37.2649H26.1778V37.2969H26.2419V37.3289H26.3059V37.3609H26.3379V37.3929H26.4019V37.4249H26.466V37.4569H26.498V37.489H26.562V37.521H26.626V37.553H26.6901V37.585H26.7221V37.617H26.7861V37.649H26.8501V37.6811H26.9142V37.7131H26.9462V37.7451H27.0102V37.7771H27.0742V37.8091H27.1383V37.8411H27.1703V37.8731H27.2343V37.9052H27.2984V37.9372H27.3304V37.9692H27.3944V38.0012H27.4584V38.0332H27.5225V38.0652H27.5545V38.0972H27.6185V38.1293H27.6825V38.1613H27.7466V38.1933H27.7786V38.2253H27.8426V38.2573H27.9066V38.2893H27.9707V38.3213H28.0027V38.3534H28.0667V38.3854H28.1307V38.4174H28.1627V38.4494H28.2268V38.4814H28.2908V38.5134H28.3548V38.5454H28.3868V38.5775H28.4509V38.6095H28.5149V38.6415H28.5789V38.6735H28.6109V38.7055H28.675V38.7375H28.739V38.7695H28.803V38.8016H28.835V38.8336H28.8991V38.8656H28.9631V38.8976H28.9951V38.9296H29.0591V38.9616H29.1232V38.9936H29.1872V39.0257H29.2192V39.0577H29.2833V39.0897H29.3473V39.1217H29.4113V39.1537H29.4433V39.1857H29.5074V39.2177H29.5714V39.2498H29.6354V39.2818H29.6674V39.3138H29.7315V39.3458H29.7955V39.3778H29.8595V39.4098H29.8915V39.4419H29.9556V39.4739H30.0196V39.5059H30.0516V39.5379H30.1156V39.5699H30.1797V39.6019H30.2437V39.6339H30.2757V39.666H30.3397V39.698H30.4038V39.73H30.4678V39.762H30.4998V39.794H30.5638V39.826H30.6279V39.858H30.6919V39.8901H30.7239V39.9221H30.7879V39.9541H30.852V39.9861H30.884V40.0181H30.948V40.0501H31.012V40.0821H31.0761V40.1142H31.1081V40.1462H31.1721V40.1782H31.2361V40.2102H31.3002V40.2422H31.3322V40.2742H31.3962V40.3062H31.4602V40.3383H31.5243V40.3703H31.5563V40.4023H31.6203V40.4343H31.6843V40.4663H31.7164V40.4983H31.7804V40.5303H31.8444V40.5624H31.9084V40.5944H31.9405V40.6264H32.0045V40.6584H32.0685V40.6904H32.1325V40.7224H32.1646V40.7544H32.2286V40.7865H32.2926V40.8185H32.3566V40.8505H32.3887V40.8825H32.4527V40.9145H32.5167V40.9465H32.5807V40.9785H32.6128V41.0106H32.6768V41.0426H32.7408V41.0746H32.7728V41.1066H32.8369V41.1386H32.9009V41.1706H32.9649V41.2026H32.9969V41.2347H33.061V41.2667H33.125V41.2987H33.189V41.3307H33.221V41.3627H33.2851V41.3947H33.3491V41.4268H33.4131V41.4588H33.4451V41.4908H33.5092V41.5228H33.5732V41.5548H33.6052V41.5868H33.6692V41.6188H33.7333V41.6509H33.7973V41.6829H33.8293V41.7149H33.8933V41.7469H33.9574V41.7789H34.0214V41.8109H34.0534V41.8429H34.1174V41.875H34.1815V41.907H34.2455V41.939H34.2775V41.971H34.3415V42.003H34.4056V42.035H34.4376V42.067" fill="url(#paint0_linear_491_39)"/>
<defs>
<linearGradient id="paint0_linear_491_39" x1="34.5112" y1="67.0031" x2="34.5112" y2="9.38342" gradientUnits="userSpaceOnUse">
<stop stop-color="#EB292C"/>
<stop offset="0.00665541" stop-color="#EB292C"/>
<stop offset="1" stop-color="#FF9900"/>
</linearGradient>
</defs>
</svg>
