<svg width="82" height="67" viewBox="0 0 82 67" fill="none" xmlns="http://www.w3.org/2000/svg">
<path d="M0 67.0064V66.9104H0.03222V66.8784H0.0644401V66.8144H0.0966601V66.7504H0.12888V66.6864H0.1611V66.6544H0.19332V66.5904H0.22554V66.5264H0.25776V66.4624H0.28998V66.4304H0.3222V66.3665H0.35442V66.3025H0.38664V66.2385H0.418861V66.2065H0.451081V66.1425H0.483301V66.0785H0.515521V66.0465H0.547741V65.9825H0.579961V65.9185H0.612181V65.8545H0.644401V65.8225H0.676621V65.7585H0.708841V65.6945H0.741061V65.6305H0.773281V65.5985H0.805501V65.5346H0.837721V65.4706H0.869941V65.4066H0.902161V65.3746H0.934381V65.3106H0.966601V65.2466H0.998821V65.2146H1.03104V65.1506H1.06326V65.0866H1.09548V65.0226H1.1277V64.9906H1.15992V64.9266H1.19214V64.8626H1.22436V64.7986H1.25658V64.7666H1.2888V64.7027H1.32102V64.6387H1.35324V64.6067H1.38546V64.5427H1.41768V64.4787H1.4499V64.4147H1.48212V64.3827H1.51434V64.3187H1.54656V64.2547H1.57878V64.1907H1.611V64.1587H1.64322V64.0947H1.67544V64.0307H1.70766V63.9667H1.73988V63.9347H1.7721V63.8708H1.80432V63.8068H1.83654V63.7748H1.86876V63.7108H1.90098V63.6468H1.9332V63.5828H1.96542V63.5508H1.99764V63.4868H2.02986V63.4228H2.06208V63.3588H2.0943V63.3268H2.12652V63.2628H2.15874V63.1988H2.19096V63.1348H2.22318V63.1028H2.2554V63.0389H2.28762V62.9749H2.31984V62.9429H2.35206V62.8789H2.38428V62.8149H2.4165V62.7509H2.44872V62.7189H2.48094V62.6549H2.51316V62.5909H2.54538V62.5269H2.5776V62.4949H2.60982V62.4309H2.64204V62.3669H2.67426V62.3349H2.70648V62.2709H2.7387V62.207H2.77092V62.143H2.80314V62.111H2.83536V62.047H2.86758V61.983H2.8998V61.919H2.93202V61.887H2.96424V61.823H2.99646V61.759H3.02868V61.695H3.0609V61.663H3.09312V61.599H3.12534V61.535H3.15756V61.503H3.18978V61.439H3.222V61.3751H3.25422V61.3111H3.28644V61.2791H3.31866V61.2151H3.35088V61.1511H3.3831V61.0871H3.41532V61.0551H3.44754V60.9911H3.47976V60.9271H3.51198V60.8951H3.5442V60.8311H3.57642V60.7671H3.60864V60.7031H3.64086V60.6711H3.67308V60.6071H3.7053V60.5431H3.73752V60.4792H3.76974V60.4472H3.80196V60.3832H3.83418V60.3192H3.8664V60.2552H3.89862V60.2232H3.93084V60.1592H3.96306V60.0952H3.99528V60.0632H4.0275V59.9992H4.05972V59.9352H4.09195V59.8712H4.12417V59.8392H4.15638V59.7752H4.18861V59.7112H4.22083V59.6473H4.25305V59.6153H4.28527V59.5513H4.31749V59.4873H4.34971V59.4233H4.38193V59.3913H4.41415V59.3273H4.44637V59.2633H4.47859V59.2313H4.51081V59.1673H4.54303V59.1033H4.57525V59.0393H4.60747V59.0073H4.63969V58.9433H4.67191V58.8793H4.70413V58.8154H4.73635V58.7834H4.76857V58.7194H4.80079V58.6554H4.83301V58.6234H4.86523V58.5594H4.89745V58.4954H4.92967V58.4314H4.96189V58.3994H4.99411V58.3354H5.02633V58.2714H5.05855V58.2074H5.09077V58.1754H5.12299V58.1114H5.15521V58.0474H5.18743V57.9835H5.21965V57.9515H5.25187V57.8875H5.28409V57.8235H5.31631V57.7915H5.34853V57.7275H5.38075V57.6635H5.41297V57.5995H5.44519V57.5675H5.47741V57.5035H5.50963V57.4395H5.54185V57.3755H5.57407V57.3435H5.60629V57.2795H5.63851V57.2155H5.67073V57.1516H5.70295V57.1196H5.73517V57.0556H5.76739V56.9916H5.79961V56.9596H5.83183V56.8956H5.86405V56.8316H5.89627V56.7676H5.92849V56.7356H5.96071V56.6716H5.99293V56.6076H6.02515V56.5436H6.05737V56.5116H6.08959V56.4476H6.12181V56.3836H6.15403V56.3517H6.18625V56.2877H6.21847V56.2237H6.25069V56.1597H6.28291V56.1277H6.31513V56.0637H6.34735V55.9997H6.37957V55.9357H6.41179V55.9037H6.44401V55.8397H6.47623V55.7757H6.50845V55.7117H6.54067V55.6797H6.57289V55.6157H6.60511V55.5517H6.63733V55.5197H6.66955V55.4558H6.70177V55.3918H6.73399V55.3278H6.76621V55.2958H6.79843V55.2318H6.83065V55.1678H6.86287V55.1038H6.89509V55.0718H6.92731V55.0078H6.95953V54.9438H6.99175V54.8798H7.02397V54.8478H7.05619V54.7838H7.08841V54.7198H7.12063V54.6878H7.15285V54.6239H7.18507V54.5599H7.21729V54.4959H7.24951V54.4639H7.28173V54.3999H7.31395V54.3359H7.34617V54.2719H7.37839V54.2399H7.41061V54.1759H7.44283V54.1119H7.47505V54.0799H7.50727V54.0159H7.53949V53.9519H7.57171V53.8879H7.60393V53.8559H7.63615V53.792H7.66837V53.728H7.70059V53.664H7.73281V53.632H7.76503V53.568H7.79725V53.504H7.82947V53.44H7.86169V53.408H7.89391V53.344H7.92613V53.28H7.95835V53.248H7.99057V53.184H8.02279V53.12H8.05501V53.056H8.08723V53.024H8.11945V52.9601H8.15167V52.8961H8.18389V52.8321H8.21611V52.8001H8.24833V52.7361H8.28055V52.6721H8.31277V52.6081H8.34499V52.5761H8.37721V52.5121H8.40943V52.4481H8.44165V52.4161H8.47387V52.3521H8.50609V52.2881H8.53831V52.2241H8.57053V52.1921H8.60275V52.1282H8.63497V52.0642H8.66719V52.0002H8.69941V51.9682H8.73163V51.9042H8.76385V51.8402H8.79607V51.8082H8.82829V51.7442H8.86051V51.6802H8.89273V51.6162H8.92495V51.5842H8.95717V51.5202H8.98939V51.4562H9.02161V51.3922H9.05383V51.3602H9.08605V51.2963H9.11827V51.2323H9.15049V51.1683H9.18271V51.1363H9.21493V51.0723H9.24715V51.0083H9.27937V50.9763H9.31159V50.9123H9.34381V50.8483H9.37603V50.7843H9.40825V50.7523H9.44047V50.6883H9.47269V50.6243H9.50491V50.5603H9.53713V50.5283H9.56935V50.4644H9.60157V50.4004H9.63379V50.3364H9.66601V50.3044H9.69823V50.2404H9.73045V50.1764H9.76267V50.1444H9.79489V50.0804H9.82711V50.0164H9.85933V49.9524H9.89155V49.9204H9.92377V49.8564H9.95599V49.7924H9.98821V49.7284H10.0204V49.6964H10.0527V49.6325H10.0849V49.5685H10.1171V49.5365H10.1493V49.4725H10.1815V49.4085H10.2138V49.3445H10.246V49.3125H10.2782V49.2485H10.3104V49.1845H10.3426V49.1205H10.3749V49.0885H10.4071V49.0245H10.4393V48.9605H10.4715V48.8965H10.5037V48.8645H10.536V48.8006H10.5682V48.7366H10.6004V48.7046H10.6326V48.6406H10.6648V48.5766H10.6971V48.5126H10.7293V48.4806H10.7615V48.4166H10.7937V48.3526H10.8259V48.2886H10.8582V48.2566H10.8904V48.1926H10.9226V48.1286H10.9548V48.0966H10.987V48.0326H11.0193V47.9687H11.0515V47.9047H11.0837V47.8727H11.1159V47.8087H11.1481V47.7447H11.1804V47.6807H11.2126V47.6487H11.2448V47.5847H11.277V47.5207H11.3092V47.4567H11.3415V47.4247H11.3737V47.3607H11.4059V47.2967H11.4381V47.2647H11.4703V47.2007H11.5026V47.1368H11.5348V47.0728H11.567V47.0408H11.5992V46.9768H11.6314V46.9128H11.6637V46.8488H11.6959V46.8168H11.7281V46.7528H11.7603V46.6888H11.7925V46.6248H11.8248V46.5928H11.857V46.5288H11.8892V46.4648H11.9214V46.4328H11.9536V46.3688H11.9859V46.3048H12.0181V46.2409H12.0503V46.2089H12.0825V46.1449H12.1147V46.0809H12.147V46.0169H12.1792V45.9849H12.2114V45.9209H12.2436V45.8569H12.2758V45.8249H12.3081V45.7609H12.3403V45.6969H12.3725V45.6329H12.4047V45.6009H12.4369V45.5369H12.4692V45.4729H12.5014V45.409H12.5336V45.377H12.5658V45.313H12.598V45.249H12.6303V45.185H12.6625V45.153H12.6947V45.089H12.7269V45.025H12.7591V44.993H12.7914V44.929H12.8236V44.865H12.8558V44.801H12.888V44.769H12.9202V44.705H12.9525V44.641H12.9847V44.5771H13.0169V44.5451H13.0491V44.4811H13.0813V44.4171H13.1136V44.3531H13.1458V44.3211H13.178V44.2571H13.2102V44.1931H13.2424V44.1611H13.2747V44.0971H13.3069V44.0331H13.3391V43.9691H13.3713V43.9371H13.4035V43.8731H13.4358V43.8091H13.468V43.7452H13.5002V43.7132H13.5324V43.6492H13.5646V43.5852H13.5969V43.5532H13.6291V43.4892H13.6613V43.4252H13.6935V43.3612H13.7257V43.3292H13.758V43.2652H13.7902V43.2012H13.8224V43.1372H13.8546V43.1052H13.8868V43.0412H13.9191V42.9772H13.9513V42.9133H13.9835V42.8813H14.0157V42.8173H14.0479V42.7533H14.0802V42.7213H14.1124V42.6573H14.1446V42.5933H14.1768V42.5293H14.209V42.4973H14.2413V42.4333H14.2735V42.3693H14.3057V42.3053H14.3379V42.2733H14.3701V42.2093H14.4024V42.1453H14.4346V42.0814H14.4668V42.0494H14.499V41.9854H14.5312V41.9214H14.5635V41.8894H14.5957V41.8254H14.6279V41.7614H14.6601V41.6974H14.6923V41.6654H14.7246V41.6014H14.7568V41.5374H14.789V41.4734H14.8212V41.4414H14.8534V41.3774H14.8857V41.3134H14.9179V41.2815H14.9501V41.2175H14.9823V41.1535H15.0145V41.0895H15.0468V41.0575H15.079V40.9935H15.1112V40.9295H15.1434V40.8655H15.1756V40.8335H15.2079V40.7695H15.2401V40.7055H15.2723V40.6415H15.3045V40.6095H15.3367V40.5455H15.369V40.4815H15.4012V40.4495H15.4334V40.3856H15.4656V40.3216H15.4978V40.2576H15.5301V40.2256H15.5623V40.1616H15.5945V40.0976H15.6267V40.0336H15.6589V40.0016H15.6912V39.9376H15.7234V39.8736H15.7556V39.8096H15.7878V39.7776H15.82V39.7136H15.8523V39.6496H15.8845V39.6176H15.9167V39.5537H15.9489V39.4897H15.9811V39.4257H16.0778V39.4897H16.11V39.5537H16.1422V39.6176H16.1745V39.6496H16.2067V39.7136H16.2389V39.7776H16.2711V39.8096H16.3033V39.8736H16.3356V39.9376H16.3678V40.0016H16.4V40.0336H16.4322V40.0976H16.4644V40.1616H16.4967V40.2256H16.5289V40.2576H16.5611V40.3216H16.5933V40.3856H16.6255V40.4495H16.6578V40.4815H16.69V40.5455H16.7222V40.6095H16.7544V40.6415H16.7866V40.7055H16.8189V40.7695H16.8511V40.8335H16.8833V40.8655H16.9155V40.9295H16.9477V40.9935H16.98V41.0575H17.0122V41.0895H17.0444V41.1535H17.0766V41.2175H17.1088V41.2815H17.1411V41.3134H17.1733V41.3774H17.2055V41.4414H17.2377V41.4734H17.2699V41.5374H17.3022V41.6014H17.3344V41.6654H17.3666V41.6974H17.3988V41.7614H17.431V41.8254H17.4633V41.8894H17.4955V41.9214H17.5277V41.9854H17.5599V42.0494H17.5921V42.1133H17.6244V42.1453H17.6566V42.2093H17.6888V42.2733H17.721V42.3053H17.7532V42.3693H17.7855V42.4333H17.8177V42.4973H17.8499V42.5293H17.8821V42.5933H17.9143V42.6573H17.9466V42.7213H17.9788V42.7533H18.011V42.8173H18.0432V42.8813H18.0754V42.9133H18.1077V42.9772H18.1399V43.0412H18.1721V43.1052H18.2043V43.1372H18.2365V43.2012H18.2688V43.2652H18.301V43.3292H18.3332V43.3612H18.3654V43.4252H18.3976V43.4892H18.4299V43.5532H18.4621V43.5852H18.4943V43.6492H18.5265V43.7132H18.5587V43.7452H18.591V43.8091H18.6232V43.8731H18.6554V43.9371H18.6876V43.9691H18.7198V44.0331H18.7521V44.0971H18.7843V44.1611H18.8165V44.1931H18.8487V44.2571H18.8809V44.3211H18.9132V44.3851H18.9454V44.4171H18.9776V44.4811H19.0098V44.5451H19.042V44.5771H19.0743V44.641H19.1065V44.705H19.1387V44.769H19.1709V44.801H19.2031V44.865H19.2354V44.929H19.2676V44.993H19.2998V45.025H19.332V45.089H19.3642V45.153H19.3965V45.217H19.4287V45.249H19.4609V45.313H19.4931V45.377H19.5253V45.409H19.5576V45.4729H19.5898V45.5369H19.622V45.6009H19.6542V45.6329H19.6864V45.6969H19.7187V45.7609H19.7509V45.8249H19.7831V45.8569H19.8153V45.9209H19.8475V45.9849H19.8798V46.0489H19.912V46.0809H19.9442V46.1449H19.9764V46.2089H20.0086V46.2409H20.0409V46.3048H20.0731V46.3688H20.1053V46.4328H20.1375V46.4648H20.1697V46.5288H20.202V46.5928H20.2342V46.6568H20.2664V46.6888H20.2986V46.7528H20.3308V46.8168H20.3631V46.8488H20.3953V46.9128H20.4275V46.9768H20.4597V47.0408H20.4919V47.0728H20.5242V47.1368H20.5564V47.2327H20.5242V47.2967H20.4919V47.3607H20.4597V47.3927H20.4275V47.4567H20.3953V47.5207H20.3631V47.5847H20.3308V47.6167H20.2986V47.6807H20.2664V47.7447H20.2342V47.8087H20.202V47.8407H20.1697V47.9047H20.1375V47.9687H20.1053V48.0006H20.0731V48.0646H20.0409V48.1286H20.0086V48.1926H19.9764V48.2246H19.9442V48.2886H19.912V48.3526H19.8798V48.4166H19.8475V48.4486H19.8153V48.5126H19.7831V48.5766H19.7509V48.6406H19.7187V48.6726H19.6864V48.7366H19.6542V48.8006H19.622V48.8325H19.5898V48.8965H19.5576V48.9605H19.5253V49.0245H19.4931V49.0565H19.4609V49.1205H19.4287V49.1845H19.3965V49.2485H19.3642V49.2805H19.332V49.3445H19.2998V49.4085H19.2676V49.4725H19.2354V49.5045H19.2031V49.5685H19.1709V49.6325H19.1387V49.6644H19.1065V49.7284H19.0743V49.7924H19.042V49.8564H19.0098V49.8884H18.9776V49.9524H18.9454V50.0164H18.9132V50.0804H18.8809V50.1124H18.8487V50.1764H18.8165V50.2404H18.7843V50.3044H18.7521V50.3364H18.7198V50.4004H18.6876V50.4644H18.6554V50.4963H18.6232V50.5603H18.591V50.6243H18.5587V50.6883H18.5265V50.7203H18.4943V50.7843H18.4621V50.8483H18.4299V50.9123H18.3976V50.9443H18.3654V51.0083H18.3332V51.0723H18.301V51.1043H18.2688V51.1683H18.2365V51.2323H18.2043V51.2963H18.1721V51.3282H18.1399V51.3922H18.1077V51.4562H18.0754V51.5202H18.0432V51.5522H18.011V51.6162H17.9788V51.6802H17.9466V51.7442H17.9143V51.7762H17.8821V51.8402H17.8499V51.9042H17.8177V51.9362H17.7855V52.0002H17.7532V52.0642H17.721V52.1282H17.6888V52.1602H17.6566V52.2241H17.6244V52.2881H17.5921V52.3521H17.5599V52.3841H17.5277V52.4481H17.4955V52.5121H17.4633V52.5761H17.431V52.6081H17.3988V52.6721H17.3666V52.7361H17.3344V52.7681H17.3022V52.8321H17.2699V52.8961H17.2377V52.9601H17.2055V52.9921H17.1733V53.056H17.1411V53.12H17.1088V53.184H17.0766V53.216H17.0444V53.28H17.0122V53.344H16.98V53.408H16.9477V53.44H16.9155V53.504H16.8833V53.568H16.8511V53.6H16.8189V53.664H16.7866V53.728H16.7544V53.792H16.7222V53.824H16.69V53.8879H16.6578V53.9519H16.6255V54.0159H16.5933V54.0479H16.5611V54.1119H16.5289V54.1759H16.4967V54.2399H16.4644V54.2719H16.4322V54.3359H16.4V54.3999H16.3678V54.4319H16.3356V54.4959H16.3033V54.5599H16.2711V54.6239H16.2389V54.6559H16.2067V54.7198H16.1745V54.7838H16.1422V54.8478H16.11V54.8798H16.0778V54.9438H16.0456V55.0078H16.0134V55.0398H15.9811V55.1038H15.9489V55.1678H15.9167V55.2318H15.8845V55.2638H15.8523V55.3278H15.82V55.3918H15.7878V55.4558H15.7556V55.4878H15.7234V55.5517H15.6912V55.6157H15.6589V55.6797H15.6267V55.7117H15.5945V55.7757H15.5623V55.8397H15.5301V55.8717H15.4978V55.9357H15.4656V55.9997H15.4334V56.0637H15.4012V56.0957H15.369V56.1597H15.3367V56.2237H15.3045V56.2877H15.2723V56.3197H15.2401V56.3836H15.2079V56.4476H15.1756V56.5116H15.1434V56.5436H15.1112V56.6076H15.079V56.6716H15.0468V56.7036H15.0145V56.7676H14.9823V56.8316H14.9501V56.8956H14.9179V56.9276H14.8857V56.9916H14.8534V57.0556H14.8212V57.1196H14.789V57.1516H14.7568V57.2155H14.7246V57.2795H14.6923V57.3435H14.6601V57.3755H14.6279V57.4395H14.5957V57.5035H14.5635V57.5355H14.5312V57.5995H14.499V57.6635H14.4668V57.7275H14.4346V57.7595H14.4024V57.8235H14.3701V57.8875H14.3379V57.9515H14.3057V57.9835H14.2735V58.0474H14.2413V58.1114H14.209V58.1434H14.1768V58.2074H14.1446V58.2714H14.1124V58.3354H14.0802V58.3674H14.0479V58.4314H14.0157V58.4954H13.9835V58.5594H13.9513V58.5914H13.9191V58.6554H13.8868V58.7194H13.8546V58.7834H13.8224V58.8154H13.7902V58.8793H13.758V58.9433H13.7257V58.9753H13.6935V59.0393H13.6613V59.1033H13.6291V59.1673H13.5969V59.1993H13.5646V59.2313H57.9639V59.1993H57.9961V59.1353H58.0283V59.0713H58.0605V59.0073H58.0927V58.9753H58.125V58.9113H58.1572V58.8474H58.1894V58.7834H58.2216V58.7514H58.2538V58.6874H58.2861V58.6234H58.3183V58.5914H58.3505V58.5274H58.3827V58.4634H58.4149V58.3994H58.4472V58.3674H58.4794V58.3034H58.5116V58.2394H58.5438V58.1754H58.576V58.1434H58.6083V58.0794H58.6405V58.0155H58.6727V57.9515H58.7049V57.9195H58.7371V57.8555H58.7694V57.7915H58.8016V57.7595H58.8338V57.6955H58.866V57.6315H58.8982V57.5675H58.9305V57.5355H58.9627V57.4715H58.9949V57.4075H59.0271V57.3435H59.0593V57.3115H59.0916V57.2475H59.1238V57.1836H59.156V57.1196H59.1882V57.0876H59.2204V57.0236H59.2527V56.9596H59.2849V56.9276H59.3171V56.8636H59.3493V56.7996H59.3815V56.7356H59.4138V56.7036H59.446V56.6396H59.4782V56.5756H59.5104V56.5116H59.5426V56.4796H59.5749V56.4156H59.6071V56.3517H59.6393V56.3197H59.6715V56.2557H59.7037V56.1917H59.736V56.1277H59.7682V56.0957H59.8004V56.0317H59.8326V55.9677H59.8648V55.9037H59.8971V55.8717H59.9293V55.8077H59.9615V55.7437H59.9937V55.6797H60.0259V55.6477H60.0582V55.5837H60.0904V55.5197H60.1226V55.4878H60.1548V55.4238H60.187V55.3598H60.2193V55.2958H60.2515V55.2638H60.2837V55.1998H60.3159V55.1358H60.3481V55.0718H60.3804V55.0398H60.4126V54.9758H60.4448V54.9118H60.477V54.8478H60.5092V54.8158H60.5415V54.7518H60.5737V54.6878H60.6059V54.6559H60.6381V54.5919H60.6703V54.5279H60.7026V54.4639H60.7348V54.4319H60.767V54.3679H60.7992V54.3039H60.8314V54.2399H60.8637V54.2079H60.8959V54.1439H60.9281V54.0799H60.9603V54.0159H60.9925V53.9839H61.0248V53.9199H61.057V53.8559H61.0892V53.824H61.1214V53.76H61.1536V53.696H61.1859V53.632H61.2181V53.6H61.2503V53.536H61.2825V53.472H61.3147V53.408H61.347V53.376H61.3792V53.312H61.4114V53.248H61.4436V53.184H61.4758V53.152H61.5081V53.088H61.5403V53.024H61.5725V52.9921H61.6047V52.9281H61.6369V52.8641H61.6692V52.8001H61.7014V52.7681H61.7336V52.7041H61.7658V52.6401H61.798V52.5761H61.8303V52.5441H61.8625V52.4801H61.8947V52.4161H61.9269V52.3841H61.9591V52.3201H61.9914V52.2561H62.0236V52.1921H62.0558V52.1602H62.088V52.0962H62.1202V52.0322H62.1525V51.9682H62.1847V51.9362H62.2169V51.8722H62.2491V51.8082H62.2813V51.7442H62.3136V51.7122H62.3458V51.6482H62.378V51.5842H62.4102V51.5522H62.4424V51.4882H62.4747V51.4242H62.5069V51.3602H62.5391V51.3282H62.5713V51.2643H62.6035V51.2003H62.6358V51.1363H62.668V51.1043H62.7002V51.0403H62.7324V50.9763H62.7646V50.9123H62.7969V50.8803H62.8291V50.8163H62.8613V50.7523H62.8935V50.7203H62.9257V50.6563H62.958V50.5923H62.9902V50.5283H63.0224V50.4963H63.0546V50.4324H63.0868V50.3684H63.1191V50.3044H63.1513V50.2724H63.1835V50.2084H63.2157V50.1444H63.2479V50.0804H63.2802V50.0484H63.3124V49.9844H63.3446V49.9204H63.3768V49.8884H63.409V49.8244H63.4413V49.7604H63.4735V49.6964H63.5057V49.6644H63.5379V49.6005H63.5701V49.5365H63.6024V49.4725H63.6346V49.4405H63.6668V49.3765H63.699V49.3125H63.7312V49.2485H63.7635V49.2165H63.7957V49.1525H63.8279V49.0885H63.8601V49.0565H63.8923V48.9925H63.9246V48.9285H63.9568V48.8645H63.989V48.8325H64.0212V48.7686H64.0534V48.7046H64.0857V48.6406H64.1179V48.6086H64.1501V48.5446H64.1823V48.4806H64.2145V48.4486H64.2468V48.3846H64.279V48.3206H64.3112V48.2566H64.3434V48.2246H64.3756V48.1606H64.4079V48.0966H64.4401V48.0326H64.4723V48.0006H64.5045V47.9367H64.5367V47.8727H64.569V47.8087H64.6012V47.7767H64.6334V47.7127H64.6656V47.6487H64.6978V47.6167H64.7301V47.5527H64.7623V47.4887H64.7945V47.4247H64.8267V47.3927H64.8589V47.3287H64.8912V47.2647H64.9234V47.2007H64.9556V47.1687H64.9878V47.1048H65.02V47.0408H65.0523V46.9768H65.0845V46.9448H65.1167V46.8808H65.1489V46.8168H65.1811V46.7848H65.2134V46.7208H65.2456V46.6568H65.2778V46.5928H65.31V46.5608H65.3422V46.4968H65.3745V46.4328H65.4067V46.3688H65.4389V46.3368H65.4711V46.2729H65.5033V46.2089H65.5356V46.1449H65.5678V46.1129H65.6V46.0489H65.6322V45.9849H65.6644V45.9529H65.6967V45.8889H65.7289V45.8249H65.7611V45.7609H65.7933V45.7289H65.8255V45.6649H65.8578V45.6009H65.89V45.5369H65.9222V45.5049H65.9544V45.441H65.9866V45.377H66.0189V45.313H66.0511V45.281H66.0833V45.217H66.1155V45.153H66.1477V45.121H66.18V45.057H66.2122V44.993H66.2444V44.929H66.2766V44.897H66.3088V44.833H66.3411V44.769H66.3733V44.705H66.4055V44.673H66.4377V44.6091H66.4699V44.5451H66.5022V44.5131H66.5344V44.4491H66.5666V44.3851H66.5988V44.3211H66.631V44.2891H66.6633V44.2251H66.6955V44.1611H66.7277V44.0971H66.7599V44.0651H66.7921V44.0011H66.8244V43.9371H66.8566V43.8731H66.8888V43.8411H66.921V43.7772H66.9532V43.7132H66.9855V43.6812H67.0177V43.6172H67.0499V43.5532H67.0821V43.4892H67.1143V43.4572H67.1466V43.3932H67.1788V43.3292H67.211V43.2652H67.2432V43.2332H67.2754V43.1692H67.3077V43.1052H67.3399V43.0412H67.3721V43.0092H67.4043V42.9453H67.4365V42.8813H67.4688V42.8493H67.501V42.7853H67.5332V42.7213H67.5654V42.6573H67.5976V42.6253H67.6299V42.5613H67.6621V42.4973H67.6943V42.4333H67.7265V42.4013H67.7587V42.3373H67.791V42.2733H67.8232V42.2093H67.8554V42.1773H67.8876V42.1133H67.9198V42.0494H67.9521V42.0174H67.9843V41.9534H68.0165V41.8894H68.0487V41.8254H68.0809V41.7934H68.1132V41.7294H68.1454V41.6654H68.1776V41.6014H68.2098V41.5694H68.242V41.5054H68.2743V41.4414H68.3065V41.3774H68.3387V41.3454H68.3709V41.2815H68.4031V41.2175H68.4354V41.1855H68.4676V41.1215H68.4998V41.0575H68.532V40.9935H68.5642V40.9615H68.5965V40.8975H68.6287V40.8335H68.6609V40.7695H68.6931V40.7375H68.7253V40.6735H68.7576V40.6095H68.7898V40.5775H68.822V40.5135H68.8542V40.4495H68.8864V40.3856H68.9187V40.3536H68.9509V40.2896H68.9831V40.2256H69.0153V40.1616H69.0475V40.1296H69.0798V40.0656H69.112V40.0016H69.1442V39.9376H69.1764V39.9056H69.2086V39.8416H69.2409V39.7776H69.2731V39.7456H69.3053V39.6816H69.3375V39.6176H69.3697V39.5537H69.402V39.5217H69.4342V39.4577H69.4664V39.3937H69.4986V39.3297H69.5308V39.2977H69.5631V39.2337H69.5953V39.1697H69.6275V39.1057H69.6597V39.0737H69.6919V39.0097H69.7242V38.9457H69.7564V38.9137H69.7886V38.8497H69.8208V38.7857H69.853V38.7218H69.8853V38.6898H69.9175V38.6258H69.9497V38.5618H69.9819V38.4978H70.0141V38.4658H70.0464V38.4018H70.0786V38.3378H70.1108V38.2738H70.143V38.2418H70.1752V38.1778H70.2075V38.1138H70.2397V38.0818H70.2719V38.0178H70.3041V37.9538H70.3363V37.8899H70.3686V37.8579H70.4008V37.7939H70.433V37.7299H70.4652V37.6659H70.4974V37.6339H70.5297V37.5699H70.5619V37.5059H70.5941V37.4419H70.6263V37.4099H70.6585V37.3459H70.6908V37.2819H70.723V37.2499H70.7552V37.1859H70.7874V37.1219H70.8196V37.058H70.8519V37.026H70.8841V36.962H70.9163V36.898H70.9485V36.834H70.9807V36.802H71.013V36.738H71.0452V36.674H71.0774V36.642H71.1096V36.578H71.1418V36.514H71.1741V36.45H71.2063V36.418H71.2385V36.354H71.2707V36.29H71.3029V36.2261H71.3352V36.1941H71.3674V36.1301H71.3996V36.0661H71.4318V36.0021H71.4641V35.9701H71.4963V35.9061H71.5285V35.8421H71.5607V35.8101H71.5929V35.7461H71.6251V35.6821H71.6574V35.6181H71.6896V35.5861H71.7218V35.5221H71.754V35.4581H71.7862V35.3942H71.8185V35.3622H71.8507V35.2982H71.8829V35.2342H71.9151V35.1702H71.9473V35.1382H71.9796V35.0742H72.0118V35.0102H72.044V34.9782H72.0762V34.9142H72.1085V34.8502H72.1407V34.7862H72.1729V34.7542H72.2051V34.6902H72.2373V34.6262H72.2695V34.5623H72.3018V34.5303H72.334V34.4663H72.3662V34.4023H72.3984V34.3383H72.4306V34.3063H72.4629V34.2423H72.4951V34.1783H72.5273V34.1463H72.5595V34.0823H72.5918V34.0183H72.624V33.9543H72.6562V33.9223H72.6884V33.8583H72.7206V33.7943H72.7528V33.7304H72.7851V33.6984H72.8173V33.6344H72.8495V33.5704H72.8817V33.5064H72.9139V33.4744H72.8817V33.4104H72.8495V33.3464H72.8173V33.3144H72.7851V33.2504H72.7528V33.1864H72.7206V33.1224H72.6884V33.0904H72.6562V33.0264H72.624V32.9624H72.5918V32.8985H72.5595V32.8665H72.5273V32.8025H72.4951V32.7385H72.4629V32.6745H72.4306V32.6425H72.3984V32.5785H72.3662V32.5145H72.334V32.4825H72.3018V32.4185H72.2695V32.3545H72.2373V32.2905H72.2051V32.2585H72.1729V32.1945H72.1407V32.1305H72.1085V32.0666H72.0762V32.0346H72.044V31.9706H72.0118V31.9066H71.9796V31.8426H71.9473V31.8106H71.9151V31.7466H71.8829V31.6826H71.8507V31.6506H71.8185V31.5866H71.7862V31.5226H71.754V31.4586H71.7218V31.4266H71.6896V31.3626H71.6574V31.2986H71.6251V31.2346H71.5929V31.2027H71.5607V31.1387H71.5285V31.0747H71.4963V31.0107H71.4641V30.9787H71.4318V30.9147H71.3996V30.8507H71.3674V30.8187H71.3352V30.7547H71.3029V30.6907H71.2707V30.6267H71.2385V30.5947H71.2063V30.5307H71.1741V30.4667H71.1418V30.4027H71.1096V30.3708H71.0774V30.3068H71.0452V30.2428H71.013V30.2108H70.9807V30.1468H70.9485V30.0828H70.9163V30.0188H70.8841V29.9868H70.8519V29.9228H70.8196V29.8588H70.7874V29.7948H70.7552V29.7628H70.723V29.6988H70.6908V29.6348H70.6585V29.5708H70.6263V29.5389H70.5941V29.4749H70.5619V29.4109H70.5297V29.3789H70.4974V29.3149H70.4652V29.2509H70.433V29.1869H70.4008V29.1549H70.3686V29.0909H70.3363V29.0269H70.3041V28.9629H70.2719V28.9309H70.2397V28.8669H70.2075V28.8029H70.1752V28.7389H70.143V28.707H70.1108V28.643H70.0786V28.579H70.0464V28.547H70.0141V28.483H69.9819V28.419H69.9497V28.355H69.9175V28.323H69.8853V28.259H69.853V28.195H69.8208V28.131H69.7886V28.099H69.7564V28.035H69.7242V27.971H69.6919V27.907H69.6597V27.875H69.6275V27.8111H69.5953V27.7471H69.5631V27.7151H69.5308V27.6511H69.4986V27.5871H69.4664V27.5231H69.4342V27.4911H69.402V27.4271H69.3697V27.3631H69.3375V27.2991H69.3053V27.2671H69.2731V27.2031H69.2409V27.1391H69.2086V27.1071H69.1764V27.0432H69.1442V26.9792H69.112V26.9152H69.0798V26.8832H69.0475V26.8192H69.0153V26.7552H68.9831V26.6912H68.9509V26.6592H68.9187V26.5952H68.8864V26.5312H68.8542V26.4672H68.822V26.4352H68.7898V26.3712H68.7576V26.3072H68.7253V26.2752H68.6931V26.2113H68.6609V26.1473H68.6287V26.0833H68.5965V26.0513H68.5642V25.9873H68.532V25.9233H68.4998V25.8593H68.4676V25.8273H68.4354V25.7633H68.4031V25.6993H68.3709V25.6353H68.3387V25.6033H68.3065V25.5393H68.2743V25.4753H68.242V25.4433H68.2098V25.3793H68.1776V25.3154H68.1454V25.2514H68.1132V25.2194H68.0809V25.1554H68.0487V25.0914H68.0165V25.0274H67.9843V24.9954H67.9521V24.9314H67.9198V24.8674H67.8876V24.8034H67.8554V24.7714H67.8232V24.7074H67.791V24.6434H67.7587V24.6114H67.7265V24.5474H67.6943V24.4835H67.6621V24.4195H67.6299V24.3875H67.5976V24.3235H67.5654V24.2595H67.5332V24.1955H67.501V24.1635H67.4688V24.0995H67.4365V24.0355H67.4043V24.0035H67.3721V23.9395H67.3399V23.8755H67.3077V23.8115H67.2754V23.7795H67.2432V23.7155H67.211V23.6516H67.1788V23.5876H67.1466V23.5556H67.1143V23.4916H67.0821V23.4276H67.0499V23.3636H67.0177V23.3316H66.9855V23.2676H66.9532V23.2036H66.921V23.1716H66.8888V23.1076H66.8566V23.0436H66.8244V22.9796H66.7921V22.9476H66.7599V22.8836H66.7277V22.8197H66.6955V22.7557H66.6633V22.7237H66.631V22.6597H66.5988V22.5957H66.5666V22.5317H66.5344V22.4997H66.5022V22.4357H66.4699V22.3717H66.4377V22.3397H66.4055V22.2757H66.3733V22.2117H66.3411V22.1477H66.3088V22.1157H66.2766V22.0517H66.2444V21.9878H66.2122V21.9238H66.18V21.8918H66.1477V21.8278H66.1155V21.7638H66.0833V21.6998H66.0511V21.6678H66.0189V21.6038H65.9866V21.5398H65.9544V21.5078H65.9222V21.4438H65.89V21.3798H65.8578V21.3158H65.8255V21.2838H65.7933V21.2198H65.7611V21.1559H65.7289V21.0919H65.6967V21.0599H65.6644V20.9959H65.6322V20.9319H65.6V20.8999H65.5678V20.8359H65.5356V20.7719H65.5033V20.7079H65.4711V20.6759H65.4389V20.6119H65.4067V20.5479H65.3745V20.4839H65.3422V20.4519H65.31V20.3879H65.2778V20.324H65.2456V20.26H65.2134V20.228H65.1811V20.164H65.1489V20.1H65.1167V20.068H65.0845V20.004H65.0523V19.94H65.02V19.876H64.9878V19.844H64.9556V19.78H64.9234V19.716H64.8912V19.652H64.8589V19.62H64.8267V19.556H64.7945V19.4921H64.7623V19.4281H64.7301V19.3961H64.6978V19.3321H64.6656V19.2681H64.6334V19.2361H64.6012V19.1721H64.569V19.1081H64.5367V19.0441H64.5045V19.0121H64.4723V18.9481H64.4401V18.8841H64.4079V18.8201H64.3756V18.7881H64.3434V18.7241H64.3112V18.6602H64.279V18.6282H64.2468V18.5642H64.2145V18.5002H64.1823V18.4362H64.1501V18.4042H64.1179V18.3402H64.0857V18.2762H64.0534V18.2122H64.0212V18.1802H63.989V18.1162H63.9568V18.0522H63.9246V17.9882H63.8923V17.9562H63.8601V17.8922H63.8279V17.8283H63.7957V17.7963H63.7635V17.7323H63.7312V17.6683H63.699V17.6043H63.6668V17.5723H63.6346V17.5083H63.6024V17.4443H63.5701V17.3803H63.5379V17.3483H63.5057V17.2843H63.4735V17.2203H63.4413V17.1563H63.409V17.1243H63.3768V17.0603H63.3446V16.9963H63.3124V16.9644H63.2802V16.9004H63.2479V16.8364H63.2157V16.7724H63.1835V16.7404H63.1513V16.6764H63.1191V16.6124H63.0868V16.5484H63.0546V16.5164H63.0224V16.4524H62.9902V16.3884H62.958V16.3244H62.9257V16.2924H62.8935V16.2284H62.8613V16.1644H62.8291V16.1325H62.7969V16.0685H62.7646V16.0045H62.7324V15.9405H62.7002V15.9085H62.668V15.8445H62.6358V15.7805H62.6035V15.7165H62.5713V15.6845H62.5391V15.6205H62.5069V15.5565H62.4747V15.5245H62.4424V15.4605H62.4102V15.3965H62.378V15.3326H62.3458V15.3006H62.3136V15.2366H62.2813V15.1726H62.2491V15.1086H62.2169V15.0766H62.1847V15.0126H62.1525V14.9486H62.1202V14.8846H62.088V14.8526H62.0558V14.7886H62.0236V14.7246H61.9914V14.6926H61.9591V14.6286H61.9269V14.5646H61.8947V14.5006H61.8625V14.4687H61.8303V14.4047H61.798V14.3407H61.7658V14.2767H61.7336V14.2447H61.7014V14.1807H61.6692V14.1167H61.6369V14.0527H61.6047V14.0207H61.5725V13.9567H61.5403V13.8927H61.5081V13.8607H61.4758V13.7967H61.4436V13.7327H61.4114V13.6687H61.3792V13.6367H61.347V13.5728H61.3147V13.5088H61.2825V13.4448H61.2503V13.4128H61.2181V13.3488H61.1859V13.2848H61.1536V13.2208H61.1214V13.1888H61.0892V13.1248H61.057V13.0608H61.0248V13.0288H60.9925V12.9648H60.9603V12.9008H60.9281V12.8368H60.8959V12.8049H60.8637V12.7409H60.8314V12.6769H60.7992V12.6129H60.767V12.5809H60.7348V12.5169H60.7026V12.4529H60.6703V12.4209H60.6381V12.3569H60.6059V12.2929H60.5737V12.2289H60.5415V12.1969H60.5092V12.1329H60.477V12.0689H60.4448V12.0049H60.4126V11.9729H60.3804V11.909H60.3481V11.845H60.3159V11.781H60.2837V11.749H60.2515V11.685H60.2193V11.621H60.187V11.589H60.1548V11.525H60.1226V11.461H60.0904V11.397H60.0582V11.365H60.0259V11.301H59.9937V11.237H59.9615V11.173H59.9293V11.141H59.8971V11.0771H59.8648V11.0131H59.8326V10.9491H59.8004V10.9171H59.7682V10.8531H59.736V10.7891H59.7037V10.7571H59.6715V10.6931H59.6393V10.6291H59.6071V10.5651H59.5749V10.5331H59.5426V10.4691H59.5104V10.4051H59.4782V10.3411H59.446V10.3091H59.4138V10.2452H59.3815V10.1812H59.3493V10.1172H59.3171V10.0852H59.2849V10.0212H59.2527V9.95719H59.2204V9.92519H59.1882V9.8612H59.156V9.79721H59.1238V9.73322H59.0916V9.70122H59.0593V9.63723H59.0271V9.57323H58.9949V9.50924H58.9627V9.47725H58.9305V9.41325H58.8982V9.34926H58.866V9.31727H58.8338V9.25327H58.8016V9.18928H58.7694V9.12529H58.7371V9.09329H58.7049V9.0293H58.6727V8.96531H58.6405V8.90132H58.6083V8.86932H58.576V8.80533H58.5438V8.74134H58.5116V8.67734H58.4794V8.64535H58.4472V8.58136H58.4149V8.51736H58.3827V8.48537H58.3505V8.42138H58.3183V8.35738H58.2861V8.29339H58.2538V8.26139H58.2216V8.1974H58.1894V8.13341H58.1572V8.06942H58.125V8.03742H58.0927V7.97343H58.0605V7.90944H58.0283V7.84544H57.9961V7.81345H57.9639V7.78145H13.5969V7.84544H13.6291V7.90944H13.6613V7.94143H13.6935V8.00542H13.7257V8.06942H13.758V8.13341H13.7902V8.16541H13.8224V8.2294H13.8546V8.29339H13.8868V8.35738H13.9191V8.38938H13.9513V8.45337H13.9835V8.51736H14.0157V8.58136H14.0479V8.61335H14.0802V8.67734H14.1124V8.74134H14.1446V8.77333H14.1768V8.83732H14.209V8.90132H14.2413V8.96531H14.2735V8.99731H14.3057V9.0613H14.3379V9.12529H14.3701V9.18928H14.4024V9.22128H14.4346V9.28527H14.4668V9.34926H14.499V9.41325H14.5312V9.44525H14.5635V9.50924H14.5957V9.57323H14.6279V9.60523H14.6601V9.66922H14.6923V9.73322H14.7246V9.79721H14.7568V9.8292H14.789V9.8932H14.8212V9.95719H14.8534V10.0212H14.8857V10.0532H14.9179V10.1172H14.9501V10.1812H14.9823V10.2132H15.0145V10.2772H15.0468V10.3411H15.079V10.4051H15.1112V10.4371H15.1434V10.5011H15.1756V10.5651H15.2079V10.6291H15.2401V10.6611H15.2723V10.7251H15.3045V10.7891H15.3367V10.8531H15.369V10.8851H15.4012V10.9491H15.4334V11.0131H15.4656V11.0451H15.4978V11.1091H15.5301V11.173H15.5623V11.237H15.5945V11.269H15.6267V11.333H15.6589V11.397H15.6912V11.461H15.7234V11.493H15.7556V11.557H15.7878V11.621H15.82V11.685H15.8523V11.717H15.8845V11.781H15.9167V11.845H15.9489V11.877H15.9811V11.941H16.0134V12.0049H16.0456V12.0689H16.0778V12.1009H16.11V12.1649H16.1422V12.2289H16.1745V12.2929H16.2067V12.3249H16.2389V12.3889H16.2711V12.4529H16.3033V12.5169H16.3356V12.5489H16.3678V12.6129H16.4V12.6769H16.4322V12.7089H16.4644V12.7729H16.4967V12.8368H16.5289V12.9008H16.5611V12.9328H16.5933V12.9968H16.6255V13.0608H16.6578V13.1248H16.69V13.1568H16.7222V13.2208H16.7544V13.2848H16.7866V13.3168H16.8189V13.3808H16.8511V13.4448H16.8833V13.5088H16.9155V13.5408H16.9477V13.6048H16.98V13.6687H17.0122V13.7327H17.0444V13.7647H17.0766V13.8287H17.1088V13.8927H17.1411V13.9567H17.1733V13.9887H17.2055V14.0527H17.2377V14.1167H17.2699V14.1487H17.3022V14.2127H17.3344V14.2767H17.3666V14.3407H17.3988V14.3727H17.431V14.4367H17.4633V14.5006H17.4955V14.5646H17.5277V14.5966H17.5599V14.6606H17.5921V14.7246H17.6244V14.7886H17.6566V14.8206H17.6888V14.8846H17.721V14.9486H17.7532V14.9806H17.7855V15.0446H17.8177V15.1086H17.8499V15.1726H17.8821V15.2046H17.9143V15.2686H17.9466V15.3326H17.9788V15.3965H18.011V15.4285H18.0432V15.4925H18.0754V15.5565H18.1077V15.6205H18.1399V15.6525H18.1721V15.7165H18.2043V15.7805H18.2365V15.8125H18.2688V15.8765H18.301V15.9405H18.3332V16.0045H18.3654V16.0365H18.3976V16.1005H18.4299V16.1644H18.4621V16.2284H18.4943V16.2604H18.5265V16.3244H18.5587V16.3884H18.591V16.4204H18.6232V16.4844H18.6554V16.5484H18.6876V16.6124H18.7198V16.6444H18.7521V16.7084H18.7843V16.7724H18.8165V16.8364H18.8487V16.8684H18.8809V16.9324H18.9132V16.9963H18.9454V17.0603H18.9776V17.0923H19.0098V17.1563H19.042V17.2203H19.0743V17.2523H19.1065V17.3163H19.1387V17.3803H19.1709V17.4443H19.2031V17.4763H19.2354V17.5403H19.2676V17.6043H19.2998V17.6683H19.332V17.7003H19.3642V17.7643H19.3965V17.8283H19.4287V17.8922H19.4609V17.9242H19.4931V17.9882H19.5253V18.0522H19.5576V18.0842H19.5898V18.1482H19.622V18.2122H19.6542V18.2762H19.6864V18.3082H19.7187V18.3722H19.7509V18.4362H19.7831V18.5002H19.8153V18.5322H19.8475V18.5962H19.8798V18.6602H19.912V18.6921H19.9442V18.7561H19.9764V18.8201H20.0086V18.8841H20.0409V18.9161H20.0731V18.9801H20.1053V19.0441H20.1375V19.1081H20.1697V19.1401H20.202V19.2041H20.2342V19.2681H20.2664V19.3321H20.2986V19.3641H20.3308V19.4281H20.3631V19.4921H20.3953V19.524H20.4275V19.588H20.4597V19.652H20.4919V19.716H20.5242V19.748H20.5564V19.812H20.5886V19.876H20.6208V19.94H20.653V19.972H20.6853V20.036H20.7175V20.1H20.7497V20.164H20.7819V20.196H20.8141V20.26H20.8464V20.324H20.8786V20.3559H20.9108V20.4199H20.943V20.4839H20.9752V20.5479H21.0075V20.5799H21.0397V20.6439H21.0719V20.7079H21.1041V20.7719H21.1363V20.8039H21.1686V20.8679H21.2008V20.9319H21.233V20.9959H21.2652V21.0279H21.2974V21.0919H21.3297V21.1559H21.3619V21.1879H21.3941V21.2518H21.4263V21.3158H21.4585V21.3798H21.4908V21.4118H21.523V21.4758H21.5552V21.5398H21.5874V21.6038H21.6196V21.6358H21.6519V21.6998H21.6841V21.7638H21.7163V21.7958H21.7485V21.8598H21.7807V21.9238H21.813V21.9878H21.8452V22.0197H21.8774V22.0837H21.9096V22.1477H21.9418V22.2117H21.9741V22.2437H22.0063V22.3077H22.0385V22.3717H22.0707V22.4357H22.1029V22.4677H22.1352V22.5317H22.1674V22.5957H22.1996V22.6277H22.2318V22.6917H22.264V22.7557H22.2963V22.8197H22.3285V22.8517H22.3607V22.9156H22.3929V22.9796H22.4251V23.0436H22.4574V23.0756H22.4896V23.1396H22.5218V23.2036H22.554V23.2676H22.5862V23.2996H22.6185V23.3636H22.6507V23.4276H22.6829V23.4596H22.7151V23.5236H22.7473V23.5876H22.7796V23.6516H22.8118V23.6836H22.844V23.7475H22.8762V23.8115H22.9084V23.8755H22.9407V23.9075H22.9729V23.9715H23.0051V24.0355H23.0373V24.0995H23.0695V24.1315H23.1018V24.1955H23.134V24.2595H23.1662V24.2915H23.1984V24.3555H23.2306V24.4195H23.2629V24.4835H23.2951V24.5155H23.3273V24.5794H23.3595V24.6434H23.3917V24.7074H23.424V24.7394H23.4562V24.8034H23.4884V24.8674H23.5206V24.8994H23.5528V24.9634H23.5851V25.0274H23.6173V25.0914H23.6495V25.1234H23.6817V25.1874H23.7139V25.2514H23.7462V25.3154H23.7784V25.3474H23.8106V25.4113H23.8428V25.4753H23.875V25.5393H23.9073V25.5713H23.9395V25.6353H23.9717V25.6993H24.0039V25.7313H24.0361V25.7953H24.0684V25.8593H24.1006V25.9233H24.1328V25.9553H24.165V26.0193H24.1973V26.0833H24.2295V26.1473H24.2617V26.1793H24.2939V26.2432H24.3261V26.3072H24.3584V26.3712H24.3906V26.4032H24.4228V26.4672H24.455V26.5312H24.4872V26.5632H24.5194V26.6272H24.5517V26.6912H24.5839V26.7552H24.6161V26.7872H24.6483V26.8512H24.6805V26.9152H24.7128V26.9792H24.745V27.0112H24.7772V27.0751H24.8094V27.1391H24.8417V27.1711H24.8739V27.2351H24.9061V27.2991H24.9383V27.3631H24.9705V27.3951H25.0028V27.4591H25.035V27.5231H25.0672V27.5871H25.0994V27.6191H25.1316V27.6831H25.1639V27.7471H25.1961V27.8111H25.2283V27.8431H25.2605V27.907H25.2927V27.971H25.325V28.003H25.3572V28.067H25.3894V28.131H25.4216V28.195H25.4538V28.227H25.4861V28.291H25.5183V28.355H25.5505V28.419H25.5827V28.451H25.6149V28.515H25.6472V28.579H25.6794V28.643H25.7116V28.675H25.7438V28.7389H25.776V28.8029H25.8083V28.8349H25.8405V28.8989H25.8727V28.9629H25.9049V29.0269H25.9371V29.0589H25.9694V29.1229H26.0016V29.1869H26.0338V29.2509H26.066V29.2829H26.0982V29.3469H26.1305V29.4109H26.1627V29.4749H26.1949V29.5069H26.2271V29.5708H26.2593V29.6348H26.2916V29.6668H26.3238V29.7308H26.356V29.7948H26.3882V29.8588H26.4204V29.8908H26.4527V29.9548H26.4849V30.0188H26.5171V30.0828H26.5493V30.1148H26.5815V30.1788H26.6138V30.2428H26.646V30.2748H26.6782V30.3388H26.7104V30.4027H26.7426V30.4667H26.7749V30.4987H26.8071V30.5627H26.8393V30.6267H26.8715V30.6907H26.9037V30.7227H26.936V30.7867H26.9682V30.8507H27.0004V30.9147H27.0326V30.9467H27.0648V31.0107H27.0971V31.0747H27.1293V31.1067H27.1615V31.1707H27.1937V31.2346H27.2259V31.2986H27.2582V31.3306H27.2904V31.3946H27.3226V31.4586H27.3548V31.5226H27.387V31.5546H27.4193V31.6186H27.4515V31.6826H27.4837V31.7466H27.5159V31.7786H27.5481V31.8426H27.5804V31.9066H27.6126V31.9386H27.6448V32.0026H27.677V32.0666H27.7092V32.1305H27.7415V32.1625H27.7737V32.2265H27.8059V32.2905H27.8381V32.3545H27.8703V32.3865H27.9026V32.4505H27.9348V32.5145H27.967V32.5785H27.9992V32.6105H28.0314V32.6745H28.0637V32.7385H28.0959V32.7705H28.1281V32.8345H28.1603V32.8985H28.1925V32.9624H28.2248V32.9944H28.257V33.0584H28.2892V33.1224H28.3214V33.1864H28.3536V33.2184H28.3859V33.2824H28.4181V33.3464H28.4503V33.3784H28.4825V33.4424H28.5147V33.5064H28.547V33.5704H28.5792V33.6024H28.6114V33.6664H28.6436V33.7304H28.6758V33.7943H28.7081V33.8263H28.7403V33.8903H28.7725V33.9543H28.8047V34.0183H28.8369V34.0503H28.8692V34.1143H28.9014V34.1783H28.9336V34.2103H28.9658V34.2743H28.998V34.3383H29.0303V34.4023H29.0625V34.4343H29.0947V34.4983H29.1269V34.5623H29.1591V34.6262H29.1914V34.6582H29.2236V34.7222H29.2558V34.7862H29.288V34.8502H29.3202V34.8822H29.3525V34.9462H29.3847V35.0102H29.4169V35.0422H29.4491V35.1062H29.4813V35.1702H29.5136V35.2342H29.5458V35.2662H29.578V35.3302H29.6102V35.3942H29.6424V35.4581H29.6747V35.4901H29.7069V35.5541H29.7391V35.6181H29.7713V35.6821H29.8035V35.7141H29.8358V35.7781H29.868V35.8421H29.9002V35.8741H29.9324V35.9381H29.9646V36.0021H29.9969V36.0661H30.0291V36.0981H30.0613V36.1621H30.0935V36.2261H30.1257V36.29H30.158V36.322H30.1902V36.386H30.2224V36.45H30.2546V36.482H30.2868V36.546H30.3191V36.61H30.3513V36.674H30.3835V36.706H30.4157V36.77H30.4479V36.834H30.4802V36.898H30.5124V36.93H30.5446V36.994H30.5768V37.058H30.609V37.1219H30.6413V37.1539H30.6735V37.2179H30.7057V37.2819H30.7379V37.3139H30.7701V37.3779H30.8024V37.4419H30.8346V37.5059H30.8668V37.5379H30.899V37.6019H30.9312V37.6659H30.9635V37.7299H30.9957V37.7619H31.0279V37.8259H31.0601V37.8899H31.0923V37.9538H31.1246V37.9858H31.1568V38.0498H31.189V38.1138H31.2212V38.1458H31.2534V38.2098H31.2857V38.2738H31.3179V38.3378H31.3501V38.3698H31.3823V38.4338H31.4145V38.4978H31.4468V38.5618H31.479V38.5938H31.5112V38.6578H31.5434V38.7218H31.5756V38.7538H31.6079V38.8177H31.6401V38.8817H31.6723V38.9457H31.7045V38.9777H31.7367V39.0417H31.769V39.1057H31.8012V39.1697H31.8334V39.2017H31.8656V39.2657H31.8978V39.3297H31.9301V39.3937H31.9623V39.4257H31.9945V39.4897H32.0267V39.5537H32.0589V39.5857H32.0912V39.6496H32.1234V39.7136H32.1556V39.7776H32.1878V39.8096H32.22V39.8736H32.2523V39.9376H32.2845V40.0016H32.3167V40.0336H32.3489V40.0976H32.3811V40.1616H32.4134V40.2256H32.4456V40.2576H32.4778V40.3216H32.51V40.3856H32.5422V40.4176H32.5745V40.4815H32.6067V40.5455H32.6389V40.6095H32.6711V40.6415H32.7033V40.7055H32.7356V40.7695H32.7678V40.8335H32.8V40.8655H32.8322V40.9295H32.8644V40.9935H32.8967V41.0575H32.9289V41.0895H32.9611V41.1535H32.9933V41.2175H33.0255V41.2495H33.0578V41.3134H33.09V41.3774H33.1222V41.4414H33.1544V41.4734H33.1866V41.5374H33.2189V41.6014H33.2511V41.6654H33.2833V41.6974H33.3155V41.7614H33.3477V41.8254H33.38V41.8574H33.4122V41.9214H33.4444V41.9854H33.4766V42.0494H33.5088V42.0814H33.5411V42.1453H33.5733V42.2093H33.6055V42.2733H33.6377V42.3053H33.6699V42.3693H33.7022V42.4333H33.7344V42.4973H33.7666V42.5293H33.7988V42.5933H33.831V42.6573H33.8633V42.6893H33.8955V42.7533H33.9277V42.8173H33.9599V42.8813H33.9921V42.9133H34.0244V42.9772H34.0566V43.0412H34.0888V43.1052H34.121V43.1372H34.1532V43.2012H34.1855V43.2652H34.2177V43.3292H34.2499V43.3612H34.2821V43.4252H34.3143V43.4892H34.3466V43.5212H34.3788V43.5852H34.411V43.6492H34.4432V43.7132H34.4754V43.7452H34.5077V43.8091H34.5399V43.8731H34.5721V43.9371H34.6043V43.9691H34.6365V44.0331H34.6688V44.0971H34.701V44.1611H34.7332V44.1931H34.7654V44.2571H34.7976V44.3211H34.8299V44.3531H34.8621V44.4171H34.8943V44.4811H34.9265V44.5451H34.9587V44.5771H34.991V44.641H35.0232V44.705H35.0554V44.769H35.0876V44.801H35.1198V44.865H35.1521V44.929H35.1843V44.961H35.2165V45.025H35.2487V45.089H35.2809V45.153H35.3132V45.185H50.1022V45.121H50.1344V45.057H50.1666V45.025H50.1988V44.961H50.231V44.897H50.2633V44.865H50.2955V44.801H50.3277V44.737H50.3599V44.673H50.3921V44.641H50.4244V44.5771H50.4566V44.5131H50.4888V44.4491H50.521V44.4171H50.5532V44.3531H50.5855V44.2891H50.6177V44.2251H50.6499V44.1931H50.6821V44.1291H50.7143V44.0651H50.7466V44.0331H50.7788V43.9691H50.811V43.9051H50.8432V43.8411H50.8754V43.8091H50.9077V43.7452H50.9399V43.6812H50.9721V43.6172H51.0043V43.5852H51.0365V43.5212H51.0688V43.4572H51.101V43.3932H51.1332V43.3612H51.1654V43.2972H51.1976V43.2332H51.2299V43.2012H51.2621V43.1372H51.2943V43.0732H51.3265V43.0092H51.3587V42.9772H51.391V42.9133H51.4232V42.8493H51.4554V42.7853H51.4876V42.7533H51.5198V42.6893H51.5521V42.6253H51.5843V42.5613H51.6165V42.5293H51.6487V42.4653H51.6809V42.4013H51.7132V42.3693H51.7454V42.3053H51.7776V42.2413H51.8098V42.1773H51.842V42.1453H51.8743V42.0814H51.9065V42.0174H51.9387V41.9534H51.9709V41.9214H52.0031V41.8574H52.0354V41.7934H52.0676V41.7614H52.0998V41.6974H52.132V41.6334H52.1642V41.5694H52.1965V41.5374H52.2287V41.4734H52.2609V41.4094H52.2931V41.3454H52.3253V41.3134H52.3576V41.2495H52.3898V41.1855H52.422V41.1215H52.4542V41.0895H52.4864V41.0255H52.5187V40.9615H52.5509V40.9295H52.5831V40.8655H52.6153V40.8015H52.6475V40.7375H52.6798V40.7055H52.712V40.6415H52.7442V40.5775H52.7764V40.5135H52.8086V40.4815H52.8409V40.4176H52.8731V40.3536H52.9053V40.2896H52.9375V40.2576H52.9697V40.1936H53.002V40.1296H53.0342V40.0976H53.0664V40.0336H53.0986V39.9696H53.1308V39.9056H53.1631V39.8736H53.1953V39.8096H53.2275V39.7456H53.2597V39.6816H53.2919V39.6496H53.3242V39.5857H53.3564V39.5217H53.3886V39.4897H53.4208V39.4257H53.453V39.3617H53.4853V39.2977H53.5175V39.2657H53.5497V39.2017H53.5819V39.1377H53.6141V39.0737H53.6464V39.0417H53.6786V38.9777H53.7108V38.9137H53.743V38.8497H53.7752V38.8177H53.8075V38.7538H53.8397V38.6898H53.8719V38.6578H53.9041V38.5938H53.9363V38.5298H53.9686V38.4658H54.0008V38.4338H54.033V38.3698H54.0652V38.3058H54.0974V38.2418H54.1297V38.2098H54.1619V38.1458H54.1941V38.0818H54.2263V38.0178H54.2585V37.9858H54.2908V37.9219H54.323V37.8579H54.3552V37.8259H54.3874V37.7619H54.4196V37.6979H54.4519V37.6339H54.4841V37.6019H54.5163V37.5379H54.5485V37.4739H54.5807V37.4099H54.613V37.3779H54.6452V37.3139H54.6774V37.2499H54.7096V37.2179H54.7418V37.1539H54.7741V37.09H54.8063V37.026H54.8385V36.994H54.8707V36.93H54.9029V36.866H54.9352V36.802H54.9674V36.77H54.9996V36.706H55.0318V36.642H55.064V36.578H55.0963V36.546H55.1285V36.482H55.1607V36.418H55.1929V36.386H55.2251V36.322H55.2574V36.258H55.2896V36.1941H55.3218V36.1621H55.354V36.0981H55.3862V36.0341H55.4185V35.9701H55.4507V35.9381H55.4829V35.8741H55.5151V35.8101H55.5473V35.7461H55.5796V35.7141H55.6118V35.6501H55.644V35.5861H55.6762V35.5541H55.7084V35.4901H55.7407V35.4261H55.7729V35.3622H55.8051V35.3302H55.8373V35.2662H55.8695V35.2022H55.9018V35.1382H55.934V35.1062H55.9662V35.0422H55.9984V34.9782H56.0306V34.9462H56.0629V34.8822H56.0951V34.8182H56.1273V34.7542H56.1595V34.7222H56.1917V34.6582H56.224V34.5942H56.2562V34.5303H56.2884V34.4983H56.3206V34.4343H56.3528V34.3703H56.3851V34.3063H56.4173V34.2743H56.4495V34.2103H56.4817V34.1463H56.514V34.1143H56.5462V34.0503H56.5784V33.9863H56.6106V33.9223H56.6428V33.8903H56.675V33.8263H56.7073V33.7623H56.7395V33.6984H56.7717V33.6664H56.8039V33.6024H56.8362V33.5384H56.8684V33.5064H56.9006V33.4744H56.8684V33.4424H56.8362V33.3784H56.8039V33.3144H56.7717V33.2824H56.7395V33.2184H56.7073V33.1544H56.675V33.0904H56.6428V33.0584H56.6106V32.9944H56.5784V32.9304H56.5462V32.8665H56.514V32.8345H56.4817V32.7705H56.4495V32.7065H56.4173V32.6425H56.3851V32.6105H56.3528V32.5465H56.3206V32.4825H56.2884V32.4505H56.2562V32.3865H56.224V32.3225H56.1917V32.2585H56.1595V32.2265H56.1273V32.1625H56.0951V32.0985H56.0629V32.0346H56.0306V32.0026H55.9984V31.9386H55.9662V31.8746H55.934V31.8426H55.9018V31.7786H55.8695V31.7146H55.8373V31.6506H55.8051V31.6186H55.7729V31.5546H55.7407V31.4906H55.7084V31.4266H55.6762V31.3946H55.644V31.3306H55.6118V31.2666H55.5796V31.2027H55.5473V31.1707H55.5151V31.1067H55.4829V31.0427H55.4507V31.0107H55.4185V30.9467H55.3862V30.8827H55.354V30.8187H55.3218V30.7867H55.2896V30.7227H55.2574V30.6587H55.2251V30.5947H55.1929V30.5627H55.1607V30.4987H55.1285V30.4347H55.0963V30.3708H55.064V30.3388H55.0318V30.2748H54.9996V30.2108H54.9674V30.1788H54.9352V30.1148H54.9029V30.0508H54.8707V29.9868H54.8385V29.9548H54.8063V29.8908H54.7741V29.8268H54.7418V29.7628H54.7096V29.7308H54.6774V29.6668H54.6452V29.6028H54.613V29.5708H54.5807V29.5069H54.5485V29.4429H54.5163V29.3789H54.4841V29.3469H54.4519V29.2829H54.4196V29.2189H54.3874V29.1549H54.3552V29.1229H54.323V29.0589H54.2908V28.9949H54.2585V28.9309H54.2263V28.8989H54.1941V28.8349H54.1619V28.7709H54.1297V28.7389H54.0974V28.675H54.0652V28.611H54.033V28.547H54.0008V28.515H53.9686V28.451H53.9363V28.387H53.9041V28.323H53.8719V28.291H53.8397V28.227H53.8075V28.163H53.7752V28.131H53.743V28.067H53.7108V28.003H53.6786V27.939H53.6464V27.907H53.6141V27.8431H53.5819V27.7791H53.5497V27.7151H53.5175V27.6831H53.4853V27.6191H53.453V27.5551H53.4208V27.4911H53.3886V27.4591H53.3564V27.3951H53.3242V27.3311H53.2919V27.2991H53.2597V27.2351H53.2275V27.1711H53.1953V27.1071H53.1631V27.0751H53.1308V27.0112H53.0986V26.9472H53.0664V26.8832H53.0342V26.8512H53.002V26.7872H52.9697V26.7232H52.9375V26.6592H52.9053V26.6272H52.8731V26.5632H52.8409V26.4992H52.8086V26.4672H52.7764V26.4032H52.7442V26.3392H52.712V26.2752H52.6798V26.2432H52.6475V26.1793H52.6153V26.1153H52.5831V26.0513H52.5509V26.0193H52.5187V25.9553H52.4864V25.8913H52.4542V25.8593H52.422V25.7953H52.3898V25.7313H52.3576V25.6673H52.3253V25.6353H52.2931V25.5713H52.2609V25.5073H52.2287V25.4433H52.1965V25.4113H52.1642V25.3474H52.132V25.2834H52.0998V25.2194H52.0676V25.1874H52.0354V25.1234H52.0031V25.0594H51.9709V25.0274H51.9387V24.9634H51.9065V24.8994H51.8743V24.8354H51.842V24.8034H51.8098V24.7394H51.7776V24.6754H51.7454V24.6114H51.7132V24.5794H51.6809V24.5155H51.6487V24.4515H51.6165V24.3875H51.5843V24.3555H51.5521V24.2915H51.5198V24.2275H51.4876V24.1955H51.4554V24.1315H51.4232V24.0675H51.391V24.0035H51.3587V23.9715H51.3265V23.9075H51.2943V23.8435H51.2621V23.7795H51.2299V23.7475H51.1976V23.6836H51.1654V23.6196H51.1332V23.5876H51.101V23.5236H51.0688V23.4596H51.0365V23.3956H51.0043V23.3636H50.9721V23.2996H50.9399V23.2356H50.9077V23.1716H50.8754V23.1396H50.8432V23.0756H50.811V23.0116H50.7788V22.9476H50.7466V22.9156H50.7143V22.8517H50.6821V22.7877H50.6499V22.7557H50.6177V22.6917H50.5855V22.6277H50.5532V22.5637H50.521V22.5317H50.4888V22.4677H50.4566V22.4037H50.4244V22.3397H50.3921V22.3077H50.3599V22.2437H50.3277V22.1797H50.2955V22.1157H50.2633V22.0837H50.231V22.0197H50.1988V21.9558H50.1666V21.9238H50.1344V21.8598H50.1022V21.8278H28.6758V21.7958H28.6436V21.7318H28.6114V21.6678H28.5792V21.6358H28.547V21.5718H28.5147V21.5078H28.4825V21.4758H28.4503V21.4118H28.4181V21.3478H28.3859V21.2838H28.3536V21.2518H28.3214V21.1879H28.2892V21.1239H28.257V21.0599H28.2248V21.0279H28.1925V20.9639H28.1603V20.8999H28.1281V20.8359H28.0959V20.8039H28.0637V20.7399H28.0314V20.6759H27.9992V20.6439H27.967V20.5799H27.9348V20.5159H27.9026V20.4519H27.8703V20.4199H27.8381V20.3559H27.8059V20.292H27.7737V20.228H27.7415V20.196H27.7092V20.132H27.677V20.068H27.6448V20.004H27.6126V19.972H27.5804V19.908H27.5481V19.844H27.5159V19.812H27.4837V19.748H27.4515V19.684H27.4193V19.62H27.387V19.588H27.3548V19.524H27.3226V19.4601H27.2904V19.3961H27.2582V19.3641H27.2259V19.3001H27.1937V19.2361H27.1615V19.1721H27.1293V19.1401H27.0971V19.0761H27.0648V19.0121H27.0326V18.9801H27.0004V18.9161H26.9682V18.8521H26.936V18.7881H26.9037V18.7561H26.8715V18.6921H26.8393V18.6282H26.8071V18.5642H26.7749V18.5322H26.7426V18.4682H26.7104V18.4042H26.6782V18.3402H26.646V18.3082H26.6138V18.2442H26.5815V18.1802H26.5493V18.1482H26.5171V18.0842H26.4849V18.0202H26.4527V17.9562H26.4204V17.9242H26.3882V17.8602H26.356V17.7963H26.3238V17.7323H26.2916V17.7003H26.2593V17.6363H26.2271V17.5723H26.1949V17.5083H26.1627V17.4763H26.1305V17.4123H26.0982V17.3483H26.066V17.3163H26.0338V17.2523H26.0016V17.1883H25.9694V17.1243H25.9371V17.0923H25.9049V17.0283H25.8727V16.9644H25.8405V16.9004H25.8083V16.8684H25.776V16.8044H25.7438V16.7404H25.7116V16.6764H25.6794V16.6444H25.6472V16.5804H25.6149V16.5164H25.5827V16.4844H25.5505V16.4204H25.5183V16.3564H25.4861V16.2924H25.4538V16.2604H25.4216V16.1964H25.3894V16.1325H25.3572V16.0685H25.325V16.0365H25.2927V15.9725H25.2605V15.9085H25.2283V15.8445H25.1961V15.8125H25.1639V15.7485H25.1316V15.6845H25.0994V15.6525H25.0672V15.5885H25.035V15.5245H25.0028V15.4605H24.9705V15.4285H24.9383V15.3645H24.9061V15.3006H24.8739V15.2366H24.8417V15.2046H24.8094V15.1406H24.7772V15.0766H24.745V15.0126H24.7128V14.9806H24.6805V14.9166H24.6483V14.8526H24.6161V14.8206H24.5839V14.7566H24.5517V14.6926H24.5194V14.6286H24.4872V14.5966H24.455V14.5326H24.4228V14.4687H24.3906V14.4047H24.3584V14.3727H24.3261V14.3087H24.2939V14.2447H24.2617V14.1807H24.2295V14.1487H24.1973V14.0847H24.165V14.0207H24.1328V13.9887H24.1006V13.9247H24.0684V13.8607H24.0361V13.7967H54.5163V13.8287H54.5485V13.8607H54.5807V13.9247H54.613V13.9887H54.6452V14.0527H54.6774V14.0847H54.7096V14.1487H54.7418V14.2127H54.7741V14.2767H54.8063V14.3087H54.8385V14.3727H54.8707V14.4367H54.9029V14.4687H54.9352V14.5326H54.9674V14.5966H54.9996V14.6606H55.0318V14.6926H55.064V14.7566H55.0963V14.8206H55.1285V14.8846H55.1607V14.9166H55.1929V14.9806H55.2251V15.0446H55.2574V15.1086H55.2896V15.1406H55.3218V15.2046H55.354V15.2686H55.3862V15.3006H55.4185V15.3645H55.4507V15.4285H55.4829V15.4925H55.5151V15.5245H55.5473V15.5885H55.5796V15.6525H55.6118V15.7165H55.644V15.7485H55.6762V15.8125H55.7084V15.8765H55.7407V15.9405H55.7729V15.9725H55.8051V16.0365H55.8373V16.1005H55.8695V16.1325H55.9018V16.1964H55.934V16.2604H55.9662V16.3244H55.9984V16.3564H56.0306V16.4204H56.0629V16.4844H56.0951V16.5484H56.1273V16.5804H56.1595V16.6444H56.1917V16.7084H56.224V16.7724H56.2562V16.8044H56.2884V16.8684H56.3206V16.9324H56.3528V16.9644H56.3851V17.0283H56.4173V17.0923H56.4495V17.1563H56.4817V17.1883H56.514V17.2523H56.5462V17.3163H56.5784V17.3803H56.6106V17.4123H56.6428V17.4763H56.675V17.5403H56.7073V17.5723H56.7395V17.6363H56.7717V17.7003H56.8039V17.7643H56.8362V17.7963H56.8684V17.8602H56.9006V17.9242H56.9328V17.9882H56.965V18.0202H56.9972V18.0842H57.0295V18.1482H57.0617V18.2122H57.0939V18.2442H57.1261V18.3082H57.1584V18.3722H57.1906V18.4042H57.2228V18.4682H57.255V18.5322H57.2872V18.5962H57.3195V18.6282H57.3517V18.6921H57.3839V18.7561H57.4161V18.8201H57.4483V18.8521H57.4805V18.9161H57.5128V18.9801H57.545V19.0441H57.5772V19.0761H57.6094V19.1401H57.6417V19.2041H57.6739V19.2361H57.7061V19.3001H57.7383V19.3641H57.7705V19.4281H57.8027V19.4601H57.835V19.524H57.8672V19.588H57.8994V19.652H57.9316V19.684H57.9639V19.748H57.9961V19.812H58.0283V19.876H58.0605V19.908H58.0927V19.972H58.125V20.036H58.1572V20.068H58.1894V20.132H58.2216V20.196H58.2538V20.26H58.2861V20.292H58.3183V20.3559H58.3505V20.4199H58.3827V20.4839H58.4149V20.5159H58.4472V20.5799H58.4794V20.6439H58.5116V20.6759H58.5438V20.7399H58.576V20.8039H58.6083V20.8679H58.6405V20.8999H58.6727V20.9639H58.7049V21.0279H58.7371V21.0919H58.7694V21.1239H58.8016V21.1879H58.8338V21.2518H58.866V21.3158H58.8982V21.3478H58.9305V21.4118H58.9627V21.4758H58.9949V21.5078H59.0271V21.5718H59.0593V21.6358H59.0916V21.6998H59.1238V21.7318H59.156V21.7958H59.1882V21.8598H59.2204V21.9238H59.2527V21.9558H59.2849V22.0197H59.3171V22.0837H59.3493V22.1477H59.3815V22.1797H59.4138V22.2437H59.446V22.3077H59.4782V22.3397H59.5104V22.4037H59.5426V22.4677H59.5749V22.5317H59.6071V22.5637H59.6393V22.6277H59.6715V22.6917H59.7037V22.7557H59.736V22.7877H59.7682V22.8517H59.8004V22.9156H59.8326V22.9796H59.8648V23.0116H59.8971V23.0756H59.9293V23.1396H59.9615V23.1716H59.9937V23.2356H60.0259V23.2996H60.0582V23.3636H60.0904V23.3956H60.1226V23.4596H60.1548V23.5236H60.187V23.5876H60.2193V23.6196H60.2515V23.6836H60.2837V23.7475H60.3159V23.7795H60.3481V23.8435H60.3804V23.9075H60.4126V23.9715H60.4448V24.0035H60.477V24.0675H60.5092V24.1315H60.5415V24.1955H60.5737V24.2275H60.6059V24.2915H60.6381V24.3555H60.6703V24.4195H60.7026V24.4515H60.7348V24.5155H60.767V24.5794H60.7992V24.6114H60.8314V24.6754H60.8637V24.7394H60.8959V24.8034H60.9281V24.8354H60.9603V24.8994H60.9925V24.9634H61.0248V25.0274H61.057V25.0594H61.0892V25.1234H61.1214V25.1874H61.1536V25.2514H61.1859V25.2834H61.2181V25.3474H61.2503V25.4113H61.2825V25.4433H61.3147V25.5073H61.347V25.5713H61.3792V25.6353H61.4114V25.6673H61.4436V25.7313H61.4758V25.7953H61.5081V25.8593H61.5403V25.8913H61.5725V25.9553H61.6047V26.0193H61.6369V26.0833H61.6692V26.1153H61.7014V26.1793H61.7336V26.2432H61.7658V26.2752H61.798V26.3392H61.8303V26.4032H61.8625V26.4672H61.8947V26.4992H61.9269V26.5632H61.9591V26.6272H61.9914V26.6912H62.0236V26.7232H62.0558V26.7872H62.088V26.8512H62.1202V26.8832H62.1525V26.9472H62.1847V27.0112H62.2169V27.0751H62.2491V27.1071H62.2813V27.1711H62.3136V27.2351H62.3458V27.2991H62.378V27.3311H62.4102V27.3951H62.4424V27.4591H62.4747V27.5231H62.5069V27.5551H62.5391V27.6191H62.5713V27.6831H62.6035V27.7151H62.6358V27.7791H62.668V27.8431H62.7002V27.907H62.7324V27.939H62.7646V28.003H62.7969V28.067H62.8291V28.131H62.8613V28.163H62.8935V28.227H62.9257V28.291H62.958V28.355H62.9902V28.387H63.0224V28.451H63.0546V28.515H63.0868V28.547H63.1191V28.611H63.1513V28.675H63.1835V28.7389H63.2157V28.7709H63.2479V28.8349H63.2802V28.8989H63.3124V28.9629H63.3446V28.9949H63.3768V29.0589H63.409V29.1229H63.4413V29.1869H63.4735V29.2189H63.5057V29.2829H63.5379V29.3469H63.5701V29.3789H63.6024V29.4429H63.6346V29.5069H63.6668V29.5708H63.699V29.6028H63.7312V29.6668H63.7635V29.7308H63.7957V29.7948H63.8279V29.8268H63.8601V29.8908H63.8923V29.9548H63.9246V29.9868H63.9568V30.0508H63.989V30.1148H64.0212V30.1788H64.0534V30.2108H64.0857V30.2748H64.1179V30.3388H64.1501V30.4027H64.1823V30.4347H64.2145V30.4987H64.2468V30.5627H64.279V30.6267H64.3112V30.6587H64.3434V30.7227H64.3756V30.7867H64.4079V30.8187H64.4401V30.8827H64.4723V30.9467H64.5045V31.0107H64.5367V31.0427H64.569V31.1067H64.6012V31.1707H64.6334V31.2346H64.6656V31.2666H64.6978V31.3306H64.7301V31.3946H64.7623V31.4586H64.7945V31.4906H64.8267V31.5546H64.8589V31.6186H64.8912V31.6506H64.9234V31.7146H64.9556V31.7786H64.9878V31.8426H65.02V31.8746H65.0523V31.9386H65.0845V32.0026H65.1167V32.0666H65.1489V32.0985H65.1811V32.1625H65.2134V32.2265H65.2456V32.2905H65.2778V32.3225H65.31V32.3865H65.3422V32.4505H65.3745V32.4825H65.4067V32.5465H65.4389V32.6105H65.4711V32.6745H65.5033V32.7065H65.5356V32.7705H65.5678V32.8345H65.6V32.8985H65.6322V32.9304H65.6644V32.9944H65.6967V33.0584H65.7289V33.0904H65.7611V33.1544H65.7933V33.2184H65.8255V33.2824H65.8578V33.3144H65.89V33.3784H65.9222V33.4424H65.9544V33.5384H65.9222V33.6024H65.89V33.6664H65.8578V33.7304H65.8255V33.7623H65.7933V33.8263H65.7611V33.8903H65.7289V33.9223H65.6967V33.9863H65.6644V34.0503H65.6322V34.1143H65.6V34.1463H65.5678V34.2103H65.5356V34.2743H65.5033V34.3383H65.4711V34.3703H65.4389V34.4343H65.4067V34.4983H65.3745V34.5303H65.3422V34.5942H65.31V34.6582H65.2778V34.7222H65.2456V34.7542H65.2134V34.8182H65.1811V34.8822H65.1489V34.9462H65.1167V34.9782H65.0845V35.0422H65.0523V35.1062H65.02V35.1702H64.9878V35.2022H64.9556V35.2662H64.9234V35.3302H64.8912V35.3622H64.8589V35.4261H64.8267V35.4901H64.7945V35.5541H64.7623V35.5861H64.7301V35.6501H64.6978V35.7141H64.6656V35.7781H64.6334V35.8101H64.6012V35.8741H64.569V35.9381H64.5367V36.0021H64.5045V36.0341H64.4723V36.0981H64.4401V36.1621H64.4079V36.1941H64.3756V36.258H64.3434V36.322H64.3112V36.386H64.279V36.418H64.2468V36.482H64.2145V36.546H64.1823V36.61H64.1501V36.642H64.1179V36.706H64.0857V36.77H64.0534V36.834H64.0212V36.866H63.989V36.93H63.9568V36.994H63.9246V37.026H63.8923V37.09H63.8601V37.1539H63.8279V37.2179H63.7957V37.2499H63.7635V37.3139H63.7312V37.3779H63.699V37.4419H63.6668V37.4739H63.6346V37.5379H63.6024V37.6019H63.5701V37.6659H63.5379V37.6979H63.5057V37.7619H63.4735V37.8259H63.4413V37.8579H63.409V37.9219H63.3768V37.9858H63.3446V38.0498H63.3124V38.0818H63.2802V38.1458H63.2479V38.2098H63.2157V38.2738H63.1835V38.3058H63.1513V38.3698H63.1191V38.4338H63.0868V38.4658H63.0546V38.5298H63.0224V38.5938H62.9902V38.6578H62.958V38.6898H62.9257V38.7538H62.8935V38.8177H62.8613V38.8817H62.8291V38.9137H62.7969V38.9777H62.7646V39.0417H62.7324V39.1057H62.7002V39.1377H62.668V39.2017H62.6358V39.2657H62.6035V39.2977H62.5713V39.3617H62.5391V39.4257H62.5069V39.4897H62.4747V39.5217H62.4424V39.5857H62.4102V39.6496H62.378V39.7136H62.3458V39.7456H62.3136V39.8096H62.2813V39.8736H62.2491V39.9376H62.2169V39.9696H62.1847V40.0336H62.1525V40.0976H62.1202V40.1296H62.088V40.1936H62.0558V40.2576H62.0236V40.3216H61.9914V40.3536H61.9591V40.4176H61.9269V40.4815H61.8947V40.5455H61.8625V40.5775H61.8303V40.6415H61.798V40.7055H61.7658V40.7695H61.7336V40.8015H61.7014V40.8655H61.6692V40.9295H61.6369V40.9615H61.6047V41.0255H61.5725V41.0895H61.5403V41.1535H61.5081V41.1855H61.4758V41.2495H61.4436V41.3134H61.4114V41.3774H61.3792V41.4094H61.347V41.4734H61.3147V41.5374H61.2825V41.5694H61.2503V41.6334H61.2181V41.6974H61.1859V41.7614H61.1536V41.7934H61.1214V41.8574H61.0892V41.9214H61.057V41.9854H61.0248V42.0174H60.9925V42.0814H60.9603V42.1453H60.9281V42.2093H60.8959V42.2413H60.8637V42.3053H60.8314V42.3693H60.7992V42.4013H60.767V42.4653H60.7348V42.5293H60.7026V42.5933H60.6703V42.6253H60.6381V42.6893H60.6059V42.7533H60.5737V42.8173H60.5415V42.8493H60.5092V42.9133H60.477V42.9772H60.4448V43.0412H60.4126V43.0732H60.3804V43.1372H60.3481V43.2012H60.3159V43.2332H60.2837V43.2972H60.2515V43.3612H60.2193V43.4252H60.187V43.4572H60.1548V43.5212H60.1226V43.5852H60.0904V43.6492H60.0582V43.6812H60.0259V43.7452H59.9937V43.8091H59.9615V43.8731H59.9293V43.9051H59.8971V43.9691H59.8648V44.0331H59.8326V44.0651H59.8004V44.1291H59.7682V44.1931H59.736V44.2571H59.7037V44.2891H59.6715V44.3531H59.6393V44.4171H59.6071V44.4811H59.5749V44.5131H59.5426V44.5771H59.5104V44.641H59.4782V44.705H59.446V44.737H59.4138V44.801H59.3815V44.865H59.3493V44.897H59.3171V44.961H59.2849V45.025H59.2527V45.089H59.2204V45.121H59.1882V45.185H59.156V45.249H59.1238V45.313H59.0916V45.345H59.0593V45.409H59.0271V45.4729H58.9949V45.5049H58.9627V45.5689H58.9305V45.6329H58.8982V45.6969H58.866V45.7289H58.8338V45.7929H58.8016V45.8569H58.7694V45.9209H58.7371V45.9529H58.7049V46.0169H58.6727V46.0809H58.6405V46.1449H58.6083V46.1769H58.576V46.2409H58.5438V46.3048H58.5116V46.3368H58.4794V46.4008H58.4472V46.4648H58.4149V46.5288H58.3827V46.5608H58.3505V46.6248H58.3183V46.6888H58.2861V46.7528H58.2538V46.7848H58.2216V46.8488H58.1894V46.9128H58.1572V46.9768H58.125V47.0088H58.0927V47.0728H58.0605V47.1368H58.0283V47.1687H57.9961V47.2327H57.9639V47.2967H57.9316V47.3607H57.8994V47.3927H57.8672V47.4567H57.835V47.5207H57.8027V47.5847H57.7705V47.6167H57.7383V47.6807H57.7061V47.7447H57.6739V47.8087H57.6417V47.8407H57.6094V47.9047H57.5772V47.9687H57.545V48.0006H57.5128V48.0646H57.4805V48.1286H57.4483V48.1926H57.4161V48.2246H57.3839V48.2886H57.3517V48.3526H57.3195V48.4166H57.2872V48.4486H57.255V48.5126H57.2228V48.5766H57.1906V48.6086H57.1584V48.6726H57.1261V48.7366H57.0939V48.8006H57.0617V48.8325H57.0295V48.8965H56.9972V48.9605H56.965V49.0245H56.9328V49.0565H56.9006V49.1205H56.8684V49.1845H56.8362V49.2485H56.8039V49.2805H56.7717V49.3445H56.7395V49.4085H56.7073V49.4405H56.675V49.5045H56.6428V49.5685H56.6106V49.6325H56.5784V49.6644H56.5462V49.7284H56.514V49.7924H56.4817V49.8564H56.4495V49.8884H56.4173V49.9524H56.3851V50.0164H56.3528V50.0804H56.3206V50.1124H56.2884V50.1764H56.2562V50.2404H56.224V50.2724H56.1917V50.3364H56.1595V50.4004H56.1273V50.4644H56.0951V50.4963H56.0629V50.5603H56.0306V50.6243H55.9984V50.6883H55.9662V50.7203H55.934V50.7843H55.9018V50.8483H55.8695V50.9123H55.8373V50.9443H55.8051V51.0083H55.7729V51.0723H55.7407V51.1043H55.7084V51.1683H55.6762V51.2323H55.644V51.2963H55.6118V51.3282H55.5796V51.3922H55.5473V51.4562H55.5151V51.5202H55.4829V51.5522H55.4507V51.6162H55.4185V51.6802H55.3862V51.7442H55.354V51.7762H55.3218V51.8402H55.2896V51.9042H55.2574V51.9362H55.2251V52.0002H55.1929V52.0642H55.1607V52.1282H55.1285V52.1602H55.0963V52.2241H55.064V52.2881H55.0318V52.3521H54.9996V52.3841H54.9674V52.4481H54.9352V52.5121H54.9029V52.5441H54.8707V52.6081H54.8385V52.6721H54.8063V52.7361H54.7741V52.7681H54.7418V52.8321H54.7096V52.8961H54.6774V52.9601H54.6452V52.9921H54.613V53.056H54.5807V53.12H54.5485V53.184H54.5163V53.216H30.899V53.184H30.8668V53.12H30.8346V53.056H30.8024V53.024H30.7701V52.9601H30.7379V52.8961H30.7057V52.8321H30.6735V52.8001H30.6413V52.7361H30.609V52.6721H30.5768V52.6081H30.5446V52.5761H30.5124V52.5121H30.4802V52.4481H30.4479V52.3841H30.4157V52.3521H30.3835V52.2881H30.3513V52.2241H30.3191V52.1921H30.2868V52.1282H30.2546V52.0642H30.2224V52.0002H30.1902V51.9682H30.158V51.9042H30.1257V51.8402H30.0935V51.7762H30.0613V51.7442H30.0291V51.6802H29.9969V51.6162H29.9646V51.5522H29.9324V51.5202H29.9002V51.4562H29.868V51.3922H29.8358V51.3602H29.8035V51.2963H29.7713V51.2323H29.7391V51.1683H29.7069V51.1363H29.6747V51.0723H29.6424V51.0083H29.6102V50.9443H29.578V50.9123H29.5458V50.8483H29.5136V50.7843H29.4813V50.7523H29.4491V50.6883H29.4169V50.6243H29.3847V50.5603H29.3525V50.5283H29.3202V50.4644H29.288V50.4004H29.2558V50.3364H29.2236V50.3044H29.1914V50.2404H29.1591V50.1764H29.1269V50.1124H29.0947V50.0804H29.0625V50.0164H29.0303V49.9524H28.998V49.9204H28.9658V49.8564H28.9336V49.7924H28.9014V49.7284H28.8692V49.6964H28.8369V49.6325H28.8047V49.5685H28.7725V49.5045H28.7403V49.4725H28.7081V49.4085H28.6758V49.3445H28.6436V49.2805H28.6114V49.2485H28.5792V49.1845H28.547V49.1205H28.5147V49.0885H28.4825V49.0245H28.4503V48.9605H28.4181V48.8965H28.3859V48.8645H28.3536V48.8006H28.3214V48.7366H28.2892V48.6726H28.257V48.6406H28.2248V48.5766H28.1925V48.5126H28.1603V48.4486H28.1281V48.4166H28.0959V48.3526H28.0637V48.2886H28.0314V48.2566H27.9992V48.1926H27.967V48.1286H27.9348V48.0646H27.9026V48.0326H27.8703V47.9687H27.8381V47.9047H27.8059V47.8407H27.7737V47.8087H27.7415V47.7447H27.7092V47.6807H27.677V47.6487H27.6448V47.5847H27.6126V47.5207H27.5804V47.4567H27.5481V47.4247H27.5159V47.3607H27.4837V47.2967H27.4515V47.2327H27.4193V47.2007H27.387V47.1368H27.3548V47.0728H27.3226V47.0088H27.2904V46.9768H27.2582V46.9128H27.2259V46.8488H27.1937V46.8168H27.1615V46.7528H27.1293V46.6888H27.0971V46.6248H27.0648V46.5928H27.0326V46.5288H27.0004V46.4648H26.9682V46.4008H26.936V46.3688H26.9037V46.3048H26.8715V46.2409H26.8393V46.1769H26.8071V46.1449H26.7749V46.0809H26.7426V46.0169H26.7104V45.9849H26.6782V45.9209H26.646V45.8569H26.6138V45.7929H26.5815V45.7609H26.5493V45.6969H26.5171V45.6329H26.4849V45.5689H26.4527V45.5369H26.4204V45.4729H26.3882V45.409H26.356V45.345H26.3238V45.313H26.2916V45.249H26.2593V45.185H26.2271V45.153H26.1949V45.089H26.1627V45.025H26.1305V44.961H26.0982V44.929H26.066V44.865H26.0338V44.801H26.0016V44.737H25.9694V44.705H25.9371V44.641H25.9049V44.5771H25.8727V44.5451H25.8405V44.4811H25.8083V44.4171H25.776V44.3531H25.7438V44.3211H25.7116V44.2571H25.6794V44.1931H25.6472V44.1291H25.6149V44.0971H25.5827V44.0331H25.5505V43.9691H25.5183V43.9051H25.4861V43.8731H25.4538V43.8091H25.4216V43.7452H25.3894V43.7132H25.3572V43.6492H25.325V43.5852H25.2927V43.5212H25.2605V43.4892H25.2283V43.4252H25.1961V43.3612H25.1639V43.2972H25.1316V43.2652H25.0994V43.2012H25.0672V43.1372H25.035V43.0732H25.0028V43.0412H24.9705V42.9772H24.9383V42.9133H24.9061V42.8813H24.8739V42.8173H24.8417V42.7533H24.8094V42.6893H24.7772V42.6573H24.745V42.5933H24.7128V42.5293H24.6805V42.4653H24.6483V42.4333H24.6161V42.3693H24.5839V42.3053H24.5517V42.2733H24.5194V42.2093H24.4872V42.1453H24.455V42.0814H24.4228V42.0494H24.3906V41.9854H24.3584V41.9214H24.3261V41.8574H24.2939V41.8254H24.2617V41.7614H24.2295V41.6974H24.1973V41.6334H24.165V41.6014H24.1328V41.5374H24.1006V41.4734H24.0684V41.4414H24.0361V41.3774H24.0039V41.3134H23.9717V41.2495H23.9395V41.2175H23.9073V41.1535H23.875V41.0895H23.8428V41.0255H23.8106V40.9935H23.7784V40.9295H23.7462V40.8655H23.7139V40.8015H23.6817V40.7695H23.6495V40.7055H23.6173V40.6415H23.5851V40.6095H23.5528V40.5455H23.5206V40.4815H23.4884V40.4176H23.4562V40.3856H23.424V40.3216H23.3917V40.2576H23.3595V40.1936H23.3273V40.1616H23.2951V40.0976H23.2629V40.0336H23.2306V39.9696H23.1984V39.9376H23.1662V39.8736H23.134V39.8096H23.1018V39.7776H23.0695V39.7136H23.0373V39.6496H23.0051V39.5857H22.9729V39.5537H22.9407V39.4897H22.9084V39.4257H22.8762V39.3617H22.844V39.3297H22.8118V39.2657H22.7796V39.2017H22.7473V39.1697H22.7151V39.1057H22.6829V39.0417H22.6507V38.9777H22.6185V38.9457H22.5862V38.8817H22.554V38.8177H22.5218V38.7538H22.4896V38.7218H22.4574V38.6578H22.4251V38.5938H22.3929V38.5298H22.3607V38.4978H22.3285V38.4338H22.2963V38.3698H22.264V38.3378H22.2318V38.2738H22.1996V38.2098H22.1674V38.1458H22.1352V38.1138H22.1029V38.0498H22.0707V37.9858H22.0385V37.9219H22.0063V37.8899H21.9741V37.8259H21.9418V37.7619H21.9096V37.6979H21.8774V37.6659H21.8452V37.6019H21.813V37.5379H21.7807V37.5059H21.7485V37.4419H21.7163V37.3779H21.6841V37.3139H21.6519V37.2819H21.6196V37.2179H21.5874V37.1539H21.5552V37.09H21.523V37.058H21.4908V36.994H21.4585V36.93H21.4263V36.898H21.3941V36.834H21.3619V36.77H21.3297V36.706H21.2974V36.674H21.2652V36.61H21.233V36.546H21.2008V36.482H21.1686V36.45H21.1363V36.386H21.1041V36.322H21.0719V36.258H21.0397V36.2261H21.0075V36.1621H20.9752V36.0981H20.943V36.0661H20.9108V36.0021H20.8786V35.9381H20.8464V35.8741H20.8141V35.8421H20.7819V35.7781H20.7497V35.7141H20.7175V35.6501H20.6853V35.6181H20.653V35.5541H20.6208V35.4901H20.5886V35.4261H20.5564V35.3942H20.5242V35.3302H20.4919V35.2662H20.4597V35.2342H20.4275V35.1702H20.3953V35.1062H20.3631V35.0422H20.3308V35.0102H20.2986V34.9462H20.2664V34.8822H20.2342V34.8182H20.202V34.7862H20.1697V34.7222H20.1375V34.6582H20.1053V34.5942H20.0731V34.5623H20.0409V34.4983H20.0086V34.4343H19.9764V34.4023H19.9442V34.3383H19.912V34.2743H19.8798V34.2103H19.8475V34.1783H19.8153V34.1143H19.7831V34.0503H19.7509V33.9863H19.7187V33.9543H19.6864V33.8903H19.6542V33.8263H19.622V33.7943H19.5898V33.7304H19.5576V33.6664H19.5253V33.6024H19.4931V33.5704H19.4609V33.5064H19.4287V33.4424H19.3965V33.3784H19.3642V33.3464H19.332V33.2824H19.2998V33.2184H19.2676V33.1544H19.2354V33.1224H19.2031V33.0584H19.1709V32.9944H19.1387V32.9624H19.1065V32.8985H19.0743V32.8345H19.042V32.7705H19.0098V32.7385H18.9776V32.6745H18.9454V32.6105H18.9132V32.5465H18.8809V32.5145H18.8487V32.4505H18.8165V32.3865H18.7843V32.3225H18.7521V32.2905H18.7198V32.2265H18.6876V32.1625H18.6554V32.1305H18.6232V32.0666H18.591V32.0026H18.5587V31.9386H18.5265V31.9066H18.4943V31.8426H18.4621V31.7786H18.4299V31.7146H18.3976V31.6826H18.3654V31.6186H18.3332V31.5546H18.301V31.4906H18.2688V31.4586H18.2365V31.3946H18.2043V31.3306H18.1721V31.2986H18.1399V31.2346H18.1077V31.1707H18.0754V31.1067H18.0432V31.0747H18.011V31.0107H17.9788V30.9467H17.9466V30.8827H17.9143V30.8507H17.8821V30.7867H17.8499V30.7227H17.8177V30.6907H17.7855V30.6267H17.7532V30.5627H17.721V30.4987H17.6888V30.4667H17.6566V30.4027H17.6244V30.3388H17.5921V30.2748H17.5599V30.2428H17.5277V30.1788H17.4955V30.1148H17.4633V30.0508H17.431V30.0188H17.3988V29.9548H17.3666V29.8908H17.3344V29.8588H17.3022V29.7948H17.2699V29.7308H17.2377V29.6668H17.2055V29.6348H17.1733V29.5708H17.1411V29.5069H17.1088V29.4429H17.0766V29.4109H17.0444V29.3469H17.0122V29.2829H16.98V29.2189H16.9477V29.1869H16.9155V29.1229H16.8833V29.0589H16.8511V29.0269H16.8189V28.9629H16.7866V28.8989H16.7544V28.8349H16.7222V28.8029H16.69V28.7389H16.6578V28.675H16.6255V28.611H16.5933V28.579H16.5611V28.515H16.5289V28.451H16.4967V28.419H16.4644V28.355H16.4322V28.291H16.4V28.227H16.3678V28.195H16.3356V28.131H16.3033V28.067H16.2711V28.003H16.2389V27.971H16.2067V27.907H16.1745V27.8431H16.1422V27.7791H16.11V27.7471H16.0778V27.6831H16.0456V27.6191H16.0134V27.5871H15.9811V27.5231H15.9489V27.4591H15.9167V27.3951H15.8845V27.3631H15.8523V27.2991H15.82V27.2351H15.7878V27.1711H15.7556V27.1391H15.7234V27.0751H15.6912V27.0112H15.6589V26.9472H15.6267V26.9152H15.5945V26.8512H15.5623V26.7872H15.5301V26.7552H15.4978V26.6912H15.4656V26.6272H15.4334V26.5632H15.4012V26.5312H15.369V26.4672H15.3367V26.4032H15.3045V26.3392H15.2723V26.3072H15.2401V26.2432H15.2079V26.1793H15.1756V26.1153H15.1434V26.0833H15.1112V26.0193H15.079V25.9553H15.0468V25.9233H15.0145V25.8593H14.9823V25.7953H14.9501V25.7313H14.9179V25.6993H14.8857V25.6353H14.8534V25.5713H14.8212V25.5073H14.789V25.4753H14.7568V25.4113H14.7246V25.3474H14.6923V25.3154H14.6601V25.2514H14.6279V25.1874H14.5957V25.1234H14.5635V25.0914H14.5312V25.0274H14.499V24.9634H14.4668V24.8994H14.4346V24.8674H14.4024V24.8034H14.3701V24.7394H14.3379V24.6754H14.3057V24.6434H14.2735V24.5794H14.2413V24.5155H14.209V24.4835H14.1768V24.4195H14.1446V24.3555H14.1124V24.2915H14.0802V24.2595H14.0479V24.1955H14.0157V24.1315H13.9835V24.0675H13.9513V24.0355H13.9191V23.9715H13.8868V23.9075H13.8546V23.8435H13.8224V23.8115H13.7902V23.7475H13.758V23.6836H13.7257V23.6516H13.6935V23.5876H13.6613V23.5236H13.6291V23.4596H13.5969V23.4276H13.5646V23.3636H13.5324V23.2996H13.5002V23.2356H13.468V23.2036H13.4358V23.1396H13.4035V23.0756H13.3713V23.0116H13.3391V22.9796H13.3069V22.9156H13.2747V22.8517H13.2424V22.8197H13.2102V22.7557H13.178V22.6917H13.1458V22.6277H13.1136V22.5957H13.0813V22.5317H13.0491V22.4677H13.0169V22.4037H12.9847V22.3717H12.9525V22.3077H12.9202V22.2437H12.888V22.2117H12.8558V22.1477H12.8236V22.0837H12.7914V22.0197H12.7591V21.9878H12.7269V21.9238H12.6947V21.8598H12.6625V21.7958H12.6303V21.7638H12.598V21.6998H12.5658V21.6358H12.5336V21.5718H12.5014V21.5398H12.4692V21.4758H12.4369V21.4118H12.4047V21.3798H12.3725V21.3158H12.3403V21.2518H12.3081V21.1879H12.2758V21.1559H12.2436V21.0919H12.2114V21.0279H12.1792V20.9639H12.147V20.9319H12.1147V20.8679H12.0825V20.8039H12.0503V20.7399H12.0181V20.7079H11.9859V20.6439H11.9536V20.5799H11.9214V20.5479H11.8892V20.4839H11.857V20.4199H11.8248V20.3559H11.7925V20.324H11.7603V20.26H11.7281V20.196H11.6959V20.132H11.6637V20.1H11.6314V20.036H11.5992V19.972H11.567V19.94H11.5348V19.876H11.5026V19.812H11.4703V19.748H11.4381V19.716H11.4059V19.652H11.3737V19.588H11.3415V19.524H11.3092V19.4921H11.277V19.4281H11.2448V19.3641H11.2126V19.3001H11.1804V19.2681H11.1481V19.2041H11.1159V19.1401H11.0837V19.1081H11.0515V19.0441H11.0193V18.9801H10.987V18.9161H10.9548V18.8841H10.9226V18.8201H10.8904V18.7561H10.8582V18.6921H10.8259V18.6602H10.7937V18.5962H10.7615V18.5322H10.7293V18.4682H10.6971V18.4362H10.6648V18.3722H10.6326V18.3082H10.6004V18.2762H10.5682V18.2122H10.536V18.1482H10.5037V18.0842H10.4715V18.0522H10.4393V17.9882H10.4071V17.9242H10.3749V17.8602H10.3426V17.8283H10.3104V17.7643H10.2782V17.7003H10.246V17.6363H10.2138V17.6043H10.1815V17.5403H10.1493V17.4763H10.1171V17.4443H10.0849V17.3803H10.0527V17.3163H10.0204V17.2523H9.98821V17.2203H9.95599V17.1563H9.92377V17.0923H9.89155V17.0283H9.85933V16.9963H9.82711V16.9324H9.79489V16.8684H9.76267V16.8364H9.73045V16.7724H9.69823V16.7084H9.66601V16.6444H9.63379V16.6124H9.60157V16.5484H9.56935V16.4844H9.53713V16.4204H9.50491V16.3884H9.47269V16.3244H9.44047V16.2604H9.40825V16.1964H9.37603V16.1644H9.34381V16.1005H9.31159V16.0365H9.27937V16.0045H9.24715V15.9405H9.21493V15.8765H9.18271V15.8125H9.15049V15.7805H9.11827V15.7165H9.08605V15.6525H9.05383V15.5885H9.02161V15.5565H8.98939V15.4925H8.95717V15.4285H8.92495V15.3645H8.89273V15.3326H8.86051V15.2686H8.82829V15.2046H8.79607V15.1726H8.76385V15.1086H8.73163V15.0446H8.69941V14.9806H8.66719V14.9486H8.63497V14.8846H8.60275V14.8206H8.57053V14.7566H8.53831V14.7246H8.50609V14.6606H8.47387V14.5966H8.44165V14.5326H8.40943V14.5006H8.37721V14.4367H8.34499V14.3727H8.31277V14.3407H8.28055V14.2767H8.24833V14.2127H8.21611V14.1487H8.18389V14.1167H8.15167V14.0527H8.11945V13.9887H8.08723V13.9247H8.05501V13.8927H8.02279V13.8287H7.99057V13.7647H7.95835V13.7327H7.92613V13.6687H7.89391V13.6048H7.86169V13.5408H7.82947V13.5088H7.79725V13.4448H7.76503V13.3808H7.73281V13.3168H7.70059V13.2848H7.66837V13.2208H7.63615V13.1568H7.60393V13.0928H7.57171V13.0608H7.53949V12.9968H7.50727V12.9328H7.47505V12.9008H7.44283V12.8368H7.41061V12.7729H7.37839V12.7089H7.34617V12.6769H7.31395V12.6129H7.28173V12.5489H7.24951V12.4849H7.21729V12.4529H7.18507V12.3889H7.15285V12.3249H7.12063V12.2609H7.08841V12.2289H7.05619V12.1649H7.02397V12.1009H6.99175V12.0689H6.95953V12.0049H6.92731V11.941H6.89509V11.877H6.86287V11.845H6.83065V11.781H6.79843V11.717H6.76621V11.653H6.73399V11.621H6.70177V11.557H6.66955V11.493H6.63733V11.461H6.60511V11.397H6.57289V11.333H6.54067V11.269H6.50845V11.237H6.47623V11.173H6.44401V11.1091H6.41179V11.0451H6.37957V11.0131H6.34735V10.9491H6.31513V10.8851H6.28291V10.8211H6.25069V10.7891H6.21847V10.7251H6.18625V10.6611H6.15403V10.6291H6.12181V10.5651H6.08959V10.5011H6.05737V10.4371H6.02515V10.4051H5.99293V10.3411H5.96071V10.2772H5.92849V10.2132H5.89627V10.1812H5.86405V10.1172H5.83183V10.0532H5.79961V9.98919H5.76739V9.95719H5.73517V9.8932H5.70295V9.8292H5.67073V9.79721H5.63851V9.73322H5.60629V9.66922H5.57407V9.60523H5.54185V9.57323H5.50963V9.50924H5.47741V9.44525H5.44519V9.38126H5.41297V9.34926H5.38075V9.28527H5.34853V9.22128H5.31631V9.15729H5.28409V9.12529H5.25187V9.0613H5.21965V8.99731H5.18743V8.96531H5.15521V8.90132H5.12299V8.83732H5.09077V8.77333H5.05855V8.74134H5.02633V8.67734H4.99411V8.61335H4.96189V8.54936H4.92967V8.51736H4.89745V8.45337H4.86523V8.38938H4.83301V8.35738H4.80079V8.29339H4.76857V8.2294H4.73635V8.16541H4.70413V8.13341H4.67191V8.06942H4.63969V8.00542H4.60747V7.94143H4.57525V7.90944H4.54303V7.84544H4.51081V7.78145H4.47859V7.71746H4.44637V7.68546H4.41415V7.62147H4.38193V7.55748H4.34971V7.52548H4.31749V7.46149H4.28527V7.3975H4.25305V7.3335H4.22083V7.30151H4.18861V7.23751H4.15638V7.17352H4.12417V7.10953H4.09195V7.07753H4.05972V7.01354H4.0275V6.94955H3.99528V6.88556H3.96306V6.85356H3.93084V6.78957H3.89862V6.72557H3.8664V6.69358H3.83418V6.62959H3.80196V6.56559H3.76974V6.5016H3.73752V6.46961H3.7053V6.40561H3.67308V6.34162H3.64086V6.27763H3.60864V6.24563H3.57642V6.18164H3.5442V6.11765H3.51198V6.08565H3.47976V6.02166H3.44754V5.95767H3.41532V5.89368H3.3831V5.86168H3.35088V5.79769H3.31866V5.7337H3.28644V5.6697H3.25422V5.63771H3.222V5.57372H3.18978V5.50972H3.15756V5.44573H3.12534V5.41373H3.09312V5.34974H3.0609V5.28575H3.02868V5.25375H2.99646V5.18976H2.96424V5.12577H2.93202V5.06178H2.8998V5.02978H2.86758V4.96579H2.83536V4.90179H2.80314V4.8378H2.77092V4.80581H2.7387V4.74181H2.70648V4.67782H2.67426V4.61383H2.64204V4.58183H2.60982V4.51784H2.5776V4.45385H2.54538V4.42185H2.51316V4.35786H2.48094V4.29387H2.44872V4.22987H2.4165V4.19788H2.38428V4.13388H2.35206V4.06989H2.31984V4.0059H2.28762V3.9739H2.2554V3.90991H2.22318V3.84592H2.19096V3.78193H2.15874V3.74993H2.12652V3.68594H2.0943V3.62195H2.06208V3.58995H2.02986V3.52596H1.99764V3.46197H1.96542V3.39797H1.9332V3.36598H1.90098V3.30199H1.86876V3.23799H1.83654V3.174H1.80432V3.14201H1.7721V3.07801H1.73988V3.01402H1.70766V2.98203H1.67544V2.91803H1.64322V2.85404H1.611V2.79005H1.57878V2.75805H1.54656V2.69406H1.51434V2.63007H1.48212V2.56607H1.4499V2.53408H1.41768V2.47009H1.38546V2.40609H1.35324V2.3421H1.32102V2.3101H1.2888V2.24611H1.25658V2.18212H1.22436V2.15012H1.19214V2.08613H1.15992V2.02214H1.1277V1.95815H1.09548V1.92615H1.06326V1.86216H1.03104V1.79816H0.998821V1.73417H0.966601V1.70218H0.934381V1.63818H0.902161V1.57419H0.869941V1.5102H0.837721V1.4782H0.805501V1.41421H0.773281V1.35022H0.741061V1.31822H0.708841V1.25423H0.676621V1.19024H0.644401V1.12624H0.612181V1.09425H0.579961V1.03026H0.547741V0.966263H0.515521V0.902275H0.483301V0.870277H0.451081V0.806282H0.418861V0.742294H0.38664V0.678299H0.35442V0.646301H0.3222V0.582314H0.28998V0.518318H0.25776V0.48632H0.22554V0.422325H0.19332V0.358337H0.1611V0.294342H0.12888V0.262344H0.0966601V0.198357H0.0644401V0.134361H0.03222V0.0703735H0V0.00637817H62.5391V0.0703735H62.5713V0.102364H62.6035V0.166359H62.6358V0.230354H62.668V0.294342H62.7002V0.32634H62.7324V0.390335H62.7646V0.454323H62.7969V0.48632H62.8291V0.550316H62.8613V0.614304H62.8935V0.678299H62.9257V0.710297H62.958V0.774284H62.9902V0.83828H63.0224V0.902275H63.0546V0.934265H63.0868V0.99826H63.1191V1.06226H63.1513V1.12624H63.1835V1.15824H63.2157V1.22224H63.2479V1.28622H63.2802V1.31822H63.3124V1.38222H63.3446V1.44621H63.3768V1.5102H63.409V1.5422H63.4413V1.60619H63.4735V1.67018H63.5057V1.73417H63.5379V1.76617H63.5701V1.83016H63.6024V1.89415H63.6346V1.95815H63.6668V1.99014H63.699V2.05413H63.7312V2.11813H63.7635V2.15012H63.7957V2.21411H63.8279V2.27811H63.8601V2.3421H63.8923V2.37409H63.9246V2.43809H63.9568V2.50208H63.989V2.56607H64.0212V2.59807H64.0534V2.66206H64.0857V2.72605H64.1179V2.79005H64.1501V2.82204H64.1823V2.88603H64.2145V2.95003H64.2468V2.98203H64.279V3.04602H64.3112V3.11001H64.3434V3.174H64.3756V3.206H64.4079V3.26999H64.4401V3.33398H64.4723V3.39797H64.5045V3.42997H64.5367V3.49396H64.569V3.55795H64.6012V3.58995H64.6334V3.65394H64.6656V3.71793H64.6978V3.78193H64.7301V3.81392H64.7623V3.87791H64.7945V3.94191H64.8267V4.0059H64.8589V4.0379H64.8912V4.10189H64.9234V4.16588H64.9556V4.22987H64.9878V4.26187H65.02V4.32586H65.0523V4.38985H65.0845V4.42185H65.1167V4.48584H65.1489V4.54984H65.1811V4.61383H65.2134V4.64582H65.2456V4.70982H65.2778V4.77381H65.31V4.8378H65.3422V4.8698H65.3745V4.93379H65.4067V4.99778H65.4389V5.06178H65.4711V5.09377H65.5033V5.15776H65.5356V5.22176H65.5678V5.25375H65.6V5.31775H65.6322V5.38174H65.6644V5.44573H65.6967V5.47773H65.7289V5.54172H65.7611V5.60571H65.7933V5.6697H65.8255V5.7017H65.8578V5.76569H65.89V5.82968H65.9222V5.89368H65.9544V5.92567H65.9866V5.98967H66.0189V6.05366H66.0511V6.08565H66.0833V6.14965H66.1155V6.21364H66.1477V6.27763H66.18V6.30963H66.2122V6.37362H66.2444V6.43761H66.2766V6.5016H66.3088V6.5336H66.3411V6.59759H66.3733V6.66158H66.4055V6.69358H66.4377V6.75757H66.4699V6.82156H66.5022V6.88556H66.5344V6.91755H66.5666V6.98154H66.5988V7.04554H66.631V7.10953H66.6633V7.14153H66.6955V7.20552H66.7277V7.26951H66.7599V7.3335H66.7921V7.3655H66.8244V7.42949H66.8566V7.49348H66.8888V7.52548H66.921V7.58947H66.9532V7.65347H66.9855V7.71746H67.0177V7.74945H67.0499V7.81345H67.0821V7.87744H67.1143V7.94143H67.1466V7.97343H67.1788V8.03742H67.211V8.10141H67.2432V8.16541H67.2754V8.1974H67.3077V8.26139H67.3399V8.32539H67.3721V8.35738H67.4043V8.42138H67.4365V8.48537H67.4688V8.54936H67.501V8.58136H67.5332V8.64535H67.5654V8.70934H67.5976V8.77333H67.6299V8.80533H67.6621V8.86932H67.6943V8.93331H67.7265V8.99731H67.7587V9.0293H67.791V9.09329H67.8232V9.15729H67.8554V9.18928H67.8876V9.25327H67.9198V9.31727H67.9521V9.38126H67.9843V9.41325H68.0165V9.47725H68.0487V9.54124H68.0809V9.60523H68.1132V9.63723H68.1454V9.70122H68.1776V9.76521H68.2098V9.79721H68.242V9.8612H68.2743V9.92519H68.3065V9.98919H68.3387V10.0212H68.3709V10.0852H68.4031V10.1492H68.4354V10.2132H68.4676V10.2452H68.4998V10.3091H68.532V10.3731H68.5642V10.4371H68.5965V10.4691H68.6287V10.5331H68.6609V10.5971H68.6931V10.6291H68.7253V10.6931H68.7576V10.7571H68.7898V10.8211H68.822V10.8531H68.8542V10.9171H68.8864V10.9811H68.9187V11.0451H68.9509V11.0771H68.9831V11.141H69.0153V11.205H69.0475V11.269H69.0798V11.301H69.112V11.365H69.1442V11.429H69.1764V11.461H69.2086V11.525H69.2409V11.589H69.2731V11.653H69.3053V11.685H69.3375V11.749H69.3697V11.813H69.402V11.877H69.4342V11.909H69.4664V11.9729H69.4986V12.0369H69.5308V12.1009H69.5631V12.1329H69.5953V12.1969H69.6275V12.2609H69.6597V12.2929H69.6919V12.3569H69.7242V12.4209H69.7564V12.4849H69.7886V12.5169H69.8208V12.5809H69.853V12.6449H69.8853V12.7089H69.9175V12.7409H69.9497V12.8049H69.9819V12.8688H70.0141V12.9008H70.0464V12.9648H70.0786V13.0288H70.1108V13.0928H70.143V13.1248H70.1752V13.1888H70.2075V13.2528H70.2397V13.3168H70.2719V13.3488H70.3041V13.4128H70.3363V13.4768H70.3686V13.5408H70.4008V13.5728H70.433V13.6367H70.4652V13.7007H70.4974V13.7327H70.5297V13.7967H70.5619V13.8607H70.5941V13.9247H70.6263V13.9567H70.6585V14.0207H70.6908V14.0847H70.723V14.1487H70.7552V14.1807H70.7874V14.2447H70.8196V14.3087H70.8519V14.3727H70.8841V14.4047H70.9163V14.4687H70.9485V14.5326H70.9807V14.5646H71.013V14.6286H71.0452V14.6926H71.0774V14.7566H71.1096V14.7886H71.1418V14.8526H71.1741V14.9166H71.2063V14.9806H71.2385V15.0126H71.2707V15.0766H71.3029V15.1406H71.3352V15.2046H71.3674V15.2366H71.3996V15.3006H71.4318V15.3645H71.4641V15.3965H71.4963V15.4605H71.5285V15.5245H71.5607V15.5885H71.5929V15.6205H71.6251V15.6845H71.6574V15.7485H71.6896V15.8125H71.7218V15.8445H71.754V15.9085H71.7862V15.9725H71.8185V16.0045H71.8507V16.0685H71.8829V16.1325H71.9151V16.1964H71.9473V16.2284H71.9796V16.2924H72.0118V16.3564H72.044V16.4204H72.0762V16.4524H72.1085V16.5164H72.1407V16.5804H72.1729V16.6444H72.2051V16.6764H72.2373V16.7404H72.2695V16.8044H72.3018V16.8364H72.334V16.9004H72.3662V16.9644H72.3984V17.0283H72.4306V17.0603H72.4629V17.1243H72.4951V17.1883H72.5273V17.2523H72.5595V17.2843H72.5918V17.3483H72.624V17.4123H72.6562V17.4763H72.6884V17.5083H72.7206V17.5723H72.7528V17.6363H72.7851V17.6683H72.8173V17.7323H72.8495V17.7963H72.8817V17.8602H72.9139V17.8922H72.9462V17.9562H72.9784V18.0202H73.0106V18.0842H73.0428V18.1162H73.0751V18.1802H73.1073V18.2442H73.1395V18.3082H73.1717V18.3402H73.2039V18.4042H73.2362V18.4682H73.2684V18.5002H73.3006V18.5642H73.3328V18.6282H73.365V18.6921H73.3972V18.7241H73.4295V18.7881H73.4617V18.8521H73.4939V18.9161H73.5261V18.9481H73.5583V19.0121H73.5906V19.0761H73.6228V19.1081H73.655V19.1721H73.6872V19.2361H73.7195V19.3001H73.7517V19.3321H73.7839V19.3961H73.8161V19.4601H73.8483V19.524H73.8806V19.556H73.9128V19.62H73.945V19.684H73.9772V19.748H74.0094V19.78H74.0416V19.844H74.0739V19.908H74.1061V19.94H74.1383V20.004H74.1705V20.068H74.2028V20.132H74.235V20.164H74.2672V20.228H74.2994V20.292H74.3316V20.3559H74.3639V20.3879H74.3961V20.4519H74.4283V20.5159H74.4605V20.5799H74.4927V20.6119H74.5249V20.6759H74.5572V20.7399H74.5894V20.7719H74.6216V20.8359H74.6538V20.8999H74.6861V20.9639H74.7183V20.9959H74.7505V21.0599H74.7827V21.1239H74.8149V21.1879H74.8472V21.2198H74.8794V21.2838H74.9116V21.3478H74.9438V21.4118H74.976V21.4438H75.0083V21.5078H75.0405V21.5718H75.0727V21.6038H75.1049V21.6678H75.1371V21.7318H75.1693V21.7958H75.2016V21.8278H75.2338V21.8918H75.266V21.9558H75.2982V22.0197H75.3305V22.0517H75.3627V22.1157H75.3949V22.1797H75.4271V22.2117H75.4593V22.2757H75.4916V22.3397H75.5238V22.4037H75.556V22.4357H75.5882V22.4997H75.6204V22.5637H75.6527V22.6277H75.6849V22.6597H75.7171V22.7237H75.7493V22.7877H75.7815V22.8517H75.8138V22.8836H75.846V22.9476H75.8782V23.0116H75.9104V23.0436H75.9426V23.1076H75.9749V23.1716H76.0071V23.2356H76.0393V23.2676H76.0715V23.3316H76.1037V23.3956H76.136V23.4596H76.1682V23.4916H76.2004V23.5556H76.2326V23.6196H76.2648V23.6836H76.2971V23.7155H76.3293V23.7795H76.3615V23.8435H76.3937V23.8755H76.4259V23.9395H76.4582V24.0035H76.4904V24.0675H76.5226V24.0995H76.5548V24.1635H76.587V24.2275H76.6193V24.2915H76.6515V24.3235H76.6837V24.3875H76.7159V24.4515H76.7481V24.5155H76.7804V24.5474H76.8126V24.6114H76.8448V24.6754H76.877V24.7074H76.9092V24.7714H76.9415V24.8354H76.9737V24.8994H77.0059V24.9314H77.0381V24.9954H77.0703V25.0594H77.1026V25.1234H77.1348V25.1554H77.167V25.2194H77.1992V25.2834H77.2314V25.3154H77.2637V25.3793H77.2959V25.4433H77.3281V25.5073H77.3603V25.5393H77.3925V25.6033H77.4248V25.6673H77.457V25.7313H77.4892V25.7633H77.5214V25.8273H77.5536V25.8913H77.5859V25.9553H77.6181V25.9873H77.6503V26.0513H77.6825V26.1153H77.7147V26.1473H77.747V26.2113H77.7792V26.2752H77.8114V26.3392H77.8436V26.3712H77.8758V26.4352H77.9081V26.4992H77.9403V26.5632H77.9725V26.5952H78.0047V26.6592H78.0369V26.7232H78.0692V26.7872H78.1014V26.8192H78.1336V26.8832H78.1658V26.9472H78.198V26.9792H78.2303V27.0432H78.2625V27.1071H78.2947V27.1711H78.3269V27.2031H78.3591V27.2671H78.3914V27.3311H78.4236V27.3951H78.4558V27.4271H78.488V27.4911H78.5202V27.5551H78.5525V27.6191H78.5847V27.6511H78.6169V27.7151H78.6491V27.7791H78.6813V27.8111H78.7136V27.875H78.7458V27.939H78.778V28.003H78.8102V28.035H78.8424V28.099H78.8747V28.163H78.9069V28.227H78.9391V28.259H78.9713V28.323H79.0035V28.387H79.0358V28.419H79.068V28.483H79.1002V28.547H79.1324V28.611H79.1646V28.643H79.1969V28.707H79.2291V28.7709H79.2613V28.8349H79.2935V28.8669H79.3257V28.9309H79.358V28.9949H79.3902V29.0589H79.4224V29.0909H79.4546V29.1549H79.4868V29.2189H79.5191V29.2509H79.5513V29.3149H79.5835V29.3789H79.6157V29.4429H79.6479V29.4749H79.6802V29.5389H79.7124V29.6028H79.7446V29.6668H79.7768V29.6988H79.809V29.7628H79.8413V29.8268H79.8735V29.8908H79.9057V29.9228H79.9379V29.9868H79.9701V30.0508H80.0024V30.0828H80.0346V30.1468H80.0668V30.2108H80.099V30.2748H80.1312V30.3068H80.1635V30.3708H80.1957V30.4347H80.2279V30.4987H80.2601V30.5307H80.2923V30.5947H80.3246V30.6587H80.3568V30.7227H80.389V30.7547H80.4212V30.8187H80.4534V30.8827H80.4857V30.9147H80.5179V30.9787H80.5501V31.0427H80.5823V31.1067H80.6145V31.1387H80.6468V31.2027H80.679V31.2666H80.7112V31.3306H80.7434V31.3626H80.7756V31.4266H80.8079V31.4906H80.8401V31.5226H80.8723V31.5866H80.9045V31.6506H80.9367V31.7146H80.969V31.7466H81.0012V31.8106H81.0334V31.8746H81.0656V31.9386H81.0978V31.9706H81.1301V32.0346H81.1623V32.0985H81.1945V32.1625H81.2267V32.1945H81.2589V32.2585H81.2912V32.3225H81.3234V32.3545H81.3556V32.4185H81.3878V32.4825H81.42V32.5465H81.4523V32.5785H81.4845V32.6425H81.5167V32.7065H81.5489V32.7705H81.5811V32.8025H81.6134V32.8665H81.6456V32.9304H81.6778V32.9944H81.71V33.0264H81.7422V33.0904H81.7745V33.1544H81.8067V33.1864H81.8389V33.2504H81.8711V33.3144H81.9033V33.3784H81.9356V33.4104H81.9678V33.4744H82V33.5064H81.9678V33.5704H81.9356V33.6344H81.9033V33.6984H81.8711V33.7304H81.8389V33.7943H81.8067V33.8583H81.7745V33.9223H81.7422V33.9543H81.71V34.0183H81.6778V34.0823H81.6456V34.1463H81.6134V34.1783H81.5811V34.2423H81.5489V34.3063H81.5167V34.3383H81.4845V34.4023H81.4523V34.4663H81.42V34.5303H81.3878V34.5623H81.3556V34.6262H81.3234V34.6902H81.2912V34.7542H81.2589V34.7862H81.2267V34.8502H81.1945V34.9142H81.1623V34.9782H81.1301V35.0102H81.0978V35.0742H81.0656V35.1382H81.0334V35.1702H81.0012V35.2342H80.969V35.2982H80.9367V35.3622H80.9045V35.3942H80.8723V35.4581H80.8401V35.5221H80.8079V35.5861H80.7756V35.6181H80.7434V35.6821H80.7112V35.7461H80.679V35.8101H80.6468V35.8421H80.6145V35.9061H80.5823V35.9701H80.5501V36.0021H80.5179V36.0661H80.4857V36.1301H80.4534V36.1941H80.4212V36.2261H80.389V36.29H80.3568V36.354H80.3246V36.418H80.2923V36.45H80.2601V36.514H80.2279V36.578H80.1957V36.61H80.1635V36.674H80.1312V36.738H80.099V36.802H80.0668V36.834H80.0346V36.898H80.0024V36.962H79.9701V37.026H79.9379V37.058H79.9057V37.1219H79.8735V37.1859H79.8413V37.2499H79.809V37.2819H79.7768V37.3459H79.7446V37.4099H79.7124V37.4419H79.6802V37.5059H79.6479V37.5699H79.6157V37.6339H79.5835V37.6659H79.5513V37.7299H79.5191V37.7939H79.4868V37.8579H79.4546V37.8899H79.4224V37.9538H79.3902V38.0178H79.358V38.0818H79.3257V38.1138H79.2935V38.1778H79.2613V38.2418H79.2291V38.2738H79.1969V38.3378H79.1646V38.4018H79.1324V38.4658H79.1002V38.4978H79.068V38.5618H79.0358V38.6258H79.0035V38.6898H78.9713V38.7218H78.9391V38.7857H78.9069V38.8497H78.8747V38.9137H78.8424V38.9457H78.8102V39.0097H78.778V39.0737H78.7458V39.1057H78.7136V39.1697H78.6813V39.2337H78.6491V39.2977H78.6169V39.3297H78.5847V39.3937H78.5525V39.4577H78.5202V39.5217H78.488V39.5537H78.4558V39.6176H78.4236V39.6816H78.3914V39.7136H78.3591V39.7776H78.3269V39.8416H78.2947V39.9056H78.2625V39.9376H78.2303V40.0016H78.198V40.0656H78.1658V40.1296H78.1336V40.1616H78.1014V40.2256H78.0692V40.2896H78.0369V40.3536H78.0047V40.3856H77.9725V40.4495H77.9403V40.5135H77.9081V40.5455H77.8758V40.6095H77.8436V40.6735H77.8114V40.7375H77.7792V40.7695H77.747V40.8335H77.7147V40.8975H77.6825V40.9615H77.6503V40.9935H77.6181V41.0575H77.5859V41.1215H77.5536V41.1855H77.5214V41.2175H77.4892V41.2815H77.457V41.3454H77.4248V41.3774H77.3925V41.4414H77.3603V41.5054H77.3281V41.5694H77.2959V41.6014H77.2637V41.6654H77.2314V41.7294H77.1992V41.7934H77.167V41.8254H77.1348V41.8894H77.1026V41.9534H77.0703V42.0174H77.0381V42.0494H77.0059V42.1133H76.9737V42.1773H76.9415V42.2093H76.9092V42.2733H76.877V42.3373H76.8448V42.4013H76.8126V42.4333H76.7804V42.4973H76.7481V42.5613H76.7159V42.6253H76.6837V42.6573H76.6515V42.7213H76.6193V42.7853H76.587V42.8493H76.5548V42.8813H76.5226V42.9453H76.4904V43.0092H76.4582V43.0412H76.4259V43.1052H76.3937V43.1692H76.3615V43.2332H76.3293V43.2652H76.2971V43.3292H76.2648V43.3932H76.2326V43.4572H76.2004V43.4892H76.1682V43.5532H76.136V43.6172H76.1037V43.6492H76.0715V43.7132H76.0393V43.7772H76.0071V43.8411H75.9749V43.8731H75.9426V43.9371H75.9104V44.0011H75.8782V44.0651H75.846V44.0971H75.8138V44.1611H75.7815V44.2251H75.7493V44.2891H75.7171V44.3211H75.6849V44.3851H75.6527V44.4491H75.6204V44.4811H75.5882V44.5451H75.556V44.6091H75.5238V44.673H75.4916V44.705H75.4593V44.769H75.4271V44.833H75.3949V44.897H75.3627V44.929H75.3305V44.993H75.2982V45.057H75.266V45.121H75.2338V45.153H75.2016V45.217H75.1693V45.281H75.1371V45.313H75.1049V45.377H75.0727V45.441H75.0405V45.5049H75.0083V45.5369H74.976V45.6009H74.9438V45.6649H74.9116V45.7289H74.8794V45.7609H74.8472V45.8249H74.8149V45.8889H74.7827V45.9529H74.7505V45.9849H74.7183V46.0489H74.6861V46.1129H74.6538V46.1449H74.6216V46.2089H74.5894V46.2729H74.5572V46.3368H74.5249V46.3688H74.4927V46.4328H74.4605V46.4968H74.4283V46.5608H74.3961V46.5928H74.3639V46.6568H74.3316V46.7208H74.2994V46.7528H74.2672V46.8168H74.235V46.8808H74.2028V46.9448H74.1705V46.9768H74.1383V47.0408H74.1061V47.1048H74.0739V47.1687H74.0416V47.2007H74.0094V47.2647H73.9772V47.3287H73.945V47.3927H73.9128V47.4247H73.8806V47.4887H73.8483V47.5527H73.8161V47.5847H73.7839V47.6487H73.7517V47.7127H73.7195V47.7767H73.6872V47.8087H73.655V47.8727H73.6228V47.9367H73.5906V48.0006H73.5583V48.0326H73.5261V48.0966H73.4939V48.1606H73.4617V48.2246H73.4295V48.2566H73.3972V48.3206H73.365V48.3846H73.3328V48.4166H73.3006V48.4806H73.2684V48.5446H73.2362V48.6086H73.2039V48.6406H73.1717V48.7046H73.1395V48.7686H73.1073V48.8325H73.0751V48.8645H73.0428V48.9285H73.0106V48.9925H72.9784V49.0565H72.9462V49.0885H72.9139V49.1525H72.8817V49.2165H72.8495V49.2485H72.8173V49.3125H72.7851V49.3765H72.7528V49.4405H72.7206V49.4725H72.6884V49.5365H72.6562V49.6005H72.624V49.6644H72.5918V49.6964H72.5595V49.7604H72.5273V49.8244H72.4951V49.8884H72.4629V49.9204H72.4306V49.9844H72.3984V50.0484H72.3662V50.0804H72.334V50.1444H72.3018V50.2084H72.2695V50.2724H72.2373V50.3044H72.2051V50.3684H72.1729V50.4324H72.1407V50.4963H72.1085V50.5283H72.0762V50.5923H72.044V50.6563H72.0118V50.6883H71.9796V50.7523H71.9473V50.8163H71.9151V50.8803H71.8829V50.9123H71.8507V50.9763H71.8185V51.0403H71.7862V51.1043H71.754V51.1363H71.7218V51.2003H71.6896V51.2643H71.6574V51.3282H71.6251V51.3602H71.5929V51.4242H71.5607V51.4882H71.5285V51.5202H71.4963V51.5842H71.4641V51.6482H71.4318V51.7122H71.3996V51.7442H71.3674V51.8082H71.3352V51.8722H71.3029V51.9362H71.2707V51.9682H71.2385V52.0322H71.2063V52.0962H71.1741V52.1602H71.1418V52.1921H71.1096V52.2561H71.0774V52.3201H71.0452V52.3521H71.013V52.4161H70.9807V52.4801H70.9485V52.5441H70.9163V52.5761H70.8841V52.6401H70.8519V52.7041H70.8196V52.7681H70.7874V52.8001H70.7552V52.8641H70.723V52.9281H70.6908V52.9921H70.6585V53.024H70.6263V53.088H70.5941V53.152H70.5619V53.184H70.5297V53.248H70.4974V53.312H70.4652V53.376H70.433V53.408H70.4008V53.472H70.3686V53.536H70.3363V53.6H70.3041V53.632H70.2719V53.696H70.2397V53.76H70.2075V53.824H70.1752V53.8559H70.143V53.9199H70.1108V53.9839H70.0786V54.0159H70.0464V54.0799H70.0141V54.1439H69.9819V54.2079H69.9497V54.2399H69.9175V54.3039H69.8853V54.3679H69.853V54.4319H69.8208V54.4639H69.7886V54.5279H69.7564V54.5919H69.7242V54.6239H69.6919V54.6878H69.6597V54.7518H69.6275V54.8158H69.5953V54.8478H69.5631V54.9118H69.5308V54.9758H69.4986V55.0398H69.4664V55.0718H69.4342V55.1358H69.402V55.1998H69.3697V55.2638H69.3375V55.2958H69.3053V55.3598H69.2731V55.4238H69.2409V55.4558H69.2086V55.5197H69.1764V55.5837H69.1442V55.6477H69.112V55.6797H69.0798V55.7437H69.0475V55.8077H69.0153V55.8717H68.9831V55.9037H68.9509V55.9677H68.9187V56.0317H68.8864V56.0957H68.8542V56.1277H68.822V56.1917H68.7898V56.2557H68.7576V56.2877H68.7253V56.3517H68.6931V56.4156H68.6609V56.4796H68.6287V56.5116H68.5965V56.5756H68.5642V56.6396H68.532V56.7036H68.4998V56.7356H68.4676V56.7996H68.4354V56.8636H68.4031V56.9276H68.3709V56.9596H68.3387V57.0236H68.3065V57.0876H68.2743V57.1196H68.242V57.1836H68.2098V57.2475H68.1776V57.3115H68.1454V57.3435H68.1132V57.4075H68.0809V57.4715H68.0487V57.5355H68.0165V57.5675H67.9843V57.6315H67.9521V57.6955H67.9198V57.7275H67.8876V57.7915H67.8554V57.8555H67.8232V57.9195H67.791V57.9515H67.7587V58.0155H67.7265V58.0794H67.6943V58.1434H67.6621V58.1754H67.6299V58.2394H67.5976V58.3034H67.5654V58.3674H67.5332V58.3994H67.501V58.4634H67.4688V58.5274H67.4365V58.5594H67.4043V58.6234H67.3721V58.6874H67.3399V58.7514H67.3077V58.7834H67.2754V58.8474H67.2432V58.9113H67.211V58.9753H67.1788V59.0073H67.1466V59.0713H67.1143V59.1353H67.0821V59.1993H67.0499V59.2313H67.0177V59.2953H66.9855V59.3593H66.9532V59.3913H66.921V59.4553H66.8888V59.5193H66.8566V59.5833H66.8244V59.6153H66.7921V59.6793H66.7599V59.7432H66.7277V59.8072H66.6955V59.8392H66.6633V59.9032H66.631V59.9672H66.5988V60.0312H66.5666V60.0632H66.5344V60.1272H66.5022V60.1912H66.4699V60.2232H66.4377V60.2872H66.4055V60.3512H66.3733V60.4152H66.3411V60.4472H66.3088V60.5112H66.2766V60.5751H66.2444V60.6391H66.2122V60.6711H66.18V60.7351H66.1477V60.7991H66.1155V60.8631H66.0833V60.8951H66.0511V60.9591H66.0189V61.0231H65.9866V61.0551H65.9544V61.1191H65.9222V61.1831H65.89V61.2471H65.8578V61.2791H65.8255V61.3431H65.7933V61.407H65.7611V61.471H65.7289V61.503H65.6967V61.567H65.6644V61.631H65.6322V61.663H65.6V61.727H65.5678V61.791H65.5356V61.855H65.5033V61.887H65.4711V61.951H65.4389V62.015H65.4067V62.079H65.3745V62.111H65.3422V62.175H65.31V62.2389H65.2778V62.3029H65.2456V62.3349H65.2134V62.3989H65.1811V62.4629H65.1489V62.4949H65.1167V62.5589H65.0845V62.6229H65.0523V62.6869H65.02V62.7189H64.9878V62.7829H64.9556V62.8469H64.9234V62.9109H64.8912V62.9429H64.8589V63.0069H64.8267V63.0708H64.7945V63.1348H64.7623V63.1668H64.7301V63.2308H64.6978V63.2948H64.6656V63.3268H64.6334V63.3908H64.6012V63.4548H64.569V63.5188H64.5367V63.5508H64.5045V63.6148H64.4723V63.6788H64.4401V63.7428H64.4079V63.7748H64.3756V63.8388H64.3434V63.9027H64.3112V63.9667H64.279V63.9987H64.2468V64.0627H64.2145V64.1267H64.1823V64.1587H64.1501V64.2227H64.1179V64.2867H64.0857V64.3507H64.0534V64.3827H64.0212V64.4467H63.989V64.5107H63.9568V64.5747H63.9246V64.6067H63.8923V64.6707H63.8601V64.7346H63.8279V64.7986H63.7957V64.8306H63.7635V64.8946H63.7312V64.9586H63.699V64.9906H63.6668V65.0546H63.6346V65.1186H63.6024V65.1826H63.5701V65.2146H63.5379V65.2786H63.5057V65.3426H63.4735V65.4066H63.4413V65.4386H63.409V65.5026H63.3768V65.5666H63.3446V65.5985H63.3124V65.6625H63.2802V65.7265H63.2479V65.7905H63.2157V65.8225H63.1835V65.8865H63.1513V65.9505H63.1191V66.0145H63.0868V66.0465H63.0546V66.1105H63.0224V66.1745H62.9902V66.2385H62.958V66.2705H62.9257V66.3345H62.8935V66.3985H62.8613V66.4304H62.8291V66.4944H62.7969V66.5584H62.7646V66.6224H62.7324V66.6544H62.7002V66.7184H62.668V66.7824H62.6358V66.8464H62.6035V66.8784H62.5713V66.9424H62.5391V67.0064" fill="url(#paint0_linear_491_29)"/>
<defs>
<linearGradient id="paint0_linear_491_29" x1="40.9871" y1="0.0191743" x2="40.9871" y2="57.6286" gradientUnits="userSpaceOnUse">
<stop stop-color="#EB292C"/>
<stop offset="0.00665541" stop-color="#EB292C"/>
<stop offset="1" stop-color="#FF9900"/>
</linearGradient>
</defs>
</svg>
