<svg width="18" height="18" viewBox="0 0 18 18" fill="none" xmlns="http://www.w3.org/2000/svg">
<path d="M10.7997 10.8C11.7938 9.80589 11.7938 8.19411 10.7997 7.2C9.80555 6.20589 8.19377 6.20589 7.19966 7.2C6.20555 8.19411 6.20555 9.80589 7.19966 10.8C8.19377 11.7941 9.80555 11.7941 10.7997 10.8Z" stroke="white" stroke-width="1.5" stroke-linecap="round" stroke-linejoin="round"/>
<path d="M4.56396 4.54529L7.10955 7.09087" stroke="white" stroke-width="1.5" stroke-linecap="round" stroke-linejoin="round"/>
<path d="M10.9277 7.09087L13.4733 4.54529" stroke="white" stroke-width="1.5" stroke-linecap="round" stroke-linejoin="round"/>
<path d="M10.9277 10.9091L13.4733 13.4547" stroke="white" stroke-width="1.5" stroke-linecap="round" stroke-linejoin="round"/>
<path d="M7.10955 10.9091L4.56396 13.4547" stroke="white" stroke-width="1.5" stroke-linecap="round" stroke-linejoin="round"/>
<path d="M13.5 13.5C15.9853 11.0147 15.9853 6.98528 13.5 4.5C11.0147 2.01472 6.98528 2.01472 4.5 4.5C2.01472 6.98528 2.01472 11.0147 4.5 13.5C6.98528 15.9853 11.0147 15.9853 13.5 13.5Z" stroke="#222222" stroke-width="1.5" stroke-linecap="round" stroke-linejoin="round"/>
</svg>
