<svg width="275" height="72" viewBox="0 0 275 72" fill="none" xmlns="http://www.w3.org/2000/svg">
<path d="M149.414 11.1005V40.1914H144.101L131.445 21.8817H131.232V40.1914H125.082V11.1005H130.479L143.036 29.396H143.292V11.1005H149.414ZM162.725 40.6175C160.481 40.6175 158.549 40.163 156.93 39.2539C155.32 38.3353 154.079 37.038 153.208 35.3619C152.337 33.6763 151.901 31.6829 151.901 29.3817C151.901 27.1374 152.337 25.1677 153.208 23.4727C154.079 21.7776 155.306 20.4566 156.887 19.5096C158.478 18.5626 160.344 18.0891 162.484 18.0891C163.923 18.0891 165.263 18.3211 166.504 18.7852C167.754 19.2397 168.843 19.9263 169.771 20.8448C170.708 21.7634 171.437 22.9187 171.958 24.3107C172.479 25.6933 172.739 27.3126 172.739 29.1687V30.8306H154.316V27.0806H167.043C167.043 26.2094 166.854 25.4376 166.475 24.7653C166.096 24.0929 165.571 23.5674 164.899 23.1886C164.236 22.8003 163.464 22.6062 162.583 22.6062C161.665 22.6062 160.85 22.8192 160.14 23.2454C159.439 23.662 158.89 24.2255 158.492 24.9357C158.095 25.6365 157.891 26.4177 157.881 27.2795V30.8448C157.881 31.9244 158.08 32.8571 158.478 33.6431C158.885 34.4291 159.458 35.0352 160.197 35.4613C160.935 35.8874 161.811 36.1005 162.825 36.1005C163.497 36.1005 164.113 36.0058 164.671 35.8164C165.23 35.627 165.708 35.3429 166.106 34.9641C166.504 34.5853 166.807 34.1213 167.015 33.5721L172.612 33.9414C172.327 35.2861 171.745 36.4603 170.864 37.4641C169.993 38.4585 168.866 39.235 167.484 39.7937C166.111 40.3429 164.524 40.6175 162.725 40.6175ZM193.242 24.5948L187.702 24.9357C187.607 24.4622 187.404 24.0361 187.091 23.6573C186.779 23.2691 186.367 22.9613 185.855 22.734C185.353 22.4973 184.752 22.3789 184.051 22.3789C183.114 22.3789 182.323 22.5778 181.679 22.9755C181.035 23.3638 180.713 23.8846 180.713 24.538C180.713 25.0588 180.922 25.4992 181.338 25.859C181.755 26.2189 182.47 26.5077 183.483 26.7255L187.432 27.521C189.553 27.9566 191.135 28.6573 192.176 29.6232C193.218 30.5891 193.739 31.8581 193.739 33.43C193.739 34.86 193.317 36.1147 192.475 37.1942C191.641 38.2738 190.495 39.1166 189.037 39.7227C187.588 40.3192 185.917 40.6175 184.023 40.6175C181.135 40.6175 178.834 40.0162 177.12 38.8136C175.415 37.6014 174.416 35.9537 174.122 33.8704L180.074 33.5579C180.254 34.4386 180.69 35.1109 181.381 35.5749C182.072 36.0295 182.958 36.2567 184.037 36.2567C185.098 36.2567 185.95 36.0531 186.594 35.646C187.247 35.2293 187.579 34.6942 187.588 34.0408C187.579 33.4916 187.347 33.0418 186.892 32.6914C186.438 32.3316 185.737 32.0569 184.79 31.8675L181.012 31.1147C178.881 30.6886 177.295 29.9499 176.253 28.8988C175.221 27.8477 174.705 26.5077 174.705 24.8789C174.705 23.4774 175.084 22.27 175.841 21.2567C176.608 20.2435 177.683 19.4622 179.066 18.913C180.458 18.3638 182.086 18.0891 183.952 18.0891C186.708 18.0891 188.876 18.6715 190.458 19.8363C192.049 21.0011 192.977 22.5872 193.242 24.5948ZM202.171 40.6033C200.779 40.6033 199.538 40.3619 198.449 39.8789C197.36 39.3865 196.498 38.6621 195.864 37.7056C195.239 36.7397 194.926 35.5371 194.926 34.0977C194.926 32.8855 195.149 31.8675 195.594 31.0437C196.039 30.2198 196.645 29.5569 197.412 29.055C198.179 28.5531 199.051 28.1744 200.026 27.9187C201.011 27.663 202.043 27.4831 203.123 27.3789C204.391 27.2463 205.414 27.1232 206.191 27.0096C206.967 26.8865 207.531 26.7066 207.881 26.4698C208.231 26.2331 208.407 25.8827 208.407 25.4187V25.3335C208.407 24.4338 208.123 23.7378 207.554 23.2454C206.996 22.753 206.2 22.5067 205.168 22.5067C204.079 22.5067 203.212 22.7482 202.569 23.2312C201.925 23.7047 201.498 24.3013 201.29 25.021L195.694 24.5664C195.978 23.2406 196.536 22.0948 197.37 21.1289C198.203 20.1535 199.278 19.4054 200.594 18.8846C201.92 18.3543 203.454 18.0891 205.196 18.0891C206.408 18.0891 207.569 18.2312 208.676 18.5153C209.794 18.7994 210.783 19.2397 211.645 19.8363C212.516 20.4329 213.203 21.1999 213.705 22.1374C214.207 23.0655 214.458 24.1781 214.458 25.4755V40.1914H208.719V37.1658H208.549C208.198 37.8477 207.73 38.449 207.142 38.9698C206.555 39.4812 205.85 39.8836 205.026 40.1772C204.202 40.4613 203.25 40.6033 202.171 40.6033ZM203.904 36.4272C204.794 36.4272 205.58 36.252 206.262 35.9016C206.944 35.5418 207.479 35.0588 207.867 34.4528C208.255 33.8467 208.449 33.1602 208.449 32.3931V30.0778C208.26 30.2009 207.999 30.3145 207.668 30.4187C207.346 30.5134 206.981 30.6033 206.574 30.6886C206.167 30.7643 205.76 30.8353 205.353 30.9016C204.945 30.9585 204.576 31.0105 204.245 31.0579C203.534 31.162 202.914 31.3278 202.384 31.555C201.854 31.7823 201.442 32.0901 201.148 32.4783C200.855 32.8571 200.708 33.3306 200.708 33.8988C200.708 34.7227 201.006 35.3524 201.603 35.788C202.209 36.2141 202.976 36.4272 203.904 36.4272ZM223.774 40.6033C222.382 40.6033 221.141 40.3619 220.052 39.8789C218.963 39.3865 218.102 38.6621 217.467 37.7056C216.842 36.7397 216.53 35.5371 216.53 34.0977C216.53 32.8855 216.752 31.8675 217.197 31.0437C217.642 30.2198 218.248 29.5569 219.015 29.055C219.782 28.5531 220.654 28.1744 221.629 27.9187C222.614 27.663 223.646 27.4831 224.726 27.3789C225.995 27.2463 227.017 27.1232 227.794 27.0096C228.57 26.8865 229.134 26.7066 229.484 26.4698C229.835 26.2331 230.01 25.8827 230.01 25.4187V25.3335C230.01 24.4338 229.726 23.7378 229.157 23.2454C228.599 22.753 227.803 22.5067 226.771 22.5067C225.682 22.5067 224.816 22.7482 224.172 23.2312C223.528 23.7047 223.102 24.3013 222.893 25.021L217.297 24.5664C217.581 23.2406 218.139 22.0948 218.973 21.1289C219.806 20.1535 220.881 19.4054 222.197 18.8846C223.523 18.3543 225.057 18.0891 226.799 18.0891C228.012 18.0891 229.172 18.2312 230.28 18.5153C231.397 18.7994 232.387 19.2397 233.248 19.8363C234.12 20.4329 234.806 21.1999 235.308 22.1374C235.81 23.0655 236.061 24.1781 236.061 25.4755V40.1914H230.322V37.1658H230.152C229.801 37.8477 229.333 38.449 228.746 38.9698C228.158 39.4812 227.453 39.8836 226.629 40.1772C225.805 40.4613 224.853 40.6033 223.774 40.6033ZM225.507 36.4272C226.397 36.4272 227.183 36.252 227.865 35.9016C228.547 35.5418 229.082 35.0588 229.47 34.4528C229.858 33.8467 230.052 33.1602 230.052 32.3931V30.0778C229.863 30.2009 229.603 30.3145 229.271 30.4187C228.949 30.5134 228.585 30.6033 228.177 30.6886C227.77 30.7643 227.363 30.8353 226.956 30.9016C226.549 30.9585 226.179 31.0105 225.848 31.0579C225.138 31.162 224.517 31.3278 223.987 31.555C223.457 31.7823 223.045 32.0901 222.751 32.4783C222.458 32.8571 222.311 33.3306 222.311 33.8988C222.311 34.7227 222.609 35.3524 223.206 35.788C223.812 36.2141 224.579 36.4272 225.507 36.4272ZM245.207 27.5778V40.1914H239.155V18.3732H244.923V22.2227H245.178C245.661 20.9537 246.471 19.9499 247.607 19.2113C248.744 18.4632 250.121 18.0891 251.741 18.0891C253.256 18.0891 254.577 18.4206 255.704 19.0835C256.831 19.7463 257.707 20.6933 258.332 21.9244C258.957 23.146 259.269 24.6043 259.269 26.2994V40.1914H253.218V27.3789C253.227 26.0437 252.887 25.002 252.195 24.2539C251.504 23.4963 250.552 23.1175 249.34 23.1175C248.526 23.1175 247.806 23.2927 247.181 23.6431C246.566 23.9935 246.083 24.5049 245.732 25.1772C245.391 25.8401 245.216 26.6403 245.207 27.5778Z" fill="white"/>
<path d="M139.569 66V59.4545H143.903V60.5955H140.953V62.1552H143.615V63.2962H140.953V66H139.569ZM152.558 62.7273C152.558 63.4411 152.423 64.0483 152.153 64.549C151.884 65.0497 151.518 65.4322 151.053 65.6964C150.591 65.9585 150.071 66.0895 149.493 66.0895C148.912 66.0895 148.39 65.9574 147.927 65.6932C147.465 65.429 147.1 65.0465 146.831 64.5458C146.563 64.0451 146.428 63.4389 146.428 62.7273C146.428 62.0135 146.563 61.4062 146.831 60.9055C147.1 60.4048 147.465 60.0234 147.927 59.7614C148.39 59.4972 148.912 59.3651 149.493 59.3651C150.071 59.3651 150.591 59.4972 151.053 59.7614C151.518 60.0234 151.884 60.4048 152.153 60.9055C152.423 61.4062 152.558 62.0135 152.558 62.7273ZM151.155 62.7273C151.155 62.2649 151.086 61.875 150.948 61.5575C150.811 61.2401 150.618 60.9993 150.369 60.8352C150.12 60.6712 149.828 60.5891 149.493 60.5891C149.159 60.5891 148.867 60.6712 148.618 60.8352C148.368 60.9993 148.175 61.2401 148.036 61.5575C147.9 61.875 147.832 62.2649 147.832 62.7273C147.832 63.1896 147.9 63.5795 148.036 63.897C148.175 64.2145 148.368 64.4553 148.618 64.6193C148.867 64.7834 149.159 64.8654 149.493 64.8654C149.828 64.8654 150.12 64.7834 150.369 64.6193C150.618 64.4553 150.811 64.2145 150.948 63.897C151.086 63.5795 151.155 63.1896 151.155 62.7273ZM155.294 66V59.4545H157.876C158.37 59.4545 158.792 59.543 159.142 59.7198C159.493 59.8945 159.761 60.1428 159.944 60.4645C160.129 60.7841 160.222 61.1602 160.222 61.5927C160.222 62.0273 160.128 62.4013 159.941 62.7145C159.753 63.0256 159.481 63.2642 159.126 63.4304C158.772 63.5966 158.344 63.6797 157.841 63.6797H156.112V62.5675H157.617C157.881 62.5675 158.101 62.5312 158.275 62.4588C158.45 62.3864 158.58 62.2777 158.665 62.1328C158.753 61.9879 158.796 61.8079 158.796 61.5927C158.796 61.3754 158.753 61.1921 158.665 61.043C158.58 60.8938 158.449 60.7809 158.272 60.7042C158.098 60.6254 157.877 60.5859 157.611 60.5859H156.677V66H155.294ZM158.828 63.0213L160.455 66H158.927L157.336 63.0213H158.828ZM166.703 66V59.4545H169.324C169.805 59.4545 170.207 59.5259 170.528 59.6687C170.85 59.8114 171.092 60.0096 171.254 60.2631C171.416 60.5146 171.497 60.8043 171.497 61.1325C171.497 61.3881 171.446 61.6129 171.343 61.8068C171.241 61.9986 171.101 62.1562 170.922 62.2798C170.745 62.4013 170.542 62.4876 170.314 62.5387V62.6026C170.564 62.6133 170.797 62.6836 171.014 62.8136C171.234 62.9435 171.412 63.1257 171.548 63.3601C171.684 63.5923 171.753 63.8693 171.753 64.1911C171.753 64.5384 171.666 64.8484 171.494 65.1211C171.323 65.3917 171.071 65.6058 170.736 65.7635C170.402 65.9212 169.989 66 169.499 66H166.703ZM168.087 64.8686H169.215C169.601 64.8686 169.882 64.7951 170.059 64.6481C170.236 64.4989 170.324 64.3008 170.324 64.0536C170.324 63.8725 170.28 63.7127 170.193 63.5742C170.106 63.4357 169.981 63.3271 169.819 63.2482C169.659 63.1694 169.468 63.13 169.247 63.13H168.087V64.8686ZM168.087 62.1935H169.113C169.302 62.1935 169.471 62.1605 169.618 62.0945C169.767 62.0263 169.884 61.9304 169.969 61.8068C170.057 61.6832 170.1 61.5352 170.1 61.3626C170.1 61.1261 170.016 60.9354 169.848 60.7905C169.682 60.6456 169.445 60.5732 169.138 60.5732H168.087V62.1935ZM175.491 66H174.008L176.268 59.4545H178.051L180.308 66H178.825L177.185 60.9503H177.134L175.491 66ZM175.399 63.4272H178.901V64.5075H175.399V63.4272ZM181.756 60.5955V59.4545H187.132V60.5955H185.128V66H183.76V60.5955H181.756ZM189.478 60.5955V59.4545H194.854V60.5955H192.85V66H191.482V60.5955H189.478ZM197.449 66V59.4545H201.86V60.5955H198.833V62.1552H201.633V63.2962H198.833V64.859H201.872V66H197.449ZM204.67 66V59.4545H207.252C207.747 59.4545 208.168 59.543 208.518 59.7198C208.869 59.8945 209.137 60.1428 209.32 60.4645C209.505 60.7841 209.598 61.1602 209.598 61.5927C209.598 62.0273 209.504 62.4013 209.317 62.7145C209.129 63.0256 208.858 63.2642 208.502 63.4304C208.148 63.5966 207.72 63.6797 207.217 63.6797H205.488V62.5675H206.993C207.258 62.5675 207.477 62.5312 207.652 62.4588C207.826 62.3864 207.956 62.2777 208.042 62.1328C208.129 61.9879 208.173 61.8079 208.173 61.5927C208.173 61.3754 208.129 61.1921 208.042 61.043C207.956 60.8938 207.825 60.7809 207.649 60.7042C207.474 60.6254 207.253 60.5859 206.987 60.5859H206.054V66H204.67ZM208.205 63.0213L209.831 66H208.304L206.712 63.0213H208.205ZM216.079 66V59.4545H220.413V60.5955H217.463V62.1552H220.125V63.2962H217.463V66H216.079ZM227.097 59.4545H228.481V63.7053C228.481 64.1825 228.367 64.6001 228.139 64.9581C227.913 65.3161 227.596 65.5952 227.189 65.7955C226.782 65.9936 226.308 66.0927 225.767 66.0927C225.224 66.0927 224.749 65.9936 224.342 65.7955C223.935 65.5952 223.618 65.3161 223.393 64.9581C223.167 64.6001 223.054 64.1825 223.054 63.7053V59.4545H224.438V63.587C224.438 63.8363 224.492 64.0579 224.601 64.2518C224.711 64.4457 224.867 64.598 225.067 64.7088C225.268 64.8196 225.501 64.875 225.767 64.875C226.036 64.875 226.269 64.8196 226.467 64.7088C226.667 64.598 226.822 64.4457 226.931 64.2518C227.041 64.0579 227.097 63.8363 227.097 63.587V59.4545ZM231.08 60.5955V59.4545H236.456V60.5955H234.452V66H233.084V60.5955H231.08ZM243.094 59.4545H244.478V63.7053C244.478 64.1825 244.364 64.6001 244.136 64.9581C243.91 65.3161 243.594 65.5952 243.187 65.7955C242.78 65.9936 242.306 66.0927 241.764 66.0927C241.221 66.0927 240.746 65.9936 240.339 65.7955C239.932 65.5952 239.616 65.3161 239.39 64.9581C239.164 64.6001 239.051 64.1825 239.051 63.7053V59.4545H240.435V63.587C240.435 63.8363 240.489 64.0579 240.598 64.2518C240.709 64.4457 240.864 64.598 241.064 64.7088C241.265 64.8196 241.498 64.875 241.764 64.875C242.033 64.875 242.266 64.8196 242.464 64.7088C242.665 64.598 242.819 64.4457 242.928 64.2518C243.038 64.0579 243.094 63.8363 243.094 63.587V59.4545ZM247.077 60.5955V59.4545H252.453V60.5955H250.449V66H249.081V60.5955H247.077ZM255.048 66V59.4545H259.459V60.5955H256.432V62.1552H259.232V63.2962H256.432V64.859H259.471V66H255.048Z" fill="#888888"/>
<path d="M15.3751 35.318L44.8199 2.26876L75.6159 36.1062L46.1761 69.4302L15.3751 35.318Z" stroke="#F5D206" stroke-width="3"/>
<path d="M81.1915 0H59.9059L30.6383 35.234H51.9239L81.1915 0Z" fill="white"/>
<path d="M81.1915 72H59.9059L30.6383 35.234H51.9239L81.1915 72Z" fill="white"/>
<path d="M59.7447 0H81.6753L111.83 35.234H89.8992L59.7447 0Z" fill="#EB292C"/>
<path d="M59.7447 72H81.6753L111.83 35.234H89.8992L59.7447 72Z" fill="#EB292C"/>
<rect x="125.617" y="58" width="8" height="8" fill="#F5D206"/>
</svg>
