<svg width="164" height="158" viewBox="0 0 164 158" fill="none" xmlns="http://www.w3.org/2000/svg">
<path d="M37.8608 102.909V132H32.5483L19.892 113.69H19.679V132H13.5284V102.909H18.9261L31.483 121.205H31.7386V102.909H37.8608ZM51.172 132.426C48.9277 132.426 46.9959 131.972 45.3766 131.062C43.7667 130.144 42.5262 128.847 41.655 127.17C40.7838 125.485 40.3482 123.491 40.3482 121.19C40.3482 118.946 40.7838 116.976 41.655 115.281C42.5262 113.586 43.7525 112.265 45.3339 111.318C46.9249 110.371 48.7904 109.898 50.9305 109.898C52.3699 109.898 53.7099 110.13 54.9504 110.594C56.2004 111.048 57.2894 111.735 58.2175 112.653C59.155 113.572 59.8841 114.727 60.405 116.119C60.9258 117.502 61.1862 119.121 61.1862 120.977V122.639H42.7629V118.889H55.4902C55.4902 118.018 55.3008 117.246 54.922 116.574C54.5432 115.902 54.0177 115.376 53.3453 114.997C52.6824 114.609 51.9107 114.415 51.03 114.415C50.1114 114.415 49.297 114.628 48.5868 115.054C47.886 115.471 47.3368 116.034 46.9391 116.744C46.5413 117.445 46.3377 118.226 46.3283 119.088V122.653C46.3283 123.733 46.5271 124.666 46.9249 125.452C47.3321 126.238 47.905 126.844 48.6436 127.27C49.3822 127.696 50.2582 127.909 51.2714 127.909C51.9438 127.909 52.5593 127.814 53.118 127.625C53.6768 127.436 54.155 127.152 54.5527 126.773C54.9504 126.394 55.2535 125.93 55.4618 125.381L61.0584 125.75C60.7743 127.095 60.1919 128.269 59.3112 129.273C58.44 130.267 57.3131 131.044 55.9305 131.602C54.5574 132.152 52.9713 132.426 51.172 132.426ZM81.6885 116.403L76.1487 116.744C76.054 116.271 75.8504 115.845 75.5379 115.466C75.2254 115.078 74.8135 114.77 74.3021 114.543C73.8002 114.306 73.1989 114.188 72.4982 114.188C71.5607 114.188 70.7699 114.386 70.126 114.784C69.4821 115.172 69.1601 115.693 69.1601 116.347C69.1601 116.867 69.3684 117.308 69.7851 117.668C70.2018 118.027 70.9167 118.316 71.93 118.534L75.8788 119.33C78 119.765 79.5815 120.466 80.6232 121.432C81.6648 122.398 82.1857 123.667 82.1857 125.239C82.1857 126.669 81.7643 127.923 80.9214 129.003C80.0881 130.082 78.9423 130.925 77.4839 131.531C76.0351 132.128 74.3637 132.426 72.4697 132.426C69.5815 132.426 67.2803 131.825 65.5663 130.622C63.8618 129.41 62.8627 127.762 62.5692 125.679L68.5209 125.366C68.7008 126.247 69.1364 126.92 69.8277 127.384C70.519 127.838 71.4044 128.065 72.4839 128.065C73.5446 128.065 74.3968 127.862 75.0408 127.455C75.6942 127.038 76.0256 126.503 76.0351 125.849C76.0256 125.3 75.7936 124.85 75.3391 124.5C74.8845 124.14 74.1838 123.866 73.2368 123.676L69.4584 122.923C67.3277 122.497 65.7415 121.759 64.6999 120.707C63.6677 119.656 63.1516 118.316 63.1516 116.688C63.1516 115.286 63.5303 114.079 64.2879 113.065C65.055 112.052 66.1298 111.271 67.5124 110.722C68.9044 110.172 70.5332 109.898 72.3987 109.898C75.1544 109.898 77.323 110.48 78.9044 111.645C80.4953 112.81 81.4233 114.396 81.6885 116.403ZM90.6176 132.412C89.2256 132.412 87.985 132.17 86.896 131.688C85.807 131.195 84.9453 130.471 84.3108 129.514C83.6858 128.548 83.3733 127.346 83.3733 125.906C83.3733 124.694 83.5958 123.676 84.0409 122.852C84.486 122.028 85.092 121.366 85.8591 120.864C86.6261 120.362 87.4973 119.983 88.4727 119.727C89.4576 119.472 90.4898 119.292 91.5693 119.188C92.8383 119.055 93.861 118.932 94.6375 118.818C95.414 118.695 95.9775 118.515 96.3278 118.278C96.6782 118.042 96.8534 117.691 96.8534 117.227V117.142C96.8534 116.242 96.5693 115.546 96.0011 115.054C95.4424 114.562 94.647 114.315 93.6148 114.315C92.5258 114.315 91.6593 114.557 91.0153 115.04C90.3714 115.513 89.9453 116.11 89.7369 116.83L84.1403 116.375C84.4244 115.049 84.9831 113.903 85.8165 112.938C86.6498 111.962 87.7246 111.214 89.0409 110.693C90.3667 110.163 91.9008 109.898 93.6432 109.898C94.8553 109.898 96.0153 110.04 97.1233 110.324C98.2407 110.608 99.2303 111.048 100.092 111.645C100.963 112.241 101.65 113.009 102.152 113.946C102.654 114.874 102.905 115.987 102.905 117.284V132H97.1659V128.974H96.9955C96.6451 129.656 96.1763 130.258 95.5892 130.778C95.0021 131.29 94.2966 131.692 93.4727 131.986C92.6489 132.27 91.6972 132.412 90.6176 132.412ZM92.3506 128.236C93.2407 128.236 94.0267 128.061 94.7085 127.71C95.3903 127.35 95.9254 126.867 96.3136 126.261C96.7019 125.655 96.896 124.969 96.896 124.202V121.886C96.7066 122.009 96.4462 122.123 96.1148 122.227C95.7928 122.322 95.4282 122.412 95.021 122.497C94.6138 122.573 94.2066 122.644 93.7994 122.71C93.3922 122.767 93.0229 122.819 92.6915 122.866C91.9812 122.971 91.361 123.136 90.8307 123.364C90.3004 123.591 89.8884 123.899 89.5949 124.287C89.3013 124.666 89.1545 125.139 89.1545 125.707C89.1545 126.531 89.4528 127.161 90.0494 127.597C90.6555 128.023 91.4225 128.236 92.3506 128.236ZM112.221 132.412C110.829 132.412 109.588 132.17 108.499 131.688C107.41 131.195 106.548 130.471 105.914 129.514C105.289 128.548 104.976 127.346 104.976 125.906C104.976 124.694 105.199 123.676 105.644 122.852C106.089 122.028 106.695 121.366 107.462 120.864C108.229 120.362 109.1 119.983 110.076 119.727C111.061 119.472 112.093 119.292 113.172 119.188C114.441 119.055 115.464 118.932 116.241 118.818C117.017 118.695 117.581 118.515 117.931 118.278C118.281 118.042 118.457 117.691 118.457 117.227V117.142C118.457 116.242 118.172 115.546 117.604 115.054C117.046 114.562 116.25 114.315 115.218 114.315C114.129 114.315 113.262 114.557 112.618 115.04C111.975 115.513 111.548 116.11 111.34 116.83L105.743 116.375C106.028 115.049 106.586 113.903 107.42 112.938C108.253 111.962 109.328 111.214 110.644 110.693C111.97 110.163 113.504 109.898 115.246 109.898C116.458 109.898 117.618 110.04 118.726 110.324C119.844 110.608 120.833 111.048 121.695 111.645C122.566 112.241 123.253 113.009 123.755 113.946C124.257 114.874 124.508 115.987 124.508 117.284V132H118.769V128.974H118.599C118.248 129.656 117.779 130.258 117.192 130.778C116.605 131.29 115.9 131.692 115.076 131.986C114.252 132.27 113.3 132.412 112.221 132.412ZM113.954 128.236C114.844 128.236 115.63 128.061 116.312 127.71C116.993 127.35 117.529 126.867 117.917 126.261C118.305 125.655 118.499 124.969 118.499 124.202V121.886C118.31 122.009 118.049 122.123 117.718 122.227C117.396 122.322 117.031 122.412 116.624 122.497C116.217 122.573 115.81 122.644 115.403 122.71C114.995 122.767 114.626 122.819 114.295 122.866C113.584 122.971 112.964 123.136 112.434 123.364C111.904 123.591 111.492 123.899 111.198 124.287C110.904 124.666 110.758 125.139 110.758 125.707C110.758 126.531 111.056 127.161 111.653 127.597C112.259 128.023 113.026 128.236 113.954 128.236ZM133.653 119.386V132H127.602V110.182H133.369V114.031H133.625C134.108 112.762 134.918 111.759 136.054 111.02C137.19 110.272 138.568 109.898 140.188 109.898C141.703 109.898 143.024 110.229 144.151 110.892C145.277 111.555 146.153 112.502 146.778 113.733C147.403 114.955 147.716 116.413 147.716 118.108V132H141.665V119.188C141.674 117.852 141.333 116.811 140.642 116.062C139.951 115.305 138.999 114.926 137.787 114.926C136.973 114.926 136.253 115.101 135.628 115.452C135.012 115.802 134.529 116.313 134.179 116.986C133.838 117.649 133.663 118.449 133.653 119.386Z" fill="white"/>
<path d="M28.0157 157.809V151.263H32.3495V152.404H29.3995V153.964H32.0618V155.105H29.3995V157.809H28.0157ZM41.0052 154.536C41.0052 155.25 40.8699 155.857 40.5993 156.358C40.3309 156.858 39.9644 157.241 39.4999 157.505C39.0375 157.767 38.5177 157.898 37.9402 157.898C37.3586 157.898 36.8366 157.766 36.3742 157.502C35.9118 157.238 35.5464 156.855 35.278 156.354C35.0095 155.854 34.8753 155.248 34.8753 154.536C34.8753 153.822 35.0095 153.215 35.278 152.714C35.5464 152.213 35.9118 151.832 36.3742 151.57C36.8366 151.306 37.3586 151.174 37.9402 151.174C38.5177 151.174 39.0375 151.306 39.4999 151.57C39.9644 151.832 40.3309 152.213 40.5993 152.714C40.8699 153.215 41.0052 153.822 41.0052 154.536ZM39.6022 154.536C39.6022 154.074 39.5329 153.684 39.3944 153.366C39.2581 153.049 39.0652 152.808 38.816 152.644C38.5667 152.48 38.2748 152.398 37.9402 152.398C37.6057 152.398 37.3138 152.48 37.0645 152.644C36.8152 152.808 36.6214 153.049 36.4829 153.366C36.3465 153.684 36.2783 154.074 36.2783 154.536C36.2783 154.998 36.3465 155.388 36.4829 155.706C36.6214 156.023 36.8152 156.264 37.0645 156.428C37.3138 156.592 37.6057 156.674 37.9402 156.674C38.2748 156.674 38.5667 156.592 38.816 156.428C39.0652 156.264 39.2581 156.023 39.3944 155.706C39.5329 155.388 39.6022 154.998 39.6022 154.536ZM43.7404 157.809V151.263H46.3227C46.8171 151.263 47.2389 151.352 47.5884 151.528C47.9399 151.703 48.2073 151.951 48.3906 152.273C48.5759 152.593 48.6686 152.969 48.6686 153.401C48.6686 153.836 48.5749 154.21 48.3874 154.523C48.1999 154.834 47.9282 155.073 47.5724 155.239C47.2187 155.405 46.7904 155.488 46.2876 155.488H44.5585V154.376H46.0639C46.3281 154.376 46.5475 154.34 46.7222 154.267C46.897 154.195 47.0269 154.086 47.1122 153.941C47.1995 153.797 47.2432 153.616 47.2432 153.401C47.2432 153.184 47.1995 153.001 47.1122 152.852C47.0269 152.702 46.8959 152.589 46.7191 152.513C46.5443 152.434 46.3238 152.395 46.0575 152.395H45.1242V157.809H43.7404ZM47.2752 154.83L48.9019 157.809H47.3742L45.7826 154.83H47.2752ZM55.1496 157.809V151.263H57.7704C58.2519 151.263 58.6535 151.335 58.9753 151.477C59.297 151.62 59.5388 151.818 59.7008 152.072C59.8627 152.323 59.9436 152.613 59.9436 152.941C59.9436 153.197 59.8925 153.422 59.7902 153.615C59.688 153.807 59.5473 153.965 59.3684 154.088C59.1915 154.21 58.9891 154.296 58.7611 154.347V154.411C59.0104 154.422 59.2437 154.492 59.461 154.622C59.6805 154.752 59.8584 154.934 59.9948 155.169C60.1311 155.401 60.1993 155.678 60.1993 156C60.1993 156.347 60.113 156.657 59.9405 156.93C59.77 157.2 59.5175 157.414 59.183 157.572C58.8485 157.73 58.4362 157.809 57.9461 157.809H55.1496ZM56.5335 156.677H57.6617C58.0473 156.677 58.3286 156.604 58.5054 156.457C58.6823 156.308 58.7707 156.109 58.7707 155.862C58.7707 155.681 58.727 155.521 58.6397 155.383C58.5523 155.244 58.4277 155.136 58.2657 155.057C58.1059 154.978 57.9152 154.939 57.6936 154.939H56.5335V156.677ZM56.5335 154.002H57.5594C57.749 154.002 57.9174 153.969 58.0644 153.903C58.2135 153.835 58.3307 153.739 58.416 153.615C58.5033 153.492 58.547 153.344 58.547 153.171C58.547 152.935 58.4628 152.744 58.2945 152.599C58.1283 152.454 57.8918 152.382 57.585 152.382H56.5335V154.002ZM63.938 157.809H62.4551L64.7146 151.263H66.498L68.7544 157.809H67.2715L65.6319 152.759H65.5808L63.938 157.809ZM63.8453 155.236H67.3482V156.316H63.8453V155.236ZM70.2031 152.404V151.263H75.5788V152.404H73.5749V157.809H72.207V152.404H70.2031ZM77.9249 152.404V151.263H83.3006V152.404H81.2967V157.809H79.9288V152.404H77.9249ZM85.8959 157.809V151.263H90.3064V152.404H87.2797V153.964H90.0795V155.105H87.2797V156.668H90.3192V157.809H85.8959ZM93.1166 157.809V151.263H95.699C96.1933 151.263 96.6152 151.352 96.9646 151.528C97.3162 151.703 97.5836 151.951 97.7668 152.273C97.9522 152.593 98.0449 152.969 98.0449 153.401C98.0449 153.836 97.9511 154.21 97.7636 154.523C97.5761 154.834 97.3045 155.073 96.9486 155.239C96.5949 155.405 96.1667 155.488 95.6638 155.488H93.9348V154.376H95.4401C95.7043 154.376 95.9238 154.34 96.0985 154.267C96.2732 154.195 96.4032 154.086 96.4884 153.941C96.5758 153.797 96.6194 153.616 96.6194 153.401C96.6194 153.184 96.5758 153.001 96.4884 152.852C96.4032 152.702 96.2721 152.589 96.0953 152.513C95.9206 152.434 95.7001 152.395 95.4337 152.395H94.5005V157.809H93.1166ZM96.6514 154.83L98.2782 157.809H96.7505L95.1589 154.83H96.6514ZM104.526 157.809V151.263H108.86V152.404H105.91V153.964H108.572V155.105H105.91V157.809H104.526ZM115.543 151.263H116.927V155.514C116.927 155.991 116.813 156.409 116.585 156.767C116.36 157.125 116.043 157.404 115.636 157.604C115.229 157.802 114.755 157.901 114.214 157.901C113.671 157.901 113.195 157.802 112.789 157.604C112.382 157.404 112.065 157.125 111.839 156.767C111.613 156.409 111.501 155.991 111.501 155.514V151.263H112.884V155.396C112.884 155.645 112.939 155.866 113.047 156.06C113.158 156.254 113.314 156.407 113.514 156.517C113.714 156.628 113.948 156.684 114.214 156.684C114.482 156.684 114.716 156.628 114.914 156.517C115.114 156.407 115.269 156.254 115.377 156.06C115.488 155.866 115.543 155.645 115.543 155.396V151.263ZM119.527 152.404V151.263H124.902V152.404H122.898V157.809H121.531V152.404H119.527ZM131.541 151.263H132.925V155.514C132.925 155.991 132.811 156.409 132.583 156.767C132.357 157.125 132.04 157.404 131.633 157.604C131.226 157.802 130.752 157.901 130.211 157.901C129.668 157.901 129.193 157.802 128.786 157.604C128.379 157.404 128.062 157.125 127.836 156.767C127.611 156.409 127.498 155.991 127.498 155.514V151.263H128.882V155.396C128.882 155.645 128.936 155.866 129.045 156.06C129.155 156.254 129.311 156.407 129.511 156.517C129.711 156.628 129.945 156.684 130.211 156.684C130.48 156.684 130.713 156.628 130.911 156.517C131.111 156.407 131.266 156.254 131.374 156.06C131.485 155.866 131.541 155.645 131.541 155.396V151.263ZM135.524 152.404V151.263H140.9V152.404H138.896V157.809H137.528V152.404H135.524ZM143.495 157.809V151.263H147.905V152.404H144.879V153.964H147.678V155.105H144.879V156.668H147.918V157.809H143.495Z" fill="#888888"/>
<path d="M15.3751 35.318L44.8199 2.26876L75.6159 36.1062L46.1761 69.4302L15.3751 35.318Z" stroke="#F5D206" stroke-width="3"/>
<path d="M81.1915 0H59.906L30.6383 35.234H51.9239L81.1915 0Z" fill="white"/>
<path d="M81.1915 72H59.906L30.6383 35.234H51.9239L81.1915 72Z" fill="white"/>
<path d="M59.7446 0H81.6752L111.83 35.234H89.8992L59.7446 0Z" fill="#EB292C"/>
<path d="M59.7446 72H81.6752L111.83 35.234H89.8992L59.7446 72Z" fill="#EB292C"/>
<rect x="14.0638" y="150.809" width="7" height="7" fill="#F5D206"/>
</svg>
