<svg width="262" height="47" viewBox="0 0 262 47" fill="none" xmlns="http://www.w3.org/2000/svg">
<path d="M107.146 6.18182V28H103.161L93.669 14.2678H93.5092V28H88.8963V6.18182H92.9446L102.362 19.9034H102.554V6.18182H107.146ZM109.757 28V6.18182H124.459V9.98508H114.37V15.1839H123.702V18.9872H114.37V24.1967H124.501V28H109.757ZM138.762 12.4567C138.677 11.5973 138.311 10.9297 137.665 10.4538C137.018 9.97798 136.141 9.74006 135.033 9.74006C134.28 9.74006 133.645 9.84659 133.126 10.0597C132.608 10.2656 132.21 10.5533 131.933 10.9226C131.663 11.2919 131.528 11.7109 131.528 12.1797C131.514 12.5703 131.596 12.9112 131.773 13.2024C131.958 13.4936 132.21 13.7457 132.53 13.9588C132.849 14.1648 133.219 14.3459 133.638 14.5021C134.057 14.6513 134.504 14.7791 134.98 14.8857L136.94 15.3544C137.892 15.5675 138.765 15.8516 139.561 16.2067C140.356 16.5618 141.045 16.9986 141.628 17.517C142.21 18.0355 142.661 18.6463 142.981 19.3494C143.307 20.0526 143.474 20.8587 143.481 21.7678C143.474 23.103 143.133 24.2607 142.459 25.2408C141.791 26.2138 140.825 26.9702 139.561 27.5099C138.304 28.0426 136.787 28.3089 135.012 28.3089C133.251 28.3089 131.716 28.0391 130.41 27.4993C129.11 26.9595 128.094 26.1605 127.363 25.1023C126.638 24.0369 126.258 22.7195 126.223 21.1499H130.687C130.736 21.8814 130.946 22.4922 131.315 22.9822C131.692 23.4652 132.192 23.831 132.817 24.0795C133.449 24.321 134.163 24.4418 134.959 24.4418C135.74 24.4418 136.418 24.3281 136.993 24.1009C137.576 23.8736 138.027 23.5575 138.346 23.1527C138.666 22.7479 138.826 22.2827 138.826 21.7571C138.826 21.267 138.68 20.8551 138.389 20.5213C138.105 20.1875 137.686 19.9034 137.132 19.669C136.585 19.4347 135.914 19.2216 135.118 19.0298L132.743 18.4332C130.903 17.9858 129.451 17.2862 128.386 16.3345C127.32 15.3828 126.791 14.1009 126.798 12.4886C126.791 11.1676 127.143 10.0135 127.853 9.02628C128.57 8.03906 129.554 7.26847 130.804 6.71449C132.054 6.16051 133.474 5.88352 135.065 5.88352C136.685 5.88352 138.098 6.16051 139.305 6.71449C140.52 7.26847 141.464 8.03906 142.139 9.02628C142.814 10.0135 143.162 11.157 143.183 12.4567H138.762ZM148.647 28H143.704L151.236 6.18182H157.18L164.701 28H159.758L154.293 11.1676H154.123L148.647 28ZM148.338 19.424H160.014V23.0249H148.338V19.424ZM169.888 28H164.945L172.477 6.18182H178.422L185.943 28H181L175.535 11.1676H175.364L169.888 28ZM169.579 19.424H181.255V23.0249H169.579V19.424ZM205.618 6.18182V28H201.634L192.142 14.2678H191.982V28H187.369V6.18182H191.417L200.835 19.9034H201.027V6.18182H205.618Z" fill="white"/>
<path d="M105.506 46V40.1818H109.358V41.196H106.736V42.5824H109.102V43.5966H106.736V46H105.506ZM116.732 43.0909C116.732 43.7254 116.612 44.2652 116.371 44.7102C116.133 45.1553 115.807 45.4953 115.394 45.7301C114.983 45.9631 114.521 46.0795 114.008 46.0795C113.49 46.0795 113.026 45.9621 112.615 45.7273C112.204 45.4924 111.88 45.1525 111.641 44.7074C111.402 44.2623 111.283 43.7235 111.283 43.0909C111.283 42.4564 111.402 41.9167 111.641 41.4716C111.88 41.0265 112.204 40.6875 112.615 40.4545C113.026 40.2197 113.49 40.1023 114.008 40.1023C114.521 40.1023 114.983 40.2197 115.394 40.4545C115.807 40.6875 116.133 41.0265 116.371 41.4716C116.612 41.9167 116.732 42.4564 116.732 43.0909ZM115.485 43.0909C115.485 42.6799 115.423 42.3333 115.3 42.0511C115.179 41.7689 115.008 41.5549 114.786 41.4091C114.564 41.2633 114.305 41.1903 114.008 41.1903C113.71 41.1903 113.451 41.2633 113.229 41.4091C113.008 41.5549 112.835 41.7689 112.712 42.0511C112.591 42.3333 112.53 42.6799 112.53 43.0909C112.53 43.5019 112.591 43.8485 112.712 44.1307C112.835 44.4129 113.008 44.6269 113.229 44.7727C113.451 44.9186 113.71 44.9915 114.008 44.9915C114.305 44.9915 114.564 44.9186 114.786 44.7727C115.008 44.6269 115.179 44.4129 115.3 44.1307C115.423 43.8485 115.485 43.5019 115.485 43.0909ZM118.843 46V40.1818H121.139C121.578 40.1818 121.953 40.2604 122.264 40.4176C122.576 40.5729 122.814 40.7936 122.977 41.0795C123.141 41.3636 123.224 41.6979 123.224 42.0824C123.224 42.4687 123.141 42.8011 122.974 43.0795C122.807 43.3561 122.566 43.5682 122.249 43.7159C121.935 43.8636 121.554 43.9375 121.107 43.9375H119.57V42.9489H120.909C121.143 42.9489 121.338 42.9167 121.494 42.8523C121.649 42.7879 121.765 42.6913 121.84 42.5625C121.918 42.4337 121.957 42.2737 121.957 42.0824C121.957 41.8892 121.918 41.7263 121.84 41.5938C121.765 41.4612 121.648 41.3608 121.491 41.2926C121.336 41.2225 121.14 41.1875 120.903 41.1875H120.073V46H118.843ZM121.985 43.3523L123.431 46H122.073L120.659 43.3523H121.985ZM128.345 46V40.1818H130.674C131.102 40.1818 131.459 40.2453 131.745 40.3722C132.031 40.4991 132.246 40.6752 132.39 40.9006C132.534 41.1241 132.606 41.3816 132.606 41.6733C132.606 41.9006 132.561 42.1004 132.47 42.2727C132.379 42.4432 132.254 42.5833 132.095 42.6932C131.938 42.8011 131.758 42.8778 131.555 42.9233V42.9801C131.777 42.9896 131.984 43.0521 132.177 43.1676C132.372 43.2831 132.53 43.4451 132.652 43.6534C132.773 43.8598 132.833 44.1061 132.833 44.392C132.833 44.7008 132.757 44.9763 132.603 45.2188C132.452 45.4593 132.227 45.6496 131.93 45.7898C131.633 45.9299 131.266 46 130.831 46H128.345ZM129.575 44.9943H130.578C130.921 44.9943 131.171 44.929 131.328 44.7983C131.485 44.6657 131.563 44.4896 131.563 44.2699C131.563 44.1089 131.525 43.9669 131.447 43.8438C131.369 43.7206 131.259 43.6241 131.115 43.554C130.973 43.4839 130.803 43.4489 130.606 43.4489H129.575V44.9943ZM129.575 42.6165H130.487C130.655 42.6165 130.805 42.5871 130.936 42.5284C131.068 42.4678 131.172 42.3826 131.248 42.2727C131.326 42.1629 131.365 42.0312 131.365 41.8778C131.365 41.6676 131.29 41.4981 131.14 41.3693C130.992 41.2405 130.782 41.1761 130.51 41.1761H129.575V42.6165ZM135.837 46H134.518L136.527 40.1818H138.112L140.118 46H138.8L137.342 41.5114H137.297L135.837 46ZM135.754 43.7131H138.868V44.6733H135.754V43.7131ZM141.086 41.196V40.1818H145.864V41.196H144.083V46H142.867V41.196H141.086ZM147.629 41.196V40.1818H152.408V41.196H150.627V46H149.411V41.196H147.629ZM154.395 46V40.1818H158.315V41.196H155.625V42.5824H158.113V43.5966H155.625V44.9858H158.327V46H154.395ZM160.493 46V40.1818H162.789C163.228 40.1818 163.603 40.2604 163.914 40.4176C164.226 40.5729 164.464 40.7936 164.627 41.0795C164.791 41.3636 164.874 41.6979 164.874 42.0824C164.874 42.4687 164.791 42.8011 164.624 43.0795C164.457 43.3561 164.216 43.5682 163.899 43.7159C163.585 43.8636 163.204 43.9375 162.757 43.9375H161.22V42.9489H162.559C162.793 42.9489 162.988 42.9167 163.144 42.8523C163.299 42.7879 163.415 42.6913 163.49 42.5625C163.568 42.4337 163.607 42.2737 163.607 42.0824C163.607 41.8892 163.568 41.7263 163.49 41.5938C163.415 41.4612 163.298 41.3608 163.141 41.2926C162.986 41.2225 162.79 41.1875 162.553 41.1875H161.723V46H160.493ZM163.635 43.3523L165.081 46H163.723L162.309 43.3523H163.635ZM169.995 46V40.1818H173.847V41.196H171.225V42.5824H173.591V43.5966H171.225V46H169.995ZM179.468 40.1818H180.698V43.9602C180.698 44.3845 180.597 44.7557 180.394 45.0739C180.194 45.392 179.912 45.6402 179.551 45.8182C179.189 45.9943 178.767 46.0824 178.286 46.0824C177.803 46.0824 177.381 45.9943 177.019 45.8182C176.658 45.6402 176.376 45.392 176.176 45.0739C175.975 44.7557 175.874 44.3845 175.874 43.9602V40.1818H177.105V43.8551C177.105 44.0767 177.153 44.2737 177.249 44.446C177.348 44.6184 177.486 44.7538 177.664 44.8523C177.842 44.9508 178.05 45 178.286 45C178.525 45 178.732 44.9508 178.909 44.8523C179.087 44.7538 179.224 44.6184 179.32 44.446C179.419 44.2737 179.468 44.0767 179.468 43.8551V40.1818ZM182.689 41.196V40.1818H187.467V41.196H185.686V46H184.47V41.196H182.689ZM193.048 40.1818H194.278V43.9602C194.278 44.3845 194.177 44.7557 193.974 45.0739C193.773 45.392 193.492 45.6402 193.13 45.8182C192.769 45.9943 192.347 46.0824 191.866 46.0824C191.383 46.0824 190.961 45.9943 190.599 45.8182C190.237 45.6402 189.956 45.392 189.755 45.0739C189.555 44.7557 189.454 44.3845 189.454 43.9602V40.1818H190.684V43.8551C190.684 44.0767 190.733 44.2737 190.829 44.446C190.928 44.6184 191.066 44.7538 191.244 44.8523C191.422 44.9508 191.629 45 191.866 45C192.105 45 192.312 44.9508 192.488 44.8523C192.666 44.7538 192.804 44.6184 192.9 44.446C192.999 44.2737 193.048 44.0767 193.048 43.8551V40.1818ZM196.268 41.196V40.1818H201.047V41.196H199.266V46H198.05V41.196H196.268ZM203.034 46V40.1818H206.954V41.196H204.264V42.5824H206.753V43.5966H204.264V44.9858H206.966V46H203.034Z" fill="#888888"/>
<path d="M10.745 23.0531L29.2625 2.26876L48.6521 23.5732L30.1377 44.5304L10.745 23.0531Z" stroke="#FF9900" stroke-width="3"/>
<path d="M40 0H53.8947L73 23H59.1053L40 0Z" fill="white"/>
<path d="M40 47H53.8947L73 23H59.1053L40 47Z" fill="white"/>
<path d="M54 0H39.6842L20 23H34.3158L54 0Z" fill="#EB292C"/>
<path d="M54 47H39.6842L20 23H34.3158L54 47Z" fill="#EB292C"/>
<rect x="89" y="40" width="7" height="7" fill="#FF9900"/>
</svg>
