<svg width="263" height="47" viewBox="0 0 263 47" fill="none" xmlns="http://www.w3.org/2000/svg">
<path d="M107.146 6.18182V28H103.161L93.669 14.2678H93.5092V28H88.8963V6.18182H92.9446L102.362 19.9034H102.554V6.18182H107.146ZM109.757 28V6.18182H124.459V9.98508H114.37V15.1839H123.702V18.9872H114.37V24.1967H124.501V28H109.757ZM138.762 12.4567C138.677 11.5973 138.311 10.9297 137.665 10.4538C137.018 9.97798 136.141 9.74006 135.033 9.74006C134.28 9.74006 133.645 9.84659 133.126 10.0597C132.608 10.2656 132.21 10.5533 131.933 10.9226C131.663 11.2919 131.528 11.7109 131.528 12.1797C131.514 12.5703 131.596 12.9112 131.773 13.2024C131.958 13.4936 132.21 13.7457 132.53 13.9588C132.849 14.1648 133.219 14.3459 133.638 14.5021C134.057 14.6513 134.504 14.7791 134.98 14.8857L136.94 15.3544C137.892 15.5675 138.765 15.8516 139.561 16.2067C140.356 16.5618 141.045 16.9986 141.628 17.517C142.21 18.0355 142.661 18.6463 142.981 19.3494C143.307 20.0526 143.474 20.8587 143.481 21.7678C143.474 23.103 143.133 24.2607 142.459 25.2408C141.791 26.2138 140.825 26.9702 139.561 27.5099C138.304 28.0426 136.787 28.3089 135.012 28.3089C133.251 28.3089 131.716 28.0391 130.41 27.4993C129.11 26.9595 128.094 26.1605 127.363 25.1023C126.638 24.0369 126.258 22.7195 126.223 21.1499H130.687C130.736 21.8814 130.946 22.4922 131.315 22.9822C131.692 23.4652 132.192 23.831 132.817 24.0795C133.449 24.321 134.163 24.4418 134.959 24.4418C135.74 24.4418 136.418 24.3281 136.993 24.1009C137.576 23.8736 138.027 23.5575 138.346 23.1527C138.666 22.7479 138.826 22.2827 138.826 21.7571C138.826 21.267 138.68 20.8551 138.389 20.5213C138.105 20.1875 137.686 19.9034 137.132 19.669C136.585 19.4347 135.914 19.2216 135.118 19.0298L132.743 18.4332C130.903 17.9858 129.451 17.2862 128.386 16.3345C127.32 15.3828 126.791 14.1009 126.798 12.4886C126.791 11.1676 127.143 10.0135 127.853 9.02628C128.57 8.03906 129.554 7.26847 130.804 6.71449C132.054 6.16051 133.474 5.88352 135.065 5.88352C136.685 5.88352 138.098 6.16051 139.305 6.71449C140.52 7.26847 141.464 8.03906 142.139 9.02628C142.814 10.0135 143.162 11.157 143.183 12.4567H138.762ZM164.635 13.8203H159.969C159.883 13.2166 159.709 12.6804 159.447 12.2116C159.184 11.7358 158.847 11.331 158.435 10.9972C158.023 10.6634 157.547 10.4077 157.007 10.2301C156.474 10.0526 155.896 9.96378 155.271 9.96378C154.141 9.96378 153.158 10.2443 152.32 10.8054C151.482 11.3594 150.832 12.169 150.37 13.2344C149.908 14.2926 149.678 15.5781 149.678 17.0909C149.678 18.6463 149.908 19.9531 150.37 21.0114C150.839 22.0696 151.492 22.8686 152.33 23.4084C153.168 23.9482 154.138 24.218 155.239 24.218C155.857 24.218 156.428 24.1364 156.954 23.973C157.486 23.8097 157.959 23.5717 158.371 23.2592C158.783 22.9396 159.124 22.5526 159.393 22.098C159.67 21.6435 159.862 21.125 159.969 20.5426L164.635 20.5639C164.514 21.5653 164.212 22.5312 163.729 23.4616C163.254 24.3849 162.611 25.2124 161.801 25.9439C160.999 26.6683 160.04 27.2436 158.925 27.6697C157.817 28.0888 156.563 28.2983 155.164 28.2983C153.218 28.2983 151.478 27.858 149.944 26.9773C148.417 26.0966 147.209 24.8217 146.322 23.1527C145.441 21.4837 145.001 19.4631 145.001 17.0909C145.001 14.7116 145.448 12.6875 146.343 11.0185C147.238 9.34943 148.452 8.07812 149.986 7.20455C151.521 6.32386 153.246 5.88352 155.164 5.88352C156.428 5.88352 157.6 6.06108 158.68 6.41619C159.766 6.77131 160.729 7.28977 161.567 7.97159C162.405 8.64631 163.087 9.47372 163.612 10.4538C164.145 11.4339 164.486 12.5561 164.635 13.8203ZM166.743 28V6.18182H175.351C176.998 6.18182 178.405 6.47656 179.569 7.06605C180.741 7.64844 181.633 8.47585 182.243 9.5483C182.861 10.6136 183.17 11.8672 183.17 13.3089C183.17 14.7578 182.858 16.0043 182.233 17.0483C181.608 18.0852 180.702 18.8807 179.516 19.4347C178.337 19.9886 176.91 20.2656 175.234 20.2656H169.47V16.5582H174.488C175.368 16.5582 176.1 16.4375 176.682 16.196C177.265 15.9545 177.698 15.5923 177.982 15.1094C178.273 14.6264 178.419 14.0263 178.419 13.3089C178.419 12.5845 178.273 11.9737 177.982 11.4766C177.698 10.9794 177.261 10.603 176.672 10.3473C176.089 10.0845 175.354 9.95312 174.467 9.95312H171.356V28H166.743ZM178.525 18.071L183.948 28H178.856L173.55 18.071H178.525ZM183.044 6.18182H188.211L193.186 15.5781H193.399L198.374 6.18182H203.541L195.583 20.2869V28H191.002V20.2869L183.044 6.18182ZM204.86 28V6.18182H213.468C215.123 6.18182 216.533 6.49787 217.698 7.12997C218.863 7.75497 219.75 8.625 220.361 9.74006C220.979 10.848 221.288 12.1264 221.288 13.5753C221.288 15.0241 220.975 16.3026 220.35 17.4105C219.725 18.5185 218.82 19.3814 217.634 19.9993C216.455 20.6172 215.027 20.9261 213.351 20.9261H207.865V17.2294H212.605C213.493 17.2294 214.225 17.0767 214.8 16.7713C215.382 16.4588 215.816 16.0291 216.1 15.4822C216.391 14.9283 216.537 14.2926 216.537 13.5753C216.537 12.8509 216.391 12.2187 216.1 11.679C215.816 11.1321 215.382 10.7095 214.8 10.4112C214.218 10.1058 213.479 9.95312 212.584 9.95312H209.473V28H204.86ZM222.253 9.98508V6.18182H240.172V9.98508H233.493V28H228.933V9.98508H222.253ZM260.977 17.0909C260.977 19.4702 260.526 21.4943 259.624 23.1634C258.729 24.8324 257.507 26.1072 255.959 26.9879C254.418 27.8615 252.685 28.2983 250.76 28.2983C248.821 28.2983 247.081 27.858 245.54 26.9773C243.999 26.0966 242.781 24.8217 241.886 23.1527C240.991 21.4837 240.544 19.4631 240.544 17.0909C240.544 14.7116 240.991 12.6875 241.886 11.0185C242.781 9.34943 243.999 8.07812 245.54 7.20455C247.081 6.32386 248.821 5.88352 250.76 5.88352C252.685 5.88352 254.418 6.32386 255.959 7.20455C257.507 8.07812 258.729 9.34943 259.624 11.0185C260.526 12.6875 260.977 14.7116 260.977 17.0909ZM256.3 17.0909C256.3 15.5497 256.069 14.25 255.608 13.1918C255.153 12.1335 254.51 11.331 253.679 10.7841C252.848 10.2372 251.875 9.96378 250.76 9.96378C249.645 9.96378 248.672 10.2372 247.841 10.7841C247.01 11.331 246.364 12.1335 245.902 13.1918C245.448 14.25 245.22 15.5497 245.22 17.0909C245.22 18.6321 245.448 19.9318 245.902 20.9901C246.364 22.0483 247.01 22.8509 247.841 23.3977C248.672 23.9446 249.645 24.218 250.76 24.218C251.875 24.218 252.848 23.9446 253.679 23.3977C254.51 22.8509 255.153 22.0483 255.608 20.9901C256.069 19.9318 256.3 18.6321 256.3 17.0909Z" fill="white"/>
<path d="M105.632 44V36.7273H110.447V37.995H107.17V39.728H110.128V40.9957H107.17V44H105.632ZM121.365 40.3636C121.365 41.1567 121.215 41.8314 120.914 42.3878C120.616 42.9441 120.208 43.3691 119.692 43.6626C119.179 43.9538 118.601 44.0994 117.959 44.0994C117.313 44.0994 116.733 43.9527 116.219 43.6591C115.706 43.3655 115.3 42.9406 115.001 42.3842C114.703 41.8279 114.554 41.1544 114.554 40.3636C114.554 39.5705 114.703 38.8958 115.001 38.3395C115.3 37.7831 115.706 37.3594 116.219 37.0682C116.733 36.7746 117.313 36.6278 117.959 36.6278C118.601 36.6278 119.179 36.7746 119.692 37.0682C120.208 37.3594 120.616 37.7831 120.914 38.3395C121.215 38.8958 121.365 39.5705 121.365 40.3636ZM119.806 40.3636C119.806 39.8499 119.729 39.4167 119.575 39.0639C119.424 38.7112 119.209 38.4437 118.932 38.2614C118.655 38.0791 118.331 37.9879 117.959 37.9879C117.588 37.9879 117.263 38.0791 116.986 38.2614C116.709 38.4437 116.494 38.7112 116.34 39.0639C116.189 39.4167 116.113 39.8499 116.113 40.3636C116.113 40.8774 116.189 41.3106 116.34 41.6634C116.494 42.0161 116.709 42.2836 116.986 42.4659C117.263 42.6482 117.588 42.7393 117.959 42.7393C118.331 42.7393 118.655 42.6482 118.932 42.4659C119.209 42.2836 119.424 42.0161 119.575 41.6634C119.729 41.3106 119.806 40.8774 119.806 40.3636ZM125.704 44V36.7273H128.573C129.123 36.7273 129.591 36.8255 129.98 37.022C130.37 37.2161 130.667 37.492 130.871 37.8494C131.077 38.2045 131.18 38.6224 131.18 39.103C131.18 39.5859 131.076 40.0014 130.867 40.3494C130.659 40.6951 130.357 40.9602 129.962 41.1449C129.569 41.3295 129.093 41.4219 128.534 41.4219H126.613V40.1861H128.286C128.579 40.1861 128.823 40.1458 129.017 40.0653C129.211 39.9848 129.356 39.8641 129.45 39.7031C129.547 39.5421 129.596 39.3421 129.596 39.103C129.596 38.8615 129.547 38.6579 129.45 38.4922C129.356 38.3265 129.21 38.201 129.014 38.1158C128.82 38.0282 128.574 37.9844 128.279 37.9844H127.242V44H125.704ZM129.632 40.6903L131.439 44H129.742L127.973 40.6903H129.632ZM140.981 44V36.7273H143.893C144.428 36.7273 144.874 36.8066 145.232 36.9652C145.589 37.1238 145.858 37.344 146.038 37.6257C146.218 37.9051 146.308 38.227 146.308 38.5916C146.308 38.8757 146.251 39.1255 146.137 39.3409C146.024 39.554 145.867 39.7292 145.668 39.8665C145.472 40.0014 145.247 40.0973 144.994 40.1541V40.2251C145.271 40.237 145.53 40.3151 145.771 40.4595C146.015 40.6039 146.213 40.8063 146.364 41.0668C146.516 41.3248 146.592 41.6326 146.592 41.9901C146.592 42.3759 146.496 42.7204 146.304 43.0234C146.115 43.3241 145.834 43.562 145.462 43.7372C145.091 43.9124 144.633 44 144.088 44H140.981ZM142.519 42.7429H143.772C144.201 42.7429 144.513 42.6612 144.71 42.4979C144.906 42.3321 145.004 42.112 145.004 41.8374C145.004 41.6361 144.956 41.4586 144.859 41.3047C144.762 41.1508 144.623 41.0301 144.443 40.9425C144.266 40.8549 144.054 40.8111 143.808 40.8111H142.519V42.7429ZM142.519 39.7706H143.658C143.869 39.7706 144.056 39.7339 144.22 39.6605C144.385 39.5848 144.515 39.4782 144.61 39.3409C144.707 39.2036 144.756 39.0391 144.756 38.8473C144.756 38.5845 144.662 38.3726 144.475 38.2116C144.291 38.0507 144.028 37.9702 143.687 37.9702H142.519V39.7706ZM152.046 44H150.398L152.909 36.7273H154.89L157.397 44H155.75L153.928 38.3892H153.871L152.046 44ZM151.943 41.1413H155.835V42.3416H151.943V41.1413ZM160.307 37.995V36.7273H166.28V37.995H164.054V44H162.534V37.995H160.307ZM170.187 37.995V36.7273H176.16V37.995H173.933V44H172.413V37.995H170.187ZM180.343 44V36.7273H185.244V37.995H181.881V39.728H184.992V40.9957H181.881V42.7322H185.258V44H180.343ZM189.666 44V36.7273H192.536C193.085 36.7273 193.554 36.8255 193.942 37.022C194.333 37.2161 194.63 37.492 194.833 37.8494C195.039 38.2045 195.142 38.6224 195.142 39.103C195.142 39.5859 195.038 40.0014 194.83 40.3494C194.621 40.6951 194.32 40.9602 193.924 41.1449C193.531 41.3295 193.055 41.4219 192.497 41.4219H190.576V40.1861H192.248C192.542 40.1861 192.786 40.1458 192.98 40.0653C193.174 39.9848 193.318 39.8641 193.413 39.7031C193.51 39.5421 193.559 39.3421 193.559 39.103C193.559 38.8615 193.51 38.6579 193.413 38.4922C193.318 38.3265 193.173 38.201 192.976 38.1158C192.782 38.0282 192.537 37.9844 192.241 37.9844H191.204V44H189.666ZM193.594 40.6903L195.402 44H193.704L191.936 40.6903H193.594ZM204.943 44V36.7273H209.759V37.995H206.481V39.728H209.439V40.9957H206.481V44H204.943ZM218.485 36.7273H220.023V41.4503C220.023 41.9806 219.896 42.4446 219.643 42.8423C219.392 43.2401 219.04 43.5502 218.588 43.7727C218.136 43.9929 217.609 44.103 217.008 44.103C216.404 44.103 215.876 43.9929 215.424 43.7727C214.972 43.5502 214.62 43.2401 214.369 42.8423C214.119 42.4446 213.993 41.9806 213.993 41.4503V36.7273H215.531V41.3189C215.531 41.5959 215.591 41.8421 215.712 42.0575C215.835 42.273 216.008 42.4422 216.23 42.5653C216.453 42.6884 216.712 42.75 217.008 42.75C217.306 42.75 217.565 42.6884 217.786 42.5653C218.008 42.4422 218.18 42.273 218.301 42.0575C218.424 41.8421 218.485 41.5959 218.485 41.3189V36.7273ZM224.211 37.995V36.7273H230.184V37.995H227.957V44H226.438V37.995H224.211ZM238.86 36.7273H240.397V41.4503C240.397 41.9806 240.271 42.4446 240.018 42.8423C239.767 43.2401 239.415 43.5502 238.963 43.7727C238.511 43.9929 237.984 44.103 237.383 44.103C236.779 44.103 236.251 43.9929 235.799 43.7727C235.347 43.5502 234.995 43.2401 234.744 42.8423C234.493 42.4446 234.368 41.9806 234.368 41.4503V36.7273H235.905V41.3189C235.905 41.5959 235.966 41.8421 236.086 42.0575C236.21 42.273 236.382 42.4422 236.605 42.5653C236.827 42.6884 237.087 42.75 237.383 42.75C237.681 42.75 237.94 42.6884 238.16 42.5653C238.383 42.4422 238.554 42.273 238.675 42.0575C238.798 41.8421 238.86 41.5959 238.86 41.3189V36.7273ZM244.586 37.995V36.7273H250.559V37.995H248.332V44H246.812V37.995H244.586ZM254.742 44V36.7273H259.643V37.995H256.28V39.728H259.391V40.9957H256.28V42.7322H259.657V44H254.742Z" fill="#888888"/>
<path d="M10.745 23.0531L29.2625 2.26876L48.6521 23.5732L30.1377 44.5304L10.745 23.0531Z" stroke="#FF9900" stroke-width="3"/>
<path d="M40 0H53.8947L73 23H59.1053L40 0Z" fill="white"/>
<path d="M40 47H53.8947L73 23H59.1053L40 47Z" fill="white"/>
<path d="M54 0H39.6842L20 23H34.3158L54 0Z" fill="#EB292C"/>
<path d="M54 47H39.6842L20 23H34.3158L54 47Z" fill="#EB292C"/>
<rect x="89" y="37" width="7" height="7" fill="#FF9900"/>
</svg>
