<svg width="195" height="47" viewBox="0 0 195 47" fill="none" xmlns="http://www.w3.org/2000/svg">
<path d="M100.146 6.18182V28H96.1612L86.669 14.2678H86.5092V28H81.8963V6.18182H85.9446L95.3622 19.9034H95.554V6.18182H100.146ZM110.129 28.3196C108.446 28.3196 106.997 27.9787 105.782 27.2969C104.575 26.608 103.645 25.6349 102.991 24.3778C102.338 23.1136 102.011 21.6186 102.011 19.8928C102.011 18.2095 102.338 16.7322 102.991 15.4609C103.645 14.1896 104.564 13.1989 105.75 12.4886C106.944 11.7784 108.343 11.4233 109.948 11.4233C111.027 11.4233 112.032 11.5973 112.963 11.9453C113.9 12.2862 114.717 12.8011 115.413 13.4901C116.116 14.179 116.663 15.0455 117.054 16.0895C117.444 17.1264 117.64 18.3409 117.64 19.733V20.9794H103.822V18.1669H113.368C113.368 17.5135 113.226 16.9347 112.942 16.4304C112.657 15.9261 112.263 15.532 111.759 15.2479C111.262 14.9567 110.683 14.8111 110.022 14.8111C109.334 14.8111 108.723 14.9709 108.19 15.2905C107.665 15.603 107.253 16.0256 106.954 16.5582C106.656 17.0838 106.503 17.6697 106.496 18.3161V20.9901C106.496 21.7997 106.645 22.4993 106.944 23.0888C107.249 23.6783 107.679 24.1328 108.233 24.4524C108.787 24.772 109.444 24.9318 110.204 24.9318C110.708 24.9318 111.169 24.8608 111.589 24.7188C112.008 24.5767 112.366 24.3636 112.665 24.0795C112.963 23.7955 113.19 23.4474 113.346 23.0355L117.544 23.3125C117.331 24.321 116.894 25.2017 116.233 25.9545C115.58 26.7003 114.735 27.2827 113.698 27.7017C112.668 28.1136 111.478 28.3196 110.129 28.3196ZM133.016 16.3026L128.862 16.5582C128.791 16.2031 128.638 15.8835 128.403 15.5994C128.169 15.3082 127.86 15.0774 127.477 14.907C127.1 14.7294 126.649 14.6406 126.124 14.6406C125.42 14.6406 124.827 14.7898 124.344 15.0881C123.862 15.3793 123.62 15.7699 123.62 16.2599C123.62 16.6506 123.776 16.9808 124.089 17.2507C124.401 17.5206 124.938 17.7372 125.697 17.9006L128.659 18.4972C130.25 18.8239 131.436 19.3494 132.217 20.0739C132.999 20.7983 133.389 21.75 133.389 22.929C133.389 24.0014 133.073 24.9425 132.441 25.7521C131.816 26.5618 130.957 27.1939 129.863 27.6484C128.776 28.0959 127.523 28.3196 126.102 28.3196C123.936 28.3196 122.21 27.8686 120.925 26.9666C119.646 26.0575 118.897 24.8217 118.677 23.2592L123.141 23.0249C123.276 23.6854 123.602 24.1896 124.121 24.5376C124.639 24.8786 125.303 25.049 126.113 25.049C126.908 25.049 127.548 24.8963 128.031 24.5909C128.521 24.2784 128.769 23.8771 128.776 23.3871C128.769 22.9751 128.595 22.6378 128.254 22.375C127.913 22.1051 127.388 21.8991 126.678 21.7571L123.844 21.1925C122.246 20.8729 121.056 20.3189 120.275 19.5305C119.501 18.7422 119.114 17.7372 119.114 16.5156C119.114 15.4645 119.398 14.5589 119.966 13.799C120.541 13.0391 121.347 12.4531 122.384 12.0412C123.428 11.6293 124.65 11.4233 126.049 11.4233C128.116 11.4233 129.742 11.8601 130.928 12.7337C132.121 13.6072 132.818 14.7969 133.016 16.3026ZM139.713 28.3089C138.669 28.3089 137.739 28.1278 136.922 27.7656C136.105 27.3963 135.459 26.853 134.983 26.1357C134.514 25.4112 134.28 24.5092 134.28 23.4297C134.28 22.5206 134.447 21.7571 134.781 21.1392C135.114 20.5213 135.569 20.0241 136.144 19.6477C136.72 19.2713 137.373 18.9872 138.105 18.7955C138.843 18.6037 139.617 18.4688 140.427 18.3906C141.379 18.2912 142.146 18.1989 142.728 18.1136C143.311 18.0213 143.733 17.8864 143.996 17.7088C144.259 17.5312 144.39 17.2685 144.39 16.9205V16.8565C144.39 16.1818 144.177 15.6598 143.751 15.2905C143.332 14.9212 142.735 14.7365 141.961 14.7365C141.144 14.7365 140.494 14.9176 140.012 15.2798C139.529 15.6349 139.209 16.0824 139.053 16.6222L134.855 16.2812C135.068 15.2869 135.487 14.4276 136.112 13.7031C136.737 12.9716 137.543 12.4105 138.531 12.0199C139.525 11.6222 140.676 11.4233 141.982 11.4233C142.891 11.4233 143.762 11.5298 144.592 11.7429C145.431 11.956 146.173 12.2862 146.819 12.7337C147.472 13.1811 147.987 13.7564 148.364 14.4595C148.74 15.1555 148.928 15.9901 148.928 16.9631V28H144.624V25.7308H144.497C144.234 26.2422 143.882 26.6932 143.442 27.0838C143.002 27.4673 142.472 27.7692 141.855 27.9893C141.237 28.2024 140.523 28.3089 139.713 28.3089ZM141.013 25.1768C141.681 25.1768 142.27 25.0455 142.781 24.7827C143.293 24.5128 143.694 24.1506 143.985 23.696C144.276 23.2415 144.422 22.7266 144.422 22.1513V20.4148C144.28 20.5071 144.085 20.5923 143.836 20.6705C143.595 20.7415 143.321 20.8089 143.016 20.8729C142.71 20.9297 142.405 20.983 142.1 21.0327C141.794 21.0753 141.517 21.1143 141.269 21.1499C140.736 21.228 140.271 21.3523 139.873 21.5227C139.475 21.6932 139.166 21.924 138.946 22.2152C138.726 22.4993 138.616 22.8544 138.616 23.2805C138.616 23.8984 138.84 24.3707 139.287 24.6974C139.742 25.017 140.317 25.1768 141.013 25.1768ZM155.916 28.3089C154.872 28.3089 153.941 28.1278 153.124 27.7656C152.308 27.3963 151.661 26.853 151.185 26.1357C150.717 25.4112 150.482 24.5092 150.482 23.4297C150.482 22.5206 150.649 21.7571 150.983 21.1392C151.317 20.5213 151.771 20.0241 152.347 19.6477C152.922 19.2713 153.575 18.9872 154.307 18.7955C155.046 18.6037 155.82 18.4688 156.629 18.3906C157.581 18.2912 158.348 18.1989 158.93 18.1136C159.513 18.0213 159.935 17.8864 160.198 17.7088C160.461 17.5312 160.592 17.2685 160.592 16.9205V16.8565C160.592 16.1818 160.379 15.6598 159.953 15.2905C159.534 14.9212 158.938 14.7365 158.163 14.7365C157.347 14.7365 156.697 14.9176 156.214 15.2798C155.731 15.6349 155.411 16.0824 155.255 16.6222L151.058 16.2812C151.271 15.2869 151.69 14.4276 152.315 13.7031C152.94 12.9716 153.746 12.4105 154.733 12.0199C155.727 11.6222 156.878 11.4233 158.185 11.4233C159.094 11.4233 159.964 11.5298 160.795 11.7429C161.633 11.956 162.375 12.2862 163.021 12.7337C163.675 13.1811 164.19 13.7564 164.566 14.4595C164.943 15.1555 165.131 15.9901 165.131 16.9631V28H160.827V25.7308H160.699C160.436 26.2422 160.085 26.6932 159.644 27.0838C159.204 27.4673 158.675 27.7692 158.057 27.9893C157.439 28.2024 156.725 28.3089 155.916 28.3089ZM157.215 25.1768C157.883 25.1768 158.472 25.0455 158.984 24.7827C159.495 24.5128 159.896 24.1506 160.188 23.696C160.479 23.2415 160.624 22.7266 160.624 22.1513V20.4148C160.482 20.5071 160.287 20.5923 160.038 20.6705C159.797 20.7415 159.524 20.8089 159.218 20.8729C158.913 20.9297 158.607 20.983 158.302 21.0327C157.997 21.0753 157.72 21.1143 157.471 21.1499C156.938 21.228 156.473 21.3523 156.075 21.5227C155.678 21.6932 155.369 21.924 155.149 22.2152C154.928 22.4993 154.818 22.8544 154.818 23.2805C154.818 23.8984 155.042 24.3707 155.489 24.6974C155.944 25.017 156.519 25.1768 157.215 25.1768ZM171.99 18.5398V28H167.452V11.6364H171.777V14.5234H171.969C172.331 13.5717 172.938 12.8189 173.79 12.2649C174.643 11.7038 175.676 11.4233 176.891 11.4233C178.027 11.4233 179.018 11.6719 179.863 12.169C180.708 12.6662 181.365 13.3764 181.834 14.2997C182.303 15.2159 182.537 16.3097 182.537 17.581V28H177.999V18.3906C178.006 17.3892 177.75 16.608 177.232 16.0469C176.713 15.4787 175.999 15.1946 175.09 15.1946C174.479 15.1946 173.94 15.326 173.471 15.5888C173.009 15.8516 172.647 16.2351 172.384 16.7393C172.129 17.2365 171.997 17.8366 171.99 18.5398Z" fill="#222222"/>
<path d="M90.5689 45V38.4545H94.9027V39.5955H91.9528V41.1552H94.6151V42.2962H91.9528V45H90.5689ZM101.848 41.7273C101.848 42.4411 101.713 43.0483 101.443 43.549C101.174 44.0497 100.808 44.4322 100.343 44.6964C99.8808 44.9585 99.3609 45.0895 98.7835 45.0895C98.2018 45.0895 97.6798 44.9574 97.2174 44.6932C96.7551 44.429 96.3896 44.0465 96.1212 43.5458C95.8527 43.0451 95.7185 42.4389 95.7185 41.7273C95.7185 41.0135 95.8527 40.4062 96.1212 39.9055C96.3896 39.4048 96.7551 39.0234 97.2174 38.7614C97.6798 38.4972 98.2018 38.3651 98.7835 38.3651C99.3609 38.3651 99.8808 38.4972 100.343 38.7614C100.808 39.0234 101.174 39.4048 101.443 39.9055C101.713 40.4062 101.848 41.0135 101.848 41.7273ZM100.445 41.7273C100.445 41.2649 100.376 40.875 100.238 40.5575C100.101 40.2401 99.9085 39.9993 99.6592 39.8352C99.4099 39.6712 99.118 39.5891 98.7835 39.5891C98.449 39.5891 98.157 39.6712 97.9078 39.8352C97.6585 39.9993 97.4646 40.2401 97.3261 40.5575C97.1897 40.875 97.1215 41.2649 97.1215 41.7273C97.1215 42.1896 97.1897 42.5795 97.3261 42.897C97.4646 43.2145 97.6585 43.4553 97.9078 43.6193C98.157 43.7834 98.449 43.8654 98.7835 43.8654C99.118 43.8654 99.4099 43.7834 99.6592 43.6193C99.9085 43.4553 100.101 43.2145 100.238 42.897C100.376 42.5795 100.445 42.1896 100.445 41.7273ZM102.874 45V38.4545H105.456C105.95 38.4545 106.372 38.543 106.722 38.7198C107.073 38.8945 107.341 39.1428 107.524 39.4645C107.709 39.7841 107.802 40.1602 107.802 40.5927C107.802 41.0273 107.708 41.4013 107.521 41.7145C107.333 42.0256 107.061 42.2642 106.706 42.4304C106.352 42.5966 105.924 42.6797 105.421 42.6797H103.692V41.5675H105.197C105.461 41.5675 105.681 41.5312 105.855 41.4588C106.03 41.3864 106.16 41.2777 106.245 41.1328C106.333 40.9879 106.376 40.8079 106.376 40.5927C106.376 40.3754 106.333 40.1921 106.245 40.043C106.16 39.8938 106.029 39.7809 105.852 39.7042C105.678 39.6254 105.457 39.5859 105.191 39.5859H104.257V45H102.874ZM106.408 42.0213L108.035 45H106.507L104.916 42.0213H106.408ZM110.863 45V38.4545H113.484C113.965 38.4545 114.367 38.5259 114.688 38.6687C115.01 38.8114 115.252 39.0096 115.414 39.2631C115.576 39.5146 115.657 39.8043 115.657 40.1325C115.657 40.3881 115.606 40.6129 115.503 40.8068C115.401 40.9986 115.261 41.1562 115.082 41.2798C114.905 41.4013 114.702 41.4876 114.474 41.5387V41.6026C114.724 41.6133 114.957 41.6836 115.174 41.8136C115.394 41.9435 115.572 42.1257 115.708 42.3601C115.844 42.5923 115.913 42.8693 115.913 43.1911C115.913 43.5384 115.826 43.8484 115.654 44.1211C115.483 44.3917 115.231 44.6058 114.896 44.7635C114.562 44.9212 114.149 45 113.659 45H110.863ZM112.247 43.8686H113.375C113.761 43.8686 114.042 43.7951 114.219 43.6481C114.396 43.4989 114.484 43.3008 114.484 43.0536C114.484 42.8725 114.44 42.7127 114.353 42.5742C114.266 42.4357 114.141 42.3271 113.979 42.2482C113.819 42.1694 113.628 42.13 113.407 42.13H112.247V43.8686ZM112.247 41.1935H113.273C113.462 41.1935 113.631 41.1605 113.778 41.0945C113.927 41.0263 114.044 40.9304 114.129 40.8068C114.217 40.6832 114.26 40.5352 114.26 40.3626C114.26 40.1261 114.176 39.9354 114.008 39.7905C113.842 39.6456 113.605 39.5732 113.298 39.5732H112.247V41.1935ZM117.941 45H116.458L118.718 38.4545H120.501L122.758 45H121.275L119.635 39.9503H119.584L117.941 45ZM117.849 42.4272H121.351V43.5075H117.849V42.4272ZM122.496 39.5955V38.4545H127.872V39.5955H125.868V45H124.5V39.5955H122.496ZM128.508 39.5955V38.4545H133.884V39.5955H131.88V45H130.512V39.5955H128.508ZM134.769 45V38.4545H139.18V39.5955H136.153V41.1552H138.953V42.2962H136.153V43.859H139.192V45H134.769ZM140.28 45V38.4545H142.862C143.357 38.4545 143.778 38.543 144.128 38.7198C144.479 38.8945 144.747 39.1428 144.93 39.4645C145.115 39.7841 145.208 40.1602 145.208 40.5927C145.208 41.0273 145.114 41.4013 144.927 41.7145C144.739 42.0256 144.468 42.2642 144.112 42.4304C143.758 42.5966 143.33 42.6797 142.827 42.6797H141.098V41.5675H142.603C142.868 41.5675 143.087 41.5312 143.262 41.4588C143.436 41.3864 143.566 41.2777 143.652 41.1328C143.739 40.9879 143.783 40.8079 143.783 40.5927C143.783 40.3754 143.739 40.1921 143.652 40.043C143.566 39.8938 143.435 39.7809 143.259 39.7042C143.084 39.6254 142.863 39.5859 142.597 39.5859H141.664V45H140.28ZM143.815 42.0213L145.441 45H143.914L142.322 42.0213H143.815ZM148.269 45V38.4545H152.603V39.5955H149.653V41.1552H152.315V42.2962H149.653V45H148.269ZM157.577 38.4545H158.961V42.7053C158.961 43.1825 158.847 43.6001 158.619 43.9581C158.393 44.3161 158.076 44.5952 157.669 44.7955C157.262 44.9936 156.788 45.0927 156.247 45.0927C155.704 45.0927 155.229 44.9936 154.822 44.7955C154.415 44.5952 154.098 44.3161 153.873 43.9581C153.647 43.6001 153.534 43.1825 153.534 42.7053V38.4545H154.918V42.587C154.918 42.8363 154.972 43.0579 155.081 43.2518C155.191 43.4457 155.347 43.598 155.547 43.7088C155.748 43.8196 155.981 43.875 156.247 43.875C156.516 43.875 156.749 43.8196 156.947 43.7088C157.147 43.598 157.302 43.4457 157.411 43.2518C157.521 43.0579 157.577 42.8363 157.577 42.587V38.4545ZM159.85 39.5955V38.4545H165.226V39.5955H163.222V45H161.854V39.5955H159.85ZM170.154 38.4545H171.538V42.7053C171.538 43.1825 171.424 43.6001 171.196 43.9581C170.97 44.3161 170.653 44.5952 170.247 44.7955C169.84 44.9936 169.366 45.0927 168.824 45.0927C168.281 45.0927 167.806 44.9936 167.399 44.7955C166.992 44.5952 166.676 44.3161 166.45 43.9581C166.224 43.6001 166.111 43.1825 166.111 42.7053V38.4545H167.495V42.587C167.495 42.8363 167.549 43.0579 167.658 43.2518C167.769 43.4457 167.924 43.598 168.124 43.7088C168.325 43.8196 168.558 43.875 168.824 43.875C169.093 43.875 169.326 43.8196 169.524 43.7088C169.725 43.598 169.879 43.4457 169.988 43.2518C170.098 43.0579 170.154 42.8363 170.154 42.587V38.4545ZM172.427 39.5955V38.4545H177.803V39.5955H175.799V45H174.431V39.5955H172.427ZM178.688 45V38.4545H183.099V39.5955H180.072V41.1552H182.872V42.2962H180.072V43.859H183.111V45H178.688Z" fill="#888888"/>
<path d="M10.7449 23.0531L29.2625 2.26876L48.652 23.5732L30.1376 44.5304L10.7449 23.0531Z" stroke="#FF9900" stroke-width="3"/>
<path d="M53 0H39.1053L20 23H33.8947L53 0Z" fill="#212226"/>
<path d="M53 47H39.1053L20 23H33.8947L53 47Z" fill="#212226"/>
<path d="M39 0H53.3158L73 23H58.6842L39 0Z" fill="#EB292C"/>
<path d="M39 47H53.3158L73 23H58.6842L39 47Z" fill="#EB292C"/>
<rect x="82" y="39" width="5" height="5" fill="#FF9900"/>
</svg>
